<svg width="948" height="922" viewBox="0 0 948 922" fill="none" xmlns="http://www.w3.org/2000/svg">
<g clip-path="url(#clip0_63_777)">
<ellipse cx="482.499" cy="817.5" rx="197.5" ry="36.5" fill="#F1F1F1"/>
<path d="M692.524 673.232C668.312 679.549 638.573 666.854 626.729 658.959L637.257 602.374C668.838 609.744 688.573 595.59 695.156 589.218C709.631 575.209 758.098 496.101 825.43 518.177C866.222 531.552 879.531 585.972 850.432 610.273C841.22 617.965 825.43 622.116 810.955 617.965C797.733 614.173 793.848 600.857 779.373 602.374C772.7 603.074 763.672 610.652 753.055 629.808C738.581 655.924 722.79 665.337 692.524 673.232Z" fill="#FDD4DD"/>
<path d="M771.104 521.838C769.135 523.078 767.087 524.263 765.126 525.218C755.682 524.923 745.262 537.998 745.262 537.998C745.272 538.062 749.515 567.291 764.964 570.882C785.348 574.222 784.606 538.837 783.162 522.214L771.104 521.838Z" fill="#D8718A"/>
<path d="M711.754 569.189C710.006 570.733 708.168 572.244 706.369 573.53C696.75 575.322 688.813 589.303 688.799 589.327C688.799 589.327 698.954 614.681 715.345 614.533C736.671 613.085 728.834 581.496 724.043 566.899L711.754 569.189Z" fill="#D8718A"/>
<path d="M626.729 659.041C638.573 666.936 666.666 678.07 692.524 673.314C721.137 668.052 738.581 656.006 753.055 629.89C763.672 610.734 771.478 603.616 779.373 602.457C792.982 600.458 797.733 614.255 810.955 618.047C825.43 622.198 841.22 618.047 850.432 610.355C879.531 586.054 866.222 531.634 825.43 518.259C758.098 496.183 709.631 575.291 695.156 589.301C688.573 595.672 668.838 609.826 637.257 602.457" stroke="#302025" stroke-width="15"/>
<path d="M542.512 760.388C542.512 760.388 533.301 813.69 497.772 816.972C426.713 823.535 428.152 635.355 428.152 635.355C428.152 635.355 386.17 614.301 362.233 614.301C312.235 614.301 258.275 598.51 297.755 564.297C337.236 530.083 431.95 559.033 431.95 559.033L571.461 544.558C571.461 544.558 607.841 518.536 631.993 509.029C656.144 499.522 729.369 494.573 729.369 524.839C729.369 555.106 652.868 568.244 652.868 568.244C652.868 568.244 664.381 593.138 668.811 610.353C673.24 627.568 675.553 656.409 675.553 656.409C675.553 656.409 741.396 706.734 708.499 737C666.108 776 636.538 706.697 599.095 709.069C582.848 710.098 581.62 712.341 567.514 720.912C548.981 732.172 542.512 760.388 542.512 760.388Z" fill="#FDD4DD"/>
<path d="M602.402 643.556C608.077 663.854 596.223 684.908 575.925 690.583C555.628 696.258 534.573 684.404 528.899 664.106C523.224 643.809 537.912 632.893 558.21 627.218C578.507 621.543 596.727 623.259 602.402 643.556Z" fill="#FEFFFE"/>
<path d="M575.217 541.274C607.851 510.745 654.802 500.325 679.365 498.57C703.928 496.816 738.58 499.838 729.369 529.034C723.888 546.407 697.788 552.813 684.629 556.499C675.234 559.131 652.864 567.592 652.864 567.592C687.499 601 677.499 652 677.499 652C677.499 652 758.817 721.685 699.499 746.553C655.499 765 639.889 715.736 610.756 709.729C601.77 707.876 555.671 704.199 539.734 766.856C531.985 797.321 517.318 818.928 496.263 818.928C452.854 818.928 446.259 766.856 440.995 746.553C431.288 709.118 425.218 667.6 430.488 634.702C408.07 621.362 373.067 611.624 327.8 609.519C282.534 607.413 282.73 589.686 285.712 579.253C293.608 551.619 359.377 531.881 430.488 558.199" stroke="#302025" stroke-width="15" stroke-linecap="round" stroke-linejoin="round"/>
<path d="M301.323 550.648C339.944 573.675 411.758 576.639 411.758 576.639L597.3 554.643C597.3 554.643 843.955 511.515 702.518 268.532C703.821 145.39 671.592 100.81 655.314 93.9127C605.861 88.0979 551.459 153.06 531.014 185.527C476.421 172.122 423.087 191.696 393.648 200.464C324.216 133.429 273.458 132.998 256.757 141.162C216.941 180.865 232.434 278.765 245.157 322.752C214.677 401.594 208.644 495.391 301.323 550.648Z" fill="#FDD4DD"/>
<path d="M483.633 185.907C485.932 192.443 487.669 199.879 488.613 207.842C491.95 235.988 484.125 260.053 471.134 261.594C458.144 263.134 444.908 241.565 441.571 213.419C440.627 205.456 440.577 197.82 441.284 190.928L483.633 185.907Z" fill="#D8718A"/>
<path d="M403.744 201.432C413.336 198.877 426.652 195.526 426.704 195.513C426.726 195.665 433.136 241.153 418.196 248.641C392.049 259.583 391.6 205.213 391.6 205.213C391.626 205.202 395.623 203.465 403.744 201.432Z" fill="#D8718A"/>
<path d="M521.269 187.362C511.72 187.13 498.5 186.998 498.5 186.998C498.513 187.133 502.696 232.872 518.327 236.644C545.195 241.142 533.456 188.187 533.456 188.187C533.456 188.187 529.334 187.432 521.269 187.362Z" fill="#D8718A"/>
<path d="M411.77 576.701C411.77 576.701 339.957 573.737 301.336 550.71C208.657 495.453 214.69 401.655 245.17 322.813C232.446 278.826 216.953 180.926 256.77 141.223C273.47 133.059 324.229 133.491 393.661 200.526C423.099 191.758 476.433 172.184 531.027 185.588C551.472 153.122 605.874 88.1594 655.327 93.9743C671.604 100.872 703.833 145.452 702.53 268.593C843.968 511.577 597.312 554.705 597.312 554.705" stroke="#302025" stroke-width="15" stroke-linecap="round"/>
<path d="M212.211 491.902C220.083 475.028 238.211 451.703 272.268 433.689" stroke="#302025" stroke-width="15" stroke-linecap="round"/>
<path d="M770.907 412.692C759.453 398.013 736.556 379.346 699.327 369.428" stroke="#302025" stroke-width="15" stroke-linecap="round"/>
<path d="M175.876 441.973C188.317 428.12 212.448 411.079 250.274 403.756" stroke="#302025" stroke-width="15" stroke-linecap="round"/>
<path d="M795.116 355.874C779.885 345.164 752.547 333.968 714.043 335.313" stroke="#302025" stroke-width="15" stroke-linecap="round"/>
<path d="M273.879 196.159C261.937 199.112 263.265 248.892 272.878 283.399C273.409 285.307 275.786 285.906 277.205 284.524C282.669 279.202 294.251 268.161 302.842 261.629C311.956 254.7 325.715 246.754 331.241 243.641C332.556 242.901 333.001 241.216 332.187 239.945C318.756 218.949 294.971 190.944 273.879 196.159Z" fill="#FDE2E5" stroke="#EEB8C3" stroke-width="15" stroke-linecap="round"/>
<path d="M644.981 152.167C657.281 152.245 667.63 200.956 666.352 236.754C666.281 238.733 664.11 239.871 662.408 238.86C655.85 234.962 642.009 226.936 632.128 222.594C621.646 217.988 606.411 213.479 600.31 211.745C598.859 211.332 598.032 209.798 598.526 208.372C606.676 184.818 623.254 152.028 644.981 152.167Z" fill="#FDE2E5" stroke="#EEB8C3" stroke-width="15" stroke-linecap="round"/>
<path d="M308.205 368.8C308.433 369.468 308.871 370.064 309.479 370.444C310.086 370.825 310.806 370.961 311.492 370.819C312.178 370.678 312.786 370.269 313.193 369.68C313.601 369.09 313.768 368.37 313.714 367.666C313.714 367.666 313.714 367.666 313.714 367.666C313.585 365.481 313.773 363.234 314.153 361.012C317.483 344.042 329.128 328.183 343.345 322.6C345.98 321.57 348.777 320.753 351.66 320.117C371.091 316.171 393.225 318.401 412.263 327.487C414.371 328.531 416.436 329.688 418.428 330.968C419.02 331.353 419.732 331.551 420.445 331.476C421.157 331.401 421.808 331.065 422.261 330.53C422.714 329.996 422.94 329.299 422.897 328.584C422.855 327.868 422.542 327.198 422.066 326.677C422.066 326.677 422.066 326.677 422.066 326.677C420.287 324.76 418.357 322.961 416.322 321.292C397.688 306.52 372.63 300.579 348.431 305.469C344.804 306.269 341.193 307.379 337.67 308.899C316.684 318.482 306.183 340.144 306.754 360.679C306.915 363.403 307.342 366.146 308.205 368.8Z" fill="#302025"/>
<path d="M655.901 326.005C655.883 326.711 655.643 327.411 655.176 327.955C654.71 328.5 654.064 328.844 653.366 328.914C652.669 328.984 651.967 328.775 651.402 328.334C650.837 327.893 650.463 327.255 650.304 326.567C650.304 326.567 650.304 326.567 650.304 326.567C649.758 324.237 649.102 321.948 648.298 319.801C641.871 300.811 622.308 296.456 603.05 296.764C601.622 296.777 600.195 296.832 598.768 296.927C578.677 298.242 558.968 307.764 540.076 319.147C537.968 320.42 535.872 321.715 533.773 323.038C533.176 323.415 532.461 323.604 531.749 323.518C531.037 323.433 530.392 323.087 529.946 322.546C529.501 322.005 529.285 321.305 529.338 320.591C529.391 319.876 529.713 319.21 530.197 318.696C530.197 318.696 530.197 318.696 530.197 318.696C531.941 316.855 533.719 315.054 535.549 313.285C551.813 297.59 572.776 283.709 597.77 281.961C599.522 281.844 601.281 281.79 603.044 281.802C614.052 281.924 625.702 283.554 636.239 289.485C646.93 295.22 654.365 306.87 655.501 318.078C655.851 320.745 655.958 323.427 655.901 326.005Z" fill="#302025"/>
<path d="M487.24 366.848C487.24 366.848 499.389 372.556 505.662 374.374C518.292 378.036 529.097 371.639 540.304 366.832C554.296 404.673 554.791 488.136 497.766 484.029C472.655 482.221 441.185 462.952 437.233 378.335C457.944 387.522 472.765 381.378 487.24 366.848Z" fill="#1F1919"/>
<ellipse cx="484.762" cy="345.487" rx="23.6861" ry="15.7907" transform="rotate(-6.76084 484.762 345.487)" fill="#211A19"/>
<path d="M540.53 452.266C544.886 464.949 532.979 473.332 521.456 477.455C514.25 480.033 493.156 490.84 488.557 477.455C485.915 469.764 492.506 456.407 514.871 448.501C528.747 443.596 538.39 446.037 540.53 452.266Z" fill="#D8718A"/>
<path d="M541.447 365.293L535.839 360.313C537.739 358.172 540.692 357.3 543.45 358.065C546.209 358.83 548.291 361.098 548.818 363.911L541.447 365.293ZM436.532 374.482L429.052 375.038C428.812 371.804 430.677 368.782 433.676 367.547C436.675 366.313 440.127 367.145 442.234 369.61L436.532 374.482ZM508.289 482.697L509.179 490.144L509.179 490.144L508.289 482.697ZM478.515 355.589C478.027 351.476 480.965 347.745 485.078 347.257C489.192 346.769 492.922 349.707 493.41 353.82L485.963 354.705L478.515 355.589ZM541.447 365.293C548.818 363.911 548.819 363.913 548.819 363.916C548.819 363.917 548.82 363.92 548.82 363.923C548.822 363.929 548.823 363.936 548.825 363.945C548.828 363.963 548.833 363.988 548.838 364.02C548.85 364.083 548.866 364.172 548.887 364.287C548.928 364.517 548.987 364.849 549.06 365.277C549.206 366.133 549.41 367.374 549.649 368.946C550.127 372.088 550.744 376.562 551.311 381.945C552.441 392.676 553.39 407.174 552.588 421.983C551.793 436.664 549.249 452.329 542.942 464.98C536.487 477.929 525.791 488.16 509.179 490.144L508.289 482.697L507.4 475.25C517.763 474.012 524.698 467.955 529.518 458.288C534.486 448.321 536.859 435.037 537.61 421.172C538.354 407.436 537.476 393.792 536.394 383.516C535.854 378.396 535.268 374.151 534.82 371.2C534.596 369.725 534.406 368.576 534.274 367.803C534.208 367.417 534.157 367.126 534.122 366.935C534.105 366.84 534.093 366.77 534.084 366.726C534.08 366.704 534.078 366.689 534.076 366.68C534.075 366.676 534.075 366.673 534.074 366.672C534.074 366.672 534.074 366.672 534.074 366.672C534.075 366.673 534.075 366.674 541.447 365.293ZM508.289 482.697L509.179 490.144C490.718 492.349 476.133 485.395 465.103 474.246C454.315 463.342 446.859 448.416 441.669 433.952C436.443 419.388 433.302 404.681 431.466 393.688C430.544 388.173 429.944 383.55 429.573 380.29C429.387 378.659 429.259 377.367 429.176 376.473C429.134 376.026 429.104 375.678 429.084 375.436C429.074 375.315 429.067 375.221 429.061 375.155C429.059 375.121 429.057 375.095 429.055 375.076C429.055 375.066 429.054 375.058 429.053 375.052C429.053 375.049 429.053 375.045 429.053 375.044C429.053 375.041 429.052 375.038 436.532 374.482C444.011 373.926 444.011 373.925 444.011 373.924C444.011 373.924 444.011 373.923 444.011 373.924C444.011 373.925 444.011 373.927 444.012 373.931C444.012 373.94 444.013 373.955 444.015 373.978C444.019 374.022 444.024 374.094 444.033 374.192C444.049 374.388 444.075 374.689 444.112 375.088C444.186 375.886 444.304 377.074 444.477 378.593C444.823 381.635 445.388 385.996 446.261 391.216C448.011 401.692 450.968 415.453 455.788 428.886C460.643 442.419 467.18 455.018 475.766 463.696C484.111 472.131 494.284 476.817 507.4 475.25L508.289 482.697ZM541.447 365.293C547.055 370.273 547.052 370.276 547.048 370.279C547.047 370.281 547.044 370.284 547.042 370.287C547.037 370.292 547.032 370.297 547.027 370.303C547.017 370.315 547.005 370.328 546.991 370.343C546.965 370.372 546.933 370.407 546.896 370.447C546.821 370.528 546.725 370.631 546.608 370.753C546.373 370.997 546.051 371.321 545.646 371.706C544.837 372.476 543.684 373.499 542.203 374.632C539.256 376.887 534.928 379.638 529.361 381.639C517.911 385.753 502.043 386.367 483.629 374.869L487.601 368.508L491.574 362.146C505.962 371.13 517.016 370.136 524.288 367.522C528.083 366.159 531.065 364.267 533.089 362.719C534.094 361.949 534.841 361.282 535.311 360.835C535.545 360.613 535.708 360.447 535.797 360.354C535.841 360.308 535.867 360.28 535.875 360.272C535.878 360.269 535.877 360.27 535.871 360.276C535.868 360.28 535.864 360.284 535.858 360.29C535.856 360.293 535.853 360.297 535.849 360.3C535.848 360.302 535.845 360.305 535.844 360.306C535.841 360.309 535.839 360.313 541.447 365.293ZM487.601 368.508L492.755 373.957C475.733 390.054 460.438 392.694 448.629 389.797C443.001 388.417 438.641 385.886 435.7 383.723C434.221 382.636 433.07 381.62 432.261 380.844C431.855 380.455 431.532 380.123 431.294 379.869C431.174 379.742 431.076 379.634 430.999 379.547C430.96 379.504 430.927 379.466 430.898 379.434C430.884 379.418 430.872 379.403 430.86 379.39C430.854 379.383 430.849 379.377 430.844 379.371C430.841 379.368 430.838 379.364 430.837 379.362C430.833 379.358 430.83 379.354 436.532 374.482C442.234 369.61 442.231 369.606 442.227 369.603C442.226 369.602 442.223 369.598 442.221 369.596C442.218 369.591 442.214 369.587 442.211 369.583C442.204 369.576 442.199 369.57 442.194 369.565C442.186 369.555 442.181 369.55 442.182 369.55C442.182 369.55 442.2 369.57 442.234 369.607C442.304 369.682 442.441 369.824 442.643 370.018C443.049 370.407 443.703 370.99 444.585 371.638C446.364 372.946 448.947 374.431 452.202 375.229C458.161 376.691 468.401 376.343 482.448 363.059L487.601 368.508ZM485.963 354.705L493.41 353.82L495.049 367.624L487.601 368.508L480.154 369.392L478.515 355.589L485.963 354.705Z" fill="#211A19"/>
</g>
<defs>
<clipPath id="clip0_63_777">
<rect width="948" height="922" fill="white"/>
</clipPath>
</defs>
</svg>
