<svg width="948" height="922" viewBox="0 0 948 922" fill="none" xmlns="http://www.w3.org/2000/svg">
<ellipse cx="388.5" cy="754.065" rx="270.5" ry="57.5" fill="#F1F1F1"/>
<path d="M604.795 727.484C580.582 733.801 550.843 721.106 539 713.211L549.527 656.626C581.109 663.995 600.844 649.842 607.427 643.47C621.901 629.461 670.369 550.353 737.7 572.429C778.493 585.804 791.801 640.224 762.702 664.525C753.491 672.217 737.7 676.368 723.225 672.217C710.004 668.425 706.119 655.109 691.644 656.626C684.971 657.326 675.943 664.904 665.326 684.06C650.851 710.176 635.06 719.589 604.795 727.484Z" fill="#FDD4DD"/>
<path d="M683.374 576.09C681.405 577.33 679.358 578.515 677.396 579.469C667.953 579.174 657.533 592.249 657.533 592.249C657.542 592.31 661.785 621.542 677.234 625.133C697.618 628.473 696.876 593.089 695.432 576.466L683.374 576.09Z" fill="#D8718A"/>
<path d="M624.025 623.442C622.276 624.986 620.436 626.498 618.637 627.784C609.026 629.575 601.095 643.533 601.068 643.581C601.068 643.581 611.223 668.935 627.614 668.787C648.94 667.339 641.102 635.748 636.312 621.152L624.025 623.442Z" fill="#D8718A"/>
<path d="M539 713.295C550.843 721.19 578.936 732.324 604.795 727.568C633.407 722.306 650.851 710.26 665.326 684.144C675.943 664.988 683.748 657.87 691.644 656.71C705.252 654.712 710.004 668.509 723.225 672.301C737.7 676.452 753.491 672.301 762.702 664.609C791.801 640.308 778.493 585.888 737.7 572.513C670.369 550.437 621.901 629.545 607.427 643.554C600.844 649.926 581.109 664.079 549.527 656.71" stroke="#302025" stroke-width="15"/>
<path d="M294.869 706.401C292.869 691.401 358.869 694.901 358.869 694.901L394.365 591.401L566.869 632.901L590.369 707.401C590.369 707.401 632.369 728.432 607.369 753.401C596.371 764.386 575.369 760.401 575.369 760.401C575.369 760.401 559.369 761.401 553.365 756.401C547.361 751.401 530.869 733.901 530.869 733.901C530.869 733.901 517.369 782.322 475.369 777.901C446.869 774.901 440.865 752.401 440.865 752.401C440.865 752.401 325.51 753.45 322.365 752.401C311.865 748.902 296.71 720.21 294.869 706.401Z" fill="#FDD4DD"/>
<path d="M271.868 546.4C299.959 581.51 373.409 602.592 373.409 602.592L566.868 634.901C566.868 634.901 860 622.567 744.5 419.066C775.132 291.233 753.192 250.068 740.368 237.9C696.096 215.109 648.868 254.9 622.368 290.4C559.868 238.901 476.868 263.9 476.868 263.9C476.868 263.9 516.868 179.401 450.368 174.4C390.868 184.4 315.381 288.745 311.868 334.4C243.367 383.901 204.458 462.146 271.868 546.4Z" fill="#FDD4DD"/>
<path d="M370.261 366.14C370.055 366.812 370.054 367.548 370.313 368.212C370.573 368.877 371.065 369.413 371.695 369.708C372.326 370.004 373.052 370.039 373.729 369.813C374.406 369.587 374.97 369.115 375.355 368.527C375.355 368.527 375.355 368.527 375.355 368.527C376.461 366.906 377.801 365.433 379.272 364.087C392.309 352.98 410.974 348.671 427.055 350.396C428.054 350.515 429.014 350.65 429.991 350.809C447.509 353.448 463.029 364.164 474.599 379.773C475.888 381.494 477.13 383.269 478.318 385.085C478.7 385.675 479.263 386.149 479.939 386.377C480.615 386.605 481.342 386.572 481.973 386.279C482.605 385.986 483.099 385.452 483.361 384.788C483.623 384.124 483.624 383.389 483.42 382.717C483.42 382.717 483.42 382.717 483.42 382.717C482.738 380.505 481.949 378.31 481.057 376.147C473.48 356.742 454.99 339.237 432.402 336.004C431.17 335.804 429.962 335.643 428.711 335.511C407.337 333.629 385.836 342.049 373.553 359.381C372.197 361.472 371.046 363.732 370.261 366.14Z" fill="#302025"/>
<path d="M674.762 430.844C674.619 431.527 674.275 432.172 673.735 432.634C673.197 433.096 672.516 433.337 671.826 433.303C671.137 433.269 670.483 432.963 669.992 432.451C669.5 431.939 669.22 431.263 669.144 430.569C669.144 430.569 669.144 430.569 669.144 430.569C668.925 428.646 668.644 426.756 668.288 424.909C665.394 407.74 654.203 397.293 638.954 392.421C637 391.755 635.015 391.162 632.935 390.612C620.412 388.152 604.212 387.88 590.118 390.846C588.293 391.262 586.487 391.76 584.715 392.37C584.057 392.604 583.327 392.647 582.651 392.427C581.977 392.208 581.416 391.752 581.086 391.146C580.755 390.54 580.676 389.822 580.857 389.136C581.038 388.45 581.468 387.859 582.021 387.432C582.021 387.432 582.021 387.432 582.021 387.432C583.729 386.145 585.539 384.991 587.408 383.954C602.467 376.208 618.447 373.376 636.447 376.16C638.944 376.724 641.37 377.397 643.797 378.225C663.023 383.264 679.035 405.308 675.688 424.608C675.492 426.724 675.175 428.803 674.762 430.844Z" fill="#302025"/>
<path d="M468.867 654.281C468.867 666.774 453.197 676.901 433.867 676.901C414.537 676.901 398.867 666.774 398.867 654.281C398.867 641.789 414.537 637.901 433.867 637.901C453.197 637.901 468.867 641.789 468.867 654.281Z" fill="#FEFFFE"/>
<path d="M595.074 274.034C595.074 274.034 575.118 306.269 583.545 316.501C598.992 332.758 617.479 292.116 617.479 292.116C617.479 292.116 615.141 289.58 609.87 285.542C603.704 280.663 595.074 274.034 595.074 274.034Z" fill="#D8718A"/>
<path d="M512.299 255.487C512.299 255.487 513.187 294.795 499.754 299.647C476.501 306.292 481.582 260.181 481.582 260.181C481.582 260.181 485.143 259.106 492.251 258.197C500.651 256.993 512.299 255.487 512.299 255.487Z" fill="#D8718A"/>
<path d="M573.748 263.228C573.748 263.228 563.165 301.096 548.902 301.831C524.721 301.426 542.994 258.785 542.994 258.785C542.994 258.785 546.713 258.793 553.778 259.99C562.166 261.282 573.748 263.228 573.748 263.228Z" fill="#D8718A"/>
<path d="M212.867 461.973C226.026 448.8 251.028 433.064 289.189 427.76" stroke="#302025" stroke-width="15" stroke-linecap="round"/>
<path d="M477.191 654.114C445.369 616.401 341.369 618.901 362.369 709.401" stroke="#302025" stroke-width="15" stroke-linecap="round"/>
<path d="M359.367 691.401C359.367 691.401 329.867 691.401 309.867 694.901C301.246 696.41 295.867 703.201 295.867 712.401C295.867 723.901 307.367 748.901 323.867 751.901C337.067 754.301 392.701 751.235 418.867 749.401" stroke="#302025" stroke-width="15" stroke-linecap="round"/>
<path d="M200.868 402.634C217.291 393.861 245.79 386.082 283.843 392.112" stroke="#302025" stroke-width="15" stroke-linecap="round"/>
<path d="M725.191 544.973C712.032 531.8 687.03 516.064 648.87 510.76" stroke="#302025" stroke-width="15" stroke-linecap="round"/>
<path d="M742.296 485.634C725.873 476.861 697.374 469.082 659.321 475.112" stroke="#302025" stroke-width="15" stroke-linecap="round"/>
<path d="M435.489 214.09C427.534 204.546 388.427 257.36 368.294 288.297C367.753 289.128 368.629 290.164 369.543 289.779C376.236 286.96 392.63 280.351 405.49 277.591C420.371 274.396 437.441 272.1 440.763 271.665C441.124 271.618 441.42 271.392 441.544 271.049C446.395 257.632 442.889 222.968 435.489 214.09Z" fill="#FDE2E5" stroke="#EEB8C3" stroke-width="5" stroke-linecap="round"/>
<path d="M718.117 274.86C723.651 274.379 733.895 325.715 718.928 358.17C718.593 358.897 717.576 358.937 717.152 358.258C714.546 354.079 706.768 342.5 695.117 332.858C682.985 322.817 666.902 317.176 661.974 315.602C661.276 315.379 661.028 314.508 661.511 313.956C677.601 295.543 695.6 276.819 718.117 274.86Z" fill="#FDE2E5" stroke="#EEB8C3" stroke-width="5" stroke-linecap="round"/>
<path d="M398.367 734.401C404.201 740.235 420.067 752.101 436.867 752.901" stroke="#302025" stroke-width="15" stroke-linecap="round"/>
<path d="M347.867 625.399C350.867 595.399 383.519 587.76 411.367 592.401C454.367 599.567 450.534 623.732 444.367 635.899C438.2 648.066 376.867 659.398 366.367 655.899C355.867 652.399 346.481 639.26 347.867 625.399Z" fill="#FDD4DD" stroke="#302025" stroke-width="15" stroke-linecap="round"/>
<path d="M501.367 738.401C503.368 721.401 496.868 699.015 470.868 697.401C443.122 695.679 429.074 745.808 450.368 765.401C460.693 774.901 475.37 780.108 495.868 773.401C525.868 763.586 538.867 723.901 538.867 661.401" stroke="#302025" stroke-width="15" stroke-linecap="round"/>
<path d="M530.867 731.901C537.534 741.401 553.572 758.931 563.867 760.401C570.867 761.401 592.367 761.401 601.367 756.401C610.367 751.401 630.267 733.601 593.867 710.401C587.534 701.235 573.267 673.301 566.867 634.901" stroke="#302025" stroke-width="15" stroke-linecap="round"/>
<path d="M548.368 633.901C635.368 633.901 672.85 622.66 717.368 600.401C744.368 586.901 804.368 516.901 743.368 410.901C752.868 368.401 771.368 279.401 743.368 241.401C727.368 222.901 681.868 218.701 623.868 289.901C604.868 275.901 550.468 245.601 478.868 262.401C488.868 238.568 491.25 181.63 456.868 175.901C432.868 171.901 339.868 226.901 311.868 334.901C279.535 354.068 228.627 407.802 235.868 467.401C242.368 520.901 287.868 587.401 358.368 601.401" stroke="#302025" stroke-width="15" stroke-linecap="round" stroke-linejoin="round"/>
<path d="M417.867 436.901C436.201 469.401 493.467 519.001 575.867 457.401" stroke="#302025" stroke-width="15" stroke-linecap="round" stroke-linejoin="round"/>
<path d="M499.355 416.901C499.355 416.901 482.347 461.401 488.848 482.901" stroke="#302025" stroke-width="15" stroke-linecap="round" stroke-linejoin="round"/>
<ellipse cx="500.053" cy="412.692" rx="23.6861" ry="15.7907" fill="#211A19"/>
</svg>
