<svg width="948" height="922" viewBox="0 0 948 922" fill="none" xmlns="http://www.w3.org/2000/svg">
<g clip-path="url(#clip0_63_857)">
<ellipse cx="492.001" cy="779.5" rx="266" ry="49.5" fill="#F1F1F1"/>
<path d="M646.674 760.275C622.461 766.592 592.722 753.897 580.879 746.002L591.406 689.417C622.988 696.786 642.723 682.633 649.305 676.261C663.78 662.252 712.248 583.144 779.579 605.22C820.372 618.595 833.68 673.015 804.581 697.316C795.37 705.008 779.579 709.159 765.104 705.008C751.883 701.216 747.998 687.9 733.523 689.417C726.849 690.117 717.822 697.695 707.205 716.851C692.73 742.967 676.939 752.38 646.674 760.275Z" fill="#FDD4DD"/>
<path d="M725.251 608.881C723.282 610.121 721.235 611.306 719.273 612.26C709.83 611.965 699.41 625.04 699.41 625.04C699.419 625.101 703.662 654.333 719.111 657.924C739.495 661.264 738.753 625.88 737.309 609.257L725.251 608.881Z" fill="#D8718A"/>
<path d="M665.901 656.233C664.153 657.777 662.313 659.289 660.514 660.575C650.903 662.366 642.972 676.324 642.945 676.372C642.945 676.372 653.1 701.726 669.491 701.578C690.817 700.13 682.979 668.539 678.189 653.943L665.901 656.233Z" fill="#D8718A"/>
<path d="M580.879 746.086C592.722 753.981 620.815 765.115 646.674 760.359C675.286 755.097 692.73 743.051 707.205 716.935C717.822 697.779 725.627 690.661 733.523 689.501C747.131 687.503 751.883 701.3 765.104 705.092C779.579 709.243 795.37 705.092 804.581 697.4C833.68 673.099 820.372 618.679 779.579 605.304C712.248 583.228 663.78 662.336 649.305 676.345C642.723 682.717 622.988 696.87 591.406 689.501" stroke="#302025" stroke-width="15"/>
<path d="M361.149 714.525C349.573 664.815 353.243 625.044 371.648 590.831H588.772C619.301 680.312 582.193 752.686 582.193 752.686C582.193 752.686 582.193 794.795 541.4 793.479C496.66 796.111 495.366 753.23 495.366 747.967C495.366 742.703 463.187 740.071 462.469 747.967C459.049 785.583 440.076 793.479 419.022 793.479C375.613 793.479 367.993 743.916 361.149 714.525Z" fill="#FDD4DD"/>
<path d="M371.648 590.831C353.243 625.044 349.573 664.815 361.149 714.525C367.993 743.916 375.613 793.479 419.022 793.479C440.076 793.479 459.049 785.583 462.469 747.967C463.187 740.071 495.366 742.703 495.366 747.967C495.366 753.23 496.66 796.111 541.4 793.479C582.193 794.795 582.193 752.686 582.193 752.686C582.193 752.686 619.301 680.312 588.772 590.831" stroke="#302025" stroke-width="15" stroke-linecap="round"/>
<path d="M515.067 678.996C515.067 700.072 497.982 717.157 476.906 717.157C455.83 717.157 438.745 700.072 438.745 678.996C438.745 657.92 455.83 651.362 476.906 651.362C497.982 651.362 515.067 657.92 515.067 678.996Z" fill="#FEFFFE"/>
<path d="M275.587 552.612C311.228 580.026 382.194 591.424 382.194 591.424L569.035 591.424C569.035 591.424 819.052 577.633 707.204 319.688C722.994 197.557 696.238 149.493 680.886 140.727C632.461 129.13 570.789 187.237 546.665 217.071C494.029 197.332 438.761 210.491 408.496 215.733C347.438 140.99 297.083 134.586 279.538 140.727C235.324 175.466 239.184 274.509 246.641 319.688C207.091 394.394 190.057 486.829 275.587 552.612Z" fill="#FDD4DD"/>
<path d="M499.566 211.868C501.08 218.629 501.93 226.219 501.93 234.238C501.93 262.581 491.325 285.558 478.244 285.559C465.163 285.559 454.558 262.581 454.558 234.238C454.558 226.219 455.407 218.629 456.921 211.868H499.566Z" fill="#D8718A"/>
<path d="M418.403 217.882C428.221 216.476 441.824 214.716 441.9 214.707C441.9 214.707 442.941 260.778 427.197 266.464C399.968 274.246 405.888 220.305 405.899 220.208C405.899 220.208 410.072 218.949 418.403 217.882Z" fill="#D8718A"/>
<path d="M536.767 217.743C527.312 216.388 514.2 214.7 514.2 214.7C514.2 214.7 512.943 260.74 528.044 266.335C554.169 273.958 548.784 220.104 548.773 219.997C548.773 219.997 544.769 218.762 536.767 217.743Z" fill="#D8718A"/>
<path d="M382.199 591.485C382.199 591.485 311.234 580.087 275.593 552.674C190.063 486.89 207.096 394.456 246.646 319.75C239.19 274.571 235.33 175.528 279.544 140.788C297.089 134.647 347.444 141.051 408.501 215.794C438.767 210.553 494.035 197.394 546.67 217.132C570.795 187.298 632.467 129.192 680.892 140.788C696.244 149.554 723 197.618 707.209 319.75C819.058 577.694 569.041 591.485 569.041 591.485" stroke="#302025" stroke-width="15" stroke-linecap="round"/>
<path d="M187.422 535.501C200.581 522.329 225.583 506.593 263.744 501.288" stroke="#302025" stroke-width="15" stroke-linecap="round"/>
<path d="M765.1 535.501C751.941 522.329 726.939 506.593 688.778 501.288" stroke="#302025" stroke-width="15" stroke-linecap="round"/>
<path d="M170.316 476.162C186.739 467.389 215.238 459.61 253.291 465.64" stroke="#302025" stroke-width="15" stroke-linecap="round"/>
<path d="M782.206 476.162C765.784 467.389 737.284 459.61 699.231 465.64" stroke="#302025" stroke-width="15" stroke-linecap="round"/>
<path d="M290.062 197.36C277.856 198.886 273.314 248.477 278.797 283.875C279.101 285.832 281.391 286.707 282.962 285.502C289.015 280.86 301.816 271.26 311.116 265.784C320.983 259.976 335.582 253.706 341.435 251.265C342.828 250.684 343.468 249.063 342.81 247.705C331.944 225.274 311.621 194.664 290.062 197.36Z" fill="#FDE2E5" stroke="#EEB8C3" stroke-width="15" stroke-linecap="round"/>
<path d="M663.761 197.36C675.967 198.886 680.51 248.477 675.026 283.875C674.723 285.832 672.433 286.707 670.861 285.502C664.808 280.86 652.008 271.26 642.707 265.784C632.84 259.976 618.242 253.706 612.388 251.265C610.995 250.684 610.355 249.063 611.013 247.705C621.879 225.274 642.202 194.664 663.761 197.36Z" fill="#FDE2E5" stroke="#EEB8C3" stroke-width="15" stroke-linecap="round"/>
<path d="M322.83 442.435C322.979 443.125 323.343 443.768 323.902 444.218C324.46 444.667 325.159 444.887 325.857 444.827C326.555 444.768 327.206 444.433 327.68 443.895C328.155 443.358 328.406 442.662 328.435 441.957C328.435 441.957 328.435 441.957 328.435 441.957C328.564 439.773 329.015 437.563 329.654 435.401C334.959 418.941 348.39 404.564 363.166 400.693C365.903 399.98 368.777 399.498 371.715 399.206C391.475 397.575 413.193 402.396 431.029 413.659C432.999 414.945 434.913 416.337 436.741 417.842C437.283 418.294 437.967 418.575 438.684 418.584C439.4 418.594 440.086 418.336 440.599 417.858C441.112 417.381 441.418 416.716 441.46 416C441.502 415.285 441.27 414.583 440.858 414.009C440.858 414.009 440.858 414.009 440.858 414.009C439.318 411.896 437.613 409.882 435.789 407.985C419.023 391.122 394.839 382.273 370.232 384.279C366.537 384.647 362.82 385.324 359.142 386.419C337.174 393.465 324.197 413.74 322.346 434.2C322.185 436.924 322.286 439.698 322.83 442.435Z" fill="#302025"/>
<path d="M642.442 477.664C637.178 479.769 576.203 482.467 546.376 482.906C488.486 415.846 577.963 331.6 633.225 385.53C669.906 421.326 649.021 475.032 642.442 477.664Z" fill="#FEFFFE"/>
<path d="M621.671 478.977C617.845 480.621 593.339 482.574 571.658 482.917C513.768 434.236 578.245 367.129 623.429 406.862C655.881 435.398 626.454 476.921 621.671 478.977Z" fill="#211A19"/>
<path d="M643.394 480.997C642.843 481.457 642.142 481.724 641.416 481.71C640.69 481.696 640.003 481.406 639.499 480.899C638.996 480.391 638.712 479.701 638.704 478.975C638.695 478.249 638.968 477.55 639.433 477.003C639.433 477.003 639.433 477.003 639.433 477.003C641.646 474.365 643.539 471.427 645.133 468.353C657.685 444.077 651.114 415.237 633.876 395.553L634.466 396.194C631.212 393.123 627.832 390.311 624.3 387.804C599.982 368.507 564.832 374.544 543.981 399.703C541.592 402.372 539.363 405.145 537.231 408.089C536.811 408.671 536.197 409.103 535.49 409.268C534.783 409.433 534.045 409.322 533.432 408.954C532.819 408.586 532.374 407.988 532.187 407.286C532 406.584 532.092 405.839 532.408 405.195C532.408 405.195 532.408 405.195 532.408 405.195C534.106 401.76 535.974 398.453 538.093 395.21C554.618 364.5 603.624 350.942 632.978 375.57C637.202 378.567 641.119 381.91 644.779 385.518L645.369 386.159C665.418 409.392 670.132 447.461 651.411 472.283C649.076 475.481 646.409 478.443 643.394 480.997Z" fill="#302025"/>
<circle cx="565.091" cy="422.417" r="15.7907" fill="white"/>
<path d="M571.663 711.958C571.663 711.958 562.452 692.22 559.82 684.324C559.82 684.324 548.551 636.992 565.084 615.898C570.929 608.44 584.825 601.357 584.825 601.357C604.394 613.588 612.988 635.117 625.615 654.059C637.133 671.336 647.531 696.984 632.197 714.59C625.992 721.714 612.177 726.25 611.14 726.433C588.772 730.381 586.219 726.514 571.663 711.958Z" fill="#FDD4DD"/>
<path d="M563.77 694.787C567.717 710.578 575.209 723.297 591.403 727.684C604.047 731.109 615.311 726.962 624.294 721.105C654.566 701.366 638.769 665.837 590.083 596.095" stroke="#302025" stroke-width="15" stroke-linecap="round"/>
<path d="M412.443 593.406C404.769 644.332 371.457 659.389 355.761 660.552C226.698 644.012 245.007 543.729 280.765 528.033C266.231 512.335 264.197 471.569 280.766 468.755C317.74 462.477 329.6 497.511 325.24 517.539C363.609 518.934 372.62 554.746 372.329 572.477L412.443 593.406Z" fill="#FDD4DD"/>
<path d="M360.975 610.817C381.921 592.509 381.049 519.259 326.111 516.643C329.599 498.384 316.519 462.016 283.382 467.763C258.965 471.998 264.762 506.465 278.133 527.103C241.516 550.652 234.548 650.935 359.233 660.527" stroke="#302025" stroke-width="15" stroke-linecap="round"/>
<path d="M298.204 561.916C308.087 553.196 337.446 549.702 344.422 575.123C351.398 600.544 326.109 612.62 308.668 609.004" stroke="#302025" stroke-width="15" stroke-linecap="round"/>
<path d="M307.799 585.587L315.647 581.227" stroke="#302025" stroke-width="15" stroke-linecap="round"/>
<path d="M412.441 592.563L374.932 575.996" stroke="#302025" stroke-width="15" stroke-linecap="round"/>
<path d="M447.043 537.541L441.398 519.995H475.268L489.381 511.897L499.254 519.995L520.423 521.345L538.775 515.925L535.952 533.492C532.187 539.333 524.657 551.286 524.657 552.365C524.657 553.445 514.311 560.027 509.138 563.184L489.381 564.533L468.207 560.463C463.975 557.321 455.511 550.767 455.511 549.687C455.511 548.608 449.866 541.14 447.043 537.541Z" fill="#1F1919"/>
<ellipse cx="486.134" cy="488.191" rx="23.6861" ry="15.7907" fill="#211A19"/>
<path d="M522.98 543.527C522.98 543.527 513.348 561.013 499.272 564.639C485.197 568.265 474.014 561.633 474.014 561.633C474.014 561.633 477.99 545.416 494.555 541.149C510.268 537.102 522.98 543.527 522.98 543.527Z" fill="#D8718A"/>
<path d="M540.09 514.53L535.107 508.924C537.536 506.765 541.079 506.416 543.882 508.059C546.686 509.702 548.112 512.964 547.416 516.138L540.09 514.53ZM434.823 511.304L427.737 513.762C426.501 510.197 428.105 506.269 431.484 504.589C434.862 502.909 438.963 504 441.059 507.137L434.823 511.304ZM487.651 568.481L487.651 560.981V560.981L487.651 568.481ZM478.738 497.485C478.738 493.342 482.095 489.984 486.237 489.983C490.379 489.983 493.738 493.34 493.738 497.482L486.238 497.483L478.738 497.485ZM540.09 514.53C547.416 516.138 547.415 516.14 547.414 516.143C547.414 516.145 547.413 516.148 547.413 516.15C547.412 516.155 547.41 516.161 547.409 516.168C547.406 516.182 547.402 516.198 547.398 516.218C547.389 516.258 547.376 516.311 547.361 516.377C547.331 516.508 547.288 516.689 547.232 516.917C547.121 517.374 546.957 518.018 546.737 518.825C546.296 520.436 545.628 522.701 544.695 525.405C542.839 530.786 539.893 538.033 535.537 545.344C526.939 559.777 511.836 575.981 487.651 575.981L487.651 568.481L487.651 560.981C504.062 560.981 515.179 550.209 522.651 537.667C526.331 531.49 528.882 525.249 530.515 520.514C531.327 518.16 531.901 516.21 532.267 514.871C532.45 514.202 532.58 513.688 532.662 513.353C532.703 513.187 532.731 513.065 532.748 512.992C532.757 512.955 532.762 512.931 532.765 512.919C532.766 512.913 532.767 512.91 532.767 512.911C532.767 512.911 532.767 512.912 532.766 512.914C532.766 512.915 532.766 512.916 532.765 512.917C532.765 512.919 532.764 512.921 540.09 514.53ZM487.651 568.481L487.651 575.981C477.121 575.981 468.061 571.402 460.703 565.333C453.369 559.285 447.304 551.426 442.532 543.915C437.731 536.359 434.052 528.858 431.579 523.276C430.339 520.475 429.39 518.132 428.747 516.474C428.426 515.645 428.179 514.986 428.011 514.524C427.926 514.294 427.861 514.113 427.815 513.984C427.793 513.92 427.775 513.869 427.762 513.832C427.755 513.813 427.75 513.798 427.746 513.786C427.744 513.781 427.742 513.776 427.74 513.771C427.74 513.769 427.739 513.767 427.738 513.766C427.738 513.764 427.737 513.762 434.823 511.304C441.909 508.847 441.908 508.845 441.908 508.844C441.908 508.844 441.907 508.843 441.907 508.842C441.907 508.842 441.907 508.842 441.908 508.843C441.908 508.845 441.91 508.851 441.913 508.859C441.92 508.877 441.931 508.908 441.946 508.952C441.978 509.04 442.028 509.18 442.097 509.368C442.234 509.745 442.447 510.314 442.731 511.048C443.302 512.517 444.16 514.641 445.294 517.201C447.57 522.339 450.911 529.132 455.192 535.871C459.502 542.654 464.582 549.089 470.247 553.761C475.887 558.413 481.681 560.981 487.651 560.981L487.651 568.481ZM540.09 514.53C545.073 520.135 545.069 520.138 545.066 520.141C545.065 520.142 545.061 520.145 545.058 520.148C545.053 520.152 545.048 520.157 545.042 520.162C545.03 520.173 545.017 520.185 545.002 520.197C544.972 520.223 544.936 520.254 544.895 520.29C544.811 520.361 544.703 520.452 544.572 520.559C544.31 520.774 543.953 521.058 543.505 521.393C542.611 522.062 541.345 522.942 539.742 523.893C536.55 525.785 531.927 528.008 526.164 529.339C514.31 532.077 498.48 530.819 481.547 517.233L486.241 511.383L490.934 505.533C504.165 516.149 515.26 516.463 522.789 514.724C526.718 513.817 529.902 512.289 532.093 510.989C533.182 510.344 534.003 509.769 534.521 509.381C534.78 509.187 534.961 509.042 535.061 508.961C535.111 508.92 535.14 508.895 535.148 508.888C535.152 508.885 535.15 508.886 535.144 508.892C535.14 508.895 535.136 508.899 535.13 508.904C535.127 508.907 535.123 508.91 535.119 508.913C535.118 508.915 535.115 508.918 535.114 508.918C535.11 508.921 535.107 508.924 540.09 514.53ZM486.241 511.383L490.717 517.401C471.918 531.383 456.419 532.204 445.033 527.937C439.606 525.903 435.575 522.877 432.909 520.383C431.569 519.13 430.545 517.985 429.833 517.119C429.476 516.685 429.194 516.317 428.987 516.037C428.884 515.896 428.799 515.777 428.732 515.683C428.699 515.635 428.67 515.593 428.646 515.558C428.634 515.541 428.623 515.524 428.613 515.51C428.608 515.503 428.604 515.496 428.599 515.489C428.597 515.486 428.594 515.482 428.593 515.48C428.59 515.476 428.587 515.471 434.823 511.304C441.059 507.137 441.056 507.133 441.053 507.129C441.053 507.128 441.05 507.124 441.048 507.122C441.045 507.117 441.042 507.112 441.039 507.108C441.034 507.1 441.029 507.093 441.025 507.087C441.018 507.076 441.014 507.071 441.014 507.071C441.014 507.072 441.03 507.093 441.06 507.134C441.12 507.216 441.24 507.374 441.417 507.59C441.775 508.024 442.355 508.68 443.155 509.428C444.768 510.936 447.158 512.715 450.297 513.891C456.042 516.044 466.251 516.904 481.765 505.365L486.241 511.383ZM486.238 497.483L493.738 497.482L493.741 511.382L486.241 511.383L478.741 511.385L478.738 497.485L486.238 497.483Z" fill="#211A19"/>
</g>
<defs>
<clipPath id="clip0_63_857">
<rect width="948" height="922" fill="white"/>
</clipPath>
</defs>
</svg>
