<svg width="583" height="783" viewBox="0 0 583 783" fill="none" xmlns="http://www.w3.org/2000/svg">
<g clip-path="url(#clip0_70_1372)">
<path d="M520.5 728.719L589.5 760.219C589.5 760.219 603.9 700.446 611 661.719C646.215 469.639 618 161.719 618 161.719L596 116.219L568 78.7193L522 31.2193C522 31.2193 502.812 14.9372 489 17.2193C469.539 20.4349 458 65.2197 458 65.2197L439.5 125.719L436 172.719L382.001 181.22L316.001 188.72L235.001 215.22C235.001 215.22 218.935 183.426 206.001 164.719C172.968 116.943 132.001 60.7197 103.5 164.719L85.5001 260.219L90.0001 355.22C90.0001 355.22 61.2106 394.359 51.0001 423.22C38.7298 457.902 34.3786 480.289 39.5001 516.719C43.4205 544.606 63.5001 584.719 63.5001 584.719L103.5 624.219L165.5 658.219L227 670.719L303.5 666.719L376 658.219L384 686.219L424.5 733.719L459 749.219L520.5 728.719Z" fill="#FDD4DD"/>
<path d="M149.328 175.791C126.476 167.976 127.629 257.222 135.639 293.576C135.809 294.347 136.744 294.588 137.296 294.024C142.315 288.893 161.019 269.916 169.124 263.702C177.525 257.262 195.408 247.155 199.139 245.066C199.549 244.836 199.741 244.381 199.599 243.933C194.34 227.395 171.637 183.42 149.328 175.791Z" fill="#FDE2E5" stroke="#EEB8C3" stroke-width="5" stroke-linecap="round"/>
<path d="M505.661 91.898C522.059 74.1673 563.432 153.253 573.649 189.049C573.866 189.808 573.158 190.465 572.404 190.23C565.55 188.099 540.078 180.282 529.993 178.663C519.542 176.985 499.005 176.585 494.729 176.519C494.258 176.511 493.874 176.202 493.786 175.74C490.559 158.689 489.652 109.207 505.661 91.898Z" fill="#FDE2E5" stroke="#EEB8C3" stroke-width="5" stroke-linecap="round"/>
<path d="M544.833 413.722C539.57 415.828 478.595 418.526 448.768 418.964C390.878 351.904 480.354 267.659 535.617 321.588C572.298 357.384 551.413 411.091 544.833 413.722Z" fill="#FEFFFE"/>
<path d="M524.063 415.035C520.237 416.68 495.73 418.633 474.05 418.976C416.159 370.295 480.637 303.187 525.821 342.92C558.272 371.456 528.845 412.98 524.063 415.035Z" fill="#211A19"/>
<path d="M545.786 417.055C545.235 417.516 544.534 417.783 543.808 417.769C543.082 417.755 542.394 417.465 541.891 416.957C541.387 416.45 541.103 415.76 541.095 415.034C541.087 414.308 541.359 413.609 541.824 413.062C541.824 413.062 541.824 413.062 541.824 413.062C544.038 410.424 545.931 407.486 547.524 404.412C560.076 380.136 553.505 351.296 536.268 331.612L536.858 332.252C533.604 329.182 530.224 326.369 526.691 323.863C502.374 304.566 467.224 310.603 446.373 335.761C443.983 338.43 441.754 341.204 439.623 344.148C439.203 344.73 438.589 345.161 437.881 345.326C437.174 345.492 436.437 345.38 435.824 345.013C435.211 344.645 434.765 344.046 434.579 343.345C434.392 342.643 434.484 341.898 434.799 341.254C434.799 341.254 434.799 341.254 434.799 341.254C436.497 337.818 438.365 334.512 440.485 331.268C457.01 300.559 506.015 287 535.37 311.628C539.594 314.625 543.51 317.969 547.171 321.576L547.761 322.217C567.81 345.45 572.523 383.52 553.802 408.341C551.467 411.539 548.8 414.502 545.786 417.055Z" fill="#302025"/>
<circle cx="467.483" cy="358.475" r="15.7907" fill="white"/>
<path d="M272.833 466.722C267.57 468.828 206.595 471.526 176.768 471.964C118.878 404.904 208.354 320.659 263.617 374.588C300.298 410.384 279.413 464.091 272.833 466.722Z" fill="#FEFFFE"/>
<path d="M252.063 468.035C248.237 469.68 223.73 471.633 202.05 471.976C144.159 423.295 208.637 356.187 253.821 395.92C286.272 424.456 256.845 465.98 252.063 468.035Z" fill="#211A19"/>
<path d="M273.786 470.055C273.235 470.516 272.534 470.783 271.808 470.769C271.082 470.755 270.394 470.465 269.891 469.957C269.387 469.45 269.103 468.76 269.095 468.034C269.087 467.308 269.359 466.609 269.824 466.062C269.824 466.062 269.824 466.062 269.824 466.062C272.038 463.424 273.931 460.486 275.524 457.412C288.076 433.136 281.505 404.296 264.268 384.612L264.858 385.252C261.604 382.182 258.224 379.369 254.691 376.863C230.374 357.566 195.224 363.603 174.373 388.761C171.983 391.43 169.754 394.204 167.623 397.148C167.203 397.73 166.589 398.161 165.881 398.326C165.174 398.492 164.437 398.38 163.824 398.013C163.211 397.645 162.765 397.046 162.579 396.345C162.392 395.643 162.484 394.898 162.799 394.254C162.799 394.254 162.799 394.254 162.799 394.254C164.497 390.818 166.365 387.512 168.485 384.268C185.01 353.559 234.015 340 263.37 364.628C267.594 367.625 271.51 370.969 275.171 374.576L275.761 375.217C295.81 398.45 300.523 436.52 281.802 461.341C279.467 464.539 276.8 467.502 273.786 470.055Z" fill="#302025"/>
<circle cx="195.483" cy="411.475" r="15.7907" fill="white"/>
<path d="M292.591 195.943C292.591 195.943 305.537 247.924 289.783 258.057C261.987 273.266 254.646 210.607 254.646 210.607C254.646 210.607 258.885 208.203 267.719 205.044C278.12 201.14 292.591 195.943 292.591 195.943Z" fill="#D8718A"/>
<path d="M388.134 178.935C388.134 178.935 393.826 227.297 411.137 230.93C440.801 235.068 426.616 179.393 426.616 179.393C426.616 179.393 422.063 178.69 413.189 178.8C402.679 178.773 388.134 178.935 388.134 178.935Z" fill="#D8718A"/>
<path d="M366.881 187.721C366.881 187.721 378.993 250.115 360.934 259.912C329.295 274.375 318.983 196.586 318.983 196.586C318.983 196.586 332.491 190.934 340.133 189.412C351.16 187.215 366.881 187.721 366.881 187.721Z" fill="#D8718A"/>
<path d="M461.5 459.72C455.5 500.72 368.5 536.72 327 488.72" stroke="#302025" stroke-width="15" stroke-linecap="round" stroke-linejoin="round"/>
<path d="M436.994 667.719C465.994 672.219 481.497 662.219 493.494 647.219C510.378 626.108 505.492 591.219 528.492 588.719C573.994 583.773 577.996 677.719 523.494 723.219C448.029 786.219 386.66 706.386 376.994 657.219C277.993 681.719 190.493 674.219 128.993 641.219C47.4842 597.483 -1.50684 476.22 90.9932 356.72C81.3263 302.886 83.4932 153.72 128.993 111.22C159.505 82.7197 213.993 165.72 234.493 214.22C234.493 214.22 311.272 189.308 347.493 184.72C383.714 180.131 436.994 174.719 436.994 174.719C431.327 134.219 464.993 23.96 489.993 20.2189C527.993 14.5325 597.326 112.886 612.493 153.719" stroke="#302025" stroke-width="15" stroke-linecap="round" stroke-linejoin="round"/>
<path d="M51.2981 629.776C63.5125 610.857 89.0801 585.9 132.857 569.935" stroke="#302025" stroke-width="18.1417" stroke-linecap="round"/>
<path d="M519.501 731.22C533.001 736.22 576.501 753.22 586.501 756.72" stroke="#302025" stroke-width="18.1417" stroke-linecap="round"/>
<path d="M16.0004 563.954C33.1917 549.408 64.9155 532.972 111.444 530.437" stroke="#302025" stroke-width="18.1417" stroke-linecap="round"/>
<path d="M382.001 438.72C382.001 438.72 399.008 483.22 392.508 504.72" stroke="#302025" stroke-width="15" stroke-linecap="round" stroke-linejoin="round"/>
<ellipse cx="379.454" cy="439.094" rx="23.6861" ry="15.7907" transform="rotate(-12.0112 379.454 439.094)" fill="#302025"/>
</g>
<defs>
<clipPath id="clip0_70_1372">
<rect width="583" height="783" fill="white"/>
</clipPath>
</defs>
</svg>
