<svg width="760" height="854" viewBox="0 0 760 854" fill="none" xmlns="http://www.w3.org/2000/svg">
<ellipse cx="398.001" cy="804.5" rx="266" ry="49.5" fill="#F1F1F1"/>
<path d="M552.673 785.275C528.46 791.592 498.721 778.897 486.878 771.002L497.405 714.417C528.987 721.786 548.722 707.633 555.304 701.261C569.779 687.252 618.247 608.144 685.578 630.22C726.371 643.595 739.679 698.015 710.58 722.316C701.369 730.008 685.578 734.159 671.103 730.008C657.882 726.216 653.997 712.9 639.522 714.417C632.848 715.117 623.821 722.695 613.204 741.851C598.729 767.967 582.938 777.38 552.673 785.275Z" fill="#FDD4DD"/>
<path d="M631.252 633.881C629.283 635.121 627.236 636.306 625.274 637.26C615.831 636.965 605.411 650.04 605.411 650.04C605.42 650.101 609.663 679.333 625.112 682.924C645.496 686.264 644.754 650.88 643.31 634.257L631.252 633.881Z" fill="#D8718A"/>
<path d="M571.902 681.233C570.154 682.777 568.314 684.289 566.515 685.575C556.904 687.366 548.973 701.324 548.946 701.372C548.946 701.372 559.101 726.726 575.492 726.578C596.818 725.13 588.98 693.539 584.19 678.943L571.902 681.233Z" fill="#D8718A"/>
<path d="M486.878 771.086C498.721 778.981 526.814 790.115 552.673 785.359C581.285 780.097 598.729 768.051 613.204 741.935C623.821 722.779 631.626 715.661 639.522 714.501C653.13 712.503 657.882 726.3 671.103 730.092C685.578 734.243 701.369 730.092 710.58 722.4C739.679 698.099 726.371 643.679 685.578 630.304C618.247 608.228 569.779 687.336 555.304 701.345C548.722 707.717 528.987 721.87 497.405 714.501" stroke="#302025" stroke-width="15"/>
<path d="M267.149 739.525C255.573 689.815 259.243 650.044 277.648 615.831H494.772C525.301 705.312 488.193 777.686 488.193 777.686C488.193 777.686 488.193 819.795 447.4 818.479C402.66 821.111 401.366 778.23 401.366 772.967C401.366 767.703 369.187 765.071 368.469 772.967C365.049 810.583 346.076 818.479 325.022 818.479C281.613 818.479 273.993 768.916 267.149 739.525Z" fill="#FDD4DD"/>
<path d="M277.648 615.831C259.243 650.044 255.573 689.815 267.149 739.525C273.993 768.916 281.613 818.479 325.022 818.479C346.076 818.479 365.049 810.583 368.469 772.967C369.187 765.071 401.366 767.703 401.366 772.967C401.366 778.23 402.66 821.111 447.4 818.479C488.193 819.795 488.193 777.686 488.193 777.686C488.193 777.686 525.301 705.312 494.772 615.831" stroke="#302025" stroke-width="15" stroke-linecap="round"/>
<path d="M421.067 703.996C421.067 725.072 403.982 742.157 382.906 742.157C361.83 742.157 344.745 725.072 344.745 703.996C344.745 682.92 361.83 676.362 382.906 676.362C403.982 676.362 421.067 682.92 421.067 703.996Z" fill="#FEFFFE"/>
<path d="M181.587 577.612C217.228 605.026 288.194 616.424 288.194 616.424L475.035 616.424C475.035 616.424 725.052 602.633 613.204 344.688C628.994 222.557 602.238 174.493 586.886 165.727C538.461 154.13 476.789 212.237 452.665 242.071C400.029 222.332 344.761 235.491 314.496 240.733C253.438 165.99 203.083 159.586 185.538 165.727C141.324 200.466 145.184 299.509 152.641 344.688C113.091 419.394 96.0571 511.829 181.587 577.612Z" fill="#FDD4DD"/>
<ellipse cx="384.687" cy="467.791" rx="23.6861" ry="15.7907" fill="#211A19"/>
<path d="M405.566 236.868C407.08 243.629 407.93 251.219 407.93 259.238C407.93 287.581 397.325 310.558 384.244 310.559C371.163 310.559 360.558 287.581 360.558 259.238C360.558 251.219 361.407 243.629 362.921 236.868H405.566Z" fill="#D8718A"/>
<path d="M324.403 242.882C334.223 241.476 347.831 239.717 347.9 239.707C347.904 239.859 348.916 285.788 333.198 291.465C305.944 299.253 311.899 245.208 311.899 245.208C311.911 245.204 316.084 243.947 324.403 242.882Z" fill="#D8718A"/>
<path d="M442.768 242.743C433.313 241.388 420.201 239.701 420.201 239.701C420.197 239.837 418.967 285.75 434.045 291.336C460.196 298.966 454.774 244.997 454.774 244.997C454.774 244.997 450.769 243.762 442.768 242.743Z" fill="#D8718A"/>
<path d="M288.199 616.485C288.199 616.485 217.234 605.087 181.593 577.674C96.0629 511.89 113.096 419.456 152.646 344.75C145.19 299.571 141.33 200.528 185.544 165.788C203.089 159.647 253.444 166.051 314.501 240.794C344.767 235.553 400.035 222.394 452.67 242.132C476.795 212.298 538.467 154.192 586.892 165.788C602.244 174.554 629 222.618 613.209 344.75C725.058 602.694 475.041 616.485 475.041 616.485" stroke="#302025" stroke-width="15" stroke-linecap="round"/>
<path d="M93.4219 560.501C106.581 547.329 131.583 531.593 169.744 526.288" stroke="#302025" stroke-width="15" stroke-linecap="round"/>
<path d="M671.1 560.501C657.941 547.329 632.939 531.593 594.778 526.288" stroke="#302025" stroke-width="15" stroke-linecap="round"/>
<path d="M76.3161 501.162C92.7389 492.389 121.238 484.61 159.291 490.64" stroke="#302025" stroke-width="15" stroke-linecap="round"/>
<path d="M688.206 501.162C671.784 492.389 643.284 484.61 605.231 490.64" stroke="#302025" stroke-width="15" stroke-linecap="round"/>
<path d="M196.062 222.36C183.856 223.886 179.314 273.477 184.797 308.875C185.101 310.832 187.391 311.707 188.962 310.502C195.015 305.86 207.816 296.26 217.116 290.784C226.983 284.976 241.582 278.706 247.435 276.265C248.828 275.684 249.468 274.063 248.81 272.705C237.944 250.274 217.621 219.664 196.062 222.36Z" fill="#FDE2E5" stroke="#EEB8C3" stroke-width="15" stroke-linecap="round"/>
<path d="M569.761 222.36C581.967 223.886 586.51 273.477 581.026 308.875C580.723 310.832 578.433 311.707 576.861 310.502C570.808 305.86 558.008 296.26 548.707 290.784C538.84 284.976 524.242 278.706 518.388 276.265C516.995 275.684 516.355 274.063 517.013 272.705C527.879 250.274 548.202 219.664 569.761 222.36Z" fill="#FDE2E5" stroke="#EEB8C3" stroke-width="15" stroke-linecap="round"/>
<path d="M395.84 589.65C395.84 589.65 406.741 608.508 411.704 615.188C411.704 615.188 444.041 651.543 470.802 650.078C480.264 649.56 494.03 642.229 494.03 642.229C495.217 619.182 482.495 599.804 474.205 578.602C466.644 559.263 451.58 536.047 428.364 538.528C418.97 539.532 407.338 548.256 406.594 549.001C390.543 565.072 392.25 569.381 395.84 589.65Z" fill="#FDD4DD"/>
<path d="M451.5 640.933C440.82 628.65 389.419 578.649 391.5 562C394 542 410.966 532.507 421.5 530.5C453 524.5 472.088 561.072 501.356 640.932" stroke="#302025" stroke-width="15" stroke-linecap="round"/>
<path d="M375.059 582.649C375.059 582.649 364.159 601.507 359.196 608.187C359.196 608.187 326.858 644.542 300.097 643.077C290.636 642.559 276.87 635.228 276.87 635.228C275.682 612.181 288.404 592.803 296.694 571.601C304.256 552.262 319.319 529.046 342.535 531.527C351.929 532.531 363.562 541.255 364.306 542C380.356 558.071 378.65 562.38 375.059 582.649Z" fill="#FDD4DD"/>
<path d="M333.501 640.5C344.181 628.217 382.501 604.5 376.638 557.459C375.017 544.461 361.948 529.006 352.001 525C318.479 511.497 298.81 554.072 269.542 633.932" stroke="#302025" stroke-width="15" stroke-linecap="round"/>
<path d="M583 381.763C583 451.434 462.877 478.662 462.877 478.662C462.877 478.662 397.209 436.22 387.6 370.552C382.382 334.895 433.247 277.657 488.503 360.14C540.556 331.311 583 330.459 583 381.763Z" fill="#FF715A"/>
<ellipse cx="562.61" cy="379.447" rx="12.0122" ry="18.4188" fill="white"/>
<path d="M338.156 181.682C319.771 227.444 233.687 213.63 233.687 213.63C233.687 213.63 201.753 168.426 212.77 122.757C218.751 97.9596 267.265 73.7859 281.793 142.544C323.591 137.344 351.694 147.983 338.156 181.682Z" fill="#FF715A"/>
<ellipse cx="325.374" cy="174.78" rx="8.50289" ry="13.0378" transform="rotate(21.8873 325.374 174.78)" fill="white"/>
<path d="M688.778 110.764C694.49 133.374 657.737 152.057 657.737 152.057C657.737 152.057 632.947 143.667 624.445 123.143C619.829 111.998 631.645 89.2531 656.339 111.492C670.868 97.8694 684.573 94.1135 688.778 110.764Z" fill="#FF715A"/>
<ellipse cx="681.972" cy="111.684" rx="4.02082" ry="6.16526" transform="rotate(-14.1755 681.972 111.684)" fill="white"/>
<path d="M373.944 353.196C394.815 419.668 288.366 481.629 288.366 481.629C288.366 481.629 212.999 460.809 184.159 401.035C168.5 368.579 199.883 298.732 277.31 360.874C318.337 317.776 358.575 304.248 373.944 353.196Z" fill="#FF715A"/>
<ellipse cx="353.797" cy="357.095" rx="12.0122" ry="18.4188" transform="rotate(-17.4313 353.797 357.095)" fill="white"/>
</svg>
