<svg width="732" height="724" viewBox="0 0 732 724" fill="none" xmlns="http://www.w3.org/2000/svg">
<path d="M174.854 556.198C209.174 582.595 277.509 593.57 277.509 593.57C387.697 598.936 707.415 633.774 590.469 331.909C605.674 214.306 579.91 168.023 565.127 159.582C518.497 148.416 459.112 204.368 435.882 233.096C385.198 214.089 331.979 226.76 302.835 231.808C244.041 159.836 195.554 153.669 178.659 159.583C136.084 193.034 139.801 288.405 146.981 331.909C108.897 403.845 92.4952 492.853 174.854 556.198Z" fill="#FDD4DD"/>
<path d="M390.534 228.09C391.992 234.6 392.81 241.908 392.81 249.629C392.81 276.921 382.597 299.046 370.001 299.046C357.405 299.046 347.193 276.921 347.193 249.629C347.193 241.908 348.011 234.6 349.469 228.09H390.534Z" fill="#D8718A"/>
<path d="M312.379 233.879C321.859 232.521 335.006 230.821 335.006 230.821C335.006 230.821 336.007 275.183 320.848 280.66C294.604 288.159 300.338 236.118 300.338 236.118C300.359 236.112 304.377 234.903 312.379 233.879Z" fill="#D8718A"/>
<path d="M426.355 233.75C417.251 232.445 404.625 230.82 404.625 230.82C404.625 230.82 403.415 275.153 417.956 280.54C443.138 287.888 437.916 235.92 437.916 235.92C437.898 235.914 434.042 234.728 426.355 233.75Z" fill="#D8718A"/>
<path d="M174.86 556.257C209.18 582.654 277.515 593.629 277.515 593.629C277.515 593.629 332.405 599.547 367.189 599.57C402.7 599.592 457.429 593.63 457.429 593.63C457.429 593.63 698.177 580.35 590.475 331.968C605.681 214.365 579.916 168.082 565.133 159.641C518.503 148.475 459.118 204.427 435.888 233.155C385.203 214.148 331.985 226.819 302.841 231.866C244.047 159.894 195.56 153.728 178.665 159.642C136.09 193.093 139.807 288.464 146.987 331.968C108.903 403.904 92.5013 492.912 174.86 556.257Z" stroke="#302025" stroke-width="14.4439" stroke-linecap="round"/>
<path d="M79.8965 479.241C95.4465 470.316 122.649 461.995 159.451 466.686" stroke="#302025" stroke-width="14.4439" stroke-linecap="round"/>
<path d="M661.622 459.316C645.457 451.56 617.716 445.264 581.359 452.65" stroke="#302025" stroke-width="14.4439" stroke-linecap="round"/>
<path d="M78.9603 419.788C96.4344 415.774 124.881 415.73 158.725 430.927" stroke="#302025" stroke-width="14.4439" stroke-linecap="round"/>
<path d="M658.172 399.944C640.449 397.228 612.077 399.277 579.443 416.924" stroke="#302025" stroke-width="14.4439" stroke-linecap="round"/>
<path d="M188.796 214.116C177.043 215.586 172.669 263.338 177.949 297.424C178.241 299.309 180.447 300.151 181.96 298.99C187.788 294.52 200.114 285.276 209.07 280.004C218.571 274.411 232.629 268.373 238.265 266.023C239.606 265.464 240.223 263.903 239.589 262.595C229.126 240.996 209.556 211.521 188.796 214.116Z" fill="#FDE2E5" stroke="#EEB8C3" stroke-width="6.08701" stroke-linecap="round"/>
<path d="M548.641 214.116C560.395 215.586 564.769 263.338 559.488 297.424C559.196 299.309 556.991 300.151 555.478 298.99C549.649 294.52 537.323 285.276 528.367 280.004C518.866 274.411 504.809 268.373 499.172 266.023C497.831 265.464 497.215 263.903 497.848 262.595C508.312 240.996 527.881 211.521 548.641 214.116Z" fill="#FDE2E5" stroke="#EEB8C3" stroke-width="6.08701" stroke-linecap="round"/>
<path d="M472.974 280.442C478.057 271.492 491.415 273.118 494.203 283.026L506.956 328.355C506.997 328.502 507.095 328.628 507.227 328.705L547.804 352.218C556.627 357.331 555.021 370.523 545.23 373.37L500.197 386.463C500.05 386.506 499.925 386.605 499.85 386.738L476.595 427.684C471.512 436.634 458.154 435.008 455.366 425.1L442.613 379.771C442.571 379.624 442.475 379.498 442.343 379.421L401.764 355.908C392.942 350.795 394.548 337.603 404.339 334.756L449.373 321.663C449.52 321.62 449.644 321.521 449.719 321.388L472.974 280.442Z" fill="#FFB555" stroke="white" stroke-width="11"/>
<path d="M223.579 292.354C223.206 282.068 235.429 276.439 243.003 283.408L277.655 315.293C277.768 315.396 277.917 315.452 278.07 315.448L324.95 314.157C335.142 313.877 340.702 325.948 333.863 333.511L302.41 368.297C302.307 368.41 302.253 368.56 302.258 368.713L303.963 415.771C304.335 426.057 292.113 431.686 284.538 424.717L249.886 392.833C249.774 392.729 249.625 392.673 249.473 392.677L202.592 393.968C192.399 394.249 186.84 382.177 193.678 374.614L225.133 339.828C225.235 339.715 225.289 339.565 225.284 339.412L223.579 292.354Z" fill="#FFB555" stroke="white" stroke-width="11"/>
<path d="M361.289 427.55C361.289 427.55 372.259 434.385 378.052 436.835C389.713 441.768 400.77 436.876 412.032 433.55C421.122 471.321 412.133 551.187 358.07 540.795C334.264 536.219 306.355 514.227 312.168 432.865C330.931 443.998 345.8 439.803 361.289 427.55Z" fill="#1F1919"/>
<ellipse cx="361.345" cy="406.843" rx="22.808" ry="15.2053" fill="#211A19"/>
<path d="M399.602 520.758C397.214 537.864 380.772 540.799 366.987 539.033C358.368 537.929 331.395 538.459 333.914 520.406C335.361 510.032 349.114 498.346 375.816 501.884C392.382 504.079 400.774 512.357 399.602 520.758Z" fill="#D8718A"/>
<path d="M413.302 432.208L408.504 426.81C410.564 424.979 413.487 424.48 416.038 425.524C418.589 426.568 420.323 428.972 420.508 431.722L413.302 432.208ZM311.938 429.102L304.723 428.786C304.86 425.666 306.986 422.988 309.993 422.147C313.001 421.306 316.208 422.493 317.943 425.089L311.938 429.102ZM368.287 540.715L368.294 547.936V547.936L368.287 540.715ZM354.225 415.795C354.225 411.806 357.457 408.572 361.446 408.571C365.435 408.571 368.669 411.804 368.669 415.792L361.447 415.793L354.225 415.795ZM413.302 432.208C420.508 431.722 420.508 431.724 420.508 431.727C420.508 431.728 420.509 431.731 420.509 431.734C420.509 431.74 420.51 431.747 420.51 431.756C420.511 431.773 420.513 431.798 420.515 431.828C420.519 431.89 420.524 431.977 420.531 432.089C420.544 432.314 420.563 432.638 420.584 433.056C420.627 433.891 420.682 435.101 420.732 436.631C420.833 439.689 420.915 444.038 420.847 449.249C420.712 459.639 419.975 473.61 417.53 487.68C415.105 501.628 410.897 516.319 403.432 527.701C395.791 539.352 384.404 547.922 368.294 547.936L368.287 540.715L368.281 533.493C378.33 533.484 385.649 528.478 391.354 519.78C397.235 510.813 401.01 498.38 403.299 485.207C405.568 472.156 406.275 459.009 406.405 449.061C406.47 444.103 406.39 439.978 406.296 437.105C406.249 435.67 406.198 434.549 406.159 433.795C406.14 433.419 406.124 433.134 406.113 432.948C406.107 432.855 406.103 432.787 406.1 432.744C406.099 432.723 406.098 432.707 406.097 432.699C406.097 432.695 406.097 432.692 406.097 432.691C406.097 432.69 406.097 432.691 406.097 432.691C406.097 432.692 406.097 432.693 413.302 432.208ZM368.287 540.715L368.294 547.936C350.391 547.953 337.233 539.649 327.949 527.738C318.869 516.088 313.432 500.97 310.109 486.551C306.763 472.032 305.426 457.613 304.916 446.892C304.66 441.514 304.611 437.025 304.625 433.866C304.633 432.286 304.656 431.036 304.678 430.172C304.689 429.739 304.7 429.403 304.708 429.17C304.712 429.053 304.716 428.962 304.718 428.898C304.72 428.866 304.721 428.84 304.721 428.822C304.722 428.812 304.722 428.805 304.722 428.799C304.722 428.796 304.723 428.792 304.723 428.791C304.723 428.788 304.723 428.786 311.938 429.102C319.153 429.418 319.153 429.417 319.153 429.416C319.153 429.416 319.153 429.415 319.153 429.416C319.153 429.416 319.153 429.419 319.153 429.423C319.152 429.431 319.152 429.446 319.151 429.468C319.149 429.511 319.147 429.58 319.143 429.675C319.137 429.864 319.127 430.155 319.118 430.54C319.098 431.312 319.076 432.461 319.069 433.934C319.055 436.881 319.102 441.116 319.344 446.206C319.83 456.422 321.098 469.916 324.184 483.307C327.293 496.798 332.115 509.586 339.342 518.859C346.365 527.87 355.561 533.504 368.281 533.493L368.287 540.715ZM413.302 432.208C418.1 437.605 418.097 437.608 418.094 437.611C418.093 437.612 418.089 437.615 418.087 437.618C418.082 437.622 418.076 437.627 418.071 437.632C418.059 437.642 418.046 437.653 418.032 437.665C418.003 437.69 417.969 437.72 417.929 437.755C417.848 437.823 417.745 437.91 417.619 438.014C417.366 438.221 417.022 438.494 416.591 438.817C415.73 439.461 414.511 440.309 412.967 441.224C409.894 443.046 405.442 445.186 399.893 446.468C388.478 449.105 373.235 447.893 356.93 434.811L361.449 429.178L365.969 423.545C378.709 433.767 389.393 434.069 396.643 432.395C400.426 431.521 403.492 430.05 405.602 428.799C406.651 428.177 407.441 427.623 407.94 427.25C408.189 427.063 408.364 426.924 408.46 426.845C408.508 426.806 408.536 426.782 408.543 426.775C408.547 426.772 408.546 426.773 408.539 426.779C408.536 426.782 408.532 426.786 408.526 426.791C408.523 426.793 408.52 426.796 408.516 426.799C408.514 426.801 408.511 426.804 408.51 426.804C408.507 426.807 408.504 426.81 413.302 432.208ZM361.449 429.178L365.76 434.973C347.658 448.436 332.733 449.227 321.77 445.118C316.544 443.16 312.662 440.245 310.095 437.844C308.804 436.637 307.818 435.535 307.133 434.701C306.789 434.283 306.518 433.929 306.318 433.659C306.219 433.524 306.137 433.409 306.073 433.318C306.041 433.272 306.013 433.232 305.99 433.198C305.978 433.181 305.968 433.166 305.958 433.152C305.954 433.145 305.949 433.138 305.945 433.132C305.943 433.129 305.94 433.124 305.939 433.123C305.936 433.119 305.933 433.114 311.938 429.102C317.943 425.089 317.94 425.085 317.937 425.082C317.937 425.08 317.934 425.077 317.932 425.074C317.929 425.07 317.926 425.065 317.924 425.061C317.918 425.053 317.914 425.047 317.91 425.041C317.903 425.031 317.899 425.026 317.9 425.026C317.9 425.026 317.914 425.047 317.943 425.087C318.002 425.166 318.117 425.317 318.288 425.525C318.632 425.944 319.191 426.575 319.961 427.295C321.514 428.748 323.816 430.46 326.838 431.593C332.37 433.666 342.201 434.494 357.139 423.383L361.449 429.178ZM361.447 415.793L368.669 415.792L368.671 429.177L361.449 429.178L354.228 429.179L354.225 415.795L361.447 415.793Z" fill="#211A19"/>
</svg>
