<svg width="760" height="870" viewBox="0 0 760 870" fill="none" xmlns="http://www.w3.org/2000/svg">
<ellipse cx="333.5" cy="812.5" rx="270.5" ry="57.5" fill="#F1F1F1"/>
<path d="M552.672 785.275C528.459 791.592 498.72 778.897 486.877 771.002L497.404 714.417C528.986 721.786 548.721 707.633 555.303 701.261C569.778 687.252 618.246 608.144 685.577 630.22C726.37 643.595 739.678 698.015 710.579 722.316C701.368 730.008 685.577 734.159 671.102 730.008C657.881 726.216 653.996 712.9 639.521 714.417C632.848 715.117 623.82 722.695 613.203 741.851C598.728 767.967 582.937 777.38 552.672 785.275Z" fill="#FDD4DD"/>
<path d="M631.251 633.881C629.282 635.121 627.235 636.306 625.273 637.26C615.84 636.965 605.433 650.012 605.41 650.04C605.42 650.111 609.664 679.334 625.111 682.924C645.495 686.264 644.753 650.88 643.309 634.257L631.251 633.881Z" fill="#D8718A"/>
<path d="M571.901 681.233C570.153 682.777 568.313 684.289 566.514 685.575C556.903 687.366 548.972 701.324 548.945 701.372C548.945 701.372 559.1 726.726 575.491 726.578C596.817 725.13 588.979 693.539 584.189 678.943L571.901 681.233Z" fill="#D8718A"/>
<path d="M486.877 771.086C498.72 778.981 526.813 790.115 552.672 785.359C581.284 780.097 598.728 768.051 613.203 741.935C623.82 722.779 631.625 715.661 639.521 714.501C653.129 712.503 657.881 726.3 671.102 730.092C685.577 734.243 701.368 730.092 710.579 722.4C739.678 698.099 726.37 643.679 685.577 630.304C618.246 608.228 569.778 687.336 555.303 701.345C548.721 707.717 528.986 721.87 497.404 714.501" stroke="#302025" stroke-width="15"/>
<path d="M502.593 717.863C502.593 717.863 493.382 698.125 490.75 690.23C490.75 690.23 479.481 642.897 496.014 621.803C501.859 614.345 515.754 607.263 515.754 607.263C535.324 619.494 543.917 641.023 556.545 659.964C568.063 677.241 578.461 702.889 563.127 720.495C556.921 727.62 543.107 732.155 542.07 732.338C519.702 736.286 517.149 732.419 502.593 717.863Z" fill="#FDD4DD"/>
<path d="M494.701 700.692C498.649 716.483 506.14 729.203 522.335 733.589C534.978 737.014 546.243 732.867 555.226 727.01C585.498 707.272 569.7 671.742 521.015 602" stroke="#302025" stroke-width="15" stroke-linecap="round"/>
<path d="M281.238 717.863C281.238 717.863 290.449 698.125 293.081 690.23C293.081 690.23 304.351 642.897 287.817 621.803C281.972 614.345 268.077 607.263 268.077 607.263C248.507 619.494 239.914 641.023 227.286 659.964C215.768 677.241 205.37 702.889 220.705 720.495C226.91 727.62 240.724 732.155 241.761 732.338C264.129 736.286 266.682 732.419 281.238 717.863Z" fill="#FDD4DD"/>
<path d="M289.131 700.692C285.183 716.483 277.692 729.203 261.497 733.589C248.854 737.014 233.164 731.98 226 724C204.894 700.49 214.132 671.742 262.817 602" stroke="#302025" stroke-width="15" stroke-linecap="round"/>
<path d="M267.148 739.525C255.572 689.815 259.242 650.044 277.647 615.831H494.771C525.3 705.312 488.192 777.686 488.192 777.686C488.192 777.686 488.192 819.795 447.399 818.479C402.659 821.111 401.365 778.23 401.365 772.967C401.365 767.703 369.186 765.071 368.468 772.967C365.048 810.583 346.075 818.479 325.021 818.479C281.612 818.479 273.992 768.916 267.148 739.525Z" fill="#FDD4DD"/>
<path d="M262.499 674C256.785 711.5 270.5 749 270.5 749C283.285 791.5 281.61 818.479 325.019 818.479C346.074 818.479 365.046 810.583 368.466 772.967C369.184 765.071 401.364 767.703 401.364 772.967C401.364 778.23 402.657 821.111 447.397 818.479C488.19 819.795 488.19 777.686 488.19 777.686C488.19 777.686 506 735 502 674" stroke="#302025" stroke-width="15" stroke-linecap="round"/>
<path d="M421.066 703.996C421.066 725.072 403.981 742.157 382.905 742.157C361.829 742.157 344.744 725.072 344.744 703.996C344.744 682.92 361.829 676.362 382.905 676.362C403.981 676.362 421.066 682.92 421.066 703.996Z" fill="#FEFFFE"/>
<path d="M181.587 577.612C217.228 605.026 288.194 616.424 288.194 616.424L475.035 616.424C475.035 616.424 725.052 602.633 613.204 344.688C628.994 222.557 602.238 174.493 586.886 165.727C538.461 154.13 476.789 212.237 452.665 242.071C400.029 222.332 344.761 235.491 314.496 240.733C253.438 165.99 203.083 159.586 185.538 165.727C141.324 200.466 145.184 299.509 152.641 344.688C113.091 419.394 96.0571 511.829 181.587 577.612Z" fill="#FDD4DD"/>
<path d="M405.566 236.868C407.08 243.629 407.93 251.219 407.93 259.238C407.93 287.581 397.325 310.558 384.244 310.559C371.163 310.559 360.558 287.581 360.558 259.238C360.558 251.219 361.407 243.629 362.921 236.868H405.566Z" fill="#D8718A"/>
<path d="M324.403 242.882C334.227 241.475 347.84 239.714 347.9 239.707C347.9 239.707 348.941 285.778 333.197 291.464C305.967 299.246 311.888 245.302 311.899 245.208C311.91 245.204 316.084 243.947 324.403 242.882Z" fill="#D8718A"/>
<path d="M442.769 242.744C433.314 241.389 420.202 239.701 420.202 239.701C420.202 239.701 418.946 285.742 434.046 291.336C460.172 298.958 454.785 245.103 454.775 244.998C454.775 244.998 450.77 243.763 442.769 242.744Z" fill="#D8718A"/>
<path d="M288.199 616.485C288.199 616.485 217.234 605.087 181.593 577.674C96.0629 511.89 113.096 419.456 152.646 344.75C145.19 299.571 141.33 200.528 185.544 165.788C203.089 159.647 253.444 166.051 314.501 240.794C344.767 235.553 400.035 222.394 452.67 242.132C476.795 212.298 538.467 154.192 586.892 165.788C602.244 174.554 629 222.618 613.209 344.75C725.058 602.694 475.041 616.485 475.041 616.485" stroke="#302025" stroke-width="15" stroke-linecap="round"/>
<path d="M93.4219 560.501C106.581 547.329 131.583 531.593 169.744 526.288" stroke="#302025" stroke-width="15" stroke-linecap="round"/>
<path d="M671.1 560.501C657.941 547.329 632.939 531.593 594.778 526.288" stroke="#302025" stroke-width="15" stroke-linecap="round"/>
<path d="M76.3161 501.162C92.7389 492.389 121.238 484.61 159.291 490.64" stroke="#302025" stroke-width="15" stroke-linecap="round"/>
<path d="M688.206 501.162C671.784 492.389 643.284 484.61 605.231 490.64" stroke="#302025" stroke-width="15" stroke-linecap="round"/>
<path d="M204.565 214.166C192.049 215.731 187.591 267.835 193.738 303.352C193.866 304.093 194.738 304.415 195.333 303.953C199.832 300.461 215.005 288.84 225.619 282.591C236.57 276.145 253.349 269.129 257.533 267.411C258.063 267.194 258.304 266.588 258.059 266.069C247.395 243.529 226.627 211.408 204.565 214.166Z" fill="#FDE2E5" stroke="#EEB8C3" stroke-width="5" stroke-linecap="round"/>
<path d="M561.939 214.166C574.455 215.731 578.913 267.835 572.766 303.352C572.638 304.093 571.766 304.415 571.171 303.953C566.672 300.461 551.499 288.84 540.885 282.591C529.934 276.145 513.155 269.129 508.971 267.411C508.44 267.194 508.2 266.588 508.445 266.069C519.108 243.529 539.876 211.408 561.939 214.166Z" fill="#FDE2E5" stroke="#EEB8C3" stroke-width="5" stroke-linecap="round"/>
<path d="M548.442 471.003C543.178 473.108 482.203 475.806 452.376 476.245C394.486 409.185 483.963 324.939 539.225 378.869C575.906 414.664 555.021 468.371 548.442 471.003Z" fill="#FEFFFE"/>
<path d="M527.671 472.316C523.845 473.96 499.339 475.913 477.658 476.256C419.768 427.575 484.245 360.468 529.429 400.2C561.881 428.737 532.454 470.26 527.671 472.316Z" fill="#211A19"/>
<path d="M549.394 474.336C548.843 474.796 548.142 475.063 547.416 475.049C546.69 475.035 546.003 474.745 545.499 474.238C544.996 473.73 544.712 473.04 544.704 472.314C544.695 471.588 544.968 470.889 545.433 470.342C545.433 470.342 545.433 470.342 545.433 470.342C547.646 467.704 549.539 464.766 551.133 461.692C563.685 437.416 557.114 408.576 539.876 388.892L540.466 389.533C537.212 386.462 533.832 383.649 530.3 381.143C505.982 361.846 470.832 367.883 449.981 393.041C447.592 395.711 445.363 398.484 443.231 401.428C442.811 402.01 442.197 402.441 441.49 402.607C440.783 402.772 440.045 402.661 439.432 402.293C438.819 401.925 438.374 401.327 438.187 400.625C438 399.923 438.092 399.178 438.408 398.534C438.408 398.534 438.408 398.534 438.408 398.534C440.106 395.098 441.974 391.792 444.093 388.549C460.618 357.839 509.624 344.281 538.978 368.909C543.202 371.906 547.119 375.249 550.779 378.857L551.369 379.497C571.418 402.73 576.132 440.8 557.411 465.622C555.076 468.819 552.409 471.782 549.394 474.336Z" fill="#302025"/>
<circle cx="471.092" cy="415.756" r="15.7907" fill="white"/>
<path d="M326.832 471.003C321.569 473.108 260.594 475.806 230.767 476.245C172.877 409.185 262.354 324.939 317.616 378.869C354.297 414.664 333.412 468.371 326.832 471.003Z" fill="#FEFFFE"/>
<path d="M306.062 472.316C302.236 473.96 277.729 475.913 256.049 476.256C198.158 427.575 262.636 360.468 307.82 400.2C340.271 428.737 310.844 470.26 306.062 472.316Z" fill="#211A19"/>
<path d="M327.785 474.336C327.234 474.796 326.533 475.063 325.807 475.049C325.081 475.035 324.393 474.745 323.89 474.238C323.386 473.73 323.102 473.04 323.094 472.314C323.086 471.588 323.359 470.889 323.823 470.342C323.823 470.342 323.823 470.342 323.823 470.342C326.037 467.704 327.93 464.766 329.523 461.692C342.075 437.416 335.504 408.576 318.267 388.892L318.857 389.533C315.603 386.462 312.223 383.649 308.69 381.143C284.373 361.846 249.223 367.883 228.372 393.041C225.982 395.711 223.753 398.484 221.622 401.428C221.202 402.01 220.588 402.441 219.88 402.607C219.173 402.772 218.436 402.661 217.823 402.293C217.21 401.925 216.764 401.327 216.578 400.625C216.391 399.923 216.483 399.178 216.798 398.534C216.798 398.534 216.798 398.534 216.798 398.534C218.496 395.098 220.364 391.792 222.484 388.549C239.009 357.839 288.014 344.281 317.369 368.909C321.593 371.906 325.509 375.249 329.17 378.857L329.76 379.497C349.809 402.73 354.522 440.8 335.801 465.622C333.466 468.819 330.799 471.782 327.785 474.336Z" fill="#302025"/>
<circle cx="249.482" cy="415.756" r="15.7907" fill="white"/>
<ellipse cx="392.13" cy="513.191" rx="23.6861" ry="15.7907" fill="#211A19"/>
</svg>
