<svg width="1024" height="736" viewBox="0 0 1024 736" fill="none" xmlns="http://www.w3.org/2000/svg">
<ellipse cx="512" cy="596.5" rx="512" ry="49.5" fill="#F1F1F1"/>
<path d="M724.744 596.381L720.817 560.79L733.982 523.948C757.401 520.611 780.993 511.054 801.092 508.861C858.41 502.605 863.337 494.249 932.672 508.861C1010.31 525.222 1013.79 575.281 977.39 585.88C925.324 601.039 827.384 596.381 827.384 596.381L724.744 596.381Z" fill="#FDD4DD"/>
<path d="M865.341 498.984C865.341 498.984 860.328 497.817 853.498 497.704C844.273 497.551 832.434 501.657 832.434 501.657C832.445 501.73 836.395 527.982 845.505 532.996C862.688 542.422 865.337 499.054 865.341 498.984Z" fill="#D8718A"/>
<path d="M924.523 505.183C924.523 505.183 918.993 502.653 911.111 500.915C900.464 498.568 885.791 500.538 885.791 500.538C885.788 500.585 884.178 531.947 893.554 539.902C911.231 554.857 924.497 505.281 924.523 505.183Z" fill="#D8718A"/>
<path d="M902.259 597.333L734.701 597.333L719.373 512.484C719.373 512.484 799.815 507.856 835.325 503.957C870.836 500.057 920.837 489.215 969.411 521.612C1001 542.679 1027.31 597.211 902.259 597.333Z" stroke="#302025" stroke-width="15"/>
<path d="M499.751 596.098L770.826 597.414C770.826 597.414 819.514 597.854 819.514 563.201C819.514 518.461 739.435 512.514 739.435 512.514C694.55 432.248 605.023 442.134 605.023 442.134C605.023 442.134 587.744 492.393 570.81 521.092C549.294 557.555 499.751 596.098 499.751 596.098Z" fill="#FDD4DD" stroke="#302025" stroke-width="15" stroke-linecap="round" stroke-linejoin="round"/>
<path d="M681.345 538.834C723.453 538.834 743.188 554.612 743.188 569.1C743.188 583.587 733.981 592.786 718.19 596.733" stroke="#302025" stroke-width="15" stroke-linecap="round"/>
<path d="M176.718 558.946C211.208 585.473 243.127 596.503 243.127 596.503L510.254 596.49C510.254 596.49 669.476 568.459 594.387 333.549C609.667 215.365 583.776 168.853 568.92 160.371C522.06 149.149 462.381 205.378 439.036 234.247C388.101 215.147 334.62 227.881 305.332 232.953C246.248 160.625 197.52 154.428 180.542 160.371C137.757 193.988 141.492 289.83 148.708 333.549C110.436 405.84 93.9528 495.288 176.718 558.946Z" fill="#FDD4DD"/>
<path d="M392.172 229.186C393.639 235.732 394.463 243.082 394.463 250.848C394.463 278.275 384.201 300.509 371.542 300.51C358.883 300.51 348.621 278.275 348.621 250.848C348.621 243.082 349.444 235.732 350.911 229.186H392.172Z" fill="#D8718A"/>
<path d="M313.628 235.027C323.155 233.663 336.366 231.954 336.366 231.954C336.366 231.954 337.373 276.537 322.138 282.04C295.765 289.577 301.528 237.278 301.528 237.278C301.571 237.265 305.609 236.054 313.628 235.027Z" fill="#D8718A"/>
<path d="M428.174 234.893C419.025 233.582 406.336 231.949 406.336 231.949C406.332 232.1 405.145 276.51 419.733 281.914C445.025 289.294 439.798 237.132 439.792 237.073C439.792 237.073 435.917 235.879 428.174 234.893Z" fill="#D8718A"/>
<path d="M172.1 560.598C193.755 581.902 228.683 596.59 261.595 596.59C340.549 596.59 430.011 596.096 508.965 596.095C508.965 596.095 673.454 575.027 593.118 333.636C608.398 215.451 582.507 168.94 567.651 160.457C520.791 149.236 461.112 205.464 437.767 234.334C386.832 215.233 333.351 227.967 304.063 233.039C244.979 160.712 196.251 154.515 179.273 160.457C136.488 194.074 140.223 289.916 147.439 333.635C116.833 403.97 102.354 491.983 172.1 560.598Z" stroke="#302025" stroke-width="15" stroke-linecap="round"/>
<path d="M90.1191 542.333C102.853 529.586 127.047 514.359 163.975 509.226" stroke="#302025" stroke-width="15" stroke-linecap="round"/>
<path d="M649.133 542.354C636.399 529.607 612.205 514.379 575.277 509.246" stroke="#302025" stroke-width="15" stroke-linecap="round"/>
<path d="M73.5665 484.935C89.4587 476.445 117.037 468.917 153.86 474.752" stroke="#302025" stroke-width="15" stroke-linecap="round"/>
<path d="M665.676 484.935C649.784 476.445 622.205 468.917 585.382 474.752" stroke="#302025" stroke-width="15" stroke-linecap="round"/>
<path d="M189.437 215.162C177.626 216.639 173.23 264.627 178.537 298.881C178.83 300.775 181.046 301.622 182.567 300.456C188.424 295.963 200.811 286.674 209.811 281.375C219.359 275.755 233.486 269.687 239.15 267.325C240.498 266.763 241.118 265.195 240.481 263.881C229.966 242.175 210.3 212.554 189.437 215.162Z" fill="#FDE2E5" stroke="#EEB8C3" stroke-width="15" stroke-linecap="round"/>
<path d="M551.065 215.162C562.876 216.639 567.272 264.627 561.965 298.881C561.672 300.775 559.456 301.622 557.935 300.456C552.078 295.963 539.691 286.674 530.691 281.375C521.143 275.755 507.016 269.687 501.352 267.325C500.004 266.763 499.384 265.195 500.021 263.881C510.536 242.175 530.202 212.554 551.065 215.162Z" fill="#FDE2E5" stroke="#EEB8C3" stroke-width="15" stroke-linecap="round"/>
<ellipse cx="370.03" cy="496.593" rx="22.9207" ry="15.2804" fill="#211A19"/>
<path d="M438.999 404.372C439.116 403.675 439.451 403.016 439.989 402.542C440.526 402.068 441.214 401.817 441.914 401.844C442.614 401.872 443.28 402.177 443.778 402.692C444.276 403.208 444.559 403.891 444.62 404.594C444.62 404.594 444.62 404.594 444.62 404.594C444.848 406.771 445.399 408.957 446.136 411.088C452.183 427.29 466.255 441.042 481.191 444.237C483.958 444.824 486.851 445.175 489.799 445.333C509.613 446.063 531.089 440.261 548.395 428.198C550.304 426.824 552.153 425.346 553.91 423.76C554.432 423.284 555.102 422.972 555.818 422.93C556.533 422.888 557.229 423.114 557.764 423.568C558.298 424.021 558.634 424.672 558.708 425.385C558.783 426.098 558.583 426.81 558.198 427.401C558.198 427.401 558.198 427.401 558.198 427.401C556.756 429.582 555.144 431.671 553.408 433.65C537.426 451.258 513.669 461.197 488.997 460.312C485.289 460.112 481.545 459.605 477.821 458.679C455.555 452.639 441.669 432.975 438.89 412.62C438.606 409.907 438.58 407.131 438.999 404.372Z" fill="#302025"/>
<path d="M302.411 404.372C302.294 403.675 301.959 403.016 301.421 402.542C300.884 402.068 300.196 401.817 299.496 401.844C298.796 401.872 298.13 402.177 297.632 402.692C297.134 403.208 296.852 403.891 296.79 404.594C296.79 404.594 296.79 404.594 296.79 404.594C296.562 406.771 296.011 408.957 295.274 411.088C289.227 427.29 275.156 441.042 260.219 444.237C257.452 444.824 254.559 445.175 251.611 445.333C231.797 446.063 210.321 440.261 193.016 428.198C191.106 426.824 189.257 425.346 187.5 423.76C186.978 423.284 186.308 422.972 185.592 422.93C184.877 422.888 184.181 423.114 183.647 423.568C183.113 424.021 182.776 424.672 182.702 425.385C182.628 426.098 182.827 426.81 183.212 427.401C183.212 427.401 183.212 427.401 183.212 427.401C184.655 429.582 186.266 431.671 188.002 433.65C203.984 451.258 227.741 461.197 252.413 460.312C256.122 460.112 259.866 459.605 263.589 458.679C285.855 452.639 299.741 432.975 302.52 412.62C302.804 409.907 302.83 407.131 302.411 404.372Z" fill="#302025"/>
</svg>
