<svg width="642" height="519" viewBox="0 0 642 519" fill="none" xmlns="http://www.w3.org/2000/svg">
<path d="M0 34.0044C0 34.0044 188.978 0 316.574 0C444.17 0 642 31 642 31V87.8333C642 87.8333 444.455 51.6667 316.574 51.6667C188.693 51.6667 0 93 0 93V34.0044Z" fill="#FF715A"/>
<path d="M0 84.0044C0 84.0044 188.978 50 316.574 50C444.17 50 642 81 642 81V137.833C642 137.833 444.455 101.667 316.574 101.667C188.693 101.667 0 143 0 143V84.0044Z" fill="#FFDCE6"/>
<path d="M1.11726e-06 131.062C1.11726e-06 131.062 188.978 97 316.574 97C444.17 97 642 128.053 642 128.053V207.237C642 207.237 443.2 153.412 315.319 153.412C187.437 153.412 0 215 0 215L1.11726e-06 131.062Z" fill="#FEF7B2"/>
<path d="M1.11726e-06 208.969C1.11726e-06 208.969 158.287 150 316.574 150C474.861 150 642 205.957 642 205.957V285.228C642 285.228 479.547 205.957 322.155 205.957C164.762 205.957 0 293 0 293L1.11726e-06 208.969Z" fill="#ACE5E2"/>
<path d="M1.11726e-06 278.402C1.11726e-06 278.402 158.287 205 316.574 205C474.861 205 642 274.652 642 274.652V373.326C642 373.326 479.547 274.652 322.155 274.652C164.762 274.652 0 383 0 383L1.11726e-06 278.402Z" fill="#4BA95E"/>
<path d="M1.11726e-06 374.444C1.11726e-06 374.444 158.287 273 316.574 273C474.861 273 642 369.261 642 369.261V505.63C642 505.63 501.041 337.873 330.599 337.873C160.157 337.873 0 519 0 519L1.11726e-06 374.444Z" fill="#3F8BF3"/>
</svg>
