<svg width="459" height="468" viewBox="0 0 459 468" fill="none" xmlns="http://www.w3.org/2000/svg">
<path d="M229.5 327C292.506 327 349.346 335.13 390.266 348.146C410.754 354.663 426.972 362.318 437.96 370.581C449.033 378.909 454 387.212 454 395C454 402.788 449.033 411.091 437.96 419.419C426.972 427.682 410.754 435.337 390.266 441.854C349.346 454.87 292.506 463 229.5 463C166.494 463 109.654 454.87 68.7344 441.854C48.2458 435.337 32.0282 427.682 21.04 419.419C9.96659 411.091 5 402.788 5 395C5 387.212 9.96659 378.909 21.04 370.581C32.0282 362.318 48.2458 354.663 68.7344 348.146C109.654 335.13 166.494 327 229.5 327Z" fill="#E2DFE1" stroke="black" stroke-width="10"/>
<path d="M229.5 292C292.465 292 349.254 300.96 390.126 315.296C410.585 322.472 426.785 330.902 437.773 340.015C448.792 349.152 454 358.465 454 367.5C454 376.535 448.792 385.848 437.773 394.985C426.785 404.098 410.585 412.528 390.126 419.704C349.254 434.04 292.465 443 229.5 443C166.535 443 109.746 434.04 68.874 419.704C48.4153 412.528 32.2146 404.098 21.2266 394.985C10.2079 385.848 5 376.535 5 367.5C5 358.465 10.2079 349.152 21.2266 340.015C32.2146 330.902 48.4153 322.472 68.874 315.296C109.746 300.96 166.535 292 229.5 292Z" fill="#FDBFCE" stroke="black" stroke-width="10"/>
<rect x="5" y="105" width="449" height="263" fill="#FDBFCE"/>
<path d="M346.261 398.938C384.139 391.578 397.314 356.618 396.063 329.901C418.723 332.085 429 318.592 429 301.075V233.609C429 215.553 420.919 206.966 411.586 208.193L396.063 209.689C397.314 177.526 383.041 160.491 369.164 163.075C346.108 167.368 256.629 176.569 227.534 176.569C198.44 176.569 127.625 169.822 92.4921 163.075C64.3857 157.678 59.5553 173.911 60.6533 182.702V209.689C39.9449 202.059 30.4608 213.099 30.4608 228.089V280.222C26.7707 329.901 46.0145 329.288 60.6533 329.901C58.6099 371.952 75.1091 387.554 86.4541 390.621C200.789 426.538 329.792 402.138 346.261 398.938Z" fill="#FEF5EF"/>
<path d="M229.5 31C292.538 31 349.419 38.4658 390.38 50.4238C410.893 56.4124 427.129 63.4465 438.124 71.0352C449.273 78.7302 454 86.2363 454 93C454 99.7637 449.273 107.27 438.124 114.965C427.129 122.554 410.893 129.588 390.38 135.576C349.419 147.534 292.538 155 229.5 155C166.462 155 109.581 147.534 68.6201 135.576C48.1071 129.588 31.8707 122.554 20.876 114.965C9.72729 107.27 5 99.7637 5 93C5 86.2363 9.72729 78.7302 20.876 71.0352C31.8707 63.4465 48.1071 56.4124 68.6201 50.4238C109.581 38.4658 166.462 31 229.5 31Z" fill="#E3E0E1" stroke="black" stroke-width="10"/>
<path d="M229.5 5C292.538 5 349.419 12.4658 390.38 24.4238C410.893 30.4124 427.129 37.4465 438.124 45.0352C449.273 52.7302 454 60.2363 454 67C454 73.7637 449.273 81.2698 438.124 88.9648C427.129 96.5535 410.893 103.588 390.38 109.576C349.419 121.534 292.538 129 229.5 129C166.462 129 109.581 121.534 68.6201 109.576C48.1071 103.588 31.8707 96.5535 20.876 88.9648C9.72729 81.2698 5 73.7637 5 67C5 60.2363 9.72729 52.7302 20.876 45.0352C31.8707 37.4465 48.1071 30.4124 68.6201 24.4238C109.581 12.4658 166.462 5 229.5 5Z" fill="#E2DFE1" stroke="black" stroke-width="10"/>
<rect x="450" y="67" width="9" height="26" fill="black"/>
<rect y="66" width="7" height="27" fill="black"/>
<path d="M454 77L454 395" stroke="black" stroke-width="10"/>
<path d="M5 77V395" stroke="black" stroke-width="10"/>
<path d="M454 88C454 88 439.877 25 229.077 25C18.2769 25 12 88 12 88" stroke="black" stroke-width="10"/>
<path d="M262 107.221C262 107.221 395.819 106.363 396.179 75.7342C396.54 45.1053 262.755 42.9996 262.755 42.9996" stroke="#CEC9CD" stroke-width="8" stroke-linecap="round"/>
<path d="M193.344 359.143C189.345 376.566 221.344 387.02 230.345 363.063" stroke="black" stroke-width="10" stroke-linecap="round"/>
<path d="M267.343 359.143C271.342 376.566 239.344 387.02 230.343 363.063" stroke="black" stroke-width="10" stroke-linecap="round"/>
<path d="M278.552 248.839C230.133 296.893 166 263.501 155 239.021C176.5 185.001 253.042 184.151 280.053 223.426C292.858 207.254 306.665 206.578 310.5 206C313.701 219.4 305.23 232.09 302.062 239.021C306.464 247.338 309 259.455 308.5 266.001C301.297 268.311 284.721 256.54 278.552 248.839Z" fill="#F092A7" stroke="black" stroke-width="10" stroke-linejoin="round"/>
<circle cx="184" cy="237" r="8" fill="black"/>
<path d="M7.35253 221.724C4.35156 205.724 21.3109 204.203 27.8874 207.701C27.8874 203.953 26.5457 167.979 48.8487 176.224C71.3328 184.536 67.7855 225.984 60.3516 244.724C22.608 247.722 9.21659 231.662 7.35253 221.724Z" fill="#EE8FA5" stroke="black" stroke-width="10" stroke-linejoin="round"/>
<path d="M387.001 227.998C398.525 226.185 402.358 246.441 402.418 250.692C404.723 249.436 419.572 243.798 422 257C424.449 270.309 402.226 280.78 388.205 283.582C373.673 266.922 372.596 230.264 387.001 227.998Z" fill="#EE8FA5" stroke="black" stroke-width="10" stroke-linejoin="round"/>
<ellipse cx="18.0649" cy="11.4066" rx="18.0649" ry="11.4066" transform="matrix(0.982443 -0.186561 0.242724 0.970095 299 351.74)" fill="#F39CB1"/>
<ellipse cx="18.2233" cy="11.4066" rx="18.2233" ry="11.4066" transform="matrix(-0.982443 -0.186561 -0.242724 0.970095 160.344 351.8)" fill="#F39CB1"/>
<circle cx="144.5" cy="330.5" r="24.5" fill="#291B1D"/>
<ellipse cx="7.07055" cy="7.63316" rx="7.07055" ry="7.63316" transform="matrix(0.923019 0.384753 -0.481402 0.8765 132.35 313.841)" fill="#FDFDFD"/>
<circle cx="309.5" cy="330.5" r="24.5" fill="#291B1D"/>
<ellipse cx="7.07055" cy="7.63316" rx="7.07055" ry="7.63316" transform="matrix(0.923019 0.384753 -0.481402 0.8765 297.35 313.841)" fill="#FDFDFD"/>
<path d="M211.881 95.1033C208.156 96.9158 195.271 100.238 184.402 100.993C153.679 103.128 88.4468 103.259 75.8712 86.948C68.0464 76.7992 77.2748 65.2005 90.7827 59.7637C104.291 54.3268 113.219 52.1188 128.044 48.8899C144.36 45.3363 164.84 42.9998 170.428 43L170.573 43C176.303 42.9998 192.981 42.9992 205.361 48.8899C211.881 51.9921 219.32 56.5922 222.129 62.0292C225.886 69.3017 227.387 74.9308 224.456 82.4173C221.938 88.849 215.606 93.2907 211.881 95.1033Z" fill="#D9D9D9" stroke="black" stroke-width="10" stroke-linejoin="round"/>
<path d="M149.093 65.0923C146.227 69.6891 149.251 78.8633 155.22 81.6175C165.033 86.145 201.405 88.0442 203.762 74.7327C205.957 62.338 192.448 59.1241 183.966 58.6651C174.705 58.1641 154.952 55.6931 149.093 65.0923Z" stroke="black" stroke-width="10" stroke-linejoin="round"/>
</svg>
