<svg width="93" height="89" viewBox="0 0 93 89" fill="none" xmlns="http://www.w3.org/2000/svg">
<path d="M12.1994 79.2778C16.0094 89.9509 27.4453 87.6631 27.4453 87.6631C27.4453 87.6631 43.5882 86.2885 60.984 87.6639C67.3423 88.1666 72.7985 88.9679 75.4676 88.4262C83.2959 86.8375 87.6643 77.7541 83.0922 70.8927C67.8441 51.836 68.3007 52.7628 60.984 43.451C51.4007 31.2544 36.8461 38.1138 34.3053 42.6876C28.9677 48.0248 23.6472 57.1573 19.0579 61.7461C10.6719 70.1311 11.4371 75.2122 12.1994 79.2778Z" fill="#D9D7D7"/>
<circle cx="12.1967" cy="30.4921" r="12.1967" fill="#D9D7D7"/>
<circle cx="35.0659" cy="12.1967" r="12.1967" fill="#D9D7D7"/>
<circle cx="60.9838" cy="13.7216" r="12.1967" fill="#D9D7D7"/>
<circle cx="80.8032" cy="30.4921" r="12.1967" fill="#D9D7D7"/>
</svg>
