<svg width="545" height="537" viewBox="0 0 545 537" fill="none" xmlns="http://www.w3.org/2000/svg">
<path d="M143.899 270.457C144.005 270.953 144.268 271.416 144.67 271.74C145.072 272.063 145.575 272.221 146.077 272.178C146.58 272.135 147.048 271.894 147.39 271.508C147.731 271.121 147.912 270.62 147.933 270.113C147.933 270.113 147.933 270.113 147.933 270.113C148.026 268.54 148.35 266.95 148.81 265.394C152.628 253.547 162.295 243.199 172.93 240.413C174.9 239.9 176.969 239.553 179.083 239.343C193.305 238.169 208.936 241.639 221.774 249.745C223.192 250.671 224.569 251.673 225.885 252.756C226.275 253.081 226.767 253.283 227.283 253.29C227.799 253.297 228.292 253.111 228.661 252.768C229.031 252.424 229.251 251.945 229.281 251.431C229.311 250.915 229.145 250.41 228.848 249.997C228.848 249.997 228.848 249.997 228.848 249.997C227.74 248.476 226.513 247.027 225.2 245.662C213.133 233.525 195.726 227.155 178.016 228.6C175.356 228.864 172.681 229.352 170.034 230.139C154.223 235.21 144.882 249.803 143.55 264.529C143.435 266.49 143.507 268.486 143.899 270.457Z" fill="#302025"/>
<path d="M373.937 276.25C370.148 277.765 326.262 279.707 304.795 280.023C263.129 231.757 327.529 171.122 367.303 209.937C393.704 235.701 378.672 274.356 373.937 276.25Z" fill="#FEFFFE"/>
<path d="M358.987 277.195C356.233 278.378 338.595 279.784 322.99 280.03C281.324 244.993 327.731 196.693 360.252 225.29C383.609 245.829 362.429 275.715 358.987 277.195Z" fill="#211A19"/>
<path d="M374.622 278.649C374.225 278.98 373.721 279.172 373.198 279.162C372.676 279.152 372.181 278.943 371.818 278.578C371.456 278.213 371.252 277.716 371.246 277.194C371.24 276.671 371.436 276.168 371.771 275.774C371.771 275.774 371.771 275.774 371.771 275.774C373.364 273.876 374.726 271.761 375.873 269.549C384.907 252.076 380.178 231.319 367.771 217.151L368.196 217.613C365.854 215.403 363.421 213.378 360.879 211.574C343.376 197.685 318.078 202.03 303.07 220.138C301.351 222.059 299.746 224.055 298.212 226.174C297.91 226.593 297.468 226.903 296.959 227.022C296.45 227.141 295.919 227.061 295.478 226.796C295.036 226.532 294.716 226.101 294.582 225.596C294.447 225.091 294.513 224.555 294.74 224.091C294.74 224.091 294.74 224.091 294.74 224.091C295.963 221.618 297.307 219.239 298.833 216.904C310.726 194.801 345.997 185.043 367.125 202.768C370.165 204.926 372.984 207.332 375.619 209.928L376.043 210.39C390.473 227.111 393.866 254.512 380.392 272.377C378.711 274.678 376.792 276.811 374.622 278.649Z" fill="#302025"/>
<circle cx="317.365" cy="239.365" r="11.3652" fill="white"/>
<circle cx="359.365" cy="252.365" r="11.3652" fill="white"/>
<path d="M268.998 376C312.5 376 307.112 290.931 307.112 290.931C307.112 290.931 283.22 317.937 261.51 300.519C236.815 318.887 219 290.93 219 290.93C219 290.93 225.497 376 268.998 376Z" fill="black"/>
<path d="M307.112 290.931L304.491 288.612C305.428 287.552 306.911 287.161 308.248 287.62C309.586 288.079 310.516 289.298 310.605 290.709L307.112 290.931ZM268.998 376L268.998 379.5V379.5L268.998 376ZM219 290.93L215.51 291.197C215.387 289.596 216.37 288.118 217.893 287.61C219.416 287.102 221.089 287.696 221.951 289.049L219 290.93ZM258.645 283.49C259.755 281.908 261.938 281.524 263.521 282.634C265.103 283.744 265.487 285.927 264.377 287.509L261.511 285.5L258.645 283.49ZM259.5 294.5L262.989 294.219L259.5 294.5ZM307.112 290.931C310.605 290.709 310.606 290.711 310.606 290.712C310.606 290.713 310.606 290.715 310.606 290.717C310.606 290.721 310.606 290.726 310.607 290.732C310.608 290.745 310.609 290.762 310.61 290.785C310.613 290.831 310.617 290.897 310.621 290.982C310.631 291.153 310.644 291.402 310.659 291.724C310.688 292.368 310.726 293.305 310.758 294.492C310.821 296.866 310.862 300.247 310.774 304.299C310.597 312.388 309.901 323.233 307.806 334.126C305.721 344.964 302.195 356.159 296.168 364.722C290.046 373.421 281.245 379.5 268.998 379.5L268.998 376L268.998 372.5C278.503 372.5 285.341 367.945 290.444 360.694C295.642 353.307 298.925 343.234 300.932 332.804C302.927 322.43 303.603 312.008 303.775 304.146C303.861 300.224 303.821 296.958 303.76 294.68C303.73 293.541 303.694 292.65 303.666 292.048C303.652 291.747 303.64 291.518 303.632 291.367C303.628 291.292 303.624 291.236 303.622 291.199C303.621 291.181 303.62 291.168 303.62 291.16C303.62 291.156 303.62 291.154 303.619 291.152C303.619 291.152 303.619 291.151 303.619 291.151C303.619 291.151 303.619 291.152 307.112 290.931ZM268.998 376L268.998 379.5C256.817 379.5 247.35 373.491 240.158 364.964C233.023 356.505 227.96 345.398 224.364 334.568C220.755 323.698 218.546 312.868 217.239 304.781C216.585 300.73 216.154 297.351 215.886 294.978C215.752 293.791 215.658 292.855 215.598 292.211C215.568 291.889 215.546 291.64 215.532 291.47C215.525 291.384 215.519 291.318 215.516 291.273C215.514 291.25 215.512 291.232 215.511 291.219C215.511 291.213 215.511 291.208 215.51 291.204C215.51 291.202 215.51 291.201 215.51 291.2C215.51 291.198 215.51 291.197 219 290.93C222.489 290.664 222.489 290.663 222.489 290.663C222.489 290.663 222.489 290.664 222.489 290.664C222.49 290.666 222.49 290.668 222.49 290.672C222.491 290.68 222.492 290.693 222.493 290.711C222.496 290.748 222.501 290.804 222.507 290.879C222.52 291.03 222.54 291.259 222.568 291.56C222.624 292.162 222.713 293.054 222.842 294.193C223.099 296.472 223.515 299.739 224.15 303.664C225.42 311.528 227.555 321.965 231.007 332.362C234.474 342.8 239.191 352.96 245.509 360.451C251.771 367.875 259.429 372.5 268.998 372.5L268.998 376ZM307.112 290.931C309.734 293.25 309.733 293.251 309.732 293.252C309.731 293.253 309.73 293.254 309.729 293.255C309.727 293.257 309.725 293.26 309.722 293.263C309.717 293.269 309.71 293.276 309.702 293.285C309.686 293.304 309.664 293.328 309.636 293.359C309.58 293.421 309.501 293.507 309.4 293.615C309.198 293.832 308.907 294.138 308.534 294.516C307.788 295.272 306.708 296.318 305.347 297.511C302.636 299.886 298.744 302.899 294.083 305.353C284.758 310.264 271.704 313.185 259.32 303.249L261.51 300.519L263.701 297.789C273.026 305.271 282.773 303.398 290.822 299.16C294.848 297.04 298.286 294.39 300.734 292.246C301.951 291.179 302.908 290.251 303.553 289.598C303.876 289.271 304.119 289.014 304.278 288.844C304.357 288.759 304.415 288.696 304.451 288.656C304.469 288.636 304.481 288.623 304.488 288.615C304.491 288.611 304.493 288.609 304.494 288.609C304.494 288.608 304.494 288.608 304.494 288.609C304.493 288.609 304.493 288.61 304.493 288.61C304.492 288.611 304.491 288.612 307.112 290.931ZM261.51 300.519L263.599 303.327C256.893 308.315 250.42 310.314 244.424 310.27C238.472 310.226 233.304 308.173 229.145 305.584C224.995 303.001 221.742 299.821 219.543 297.325C218.437 296.069 217.58 294.967 216.993 294.168C216.699 293.768 216.472 293.443 216.314 293.211C216.235 293.095 216.173 293.002 216.128 292.935C216.106 292.901 216.088 292.874 216.075 292.853C216.068 292.843 216.063 292.834 216.058 292.827C216.056 292.824 216.054 292.821 216.052 292.818C216.051 292.817 216.05 292.815 216.05 292.814C216.049 292.813 216.048 292.811 219 290.93C221.951 289.049 221.95 289.048 221.95 289.047C221.95 289.047 221.949 289.046 221.949 289.045C221.948 289.044 221.948 289.044 221.948 289.044C221.947 289.044 221.948 289.045 221.95 289.048C221.954 289.054 221.962 289.067 221.975 289.085C221.999 289.122 222.04 289.184 222.098 289.269C222.213 289.437 222.392 289.695 222.634 290.023C223.118 290.682 223.845 291.62 224.795 292.698C226.709 294.87 229.453 297.531 232.844 299.641C236.225 301.746 240.142 303.238 244.475 303.27C248.765 303.301 253.78 301.906 259.422 297.711L261.51 300.519ZM261.511 285.5C264.377 287.509 264.378 287.508 264.378 287.507C264.379 287.507 264.379 287.506 264.38 287.505C264.381 287.503 264.382 287.502 264.383 287.501C264.385 287.498 264.386 287.496 264.388 287.493C264.391 287.489 264.394 287.485 264.396 287.482C264.4 287.476 264.402 287.473 264.402 287.473C264.402 287.473 264.393 287.486 264.378 287.51C264.348 287.559 264.291 287.654 264.216 287.793C264.065 288.072 263.848 288.52 263.635 289.115C263.211 290.303 262.814 292.053 262.989 294.219L259.5 294.5L256.011 294.781C255.743 291.447 256.352 288.696 257.043 286.76C257.389 285.792 257.758 285.021 258.054 284.472C258.202 284.197 258.333 283.976 258.435 283.812C258.486 283.73 258.53 283.662 258.566 283.608C258.583 283.581 258.599 283.558 258.612 283.538C258.619 283.529 258.625 283.52 258.631 283.512C258.633 283.508 258.636 283.504 258.639 283.5C258.64 283.499 258.641 283.497 258.642 283.495C258.643 283.494 258.644 283.493 258.644 283.493C258.645 283.492 258.645 283.49 261.511 285.5ZM259.5 294.5L262.989 294.219C263.055 295.037 263.394 296.144 263.828 297.207C264.031 297.704 264.228 298.13 264.374 298.428C264.446 298.577 264.504 298.691 264.542 298.764C264.561 298.8 264.574 298.826 264.582 298.841C264.586 298.848 264.588 298.853 264.589 298.854C264.589 298.855 264.589 298.855 264.589 298.854C264.589 298.853 264.588 298.853 264.588 298.852C264.588 298.852 264.588 298.851 264.587 298.851C264.587 298.85 264.587 298.85 264.587 298.85C264.587 298.849 264.586 298.849 261.51 300.519C258.435 302.189 258.434 302.188 258.434 302.188C258.434 302.188 258.434 302.187 258.433 302.187C258.433 302.186 258.433 302.185 258.432 302.185C258.431 302.183 258.43 302.181 258.429 302.179C258.427 302.175 258.425 302.17 258.422 302.165C258.416 302.154 258.408 302.139 258.398 302.122C258.38 302.086 258.355 302.039 258.324 301.98C258.263 301.862 258.18 301.697 258.081 301.493C257.883 301.088 257.619 300.52 257.347 299.851C256.83 298.585 256.164 296.682 256.011 294.781L259.5 294.5Z" fill="#211A19"/>
<ellipse cx="261.048" cy="279.365" rx="17.0478" ry="11.3652" fill="#211A19"/>
<path d="M293.001 356.5C293.001 356.5 291 370 275.883 372.676C264.67 375.564 255.501 369 255.501 369C255.501 369 259.804 354.899 273.001 351.5C285.519 348.275 293.001 356.5 293.001 356.5Z" fill="#D8718A"/>
<path d="M97.6325 385.408C104.174 370.515 118.633 351.228 144.79 339.931" stroke="#302025" stroke-width="10" stroke-linecap="round"/>
<path d="M450.27 365.254C442.848 350.78 427.259 332.393 400.472 322.684" stroke="#302025" stroke-width="10" stroke-linecap="round"/>
<path d="M81.0464 334.543C90.909 323.327 109.66 311.128 138.307 310.855" stroke="#302025" stroke-width="10" stroke-linecap="round"/>
<path d="M463.778 313.485C453.26 302.881 433.812 291.828 405.201 293.272" stroke="#302025" stroke-width="10" stroke-linecap="round"/>
</svg>
