<svg width="68" height="69" viewBox="0 0 68 69" fill="none" xmlns="http://www.w3.org/2000/svg">
<path d="M38.3429 12.7353C34.8379 15.9248 35.2553 21.2727 35.4935 21.6492C35.836 22.1904 44.5699 22.4866 46.8792 16.4041C48.2653 12.7532 46.6365 9.87766 46.6365 9.87766C46.6365 9.87766 42.1551 9.26617 38.3429 12.7353Z" fill="#7DDCB3"/>
<rect x="32.75" y="9.00049" width="3.75" height="15" rx="1.875" fill="#956B4A"/>
<path d="M44.625 19.0005C53.9447 19.0005 58.9999 26.5269 59 37.9175C59 49.3084 49 60.2505 44.625 60.2505C40.5978 60.2505 36.901 60.0154 34 58.187C31.099 60.0154 27.4023 60.2505 23.375 60.2505C19 60.2505 9 49.3084 9 37.9175C9.00014 26.5269 14.0553 19.0005 23.375 19.0005C27.4022 19.0005 31.099 20.7256 34 23.603C36.901 20.7256 40.5978 19.0005 44.625 19.0005Z" fill="#FD7C7A"/>
</svg>
