<svg width="99" height="93" viewBox="0 0 99 93" fill="none" xmlns="http://www.w3.org/2000/svg">
<path d="M27.7095 9.00959C40.2459 -7.10892 53.6449 2.11118 58.5534 8.21362C70.0155 -1.17876 78.3199 8.27992 81.0394 14.1833C102.133 13.3873 100.342 32.0927 91.785 38.2614C111.048 51.3153 86.8102 69.3043 76.2636 66.5184C67.5079 84.1889 54.1754 80.2489 48.6036 76.07C32.6842 84.9849 20.7446 71.2942 16.7647 63.3345C-8.10895 57.7627 -0.546811 35.2765 9.20317 28.5108C2.6762 10.8402 18.8212 8.14726 27.7095 9.00959Z" fill="white"/>
<ellipse cx="65.6843" cy="86.5728" rx="6.53114" ry="3.85931" transform="rotate(-23.0191 65.6843 86.5728)" fill="white"/>
<path d="M29.4512 26.9924C31.8067 37.5923 42.4066 36.4146 42.9955 37.0034L46.5288 34.059C43.7021 24.1658 33.9659 25.2258 29.4512 26.9924Z" fill="#4BA95E"/>
<rect x="42.4316" y="25.4302" width="5.88883" height="9.42212" rx="2.94441" transform="rotate(-19.3325 42.4316 25.4302)" fill="#282626"/>
<path d="M35.3648 39.3805C34.7743 29.3694 44.0333 30.1545 47.7629 32.3137C52.9451 23.8338 58.9517 26.8175 61.3072 29.3694C66.0183 35.0226 64.4479 44.6803 63.0739 48.8025C60.7183 53.9847 55.811 54.1024 53.6517 53.5136C48.9407 58.2246 44.2296 55.4765 42.463 53.5136C42.463 53.5136 35.9553 49.3917 35.3648 39.3805Z" fill="#9BE35C"/>
<rect x="40.0957" y="32.9028" width="5.88883" height="7.65624" rx="2.94441" transform="rotate(18.278 40.0957 32.9028)" fill="#E6FCB0"/>
</svg>
