<svg width="68" height="69" viewBox="0 0 68 69" fill="none" xmlns="http://www.w3.org/2000/svg">
<path d="M28.5589 13.7891C26.1224 15.2876 23.3722 16.6247 23.9022 20.5335C24.4322 24.4424 43.3799 20.5335 43.3799 20.5335C43.8954 16.5742 41.8613 15.4327 39.4866 13.4894C37.8734 12.1692 37.8498 10.9088 37.8498 10.4002C37.8498 9.805 38.6567 9.51768 38.6567 7.10354C38.6567 4.97612 37.481 3 34.5554 3C32.8933 3 31.202 3.90727 30.66 5.43888C29.6262 8.36026 31.1469 9.32996 31.1469 10.3038C31.1469 10.7861 30.9954 12.2906 28.5589 13.7891Z" fill="#FFCD5B"/>
<path d="M50.1367 27.2711C50.1367 28.926 48.7952 30.2676 47.1403 30.2676L20.9964 30.2676C19.3415 30.2676 18 28.926 18 27.2711C18 23.5477 21.0185 20.5292 24.742 20.5292L43.3948 20.5292C47.1182 20.5292 50.1367 23.5477 50.1367 27.2711Z" fill="#7FBEEC"/>
<path d="M18 34.1629C18 32.0116 19.744 30.2676 21.8954 30.2676H46.2414C48.3927 30.2676 50.1367 32.0116 50.1367 34.1629V61.4305C50.1367 64.1196 47.9567 66.2997 45.2675 66.2997H22.8692C20.18 66.2997 18 64.1196 18 61.4305V34.1629Z" fill="#F9F2E2"/>
<rect x="37.4766" y="37.0845" width="7.79072" height="2.92152" rx="1.46076" fill="#ADD4ED"/>
<rect x="37.4766" y="46.8228" width="7.79072" height="2.92152" rx="1.46076" fill="#ADD4ED"/>
<rect x="37.4766" y="56.5615" width="7.79072" height="2.92152" rx="1.46076" fill="#ADD4ED"/>
</svg>
