<svg width="68" height="69" viewBox="0 0 68 69" fill="none" xmlns="http://www.w3.org/2000/svg">
<path d="M16.2143 64.2703L42.8438 32.0458C42.8438 32.0458 42.3952 30.0628 39.94 28.0797C37.4848 26.0967 35.4781 26.0967 35.4781 26.0967L16.9933 49.1142C16.9933 49.1142 12.0357 55.7716 11.8232 56.8339C11.6108 57.8963 11.5399 60.021 11.8232 61.5082C12.0369 62.6301 12.5315 63.4205 13.523 64.6245C14.4562 65.7576 15.7893 64.8369 16.2143 64.2703Z" fill="#D1D4D6"/>
<path d="M51.7666 4C44.1005 4.00025 37.886 10.2148 37.8857 17.8809C37.8857 19.4734 38.1557 21.0032 38.6494 22.4277L35.3369 26.0254L42.7734 32.4707L44.8838 29.9385C46.9124 31.0991 49.262 31.7626 51.7666 31.7627C59.433 31.7627 65.6484 25.5473 65.6484 17.8809C65.6482 10.2146 59.4329 4.00002 51.7666 4ZM51.7637 10.5156C55.988 10.5156 59.4131 13.9407 59.4131 18.165C59.4129 22.3893 55.9879 25.8135 51.7637 25.8135C47.5395 25.8134 44.1154 22.3892 44.1152 18.165C44.1152 13.9407 47.5394 10.5157 51.7637 10.5156Z" fill="#FD857E"/>
<path d="M51.4342 64.2703L24.8047 32.0458C24.8047 32.0458 25.2532 30.0628 27.7084 28.0797C30.1636 26.0967 32.1703 26.0967 32.1703 26.0967L50.6551 49.1142C50.6551 49.1142 55.6127 55.7716 55.8252 56.8339C56.0377 57.8963 56.1085 60.021 55.8252 61.5082C55.6115 62.6301 55.117 63.4205 54.1255 64.6245C53.1923 65.7576 51.8591 64.8369 51.4342 64.2703Z" fill="#D9D9D9"/>
<path d="M15.8809 4C23.5473 4 29.7627 10.2154 29.7627 17.8818C29.7626 19.4742 29.4926 21.0033 28.999 22.4277L32.3115 26.0254L24.875 32.4707L22.7646 29.9385C20.7359 31.0992 18.3856 31.7627 15.8809 31.7627C8.21479 31.7624 2.00026 25.5479 2 17.8818C2.00002 10.2156 8.21464 4.00025 15.8809 4ZM15.8848 10.5156C11.6604 10.5156 8.23535 13.9407 8.23535 18.165C8.23553 22.3893 11.6605 25.8135 15.8848 25.8135C20.1089 25.8134 23.533 22.3892 23.5332 18.165C23.5332 13.9407 20.109 10.5157 15.8848 10.5156Z" fill="#FD857E"/>
<ellipse cx="33.803" cy="34.5248" rx="2.47881" ry="2.62046" fill="#83878A"/>
</svg>
