<svg width="68" height="69" viewBox="0 0 68 69" fill="none" xmlns="http://www.w3.org/2000/svg">
<path d="M33.3828 20.9077C42.5368 20.9077 50.2035 27.6106 52.1953 36.6079C52.4681 36.5348 52.7499 36.4966 53.0381 36.4966C55.4711 36.4967 57.4434 39.2274 57.4434 42.5962C57.4433 45.9649 55.4711 48.6957 53.0381 48.6958C52.4961 48.6958 51.9776 48.5589 51.498 48.311C48.7693 56.0548 41.6889 61.5737 33.3828 61.5737C25.1632 61.5737 18.1431 56.1693 15.3535 48.5522C15.0482 48.645 14.7317 48.6958 14.4062 48.6958C11.9732 48.6958 10.0001 45.965 10 42.5962C10 39.2273 11.9732 36.4966 14.4062 36.4966C14.4694 36.4966 14.5322 36.4988 14.5947 36.5024C16.623 27.5583 24.2647 20.9078 33.3828 20.9077Z" fill="#FDD29D"/>
<path d="M28.9766 51.0156C28.9766 51.0156 29.6612 52.7624 33.05 52.7624C36.4388 52.7624 37.2792 51.0157 37.2792 51.0157" stroke="#A2673E" stroke-width="1.69442" stroke-linecap="round"/>
<ellipse cx="33.2106" cy="46.8321" rx="2.20274" ry="1.52497" fill="#FEC07D"/>
<ellipse cx="24.0651" cy="41.9186" rx="2.54162" ry="3.04995" fill="#373635"/>
<ellipse cx="42.3619" cy="41.9186" rx="2.54162" ry="3.04995" fill="#373635"/>
<path d="M48.0821 29.2214C35.8823 32.3392 24.9652 28.858 20.8421 26.1469C20.8421 31.569 16.2837 34.2482 15.5497 34.1351L14.533 40.0656C14.533 37.8967 12.7254 37.5804 11.8216 37.6934C8.16169 26.578 13.218 16.6582 17.5826 15.4966C24.3603 6.51622 41.3044 6.68566 41.4739 7.19399C41.6094 7.60065 41.0785 8.83196 40.7961 9.39679C44.0155 9.22735 52.9959 10.4134 53.1654 11.4301C53.3009 12.2434 51.9793 13.9152 51.3015 14.6495C53.5042 16.2874 57.9097 19.7666 57.9097 20.5799C57.9097 21.3933 55.9894 22.2743 55.0292 22.6132C57.8758 28.7131 57.0461 35.8615 56.2554 38.5161C54.7643 36.4828 52.77 38.3713 51.9793 39.7268C52.1148 37.558 49.4376 31.8196 48.0821 29.2214Z" fill="#F0C54A"/>
</svg>
