<svg width="68" height="69" viewBox="0 0 68 69" fill="none" xmlns="http://www.w3.org/2000/svg">
<path d="M13.0637 13.4536C2.03508 21.6258 6.0923 32.347 10.6876 34.7793V54.4918C10.6876 58.5779 15.7236 60.33 17.1742 60.33H49.2951C53.9387 60.9138 56.556 55.5839 56.3141 53.6382L56.9225 33.9138C67.9512 26.325 58.9266 15.9196 53.4515 13.4535C37.8134 4.96925 20.6004 8.61958 13.0637 13.4536Z" fill="#D28A3D"/>
<path d="M16.1643 17.7442C6.91736 24.5577 12.3114 30.3168 16.1643 32.3446V51.2038C16.1643 54.6106 18.5969 55.4623 19.8132 55.4623H46.5807C50.4741 55.9489 51.0419 52.8261 50.8391 51.2038V32.3446C60.0861 26.0175 54.692 19.9747 50.8391 17.7442C36.7253 10.9306 21.0299 14.7031 16.1643 17.7442Z" fill="#FFE0AD"/>
</svg>
