<svg width="68" height="69" viewBox="0 0 68 69" fill="none" xmlns="http://www.w3.org/2000/svg">
<path d="M10.2227 55.3883V38.2241C10.2227 36.5673 11.5658 35.2241 13.2227 35.2241H54.9988C56.6556 35.2241 57.9988 36.5673 57.9988 38.2241V55.3883C57.9988 57.0452 56.6556 58.3883 54.9988 58.3883H13.2227C11.5658 58.3883 10.2227 57.0452 10.2227 55.3883Z" fill="#FECE55"/>
<path d="M10.9211 32.7102L26.3555 21.1343C26.6967 20.8785 27.0885 20.6983 27.5047 20.6058L44.6785 16.7894C45.7507 16.5511 46.8673 16.9178 47.5895 17.7453L57.2603 28.8263C57.7372 29.3728 58 30.0736 58 30.7989V55.3879C58 57.0448 56.6569 58.3879 55 58.3879H53.6567L52.403 38.9547C52.296 37.2961 50.8609 36.0406 49.2028 36.1549L10.2239 38.8431L9.75121 35.5344C9.5963 34.45 10.0447 33.3674 10.9211 32.7102Z" fill="#FEECE2"/>
<path d="M56.551 47.5297L10.2227 49.7013V45.3582C10.2227 45.3582 11.6704 46.3234 13.1182 46.0821C14.5659 45.8408 18.1853 45.3582 18.1853 45.3582C18.1853 45.3582 21.6521 43.7317 23.9764 43.9105C25.759 44.0476 26.5504 45.1007 28.3197 45.3582C30.8529 45.7269 34.2555 44.6343 34.8346 44.6343C35.5585 44.6343 37.0062 43.1868 39.9018 42.4625C42.5964 41.7884 47.0862 43.1864 50.0361 43.1864C51.0013 43.1864 56.551 42.4625 56.551 42.4625V47.5297Z" fill="#FEEADA"/>
<path d="M26.875 21.47C26.875 19.1536 29.2879 18.0919 30.4944 17.8506C33.3899 16.8855 40.1944 15.0999 44.2481 15.679C49.3153 16.4029 50.0392 18.5745 50.7631 20.0223C51.4869 21.47 51.4869 25.8133 50.7631 27.2611C50.184 28.4193 49.074 28.7089 48.5914 28.7089C47.8675 30.8805 46.4198 30.8805 42.0765 32.3283C38.6019 33.4865 35.8029 30.8805 34.8377 29.4327C29.7705 29.4327 30.4944 29.4327 29.0466 28.7089C27.5989 27.985 26.875 24.3656 26.875 21.47Z" fill="#FEFEFD"/>
<ellipse cx="39.9029" cy="18.5745" rx="7.23881" ry="7.96269" fill="#FE7371"/>
</svg>
