<svg width="68" height="69" viewBox="0 0 68 69" fill="none" xmlns="http://www.w3.org/2000/svg">
<path d="M49.4395 11C51.1542 11.0002 52.5437 12.3898 52.5439 14.1045V17.832H63.7266C65.4416 17.832 66.832 19.2225 66.832 20.9375V55.7168C66.8318 57.4316 65.4414 58.8213 63.7266 58.8213H4.10547C2.39061 58.8213 1.00024 57.4316 1 55.7168V20.9375C1 19.2225 2.39047 17.832 4.10547 17.832H21.2734L22.9375 13.0791C23.3735 11.8338 24.5487 11.0001 25.8682 11H49.4395Z" fill="#FDFCF3"/>
<rect x="1" y="23.4209" width="65.832" height="30.4318" fill="#4F545D"/>
<path d="M5.96484 15.3476C5.96484 14.6616 6.52096 14.1055 7.20696 14.1055H16.5228C17.2088 14.1055 17.7649 14.6616 17.7649 15.3476V17.8318H5.96484V15.3476Z" fill="#8D8D8D"/>
<circle cx="38.2606" cy="38.9476" r="18.6317" fill="#A5AAAF"/>
<circle cx="38.2648" cy="38.9479" r="13.6633" fill="#4E565E"/>
<circle cx="38.2649" cy="38.9475" r="11.8001" fill="#6B9DF1"/>
<ellipse cx="43.5" cy="35.5" rx="3.5" ry="4.5" fill="white" fill-opacity="0.8"/>
</svg>
