<svg width="68" height="69" viewBox="0 0 68 69" fill="none" xmlns="http://www.w3.org/2000/svg">
<path d="M27.5 36.9569C21.9625 32.3862 23.8854 25.2146 25.7402 21.7691C25.8741 21.5203 26.2027 21.4677 26.4154 21.6537C32.1286 26.6522 32.0669 32.4075 31.2108 35.0641C31.1374 35.2919 31.2358 35.5443 31.45 35.6514C31.6321 35.7424 31.8563 35.7013 31.9985 35.5556C37.2599 30.1627 43.2034 30.9921 45.942 32.2505C46.1827 32.3611 46.2587 32.655 46.1125 32.8758C45.4248 33.9142 43.5043 36.6694 41.6576 37.9928C39.3555 39.6425 33.3011 41.745 27.5 36.9569Z" fill="#F0C14C"/>
<path d="M33.1094 26.5975C27.5719 22.0268 29.4948 14.8552 31.3495 11.4098C31.4835 11.1609 31.8121 11.1083 32.0248 11.2944C37.738 16.2928 37.6762 22.0481 36.8202 24.7047C36.7467 24.9326 36.8452 25.1849 37.0594 25.292C37.2414 25.383 37.4657 25.3419 37.6079 25.1962C42.8693 19.8034 48.8128 20.6327 51.5514 21.8912C51.792 22.0017 51.8681 22.2956 51.7219 22.5164C51.0342 23.5549 49.1136 26.31 47.267 27.6334C44.9649 29.2832 38.9104 31.3857 33.1094 26.5975Z" fill="#F0C14C"/>
<path d="M25.4037 48.4263C27.0915 41.6462 34.8339 39.626 40.8716 42.0645C41.1133 42.1622 41.2145 42.4489 41.0935 42.6797C37.0322 50.4282 29.064 51.2505 25.6603 49.0955C25.4374 48.9544 25.34 48.6822 25.4037 48.4263Z" fill="#F0C14C"/>
<path d="M23.8611 48.1974C17.6963 45.1978 16.6178 37.3945 19.8865 31.8385C20.0187 31.6137 20.3178 31.5565 20.5282 31.7107C27.2899 36.6661 26.8242 43.7658 24.7044 47.9163C24.5465 48.2254 24.1732 48.3492 23.8611 48.1974Z" fill="#F0C14C"/>
<path d="M39.3305 19.5205C37.2721 13.2416 41.6637 7.93755 48.5162 4.85138C48.6547 4.789 48.8152 4.8807 48.8355 5.03123C50.1 14.4242 45.6875 19.1832 40.726 20.3154C40.1246 20.4526 39.5227 20.1066 39.3305 19.5205Z" fill="#F0C14C"/>
<path d="M19.5586 65.2712C20.9398 59.6313 23.9324 50.3081 25.6589 46.9702" stroke="#F0C14C" stroke-width="2.07181" stroke-linecap="round"/>
</svg>
