<svg width="46" height="46" viewBox="0 0 46 46" fill="none" xmlns="http://www.w3.org/2000/svg">
<g clip-path="url(#clip0_217_8)">
<rect width="46" height="46" rx="23" fill="#99BDFF"/>
<path d="M9.45801 44.5807C12.4948 46.3913 18.1415 46.6243 18.1415 46.6243L32.7308 44.8948C32.7308 44.8948 52.1254 41.5036 41.0041 22.3977C41.1066 12.715 38.5724 9.20968 37.2925 8.66733C33.404 8.21011 29.1263 13.3181 27.5187 15.871C23.226 14.817 19.0323 16.3561 16.7176 17.0455C11.2581 11.7745 7.26695 11.7406 5.95379 12.3825C2.82298 15.5044 4.0412 23.2023 5.04166 26.661C2.64499 32.8604 2.1706 40.2358 9.45801 44.5807Z" fill="#FDD4DD"/>
<path d="M23.7889 15.9006C23.9699 16.4148 24.1089 16.9993 24.1832 17.6259C24.4455 19.8389 23.8302 21.731 22.8089 21.8523C21.7875 21.9734 20.7469 20.2775 20.4845 18.0644C20.4102 17.4378 20.4088 16.837 20.4645 16.2947L23.7889 15.9006Z" fill="#D8718A"/>
<path d="M19.3171 16.6554C19.3171 16.6554 19.8246 20.2435 18.6482 20.8336C16.6026 21.6896 16.5567 17.4617 16.5563 17.419C16.5563 17.419 16.8712 17.2814 17.5118 17.1211C18.2675 16.9198 19.3171 16.6554 19.3171 16.6554Z" fill="#D8718A"/>
<path d="M24.9643 15.987C24.9671 16.017 25.2977 19.5942 26.5232 19.8903C28.6359 20.2441 27.7129 16.0802 27.7129 16.0802C27.703 16.0784 27.3793 16.0213 26.7551 16.0159C26.0043 15.9977 24.9643 15.987 24.9643 15.987Z" fill="#D8718A"/>
<path d="M18.1435 46.6297C18.1435 46.6297 12.4968 46.3966 9.45996 44.586C2.17255 40.2411 2.64694 32.8658 5.04361 26.6664C4.04315 23.2077 2.82493 15.5098 5.95575 12.3879C7.2689 11.746 11.2601 11.7799 16.7195 17.0509C19.0343 16.3615 23.228 14.8224 27.5207 15.8764C29.1283 13.3235 33.4059 8.21548 37.2945 8.6727C38.5744 9.21505 41.1085 12.7204 41.0061 22.4031C52.1273 41.509 32.7327 44.9002 32.7327 44.9002" stroke="#302025" stroke-width="1.17946" stroke-linecap="round"/>
<path d="M4.12488 38.3476C5.37422 37.5843 7.57606 36.8443 10.5906 37.1448" stroke="#302025" stroke-width="1.17946" stroke-linecap="round"/>
<path d="M45.7605 31.5918C44.3329 31.2672 42.0101 31.2687 39.2491 32.5157" stroke="#302025" stroke-width="1.17946" stroke-linecap="round"/>
<path d="M3.91481 33.4965C5.3322 33.1299 7.65411 33.0626 10.4507 34.2274" stroke="#302025" stroke-width="1.17946" stroke-linecap="round"/>
<path d="M44.4116 26.927C42.9513 27.0319 40.7293 27.7092 38.4508 29.7057" stroke="#302025" stroke-width="1.17946" stroke-linecap="round"/>
<path d="M7.89864 15.8703C6.95967 16.1025 7.06403 20.0168 7.81991 22.73C7.8617 22.88 8.04861 22.9271 8.16016 22.8185C8.58984 22.4 9.50047 21.5319 10.176 21.0183C10.8927 20.4734 11.9746 19.8487 12.409 19.6039C12.5124 19.5456 12.5474 19.4132 12.4835 19.3132C11.4273 17.6623 9.55709 15.4603 7.89864 15.8703Z" fill="#FDE2E5" stroke="#EEB8C3" stroke-width="1.17946" stroke-linecap="round"/>
<path d="M36.4794 13.2479C37.4467 13.2541 38.2604 17.0843 38.1599 19.8991C38.1543 20.0547 37.9836 20.1442 37.8497 20.0647C37.3341 19.7582 36.2458 19.1271 35.4688 18.7857C34.6447 18.4235 33.4467 18.069 32.967 17.9326C32.8529 17.9001 32.7879 17.7795 32.8267 17.6674C33.4675 15.8153 34.7711 13.237 36.4794 13.2479Z" fill="#FDE2E5" stroke="#EEB8C3" stroke-width="1.17946" stroke-linecap="round"/>
<path d="M37.4098 53.1726C35.506 53.6693 33.1676 52.6711 32.2363 52.0503L33.0641 47.601C35.5473 48.1805 37.0991 47.0676 37.6167 46.5666C38.7549 45.465 42.5659 39.2447 47.8602 40.9806C51.0678 42.0323 52.1142 46.3113 49.8261 48.2221C49.1018 48.8269 47.8602 49.1533 46.722 48.8269C45.6824 48.5288 45.3769 47.4817 44.2388 47.601C43.7141 47.656 43.0042 48.2519 42.1694 49.7581C41.0312 51.8117 39.7896 52.5518 37.4098 53.1726Z" fill="#FDD4DD"/>
<path d="M43.5855 41.2684C43.4306 41.366 43.2694 41.459 43.1151 41.5341C42.3777 41.5111 41.5649 42.5254 41.5536 42.5395C41.5571 42.5633 41.8927 44.8442 43.1025 45.1253C44.7052 45.3877 44.6449 42.6047 44.5313 41.298L43.5855 41.2684Z" fill="#D8718A"/>
<path d="M38.9224 44.9926C38.7853 45.1137 38.6412 45.2328 38.5002 45.3336C37.7432 45.4748 37.1184 46.5755 37.1184 46.5755C37.1184 46.5755 37.9176 48.5692 39.2064 48.5576C40.8829 48.4435 40.2658 45.9602 39.8892 44.8124L38.9224 44.9926Z" fill="#D8718A"/>
<path d="M32.2363 52.0571C33.1676 52.678 35.3765 53.5534 37.4098 53.1795C39.6596 52.7657 41.0312 51.8185 42.1694 49.765C43.0042 48.2588 43.618 47.699 44.2388 47.6079C45.3088 47.4507 45.6824 48.5356 46.722 48.8337C47.8602 49.1601 49.1018 48.8337 49.8261 48.2289C52.1142 46.3182 51.0678 42.0391 47.8602 40.9874C42.5659 39.2516 38.7549 45.4718 37.6167 46.5734C37.0991 47.0744 35.5473 48.1873 33.0641 47.6079" stroke="#302025" stroke-width="1.17946"/>
<path d="M32.8652 51.4164L33.1404 56.2522H17.5716V49.8045C17.5716 49.8045 14.1008 50.8252 12.8537 47.9174C11.6067 45.0095 16.9818 41.0764 16.9818 41.0764L18.633 37.931C20.0718 37.2016 21.8176 39.1498 21.8176 39.1498C21.8176 39.1498 29.623 36.3035 32.8652 39.1498C34.7435 40.7988 32.59 41.4303 35.971 45.5975C39.3521 49.7647 32.8652 51.4164 32.8652 51.4164Z" fill="#FDD4DD"/>
<path d="M9.99944 30.2816C10.0174 30.3341 10.0519 30.3809 10.0996 30.4108C10.1474 30.4407 10.204 30.4514 10.2579 30.4403C10.3119 30.4292 10.3596 30.397 10.3917 30.3507C10.4237 30.3043 10.4369 30.2477 10.4326 30.1924C10.4326 30.1924 10.4326 30.1924 10.4326 30.1924C10.4225 30.0206 10.4373 29.8439 10.4672 29.6692C10.729 28.3348 11.6447 27.0878 12.7626 26.6488C12.9697 26.5678 13.1897 26.5035 13.4164 26.4535C14.9442 26.1433 16.6847 26.3187 18.1816 27.033C18.3473 27.1152 18.5097 27.2062 18.6663 27.3068C18.7129 27.337 18.7689 27.3527 18.8249 27.3467C18.881 27.3409 18.9321 27.3144 18.9677 27.2724C19.0034 27.2303 19.0211 27.1756 19.0178 27.1193C19.0144 27.063 18.9898 27.0104 18.9524 26.9694C18.9524 26.9694 18.9524 26.9694 18.9524 26.9694C18.8126 26.8186 18.6608 26.6772 18.5008 26.5459C17.0356 25.3844 15.0653 24.9173 13.1624 25.3018C12.8773 25.3647 12.5933 25.452 12.3163 25.5715C10.6662 26.325 9.84051 28.0283 9.88541 29.643C9.89807 29.8572 9.93162 30.0729 9.99944 30.2816Z" fill="#302025"/>
<path d="M37.3388 26.9169C37.3373 26.9724 37.3185 27.0274 37.2818 27.0702C37.2451 27.1131 37.1943 27.1401 37.1395 27.1456C37.0846 27.1511 37.0295 27.1347 36.985 27.1C36.9406 27.0653 36.9112 27.0152 36.8987 26.9611C36.8987 26.9611 36.8987 26.9611 36.8987 26.9611C36.8558 26.7779 36.8042 26.5979 36.741 26.429C36.2356 24.9359 34.6973 24.5935 33.1831 24.6176C33.0708 24.6187 32.9586 24.623 32.8464 24.6305C31.2666 24.7338 29.7169 25.4826 28.2314 26.3776C28.0656 26.4777 27.9008 26.5795 27.7358 26.6836C27.6888 26.7133 27.6326 26.7281 27.5766 26.7214C27.5207 26.7147 27.4699 26.6875 27.4349 26.6449C27.3999 26.6024 27.3829 26.5474 27.3871 26.4912C27.3912 26.4349 27.4166 26.3826 27.4546 26.3422C27.4546 26.3422 27.4546 26.3422 27.4546 26.3422C27.5918 26.1975 27.7315 26.0558 27.8754 25.9167C29.1543 24.6826 30.8026 23.5911 32.7679 23.4537C32.9057 23.4445 33.044 23.4403 33.1826 23.4412C34.0482 23.4508 34.9642 23.5789 35.7928 24.0453C36.6334 24.4963 37.218 25.4123 37.3073 26.2936C37.3349 26.5033 37.3433 26.7142 37.3388 26.9169Z" fill="#302025"/>
<path d="M24.075 30.1289C24.075 30.1289 25.0302 30.5777 25.5235 30.7207C26.5166 31.0086 27.3662 30.5056 28.2474 30.1276C28.8535 33.2467 27.8114 38.7878 25.7478 39.2226C23.8108 39.6308 23.2698 36.3135 20.1429 31.0321C21.7714 31.7545 22.9368 31.2714 24.075 30.1289Z" fill="#1F1919"/>
<ellipse cx="23.8785" cy="28.4493" rx="1.86245" ry="1.24163" transform="rotate(-6.76084 23.8785 28.4493)" fill="#211A19"/>
<path d="M27.204 36.6272C27.5465 37.6245 26.891 38.6227 25.9849 38.9469C25.4184 39.1496 24.3805 39.1345 24.0189 38.082C23.8112 37.4773 23.5693 36.2581 25.3958 35.8802C26.5363 35.6442 27.0357 36.1375 27.204 36.6272Z" fill="#D8718A"/>
<path d="M28.3344 30.0063L27.9685 29.6813C28.1078 29.5244 28.3316 29.4738 28.5249 29.5555C28.7182 29.6372 28.8378 29.833 28.8224 30.0423L28.3344 30.0063ZM20.0849 30.7289L19.6405 30.9339C19.5381 30.712 19.6152 30.4486 19.8209 30.3168C20.0267 30.185 20.2982 30.2252 20.4569 30.411L20.0849 30.7289ZM25.7272 39.2378L25.6691 38.7519L25.7272 39.2378ZM23.4857 29.2314C23.4538 28.963 23.6456 28.7196 23.9139 28.6878C24.1823 28.6559 24.4257 28.8477 24.4576 29.116L23.9716 29.1737L23.4857 29.2314ZM28.3344 30.0063C28.8224 30.0423 28.8224 30.0424 28.8224 30.0425C28.8224 30.0426 28.8224 30.0427 28.8224 30.0429C28.8223 30.0432 28.8223 30.0437 28.8222 30.0443C28.8222 30.0456 28.822 30.0473 28.8218 30.0496C28.8215 30.0542 28.821 30.061 28.8203 30.0698C28.8189 30.0874 28.8169 30.1133 28.8142 30.1469C28.8088 30.2141 28.8006 30.3122 28.7895 30.4368C28.7673 30.6861 28.7334 31.0418 28.6867 31.4692C28.5934 32.323 28.4482 33.4671 28.2411 34.6214C28.0349 35.7702 27.7634 36.9527 27.4113 37.8724C27.2359 38.3306 27.0308 38.7497 26.7865 39.0708C26.5471 39.3855 26.2186 39.6719 25.7853 39.7237L25.7272 39.2378L25.6691 38.7519C25.7215 38.7457 25.8388 38.7001 26.0076 38.4782C26.1716 38.2627 26.3372 37.9407 26.4973 37.5225C26.8162 36.6895 27.075 35.5786 27.2777 34.4485C27.4795 33.324 27.6218 32.2037 27.7138 31.3629C27.7597 30.9429 27.7929 30.5938 27.8146 30.35C27.8255 30.2281 27.8334 30.1327 27.8387 30.0679C27.8413 30.0355 27.8432 30.0109 27.8445 29.9944C27.8451 29.9862 27.8456 29.98 27.8459 29.976C27.8461 29.9739 27.8462 29.9724 27.8462 29.9715C27.8463 29.971 27.8463 29.9707 27.8463 29.9705C27.8463 29.9704 27.8463 29.9703 27.8463 29.9703C27.8463 29.9702 27.8463 29.9703 28.3344 30.0063ZM25.7272 39.2378L25.7853 39.7237C25.3694 39.7734 24.9899 39.5398 24.706 39.3053C24.3993 39.0519 24.0831 38.6948 23.7711 38.2883C23.1443 37.4716 22.4763 36.3777 21.8692 35.2957C21.26 34.21 20.7031 33.12 20.299 32.3026C20.0968 31.8936 19.9325 31.5521 19.8186 31.3126C19.7617 31.1928 19.7173 31.0985 19.6871 31.034C19.672 31.0017 19.6605 30.9769 19.6526 30.96C19.6487 30.9516 19.6457 30.9451 19.6437 30.9408C19.6427 30.9386 19.6419 30.9369 19.6414 30.9358C19.6411 30.9352 19.6409 30.9347 19.6408 30.9344C19.6407 30.9343 19.6406 30.9341 19.6406 30.9341C19.6406 30.9339 19.6405 30.9339 20.0849 30.7289C20.5292 30.5239 20.5292 30.5239 20.5292 30.5239C20.5293 30.5239 20.5293 30.524 20.5293 30.5241C20.5294 30.5243 20.5296 30.5247 20.5298 30.5252C20.5303 30.5261 20.5309 30.5276 20.5319 30.5296C20.5337 30.5336 20.5365 30.5396 20.5402 30.5477C20.5477 30.5637 20.5589 30.5877 20.5736 30.6192C20.603 30.682 20.6465 30.7745 20.7025 30.8923C20.8146 31.128 20.9767 31.465 21.1764 31.8689C21.5761 32.6773 22.1247 33.751 22.7228 34.8168C23.3229 35.8863 23.9638 36.9318 24.5475 37.6924C24.8407 38.0744 25.1051 38.3654 25.3294 38.5508C25.5765 38.755 25.6783 38.7508 25.6691 38.7519L25.7272 39.2378ZM28.3344 30.0063C28.7003 30.3312 28.7001 30.3314 28.6999 30.3317C28.6998 30.3317 28.6996 30.332 28.6994 30.3322C28.6991 30.3325 28.6988 30.3329 28.6984 30.3333C28.6977 30.3341 28.6969 30.335 28.696 30.336C28.6941 30.3381 28.6918 30.3406 28.6891 30.3435C28.6837 30.3494 28.6766 30.3569 28.6678 30.366C28.6503 30.3842 28.6261 30.4086 28.5954 30.4378C28.534 30.4962 28.4461 30.5743 28.3329 30.6609C28.1073 30.8335 27.776 31.0441 27.3501 31.1971C26.4778 31.5106 25.2623 31.5614 23.8413 30.6742L24.1005 30.2591L24.3597 29.844C25.518 30.5672 26.4194 30.4916 27.0192 30.2761C27.3294 30.1646 27.5729 30.01 27.7382 29.8836C27.8204 29.8207 27.8819 29.7658 27.921 29.7285C27.9406 29.7099 27.9545 29.6959 27.9625 29.6876C27.9665 29.6834 27.969 29.6807 27.97 29.6796C27.9705 29.6791 27.9706 29.6789 27.9704 29.6792C27.9702 29.6793 27.97 29.6796 27.9697 29.6799C27.9695 29.6801 27.9693 29.6803 27.9691 29.6806C27.969 29.6807 27.9689 29.6809 27.9688 29.6809C27.9686 29.6811 27.9685 29.6813 28.3344 30.0063ZM24.1005 30.2591L24.4367 30.6146C23.1182 31.8616 21.9494 32.0538 21.06 31.8356C20.6333 31.731 20.3024 31.5389 20.0789 31.3746C19.9666 31.2921 19.8794 31.2151 19.8185 31.1566C19.788 31.1274 19.7638 31.1025 19.7462 31.0838C19.7374 31.0744 19.7302 31.0664 19.7246 31.0602C19.7218 31.0571 19.7195 31.0544 19.7175 31.0522C19.7165 31.051 19.7156 31.05 19.7149 31.0491C19.7145 31.0487 19.7141 31.0483 19.7138 31.0479C19.7136 31.0477 19.7134 31.0474 19.7133 31.0473C19.713 31.047 19.7128 31.0468 20.0849 30.7289C20.4569 30.411 20.4567 30.4107 20.4565 30.4105C20.4564 30.4104 20.4562 30.4102 20.4561 30.41C20.4559 30.4098 20.4557 30.4095 20.4555 30.4093C20.4551 30.4088 20.4548 30.4085 20.4545 30.4082C20.4541 30.4077 20.454 30.4076 20.4543 30.4079C20.4548 30.4085 20.4568 30.4107 20.4601 30.4142C20.4667 30.4212 20.4787 30.4337 20.4959 30.4502C20.5306 30.4834 20.5853 30.5322 20.6586 30.5861C20.8063 30.6947 21.0213 30.8184 21.2932 30.8851C21.8008 31.0096 22.6398 30.9669 23.7642 29.9035L24.1005 30.2591ZM23.9716 29.1737L24.4576 29.116L24.5864 30.2014L24.1005 30.2591L23.6145 30.3168L23.4857 29.2314L23.9716 29.1737Z" fill="#211A19"/>
</g>
<defs>
<clipPath id="clip0_217_8">
<rect width="46" height="46" rx="23" fill="white"/>
</clipPath>
</defs>
</svg>
