<svg width="116" height="116" viewBox="0 0 116 116" fill="none" xmlns="http://www.w3.org/2000/svg">
<g clip-path="url(#clip0_134_120)">
<rect width="116" height="116" rx="58" fill="#FCC46A"/>
<path d="M28.3092 92.9091C35.0451 96.9252 47.57 97.4422 47.57 97.4422L79.9301 93.6059C79.9301 93.6059 122.949 86.084 98.281 43.7056C98.5082 22.2287 92.8872 14.4535 90.0483 13.2506C81.4232 12.2364 71.935 23.5664 68.3693 29.2288C58.8477 26.891 49.5458 30.3048 44.4116 31.8341C32.302 20.1426 23.4493 20.0673 20.5366 21.4912C13.5922 28.4157 16.2943 45.4903 18.5134 53.162C13.1974 66.9128 12.1452 83.2718 28.3092 92.9091Z" fill="#FDD4DD"/>
<path d="M60.1065 29.295C60.5075 30.4349 60.8104 31.7319 60.9751 33.1207C61.557 38.0297 60.1913 42.2265 57.9256 42.4951C55.6601 42.7632 53.3517 39.0021 52.7698 34.0935C52.6052 32.7047 52.5965 31.3728 52.7198 30.1707L60.1065 29.295Z" fill="#D8718A"/>
<path d="M46.1726 32.0026C47.8489 31.5562 50.1776 30.9703 50.1776 30.9703C50.1827 31.0063 51.2973 38.9316 48.6932 40.2368C44.1331 42.1447 44.0542 32.6619 44.0542 32.6619C44.0542 32.6619 44.7517 32.3584 46.1726 32.0026Z" fill="#D8718A"/>
<path d="M66.6695 29.5491C65.0042 29.5086 62.6982 29.4848 62.6982 29.4848C62.6982 29.4848 63.4266 37.4848 66.1569 38.1437C70.8336 38.9264 68.8034 29.7279 68.7956 29.6926C68.7956 29.6926 68.0763 29.5613 66.6695 29.5491Z" fill="#D8718A"/>
<path d="M47.5719 97.453C47.5719 97.453 35.047 96.9359 28.3112 92.9199C12.1471 83.2826 13.1994 66.9235 18.5154 53.1728C16.2963 45.501 13.5941 28.4265 20.5386 21.5019C23.4512 20.0781 32.304 20.1533 44.4135 31.8448C49.5478 30.3156 58.8497 26.9017 68.3713 29.2396C71.937 23.5772 81.4252 12.2471 90.0503 13.2613C92.8892 14.4643 98.5102 22.2395 98.2829 43.7163C122.951 86.0947 79.932 93.6167 79.932 93.6167" stroke="#302025" stroke-width="2.61613" stroke-linecap="round"/>
<path d="M12.7675 82.6633C14.1404 79.7204 17.3021 75.6522 23.242 72.5105" stroke="#302025" stroke-width="2.61613" stroke-linecap="round"/>
<path d="M110.21 68.8483C108.212 66.2882 104.219 63.0325 97.7256 61.3027" stroke="#302025" stroke-width="2.61613" stroke-linecap="round"/>
<path d="M6.43002 73.9553C8.59986 71.5392 12.8086 68.5672 19.4057 67.29" stroke="#302025" stroke-width="2.61613" stroke-linecap="round"/>
<path d="M114.432 58.939C111.775 57.071 107.007 55.1184 100.292 55.353" stroke="#302025" stroke-width="2.61613" stroke-linecap="round"/>
<path d="M24.8509 29.2269C22.7682 29.7418 22.9996 38.424 24.6762 44.4422C24.7689 44.7749 25.1835 44.8794 25.4309 44.6384C26.384 43.7102 28.4039 41.7847 29.9023 40.6454C31.4919 39.4369 33.8916 38.0511 34.8553 37.5082C35.0846 37.379 35.1622 37.0852 35.0204 36.8635C32.6778 33.2016 28.5295 28.3173 24.8509 29.2269Z" fill="#FDE2E5" stroke="#EEB8C3" stroke-width="2.61613" stroke-linecap="round"/>
<path d="M88.2478 23.4104C90.3931 23.4241 92.1981 31.9197 91.9751 38.1632C91.9628 38.5083 91.5841 38.7068 91.2872 38.5304C90.1435 37.8507 87.7294 36.4508 86.0062 35.6935C84.1781 34.8901 81.5209 34.1039 80.4569 33.8013C80.2038 33.7293 80.0596 33.4618 80.1457 33.2131C81.5671 29.105 84.4585 23.3862 88.2478 23.4104Z" fill="#FDE2E5" stroke="#EEB8C3" stroke-width="2.61613" stroke-linecap="round"/>
<path d="M90.3072 111.967C86.0843 113.068 80.8976 110.854 78.832 109.477L80.6681 99.6086C86.1761 100.894 89.6181 98.4253 90.7662 97.3141C93.2907 94.8706 101.744 81.0736 113.487 84.9239C120.602 87.2566 122.923 96.7479 117.848 100.986C116.241 102.328 113.487 103.052 110.962 102.328C108.657 101.666 107.979 99.3439 105.454 99.6086C104.291 99.7306 102.716 101.052 100.864 104.393C98.3398 108.948 95.5858 110.59 90.3072 111.967Z" fill="#FDD4DD"/>
<path d="M104.012 85.5624C103.668 85.7787 103.311 85.9857 102.969 86.1522C101.328 86.1009 99.5183 88.3649 99.5054 88.381C99.5105 88.416 100.253 93.4914 102.941 94.1161C106.496 94.6986 106.366 88.5271 106.114 85.6281L104.012 85.5624Z" fill="#D8718A"/>
<path d="M93.6607 93.8209C93.356 94.09 93.0354 94.354 92.722 94.578C91.0552 94.8889 89.6783 97.2972 89.6582 97.3325C89.6582 97.3325 91.4294 101.754 94.2881 101.728C98.0072 101.476 96.6388 95.9672 95.8034 93.4215L93.6607 93.8209Z" fill="#D8718A"/>
<path d="M78.832 109.492C80.8976 110.869 85.7973 112.81 90.3072 111.981C95.2975 111.063 98.3398 108.962 100.864 104.407C102.716 101.066 104.077 99.825 105.454 99.6228C107.828 99.2742 108.657 101.681 110.962 102.342C113.487 103.066 116.241 102.342 117.848 101C122.923 96.7621 120.602 87.2708 113.487 84.9381C101.744 81.0878 93.2907 94.8848 90.7662 97.3282C89.6181 98.4394 86.1761 100.908 80.6681 99.6228" stroke="#302025" stroke-width="2.61613"/>
<path d="M80.2273 108.071L80.8376 118.797H46.3047V104.496C46.3047 104.496 38.6062 106.76 35.8402 100.31C33.0741 93.8601 44.9965 85.1362 44.9965 85.1362L48.6591 78.1594C51.8503 76.5415 55.7227 80.8628 55.7227 80.8628C55.7227 80.8628 73.0357 74.5493 80.2273 80.8628C84.3935 84.5204 79.6168 85.9212 87.1162 95.1643C94.6156 104.407 80.2273 108.071 80.2273 108.071Z" fill="#FDD4DD"/>
<path d="M70.2755 106.172C71.2652 109.712 69.1978 113.384 65.6577 114.374C62.1177 115.363 58.4456 113.296 57.4559 109.756C56.4662 106.216 59.028 104.312 62.568 103.322C66.108 102.332 69.2858 102.632 70.2755 106.172Z" fill="#FEFFFE"/>
<path d="M74.9215 99.0727C68.6428 82.7655 76.4912 80.3412 79.8921 81.0214C82.9443 81.6319 82.7699 88.3466 82.7699 88.3466L86.4324 93.0556C95.5017 106.572 80.3281 107.88 80.3281 107.88L81.2002 119.217L47.2777 118.606C47.2777 118.606 45.8352 109.955 46.7545 104.218C42.5687 106.311 38.3557 104.925 36.1155 101.427C31.1449 93.6661 40.5925 88.5225 44.9232 85.1199C47.365 83.2014 44.5744 80.5853 49.2834 78.2309C52.1612 76.2252 63.8465 81.1958 50.0681 97.503" stroke="#302025" stroke-width="2.61613" stroke-linecap="round" stroke-linejoin="round"/>
<path d="M60.7276 60.8545C60.7276 60.8545 62.8464 61.85 63.9405 62.1672C66.1433 62.8058 68.0277 61.69 69.9824 60.8517C71.3267 67.7701 69.0152 80.0608 64.4381 81.0251C60.1415 81.9304 58.9416 74.5724 52.0059 62.8579C55.6181 64.4602 58.203 63.3887 60.7276 60.8545Z" fill="#1F1919"/>
<ellipse cx="60.2957" cy="57.1289" rx="4.13106" ry="2.75404" transform="rotate(-6.76084 60.2957 57.1289)" fill="#211A19"/>
<path d="M67.6686 75.2682C68.4284 77.4803 66.9746 79.6943 64.9648 80.4134C63.7081 80.863 61.406 80.8294 60.604 78.495C60.1432 77.1536 59.6067 74.4493 63.6581 73.6111C66.1877 73.0878 67.2955 74.1818 67.6686 75.2682Z" fill="#D8718A"/>
<path d="M70.1802 60.5831L69.2022 59.7145C69.5746 59.2951 70.1729 59.1599 70.6895 59.3782C71.2061 59.5966 71.526 60.12 71.4848 60.6794L70.1802 60.5831ZM51.8822 62.1859L50.6945 62.7339C50.4208 62.1408 50.6267 61.4367 51.1767 61.0844C51.7267 60.7321 52.4524 60.8395 52.8767 61.3361L51.8822 62.1859ZM64.3973 81.0594L64.2421 79.7606L64.3973 81.0594ZM59.2044 58.8907C59.1193 58.1733 59.6318 57.5227 60.3492 57.4375C61.0666 57.3523 61.7172 57.8649 61.8023 58.5822L60.5034 58.7365L59.2044 58.8907ZM70.1802 60.5831C71.4848 60.6794 71.4847 60.6796 71.4847 60.6799C71.4847 60.6801 71.4847 60.6804 71.4847 60.6808C71.4846 60.6816 71.4845 60.6827 71.4844 60.6841C71.4842 60.6869 71.4839 60.6909 71.4835 60.696C71.4827 60.7064 71.4816 60.7214 71.4801 60.7411C71.477 60.7804 71.4725 60.8381 71.4664 60.9129C71.4543 61.0625 71.4361 61.2807 71.4114 61.5578C71.3621 62.112 71.2869 62.9026 71.183 63.8522C70.9757 65.7489 70.6531 68.2921 70.1924 70.8591C69.7344 73.4115 69.1292 76.0508 68.3407 78.1104C67.9481 79.1357 67.4843 80.0875 66.9242 80.8237C66.3771 81.5429 65.6004 82.233 64.5525 82.3582L64.3973 81.0594L64.2421 79.7606C64.2717 79.7571 64.4838 79.7107 64.8421 79.2397C65.1876 78.7856 65.5459 78.0935 65.8975 77.175C66.5973 75.347 67.1684 72.8994 67.6174 70.3971C68.0638 67.9094 68.3788 65.4301 68.5824 63.5679C68.684 62.6382 68.7576 61.8652 68.8056 61.3258C68.8296 61.0561 68.8473 60.8449 68.8588 60.7019C68.8646 60.6303 68.8689 60.5759 68.8717 60.5396C68.8731 60.5215 68.8741 60.5079 68.8748 60.4991C68.8751 60.4946 68.8754 60.4914 68.8755 60.4893C68.8756 60.4883 68.8757 60.4876 68.8757 60.4872C68.8757 60.487 68.8757 60.4869 68.8757 60.4868C68.8757 60.4867 68.8757 60.4868 70.1802 60.5831ZM64.3973 81.0594L64.5525 82.3582C63.5334 82.48 62.6284 81.9078 61.9904 81.3806C61.2915 80.8031 60.5783 79.9962 59.8819 79.0887C58.4819 77.2645 56.9941 74.8272 55.6459 72.4244C54.2921 70.0116 53.055 67.5902 52.1577 65.7752C51.7086 64.8668 51.3437 64.1083 51.0907 63.5762C50.9641 63.3101 50.8655 63.1005 50.7984 62.957C50.7648 62.8852 50.739 62.8299 50.7216 62.7923C50.7128 62.7735 50.7062 62.7592 50.7017 62.7494C50.6994 62.7445 50.6976 62.7407 50.6964 62.7381C50.6958 62.7368 50.6954 62.7358 50.6951 62.7351C50.6949 62.7348 50.6947 62.7345 50.6947 62.7343C50.6946 62.734 50.6945 62.7339 51.8822 62.1859C53.07 61.6379 53.0699 61.6378 53.07 61.6379C53.07 61.638 53.0701 61.6381 53.0702 61.6384C53.0704 61.6388 53.0707 61.6396 53.0712 61.6406C53.0722 61.6427 53.0737 61.6459 53.0757 61.6503C53.0798 61.6591 53.0859 61.6724 53.0942 61.6901C53.1106 61.7256 53.1354 61.7786 53.1679 61.8481C53.2329 61.9872 53.3292 62.1919 53.4533 62.4528C53.7015 62.9747 54.0606 63.7211 54.5029 64.6158C55.3884 66.407 56.6035 68.7848 57.9274 71.1443C59.257 73.5138 60.6724 75.8218 61.9573 77.496C62.6033 78.3377 63.1779 78.9682 63.6568 79.3639C64.1965 79.8099 64.3591 79.7466 64.2421 79.7606L64.3973 81.0594ZM70.1802 60.5831C71.1583 61.4516 71.1578 61.4522 71.1573 61.4528C71.1571 61.4531 71.1565 61.4537 71.1561 61.4541C71.1553 61.455 71.1544 61.456 71.1535 61.457C71.1517 61.459 71.1496 61.4614 71.1473 61.4639C71.1427 61.469 71.1371 61.4751 71.1306 61.4821C71.1176 61.4962 71.1009 61.5141 71.0804 61.5354C71.0394 61.578 70.9834 61.6345 70.9127 61.7017C70.7715 61.8359 70.5704 62.0144 70.3123 62.2119C69.7982 62.6052 69.0433 63.0851 68.0725 63.434C66.0755 64.1516 63.308 64.2586 60.0964 62.2534L60.7892 61.1438L61.482 60.0343C63.9914 61.6011 65.9194 61.4278 67.1877 60.972C67.8496 60.7342 68.3697 60.4041 68.7226 60.1342C68.8979 60 69.0282 59.8835 69.1101 59.8057C69.1509 59.7669 69.1793 59.738 69.1949 59.7218C69.2027 59.7137 69.2072 59.7089 69.2084 59.7075C69.2091 59.7069 69.2088 59.7071 69.2078 59.7082C69.2073 59.7088 69.2065 59.7096 69.2056 59.7107C69.2051 59.7112 69.2046 59.7118 69.204 59.7124C69.2038 59.7127 69.2033 59.7133 69.2031 59.7134C69.2027 59.714 69.2022 59.7145 70.1802 60.5831ZM60.7892 61.1438L61.688 62.0942C58.7192 64.9018 56.0517 65.3621 53.9921 64.8569C53.0105 64.6162 52.2501 64.1747 51.7371 63.7976C51.4792 63.608 51.2784 63.4307 51.1373 63.2954C51.0666 63.2275 51.0102 63.1697 50.9686 63.1253C50.9478 63.1031 50.9307 63.0843 50.9172 63.0692C50.9104 63.0617 50.9046 63.0551 50.8997 63.0494C50.8973 63.0466 50.895 63.0441 50.893 63.0418C50.892 63.0406 50.8911 63.0395 50.8902 63.0385C50.8898 63.038 50.8892 63.0373 50.8889 63.037C50.8883 63.0363 50.8877 63.0356 51.8822 62.1859C52.8767 61.3361 52.8761 61.3355 52.8756 61.3348C52.8754 61.3346 52.8749 61.334 52.8745 61.3336C52.8739 61.3328 52.8732 61.3321 52.8727 61.3314C52.8715 61.3301 52.8706 61.329 52.8698 61.3282C52.8683 61.3264 52.8676 61.3256 52.8676 61.3256C52.8676 61.3257 52.8707 61.3291 52.8768 61.3356C52.889 61.3486 52.9129 61.3734 52.9481 61.4072C53.0189 61.4751 53.1329 61.5767 53.2867 61.6898C53.5971 61.918 54.0475 62.1769 54.6153 62.3161C55.6545 62.571 57.4405 62.5104 59.8904 60.1935L60.7892 61.1438ZM60.5034 58.7365L61.8023 58.5822L62.0881 60.9896L60.7892 61.1438L59.4902 61.298L59.2044 58.8907L60.5034 58.7365Z" fill="#211A19"/>
<path d="M80.9135 35.9414C81.8001 34.3808 84.1303 34.6645 84.6167 36.3922L86.8408 44.2979C86.848 44.3235 86.8645 44.3463 86.8874 44.3597L93.9653 48.4607C95.5035 49.3524 95.2236 51.6527 93.5163 52.1493L85.6613 54.4328C85.6359 54.4403 85.6145 54.4576 85.6014 54.4806L81.5458 61.622C80.6592 63.183 78.3288 62.8993 77.8426 61.1712L75.6185 53.2655C75.6112 53.2399 75.5947 53.218 75.5717 53.2047L68.4939 49.1036C66.9558 48.212 67.2359 45.9118 68.9429 45.415L76.7978 43.1316C76.8234 43.1241 76.8447 43.106 76.8579 43.0828L80.9135 35.9414Z" fill="#FFB555" stroke="white" stroke-width="1.91849"/>
<path d="M38.3589 42.2202C39.2454 40.6596 41.5756 40.9433 42.062 42.671L44.2862 50.5767C44.2934 50.6023 44.3098 50.6251 44.3327 50.6385L51.4106 54.7395C52.9488 55.6312 52.6689 57.9315 50.9616 58.4281L43.1067 60.7116C43.0813 60.7191 43.0598 60.7364 43.0467 60.7594L38.9911 67.9008C38.1045 69.4618 35.7741 69.1781 35.2879 67.45L33.0638 59.5443C33.0565 59.5188 33.04 59.4968 33.0171 59.4835L25.9392 55.3824C24.4011 54.4908 24.6812 52.1906 26.3882 51.6938L34.2431 49.4104C34.2687 49.4029 34.29 49.3848 34.3032 49.3616L38.3589 42.2202Z" fill="#FFB555" stroke="white" stroke-width="1.91849"/>
</g>
<defs>
<clipPath id="clip0_134_120">
<rect width="116" height="116" rx="58" fill="white"/>
</clipPath>
</defs>
</svg>
