<svg width="247" height="244" viewBox="0 0 247 244" fill="none" xmlns="http://www.w3.org/2000/svg">
<ellipse cx="93.8123" cy="223.368" rx="93.8123" ry="19.9416" fill="#C7CFE7"/>
<path d="M168.826 214.15C160.429 216.34 150.115 211.938 146.008 209.2L149.659 189.576C160.612 192.131 167.456 187.223 169.739 185.013C174.759 180.154 191.568 152.719 214.919 160.375C229.066 165.014 233.682 183.887 223.59 192.315C220.395 194.983 214.919 196.422 209.899 194.983C205.314 193.668 203.966 189.049 198.946 189.576C196.632 189.818 193.501 192.447 189.819 199.09C184.799 208.147 179.323 211.412 168.826 214.15Z" fill="#FDD4DD"/>
<path d="M196.076 161.645C195.393 162.074 194.684 162.486 194.005 162.817C190.745 162.715 187.149 167.206 187.116 167.248C187.116 167.248 188.585 177.406 193.948 178.653C201.018 179.811 200.759 167.54 200.258 161.775L196.076 161.645Z" fill="#D8718A"/>
<path d="M175.496 178.066C174.889 178.602 174.251 179.126 173.627 179.572C170.306 180.191 167.564 184.997 167.533 185.051C167.533 185.051 171.055 193.844 176.739 193.793C184.136 193.291 181.418 182.334 179.756 177.272L175.496 178.066Z" fill="#D8718A"/>
<path d="M146.008 209.229C150.115 211.967 159.858 215.828 168.826 214.179C178.749 212.354 184.799 208.176 189.819 199.119C193.501 192.475 196.208 190.007 198.946 189.604C203.666 188.911 205.314 193.696 209.899 195.011C214.919 196.451 220.395 195.011 223.59 192.344C233.682 183.916 229.066 165.043 214.919 160.404C191.568 152.748 174.759 180.183 169.739 185.042C167.456 187.251 160.612 192.16 149.659 189.604" stroke="#302025" stroke-width="5.20216"/>
<path d="M61.3397 206.838C60.646 201.636 83.5357 202.85 83.5357 202.85L95.846 166.955L155.672 181.348L163.822 207.185C163.822 207.185 178.388 214.479 169.718 223.138C165.904 226.948 158.62 225.566 158.62 225.566C158.62 225.566 153.071 225.913 150.989 224.179C148.907 222.445 143.187 216.376 143.187 216.376C143.187 216.376 138.505 233.169 123.939 231.635C114.055 230.595 111.973 222.792 111.973 222.792C111.973 222.792 71.9664 223.155 70.8757 222.792C67.2342 221.578 61.9783 211.627 61.3397 206.838Z" fill="#FDD4DD"/>
<path d="M53.3622 151.348C63.1045 163.524 88.5776 170.836 88.5776 170.836L155.671 182.041C155.671 182.041 257.333 177.763 217.276 107.187C227.9 62.8532 220.29 48.577 215.843 44.3568C200.489 36.4527 184.11 50.2526 174.919 62.5644C153.243 44.7042 124.458 53.3739 124.458 53.3739C124.458 53.3739 138.331 24.069 115.268 22.3344C94.6325 25.8025 68.4529 61.9904 67.2345 77.8241C43.4779 94.9915 29.9837 122.128 53.3622 151.348Z" fill="#FDD4DD"/>
<path d="M87.4868 88.8323C87.4154 89.0651 87.4148 89.3203 87.5049 89.5509C87.5948 89.7813 87.7656 89.9672 87.9842 90.0696C88.2027 90.172 88.4548 90.1843 88.6895 90.106C88.9243 90.0277 89.12 89.8639 89.2533 89.66C89.2533 89.66 89.2533 89.66 89.2533 89.66C89.6368 89.0978 90.1016 88.587 90.6119 88.1199C95.1333 84.2682 101.606 82.7738 107.183 83.3719C107.53 83.4132 107.863 83.4601 108.202 83.5152C114.277 84.4303 119.66 88.1468 123.672 93.5602C124.119 94.1571 124.55 94.7726 124.962 95.4025C125.095 95.6069 125.29 95.7713 125.524 95.8504C125.759 95.9296 126.011 95.9182 126.23 95.8166C126.449 95.7149 126.62 95.5297 126.711 95.2995C126.802 95.0693 126.802 94.8141 126.732 94.581C126.732 94.581 126.732 94.581 126.732 94.581C126.495 93.8141 126.221 93.0528 125.912 92.3026C123.284 85.5728 116.872 79.5018 109.038 78.3807C108.611 78.3112 108.192 78.2553 107.758 78.2097C100.345 77.557 92.8882 80.477 88.6284 86.488C88.1582 87.2133 87.7588 87.997 87.4868 88.8323Z" fill="#302025"/>
<path d="M193.091 111.272C193.042 111.509 192.922 111.733 192.735 111.893C192.548 112.053 192.312 112.137 192.073 112.125C191.834 112.113 191.607 112.007 191.437 111.83C191.266 111.652 191.169 111.418 191.143 111.177C191.143 111.177 191.143 111.177 191.143 111.177C191.067 110.51 190.97 109.854 190.846 109.214C189.842 103.26 185.961 99.6363 180.673 97.9466C179.995 97.7156 179.307 97.5099 178.585 97.3192C174.242 96.466 168.624 96.3718 163.736 97.4005C163.103 97.5448 162.476 97.7175 161.862 97.9291C161.634 98.0102 161.381 98.0248 161.146 97.9487C160.912 97.8727 160.718 97.7147 160.603 97.5045C160.489 97.2944 160.461 97.0454 160.524 96.8075C160.587 96.5694 160.736 96.3644 160.928 96.2165C160.928 96.2165 160.928 96.2165 160.928 96.2165C161.52 95.7699 162.148 95.3699 162.796 95.0101C168.019 92.3238 173.561 91.3416 179.803 92.3073C180.669 92.5027 181.51 92.7361 182.352 93.0231C189.02 94.7707 194.573 102.416 193.412 109.109C193.345 109.843 193.234 110.564 193.091 111.272Z" fill="#302025"/>
<path d="M121.685 188.762C121.685 193.095 116.25 196.607 109.547 196.607C102.843 196.607 97.4082 193.095 97.4082 188.762C97.4082 184.43 102.843 183.082 109.547 183.082C116.25 183.082 121.685 184.43 121.685 188.762Z" fill="#FEFFFE"/>
<path d="M165.455 56.8886C165.455 56.8886 158.534 68.0682 161.457 71.6169C166.814 77.2549 173.225 63.1598 173.225 63.1598C173.225 63.1598 172.415 62.2801 170.587 60.8798C168.448 59.1878 165.455 56.8886 165.455 56.8886Z" fill="#D8718A"/>
<path d="M136.748 50.4562C136.748 50.4562 137.056 64.0888 132.397 65.7714C124.333 68.0761 126.095 52.084 126.095 52.084C126.095 52.084 127.33 51.7115 129.795 51.396C132.708 50.9786 136.748 50.4562 136.748 50.4562Z" fill="#D8718A"/>
<path d="M158.058 53.1409C158.058 53.1409 154.387 66.2737 149.441 66.5286C141.054 66.3882 147.392 51.5999 147.392 51.5999C147.392 51.5999 148.681 51.6026 151.132 52.0178C154.041 52.4657 158.058 53.1409 158.058 53.1409Z" fill="#D8718A"/>
<path d="M32.9004 122.068C37.4641 117.499 46.135 112.042 59.3696 110.202" stroke="#302025" stroke-width="5.20216" stroke-linecap="round"/>
<path d="M124.572 188.704C113.536 175.625 77.4677 176.492 84.7507 207.878" stroke="#302025" stroke-width="5.20216" stroke-linecap="round"/>
<path d="M83.708 201.636C83.708 201.636 73.4771 201.636 66.5409 202.85C63.551 203.373 61.6855 205.728 61.6855 208.919C61.6855 212.907 65.6739 221.577 71.3962 222.618C75.9741 223.45 95.2684 222.387 104.343 221.751" stroke="#302025" stroke-width="5.20216" stroke-linecap="round"/>
<path d="M28.7384 101.488C34.434 98.4455 44.3179 95.7477 57.5151 97.839" stroke="#302025" stroke-width="5.20216" stroke-linecap="round"/>
<path d="M210.58 150.853C206.016 146.285 197.345 140.828 184.111 138.988" stroke="#302025" stroke-width="5.20216" stroke-linecap="round"/>
<path d="M216.514 130.274C210.818 127.231 200.934 124.533 187.737 126.625" stroke="#302025" stroke-width="5.20216" stroke-linecap="round"/>
<path d="M110.108 36.099C107.35 32.7891 93.787 51.1053 86.8046 61.8346C86.617 62.1229 86.9207 62.4823 87.2376 62.3488C89.559 61.3709 95.2444 59.079 99.7044 58.1216C104.865 57.0137 110.785 56.2173 111.937 56.0666C112.063 56.0502 112.165 55.972 112.208 55.8531C113.891 51.1999 112.675 39.1779 110.108 36.099Z" fill="#FDE2E5" stroke="#EEB8C3" stroke-width="1.73405" stroke-linecap="round"/>
<path d="M208.128 57.1751C210.047 57.0082 213.6 74.8121 208.409 86.0677C208.293 86.3198 207.94 86.3338 207.793 86.0982C206.889 84.6492 204.192 80.6334 200.151 77.2895C195.943 73.8071 190.366 71.8507 188.657 71.3048C188.415 71.2274 188.329 70.9253 188.496 70.7339C194.077 64.3481 200.319 57.8545 208.128 57.1751Z" fill="#FDE2E5" stroke="#EEB8C3" stroke-width="1.73405" stroke-linecap="round"/>
<path d="M97.2344 216.549C99.2574 218.572 104.76 222.687 110.587 222.965" stroke="#302025" stroke-width="5.20216" stroke-linecap="round"/>
<path d="M79.7212 178.746C80.7617 168.341 92.0857 165.692 101.744 167.302C116.657 169.787 115.327 178.168 113.188 182.387C111.05 186.607 89.7787 190.537 86.1372 189.323C82.4956 188.11 79.2404 183.553 79.7212 178.746Z" fill="#FDD4DD" stroke="#302025" stroke-width="5.20216" stroke-linecap="round"/>
<path d="M132.956 217.936C133.65 212.04 131.396 204.276 122.379 203.717C112.756 203.119 107.884 220.505 115.269 227.3C118.85 230.594 123.94 232.4 131.049 230.074C141.453 226.67 145.961 212.907 145.961 191.231" stroke="#302025" stroke-width="5.20216" stroke-linecap="round"/>
<path d="M143.186 215.682C145.498 218.976 151.06 225.056 154.63 225.566C157.058 225.913 164.514 225.913 167.636 224.179C170.757 222.444 177.659 216.271 165.035 208.225C162.838 205.046 157.89 195.359 155.671 182.041" stroke="#302025" stroke-width="5.20216" stroke-linecap="round"/>
<path d="M149.257 181.694C179.429 181.694 192.428 177.796 207.867 170.076C217.231 165.394 238.04 141.117 216.885 104.355C220.179 89.616 226.595 58.7499 216.885 45.571C211.336 39.1551 195.556 37.6984 175.441 62.3913C168.851 57.5359 149.985 47.0275 125.153 52.854C128.621 44.5884 129.447 24.8419 117.523 22.8548C109.2 21.4677 76.9465 40.5422 67.2358 77.9977C56.0223 84.6449 38.3667 103.28 40.8781 123.95C43.1325 142.504 58.9124 165.567 83.3625 170.423" stroke="#302025" stroke-width="5.20216" stroke-linecap="round" stroke-linejoin="round"/>
<path d="M103.996 113.373C110.354 124.644 130.215 141.846 158.792 120.482" stroke="#302025" stroke-width="5.20216" stroke-linecap="round" stroke-linejoin="round"/>
<path d="M132.259 106.436C132.259 106.436 126.361 121.869 128.615 129.326" stroke="#302025" stroke-width="5.20216" stroke-linecap="round" stroke-linejoin="round"/>
<ellipse cx="132.5" cy="104.977" rx="8.21459" ry="5.47639" fill="#211A19"/>
</svg>
