<svg width="232" height="252" viewBox="0 0 232 252" fill="none" xmlns="http://www.w3.org/2000/svg">
<path d="M168.375 239.239C160.998 241.163 151.938 237.296 148.33 234.89L151.537 217.651C161.159 219.896 167.171 215.584 169.177 213.643C173.586 209.375 188.352 185.275 208.865 192C221.293 196.075 225.347 212.654 216.482 220.058C213.676 222.401 208.865 223.666 204.455 222.401C200.427 221.246 199.244 217.189 194.834 217.651C192.801 217.865 190.05 220.173 186.816 226.009C182.406 233.966 177.595 236.833 168.375 239.239Z" fill="#FDD4DD"/>
<path d="M192.316 193.116C191.716 193.494 191.092 193.855 190.494 194.146C187.624 194.057 184.458 198.02 184.443 198.039C184.443 198.039 185.734 206.963 190.445 208.058C196.656 209.075 196.427 198.294 195.987 193.23L192.316 193.116Z" fill="#D8718A"/>
<path d="M174.231 207.542C173.698 208.012 173.138 208.472 172.59 208.864C169.664 209.409 167.249 213.655 167.237 213.676C167.237 213.676 170.331 221.4 175.325 221.355C181.822 220.914 179.432 211.291 177.973 206.844L174.231 207.542Z" fill="#D8718A"/>
<path d="M148.33 234.916C151.938 237.321 160.497 240.713 168.375 239.265C177.092 237.661 182.406 233.992 186.816 226.035C190.05 220.199 192.428 218.031 194.834 217.677C198.98 217.068 200.427 221.272 204.455 222.427C208.865 223.692 213.676 222.427 216.482 220.084C225.347 212.68 221.293 196.101 208.865 192.026C188.352 185.301 173.586 209.401 169.177 213.669C167.171 215.61 161.159 219.922 151.537 217.677" stroke="#302025" stroke-width="4.56983"/>
<path d="M81.39 225.301C77.8635 210.156 78.9815 198.04 84.5887 187.617H150.737C160.037 214.877 148.732 236.927 148.732 236.927C148.732 236.927 148.732 249.755 136.304 249.354C122.674 250.156 122.28 237.092 122.28 235.489C122.28 233.885 112.476 233.083 112.258 235.489C111.216 246.949 105.436 249.354 99.0214 249.354C85.7967 249.354 83.4751 234.255 81.39 225.301Z" fill="#FDD4DD"/>
<path d="M84.5887 187.617C78.9815 198.04 77.8635 210.156 81.39 225.301C83.4751 234.255 85.7967 249.354 99.0214 249.354C105.436 249.354 111.216 246.949 112.258 235.489C112.476 233.083 122.28 233.885 122.28 235.489C122.28 237.092 122.674 250.156 136.304 249.354C148.732 249.755 148.732 236.927 148.732 236.927C148.732 236.927 160.037 214.877 150.737 187.617" stroke="#302025" stroke-width="4.56983" stroke-linecap="round"/>
<path d="M128.277 214.476C128.277 220.897 123.072 226.102 116.651 226.102C110.23 226.102 105.025 220.897 105.025 214.476C105.025 208.056 110.23 206.058 116.651 206.058C123.072 206.058 128.277 208.056 128.277 214.476Z" fill="#FEFFFE"/>
<path d="M55.3213 175.973C66.1797 184.324 87.7996 187.797 87.7996 187.797L144.722 187.797C144.722 187.797 220.891 183.595 186.816 105.011C191.626 67.8032 183.475 53.1601 178.798 50.4896C164.045 46.9567 145.256 64.6591 137.906 73.7481C121.871 67.7347 105.033 71.7436 95.8126 73.3405C77.2111 50.5698 61.8703 48.6188 56.525 50.4896C43.055 61.0732 44.2309 91.2471 46.5027 105.011C34.4536 127.771 29.2642 155.931 55.3213 175.973Z" fill="#FDD4DD"/>
<path d="M123.559 72.1626C124.02 74.2225 124.279 76.5347 124.279 78.978C124.279 87.6128 121.049 94.6136 117.063 94.6138C113.078 94.6138 109.848 87.6129 109.848 78.978C109.848 76.5348 110.106 74.2225 110.567 72.1626H123.559Z" fill="#D8718A"/>
<path d="M98.8321 73.9965C101.832 73.5668 105.991 73.0281 105.991 73.0281C105.991 73.0281 106.307 87.0641 101.511 88.7965C93.208 91.169 95.0219 74.7042 95.0219 74.7042C95.0219 74.7042 96.294 74.3213 98.8321 73.9965Z" fill="#D8718A"/>
<path d="M134.891 73.9537C132.01 73.541 128.015 73.0268 128.015 73.0268C128.013 73.1168 127.648 87.0579 132.233 88.7567C140.2 91.0809 138.548 74.6394 138.548 74.6394C138.548 74.6394 137.328 74.2641 134.891 73.9537Z" fill="#D8718A"/>
<path d="M87.8015 187.815C87.8015 187.815 66.1816 184.343 55.3232 175.991C29.2662 155.95 34.4555 127.789 46.5046 105.03C44.2329 91.2657 43.0569 61.0917 56.527 50.5081C61.8722 48.6373 77.2131 50.5883 95.8146 73.3591C105.035 71.7622 121.873 67.7532 137.908 73.7666C145.258 64.6776 164.047 46.9753 178.8 50.5081C183.477 53.1787 191.628 67.8217 186.817 105.03C220.893 183.614 144.724 187.815 144.724 187.815" stroke="#302025" stroke-width="4.56983" stroke-linecap="round"/>
<path d="M28.4609 170.761C32.4699 166.747 40.0869 161.954 51.7128 160.337" stroke="#302025" stroke-width="4.56983" stroke-linecap="round"/>
<path d="M204.455 170.761C200.446 166.747 192.829 161.954 181.203 160.337" stroke="#302025" stroke-width="4.56983" stroke-linecap="round"/>
<path d="M23.248 152.682C28.2513 150.009 36.9337 147.639 48.5268 149.476" stroke="#302025" stroke-width="4.56983" stroke-linecap="round"/>
<path d="M209.664 152.682C204.661 150.009 195.978 147.639 184.385 149.476" stroke="#302025" stroke-width="4.56983" stroke-linecap="round"/>
<path d="M59.7284 67.7436C56.0097 68.2086 54.6258 83.3166 56.2965 94.1009C56.3889 94.6971 57.0866 94.9636 57.5653 94.5964C59.4094 93.1822 63.3091 90.2575 66.1427 88.5895C69.1485 86.82 73.5961 84.9096 75.3795 84.166C75.8038 83.9891 75.9988 83.4953 75.7984 83.0816C72.4879 76.2479 66.2964 66.9223 59.7284 67.7436Z" fill="#FDE2E5" stroke="#EEB8C3" stroke-width="1.83645" stroke-linecap="round"/>
<path d="M173.578 67.7436C177.297 68.2086 178.681 83.3166 177.01 94.1009C176.918 94.6971 176.22 94.9636 175.741 94.5964C173.897 93.1822 169.998 90.2575 167.164 88.5895C164.158 86.82 159.711 84.9096 157.927 84.166C157.503 83.9891 157.308 83.4953 157.508 83.0816C160.819 76.2479 167.01 66.9223 173.578 67.7436Z" fill="#FDE2E5" stroke="#EEB8C3" stroke-width="1.83645" stroke-linecap="round"/>
<path d="M69.7127 136.345C69.7579 136.555 69.869 136.751 70.0392 136.888C70.2093 137.025 70.4221 137.092 70.6348 137.074C70.8475 137.056 71.0459 136.954 71.1903 136.79C71.3349 136.626 71.4113 136.414 71.4202 136.199C71.4202 136.199 71.4202 136.199 71.4202 136.199C71.4595 135.534 71.597 134.861 71.7917 134.202C73.4077 129.187 77.4995 124.807 82.0011 123.628C82.8351 123.411 83.7107 123.264 84.6057 123.175C90.6257 122.678 97.2421 124.147 102.676 127.578C103.276 127.97 103.859 128.394 104.416 128.852C104.581 128.99 104.79 129.076 105.008 129.079C105.226 129.081 105.435 129.003 105.591 128.857C105.748 128.712 105.841 128.509 105.854 128.291C105.867 128.073 105.796 127.86 105.671 127.685C105.671 127.685 105.671 127.685 105.671 127.685C105.201 127.041 104.682 126.428 104.126 125.85C99.0185 120.712 91.6506 118.016 84.154 118.627C83.0282 118.74 81.8958 118.946 80.7754 119.279C74.0827 121.426 70.129 127.603 69.5652 133.836C69.5162 134.666 69.5469 135.511 69.7127 136.345Z" fill="#302025"/>
<path d="M167.086 140.008C165.482 140.649 146.906 141.471 137.819 141.605C120.182 121.175 147.442 95.5085 164.278 111.939C175.453 122.844 169.09 139.206 167.086 140.008Z" fill="#FEFFFE"/>
<path d="M160.757 140.407C159.591 140.908 152.125 141.503 145.52 141.608C127.883 126.777 147.527 106.332 161.292 118.437C171.179 127.131 162.214 139.781 160.757 140.407Z" fill="#211A19"/>
<path d="M167.376 141.023C167.208 141.163 166.995 141.245 166.774 141.24C166.552 141.236 166.343 141.148 166.19 140.993C166.036 140.838 165.95 140.628 165.947 140.407C165.945 140.186 166.028 139.973 166.169 139.806C166.169 139.806 166.169 139.806 166.169 139.806C166.844 139.003 167.42 138.108 167.906 137.171C171.73 129.775 169.728 120.989 164.477 114.992L164.656 115.187C163.665 114.252 162.635 113.395 161.559 112.631C154.151 106.752 143.442 108.592 137.09 116.256C136.362 117.069 135.683 117.914 135.033 118.811C134.905 118.989 134.718 119.12 134.503 119.17C134.287 119.221 134.063 119.187 133.876 119.075C133.689 118.963 133.553 118.78 133.496 118.567C133.439 118.353 133.467 118.126 133.564 117.93C133.564 117.93 133.564 117.93 133.564 117.93C134.081 116.883 134.65 115.876 135.296 114.887C140.33 105.532 155.26 101.401 164.203 108.904C165.49 109.817 166.683 110.836 167.798 111.935L167.978 112.13C174.086 119.208 175.522 130.806 169.818 138.368C169.107 139.342 168.295 140.245 167.376 141.023Z" fill="#302025"/>
<circle cx="143.518" cy="123.176" r="4.81073" fill="white"/>
<path d="M145.524 224.519C145.524 224.519 142.718 218.506 141.916 216.101C141.916 216.101 138.483 201.68 143.52 195.254C145.3 192.982 149.534 190.824 149.534 190.824C155.496 194.55 158.114 201.109 161.961 206.88C165.47 212.144 168.638 219.957 163.966 225.321C162.075 227.492 157.867 228.873 157.551 228.929C150.736 230.132 149.958 228.954 145.524 224.519Z" fill="#FDD4DD"/>
<path d="M143.117 219.287C144.32 224.098 146.602 227.973 151.536 229.31C155.388 230.353 158.82 229.09 161.556 227.305C170.779 221.292 165.966 210.468 151.134 189.22" stroke="#302025" stroke-width="4.56983" stroke-linecap="round"/>
<path d="M96.4328 190.074C94.0949 205.589 88.8163 209.453 78.3745 209.969C53.5825 211.193 51.4402 182.422 53.5825 173.546C55.1994 166.846 61.8155 163.438 67.9678 165.588C76.0948 168.427 79.9933 173.959 79.9047 179.361L96.4328 190.074Z" fill="#FDD4DD"/>
<path d="M82.0487 190.991C78.4769 175.115 78.6821 165.455 64.9087 164.669C56.0329 164.162 51.5762 173.571 52.6653 181.197C54.1953 191.909 56.3385 212.416 81.3355 209.662" stroke="#302025" stroke-width="4.56983" stroke-linecap="round"/>
<path d="M93.4735 189.839L82.0464 184.792" stroke="#302025" stroke-width="4.56983" stroke-linecap="round"/>
<path d="M107.558 161.253L105.838 155.907H116.157L120.456 153.44L123.464 155.907L129.913 156.319L135.504 154.668L134.644 160.019C133.497 161.799 131.203 165.44 131.203 165.769C131.203 166.098 128.051 168.103 126.475 169.065L120.456 169.476L114.005 168.236C112.716 167.279 110.137 165.282 110.137 164.953C110.137 164.624 108.418 162.349 107.558 161.253Z" fill="#1F1919"/>
<ellipse cx="119.466" cy="146.217" rx="7.21609" ry="4.81073" fill="#211A19"/>
<path d="M130.692 163.076C130.692 163.076 127.758 168.404 123.469 169.508C119.181 170.613 115.774 168.593 115.774 168.593C115.774 168.593 116.986 163.652 122.032 162.352C126.819 161.119 130.692 163.076 130.692 163.076Z" fill="#D8718A"/>
<path d="M135.904 154.242L134.386 152.534C135.125 151.877 136.205 151.77 137.059 152.271C137.913 152.771 138.348 153.765 138.135 154.732L135.904 154.242ZM103.833 153.26L101.675 154.008C101.298 152.922 101.787 151.726 102.816 151.214C103.845 150.702 105.095 151.034 105.733 151.99L103.833 153.26ZM119.928 170.679L119.928 168.394L119.928 170.679ZM117.212 149.049C117.212 147.787 118.235 146.764 119.497 146.764C120.759 146.764 121.782 147.787 121.782 149.049L119.497 149.049L117.212 149.049ZM135.904 154.242C138.135 154.732 138.135 154.733 138.135 154.734C138.135 154.734 138.135 154.735 138.134 154.736C138.134 154.738 138.134 154.739 138.133 154.741C138.132 154.746 138.131 154.751 138.13 154.757C138.127 154.769 138.123 154.785 138.119 154.805C138.11 154.845 138.096 154.9 138.079 154.97C138.045 155.109 137.996 155.305 137.928 155.551C137.794 156.042 137.591 156.732 137.307 157.555C136.741 159.195 135.843 161.403 134.517 163.63C131.897 168.027 127.296 172.964 119.928 172.964L119.928 170.679L119.928 168.394C124.927 168.394 128.314 165.112 130.591 161.291C131.712 159.409 132.489 157.508 132.987 156.065C133.234 155.348 133.409 154.754 133.52 154.346C133.576 154.142 133.616 153.986 133.641 153.884C133.653 153.833 133.662 153.796 133.667 153.774C133.669 153.763 133.671 153.755 133.672 153.752C133.672 153.75 133.673 153.749 133.672 153.749C133.672 153.749 133.672 153.749 133.672 153.75C133.672 153.75 133.672 153.751 133.672 153.751C133.672 153.752 133.672 153.752 135.904 154.242ZM119.928 170.679L119.928 172.964C116.72 172.964 113.96 171.569 111.718 169.72C109.483 167.877 107.636 165.483 106.182 163.195C104.719 160.893 103.599 158.607 102.845 156.907C102.467 156.053 102.178 155.34 101.982 154.835C101.884 154.582 101.809 154.381 101.758 154.241C101.732 154.17 101.712 154.115 101.699 154.076C101.692 154.057 101.686 154.041 101.682 154.03C101.68 154.024 101.678 154.019 101.677 154.016C101.677 154.014 101.676 154.013 101.676 154.011C101.675 154.011 101.675 154.01 101.675 154.01C101.675 154.009 101.675 154.008 103.833 153.26C105.992 152.511 105.992 152.511 105.992 152.51C105.992 152.51 105.992 152.51 105.992 152.51C105.992 152.509 105.992 152.509 105.992 152.51C105.992 152.51 105.993 152.512 105.994 152.515C105.995 152.52 105.999 152.53 106.004 152.543C106.013 152.57 106.028 152.613 106.049 152.67C106.091 152.785 106.156 152.958 106.243 153.182C106.416 153.629 106.678 154.276 107.023 155.056C107.717 156.622 108.735 158.691 110.039 160.744C111.352 162.81 112.9 164.771 114.625 166.194C116.344 167.612 118.109 168.394 119.928 168.394L119.928 170.679ZM135.904 154.242C137.422 155.95 137.421 155.951 137.419 155.952C137.419 155.952 137.418 155.953 137.417 155.954C137.416 155.955 137.414 155.957 137.412 155.958C137.409 155.961 137.404 155.965 137.4 155.969C137.391 155.977 137.38 155.986 137.367 155.997C137.342 156.019 137.309 156.047 137.269 156.079C137.189 156.145 137.08 156.231 136.944 156.333C136.672 156.537 136.286 156.805 135.798 157.095C134.825 157.671 133.417 158.349 131.661 158.754C128.049 159.588 123.227 159.205 118.068 155.066L119.498 153.284L120.928 151.502C124.959 154.735 128.339 154.831 130.633 154.301C131.83 154.025 132.8 153.56 133.467 153.164C133.799 152.967 134.049 152.792 134.207 152.674C134.286 152.615 134.341 152.571 134.371 152.546C134.387 152.533 134.395 152.526 134.398 152.524C134.399 152.523 134.399 152.523 134.397 152.525C134.396 152.526 134.394 152.527 134.392 152.528C134.391 152.529 134.39 152.53 134.389 152.531C134.389 152.532 134.388 152.532 134.387 152.533C134.387 152.534 134.386 152.534 135.904 154.242ZM119.498 153.284L120.862 155.117C115.135 159.377 110.413 159.627 106.944 158.327C105.291 157.707 104.063 156.785 103.25 156.026C102.842 155.644 102.53 155.295 102.313 155.031C102.204 154.899 102.119 154.787 102.055 154.701C102.024 154.659 101.998 154.622 101.978 154.593C101.968 154.579 101.959 154.566 101.952 154.556C101.948 154.55 101.945 154.545 101.942 154.541C101.94 154.539 101.939 154.537 101.937 154.535C101.937 154.534 101.936 154.532 101.935 154.532C101.934 154.53 101.934 154.529 103.833 153.26C105.733 151.99 105.732 151.989 105.732 151.988C105.731 151.987 105.73 151.986 105.73 151.985C105.729 151.984 105.728 151.982 105.727 151.981C105.725 151.979 105.724 151.977 105.723 151.975C105.721 151.972 105.72 151.97 105.72 151.97C105.72 151.97 105.724 151.977 105.733 151.989C105.752 152.014 105.788 152.062 105.842 152.128C105.951 152.26 106.128 152.46 106.372 152.688C106.863 153.148 107.591 153.689 108.548 154.048C110.298 154.704 113.408 154.966 118.134 151.45L119.498 153.284ZM119.497 149.049L121.782 149.049L121.783 153.283L119.498 153.284L117.213 153.284L117.212 149.049L119.497 149.049Z" fill="#211A19"/>
</svg>
