<svg width="78" height="76" viewBox="0 0 78 76" fill="none" xmlns="http://www.w3.org/2000/svg">
<path d="M9.94357 58.685C11.3846 66.8512 19.9146 66.6018 19.9146 66.6018C19.9146 66.6018 31.7283 67.5876 44.1089 70.7109C48.6342 71.8524 52.4721 73.0988 54.4639 73.035C60.3057 72.8479 64.5698 66.8304 62.112 61.3206C53.4467 45.7054 53.6626 46.4299 49.5251 38.8161C44.1059 28.8437 32.766 32.0091 30.3729 34.9973C25.8686 38.1936 20.9117 44.1299 17.0389 46.878C9.96216 51.8996 9.8917 55.6588 9.94357 58.685Z" fill="#D9D7D7"/>
<circle cx="15.9178" cy="23.4909" r="8.92454" transform="rotate(9.63763 15.9178 23.4909)" fill="#D9D7D7"/>
<circle cx="34.657" cy="13.0944" r="8.92454" transform="rotate(9.63763 34.657 13.0944)" fill="#D9D7D7"/>
<circle cx="53.1668" cy="17.3694" r="8.92454" transform="rotate(9.63763 53.1668 17.3694)" fill="#D9D7D7"/>
<circle cx="65.4099" cy="31.8952" r="8.92454" transform="rotate(9.63763 65.4099 31.8952)" fill="#D9D7D7"/>
</svg>
