<svg width="272" height="270" viewBox="0 0 272 270" fill="none" xmlns="http://www.w3.org/2000/svg">
<path d="M80.1376 207.07C92.6012 214.501 115.777 215.458 115.777 215.458L175.654 208.359C175.654 208.359 255.253 194.441 209.609 116.027C210.03 76.287 199.629 61.9003 194.376 59.6744C178.417 57.7978 160.86 78.7622 154.262 89.2396C136.644 84.9138 119.432 91.2305 109.932 94.0602C87.5256 72.427 71.145 72.2877 65.7556 74.9223C52.906 87.7351 57.9059 119.329 62.012 133.524C52.1755 158.968 50.2286 189.238 80.1376 207.07Z" fill="#FDD4DD"/>
<path d="M138.973 89.3623C139.715 91.4714 140.275 93.8714 140.579 96.4411C141.656 105.524 139.131 113.29 134.939 113.787C130.747 114.284 126.475 107.324 125.399 98.2408C125.094 95.6711 125.078 93.2066 125.306 90.9825L138.973 89.3623Z" fill="#D8718A"/>
<path d="M113.191 94.3727C116.293 93.5466 120.602 92.4617 120.602 92.4617C120.602 92.4617 122.685 107.187 117.855 109.607C109.417 113.138 109.273 95.5922 109.273 95.5922C109.286 95.5864 110.576 95.0274 113.191 94.3727Z" fill="#D8718A"/>
<path d="M151.117 89.8312C148.036 89.7563 143.769 89.7141 143.769 89.7141C143.776 89.7879 145.129 104.52 150.168 105.736C158.823 107.184 155.063 90.1564 155.05 90.0977C155.05 90.0977 153.72 89.8537 151.117 89.8312Z" fill="#D8718A"/>
<path d="M115.78 215.477C115.78 215.477 92.6051 214.52 80.1415 207.089C50.2325 189.257 52.1794 158.987 62.0159 133.544C57.9098 119.348 52.91 87.7546 65.7595 74.9418C71.1489 72.3073 87.5295 72.4465 109.936 94.0797C119.436 91.2501 136.648 84.9333 154.266 89.2592C160.864 78.7818 178.42 57.8174 194.38 59.6939C199.633 61.9198 210.034 76.3065 209.613 116.046C255.257 194.46 175.658 208.379 175.658 208.379" stroke="#302025" stroke-width="4.84073" stroke-linecap="round"/>
<path d="M51.3806 188.111C53.9208 182.666 59.771 175.138 70.7619 169.325" stroke="#302025" stroke-width="4.84073" stroke-linecap="round"/>
<path d="M231.679 162.549C227.983 157.812 220.593 151.788 208.579 148.587" stroke="#302025" stroke-width="4.84073" stroke-linecap="round"/>
<path d="M39.6544 171.999C43.6694 167.528 51.457 162.029 63.6639 159.666" stroke="#302025" stroke-width="4.84073" stroke-linecap="round"/>
<path d="M239.491 144.213C234.576 140.757 225.753 137.144 213.327 137.578" stroke="#302025" stroke-width="4.84073" stroke-linecap="round"/>
<path d="M73.7383 89.2358C69.8846 90.1886 70.3129 106.254 73.4152 117.389C73.5867 118.005 74.3538 118.198 74.8116 117.752C76.5751 116.035 80.3125 112.472 83.0852 110.364C86.0264 108.128 90.4667 105.564 92.2499 104.559C92.6742 104.32 92.8178 103.776 92.5553 103.366C88.2208 96.5904 80.5449 87.5528 73.7383 89.2358Z" fill="#FDE2E5" stroke="#EEB8C3" stroke-width="4.84073" stroke-linecap="round"/>
<path d="M191.042 78.4735C195.012 78.4989 198.351 94.2187 197.939 105.771C197.916 106.41 197.215 106.777 196.666 106.451C194.55 105.193 190.083 102.603 186.894 101.201C183.512 99.7149 178.595 98.2601 176.626 97.7002C176.158 97.567 175.891 97.072 176.05 96.6118C178.68 89.0105 184.03 78.4287 191.042 78.4735Z" fill="#FDE2E5" stroke="#EEB8C3" stroke-width="4.84073" stroke-linecap="round"/>
<path d="M194.854 242.333C187.04 244.372 177.443 240.275 173.621 237.727L177.018 219.466C187.21 221.845 193.579 217.277 195.703 215.221C200.375 210.7 216.016 185.17 237.745 192.295C250.909 196.611 255.204 214.173 245.813 222.015C242.841 224.498 237.745 225.837 233.073 224.498C228.807 223.274 227.553 218.977 222.882 219.466C220.728 219.692 217.815 222.138 214.388 228.32C209.717 236.748 204.621 239.785 194.854 242.333Z" fill="#FDD4DD"/>
<path d="M220.213 193.476C219.578 193.876 218.916 194.259 218.283 194.567C215.255 194.472 211.916 198.638 211.874 198.691C211.874 198.691 213.24 208.143 218.231 209.304C224.809 210.382 224.568 198.962 224.102 193.597L220.213 193.476Z" fill="#D8718A"/>
<path d="M201.059 208.757C200.495 209.255 199.902 209.743 199.322 210.158C196.226 210.735 193.671 215.222 193.652 215.255C193.652 215.255 196.929 223.437 202.218 223.39C209.1 222.923 206.57 212.729 205.024 208.018L201.059 208.757Z" fill="#D8718A"/>
<path d="M173.621 237.754C177.443 240.302 186.509 243.895 194.854 242.36C204.088 240.661 209.717 236.774 214.388 228.346C217.815 222.164 220.334 219.867 222.882 219.493C227.273 218.848 228.807 223.301 233.073 224.524C237.745 225.864 242.841 224.524 245.813 222.042C255.204 214.2 250.909 196.637 237.745 192.321C216.016 185.197 200.375 210.726 195.703 215.247C193.579 217.303 187.21 221.871 177.018 219.493" stroke="#302025" stroke-width="4.84073"/>
<path d="M176.202 235.124L177.332 254.971H113.434V228.509C113.434 228.509 99.1893 232.698 94.0711 220.764C88.953 208.829 111.014 192.687 111.014 192.687L117.791 179.778C123.695 176.784 130.861 184.78 130.861 184.78C130.861 184.78 162.896 173.098 176.202 184.78C183.911 191.548 175.073 194.14 188.949 211.243C202.826 228.346 176.202 235.124 176.202 235.124Z" fill="#FDD4DD"/>
<path d="M157.79 231.61C159.621 238.161 155.796 244.955 149.245 246.787C142.695 248.618 135.9 244.793 134.069 238.242C132.238 231.692 136.978 228.169 143.528 226.338C150.079 224.507 155.958 225.06 157.79 231.61Z" fill="#FEFFFE"/>
<path d="M150 220.5C138.382 190.326 174.612 219.241 180.905 220.5C186.553 221.63 179 212.5 179 212.5L187.682 207.341C204.463 232.352 176.387 234.772 176.387 234.772L178.001 255.749L115.233 254.619C115.233 254.619 112.564 238.612 114.265 227.995C106.519 231.868 98.7239 229.304 94.5788 222.832C85.3816 208.471 102.863 198.954 110.876 192.658C115.394 189.108 110.231 184.267 118.944 179.911C124.269 176.199 145.891 185.397 120.396 215.571" stroke="#302025" stroke-width="4.84073" stroke-linecap="round" stroke-linejoin="round"/>
<path d="M82.358 148.385C82.4318 148.6 82.5731 148.793 82.7692 148.915C82.9652 149.038 83.1974 149.082 83.4189 149.036C83.6403 148.991 83.8363 148.859 83.9678 148.668C84.0995 148.478 84.1534 148.246 84.136 148.019C84.136 148.019 84.136 148.019 84.136 148.019C84.0944 147.314 84.155 146.588 84.2777 145.871C85.3522 140.395 89.1103 135.277 93.6985 133.475C94.5487 133.143 95.4514 132.879 96.3818 132.674C102.652 131.401 109.795 132.12 115.939 135.052C116.619 135.389 117.286 135.763 117.929 136.176C118.12 136.3 118.349 136.364 118.58 136.34C118.81 136.316 119.019 136.207 119.166 136.034C119.312 135.862 119.385 135.637 119.371 135.406C119.357 135.175 119.256 134.959 119.103 134.791C119.103 134.791 119.103 134.791 119.103 134.791C118.529 134.172 117.906 133.592 117.249 133.053C111.236 128.286 103.149 126.369 95.3395 127.947C94.1693 128.205 93.0038 128.563 91.8669 129.054C85.0944 132.146 81.7057 139.137 81.89 145.764C81.942 146.643 82.0796 147.528 82.358 148.385Z" fill="#302025"/>
<path d="M194.565 134.574C194.559 134.802 194.482 135.028 194.331 135.203C194.181 135.379 193.972 135.49 193.747 135.513C193.522 135.535 193.296 135.468 193.113 135.325C192.931 135.183 192.81 134.977 192.759 134.755C192.759 134.755 192.759 134.755 192.759 134.755C192.583 134.003 192.371 133.265 192.112 132.572C190.037 126.443 183.724 125.038 177.509 125.137C177.048 125.142 176.588 125.159 176.128 125.19C169.644 125.614 163.283 128.687 157.187 132.361C156.506 132.771 155.83 133.189 155.153 133.617C154.96 133.738 154.729 133.799 154.499 133.771C154.27 133.744 154.061 133.632 153.918 133.458C153.774 133.283 153.704 133.057 153.721 132.827C153.738 132.596 153.842 132.381 153.999 132.215C153.999 132.215 153.999 132.215 153.999 132.215C154.561 131.621 155.135 131.04 155.726 130.469C160.974 125.404 167.739 120.924 175.805 120.36C176.371 120.322 176.939 120.305 177.507 120.309C181.06 120.348 184.819 120.874 188.22 122.788C191.67 124.639 194.069 128.399 194.436 132.016C194.549 132.876 194.584 133.742 194.565 134.574Z" fill="#302025"/>
<path d="M140.121 147.757C140.121 147.757 144.042 149.599 146.066 150.186C150.142 151.368 153.629 149.303 157.246 147.752C159.733 160.554 155.456 183.295 146.987 185.08C139.037 186.755 136.817 173.14 123.983 151.464C130.667 154.429 135.45 152.446 140.121 147.757Z" fill="#1F1919"/>
<ellipse cx="139.321" cy="140.864" rx="7.64386" ry="5.09591" transform="rotate(-6.76084 139.321 140.864)" fill="#211A19"/>
<path d="M152.965 174.428C154.371 178.521 151.681 182.618 147.962 183.948C145.637 184.78 141.377 184.718 139.893 180.399C139.041 177.917 138.048 172.913 145.544 171.362C150.225 170.393 152.275 172.418 152.965 174.428Z" fill="#D8718A"/>
<path d="M157.614 147.256L155.805 145.649C156.494 144.873 157.601 144.622 158.557 145.026C159.513 145.43 160.105 146.399 160.028 147.434L157.614 147.256ZM123.757 150.221L121.559 151.235C121.053 150.138 121.434 148.835 122.451 148.183C123.469 147.531 124.812 147.73 125.597 148.649L123.757 150.221ZM146.914 185.144L146.627 182.741L146.914 185.144ZM137.305 144.124C137.148 142.797 138.096 141.593 139.424 141.435C140.751 141.278 141.955 142.226 142.112 143.553L139.709 143.839L137.305 144.124ZM157.614 147.256C160.028 147.434 160.028 147.434 160.028 147.435C160.028 147.435 160.028 147.436 160.028 147.436C160.028 147.438 160.028 147.44 160.028 147.443C160.027 147.448 160.027 147.455 160.026 147.465C160.024 147.484 160.022 147.512 160.02 147.548C160.014 147.621 160.006 147.727 159.994 147.866C159.972 148.143 159.938 148.546 159.893 149.059C159.801 150.085 159.662 151.547 159.47 153.305C159.086 156.814 158.489 161.52 157.637 166.27C156.79 170.993 155.67 175.876 154.211 179.687C153.484 181.584 152.626 183.346 151.59 184.708C150.577 186.038 149.14 187.315 147.201 187.547L146.914 185.144L146.627 182.741C146.682 182.734 147.074 182.648 147.737 181.777C148.376 180.937 149.039 179.656 149.69 177.956C150.985 174.574 152.042 170.045 152.872 165.415C153.698 160.812 154.281 156.224 154.658 152.779C154.846 151.058 154.982 149.628 155.071 148.63C155.115 148.131 155.148 147.74 155.169 147.475C155.18 147.343 155.188 147.242 155.193 147.175C155.196 147.142 155.198 147.117 155.199 147.1C155.2 147.092 155.2 147.086 155.2 147.082C155.2 147.08 155.201 147.079 155.201 147.078C155.201 147.078 155.201 147.078 155.201 147.077C155.201 147.077 155.201 147.077 157.614 147.256ZM146.914 185.144L147.201 187.547C145.316 187.772 143.641 186.714 142.46 185.738C141.167 184.67 139.848 183.176 138.559 181.497C135.968 178.122 133.216 173.612 130.721 169.166C128.216 164.702 125.927 160.221 124.267 156.863C123.436 155.182 122.76 153.779 122.292 152.794C122.058 152.302 121.876 151.914 121.751 151.648C121.689 151.515 121.642 151.413 121.609 151.344C121.593 151.309 121.581 151.282 121.572 151.264C121.568 151.255 121.565 151.248 121.563 151.243C121.562 151.241 121.561 151.239 121.56 151.238C121.56 151.237 121.56 151.236 121.559 151.236C121.559 151.236 121.559 151.235 123.757 150.221C125.955 149.207 125.955 149.207 125.955 149.207C125.955 149.208 125.955 149.208 125.955 149.208C125.955 149.209 125.956 149.211 125.957 149.212C125.959 149.216 125.961 149.222 125.965 149.23C125.973 149.247 125.984 149.271 125.999 149.304C126.03 149.37 126.076 149.468 126.136 149.596C126.256 149.854 126.434 150.232 126.664 150.715C127.123 151.681 127.788 153.062 128.606 154.718C130.244 158.032 132.493 162.432 134.943 166.797C137.403 171.182 140.022 175.452 142.399 178.55C143.594 180.108 144.658 181.274 145.544 182.007C146.542 182.832 146.843 182.715 146.627 182.741L146.914 185.144ZM157.614 147.256C159.424 148.863 159.423 148.864 159.422 148.865C159.422 148.865 159.421 148.867 159.42 148.867C159.419 148.869 159.417 148.871 159.415 148.873C159.412 148.876 159.408 148.881 159.404 148.885C159.395 148.895 159.385 148.906 159.373 148.919C159.349 148.945 159.318 148.978 159.28 149.018C159.204 149.097 159.1 149.201 158.97 149.325C158.708 149.574 158.336 149.904 157.859 150.269C156.908 150.997 155.511 151.885 153.714 152.531C150.019 153.859 144.898 154.057 138.956 150.346L140.238 148.293L141.52 146.24C146.163 149.139 149.73 148.819 152.077 147.975C153.302 147.535 154.264 146.925 154.917 146.425C155.242 146.177 155.483 145.961 155.634 145.817C155.71 145.745 155.762 145.692 155.791 145.662C155.806 145.647 155.814 145.638 155.816 145.636C155.817 145.634 155.817 145.635 155.815 145.637C155.814 145.638 155.813 145.639 155.811 145.641C155.81 145.642 155.809 145.643 155.808 145.645C155.808 145.645 155.807 145.646 155.806 145.646C155.806 145.647 155.805 145.649 157.614 147.256ZM140.238 148.293L141.901 150.052C136.408 155.247 131.472 156.099 127.661 155.164C125.844 154.718 124.438 153.901 123.488 153.204C123.011 152.853 122.64 152.525 122.379 152.274C122.248 152.149 122.143 152.042 122.066 151.96C122.028 151.919 121.996 151.884 121.971 151.856C121.959 151.842 121.948 151.83 121.939 151.819C121.934 151.814 121.93 151.809 121.927 151.805C121.925 151.803 121.923 151.801 121.921 151.799C121.921 151.798 121.919 151.797 121.919 151.796C121.918 151.795 121.917 151.794 123.757 150.221C125.597 148.649 125.596 148.648 125.595 148.647C125.595 148.646 125.594 148.645 125.593 148.644C125.592 148.643 125.591 148.642 125.59 148.64C125.587 148.638 125.586 148.636 125.584 148.634C125.581 148.631 125.58 148.63 125.58 148.63C125.58 148.63 125.586 148.636 125.597 148.648C125.62 148.672 125.664 148.718 125.729 148.78C125.86 148.906 126.071 149.094 126.356 149.303C126.93 149.726 127.763 150.205 128.814 150.462C130.737 150.934 134.041 150.822 138.575 146.535L140.238 148.293ZM139.709 143.839L142.112 143.553L142.641 148.008L140.238 148.293L137.834 148.579L137.305 144.124L139.709 143.839Z" fill="#211A19"/>
</svg>
