<svg width="257" height="289" viewBox="0 0 257 289" fill="none" xmlns="http://www.w3.org/2000/svg">
<ellipse cx="134.648" cy="272.173" rx="89.9915" ry="16.7465" fill="#E6D9C2"/>
<path d="M186.976 265.669C178.785 267.806 168.723 263.511 164.717 260.84L168.278 241.697C178.963 244.19 185.639 239.401 187.866 237.246C192.763 232.506 209.161 205.743 231.94 213.212C245.741 217.736 250.243 236.147 240.398 244.369C237.282 246.971 231.94 248.375 227.043 246.971C222.57 245.688 221.255 241.183 216.358 241.697C214.101 241.933 211.046 244.497 207.455 250.978C202.558 259.813 197.215 262.998 186.976 265.669Z" fill="#FDD4DD"/>
<path d="M213.56 214.45C212.894 214.869 212.202 215.271 211.539 215.593C208.355 215.494 204.843 219.887 204.819 219.917C204.826 219.966 206.265 229.828 211.484 231.042C218.38 232.172 218.127 220.201 217.639 214.577L213.56 214.45Z" fill="#D8718A"/>
<path d="M193.482 230.47C192.89 230.992 192.268 231.504 191.659 231.938C188.416 232.543 185.738 237.244 185.716 237.283C185.716 237.283 189.152 245.861 194.697 245.811C201.911 245.321 199.257 234.634 197.637 229.696L193.482 230.47Z" fill="#D8718A"/>
<path d="M164.717 260.868C168.723 263.539 178.228 267.306 186.976 265.697C196.656 263.917 202.558 259.841 207.455 251.006C211.046 244.525 213.687 242.117 216.358 241.725C220.962 241.049 222.57 245.717 227.043 246.999C231.94 248.404 237.282 246.999 240.398 244.397C250.243 236.176 245.741 217.765 231.94 213.24C209.161 205.771 192.763 232.534 187.866 237.274C185.639 239.43 178.963 244.218 168.278 241.725" stroke="#302025" stroke-width="5.07471"/>
<path d="M90.3805 250.191C86.4643 233.373 87.7058 219.919 93.9325 208.344H167.389C177.717 238.616 165.163 263.102 165.163 263.102C165.163 263.102 165.163 277.347 151.362 276.902C136.226 277.793 135.788 263.286 135.788 261.505C135.788 259.724 124.901 258.834 124.658 261.505C123.501 274.231 117.083 276.902 109.96 276.902C95.2739 276.902 92.6959 260.135 90.3805 250.191Z" fill="#FDD4DD"/>
<path d="M93.9325 208.344C87.7058 219.919 86.4643 233.373 90.3805 250.191C92.6959 260.135 95.2739 276.902 109.96 276.902C117.083 276.902 123.501 274.231 124.658 261.505C124.901 258.834 135.788 259.724 135.788 261.505C135.788 263.286 136.226 277.793 151.362 276.902C165.163 277.347 165.163 263.102 165.163 263.102C165.163 263.102 177.717 238.616 167.389 208.344" stroke="#302025" stroke-width="5.07471" stroke-linecap="round"/>
<path d="M142.454 238.171C142.454 245.301 136.673 251.082 129.543 251.082C122.413 251.082 116.633 245.301 116.633 238.171C116.633 231.041 122.413 228.822 129.543 228.822C136.673 228.822 142.454 231.041 142.454 238.171Z" fill="#FEFFFE"/>
<path d="M61.432 195.414C73.4901 204.688 97.4986 208.544 97.4986 208.544L160.71 208.544C160.71 208.544 245.294 203.879 207.454 116.613C212.796 75.2939 203.744 59.033 198.55 56.0675C182.167 52.1443 161.303 71.8024 153.141 81.8956C135.334 75.2178 116.636 79.6697 106.397 81.443C85.7403 56.1565 68.7046 53.9899 62.7688 56.0675C47.8106 67.8204 49.1164 101.328 51.6392 116.613C38.2588 141.887 32.4962 173.159 61.432 195.414Z" fill="#FDD4DD"/>
<path d="M137.207 80.1353C137.719 82.4227 138.007 84.9905 138.007 87.7036C138.007 97.2925 134.419 105.066 129.993 105.066C125.568 105.066 121.98 97.2924 121.98 87.7036C121.98 84.9904 122.268 82.4228 122.78 80.1353H137.207Z" fill="#D8718A"/>
<path d="M109.751 82.1699C113.077 81.6933 117.688 81.0977 117.7 81.0961C117.702 81.1629 118.041 96.6868 112.726 98.6064C103.506 101.241 105.521 82.9564 105.521 82.9564C105.55 82.9475 106.962 82.5267 109.751 82.1699Z" fill="#D8718A"/>
<path d="M149.795 82.1231C146.615 81.6674 142.211 81.1 142.161 81.0935C142.161 81.0935 141.735 96.6695 146.844 98.5621C155.692 101.144 153.857 82.8855 153.857 82.8855C153.857 82.8855 152.502 82.4678 149.795 82.1231Z" fill="#D8718A"/>
<path d="M97.5006 208.565C97.5006 208.565 73.4921 204.709 61.434 195.435C32.4981 173.179 38.2608 141.907 51.6411 116.633C49.1184 101.348 47.8125 67.8409 62.7707 56.088C68.7065 54.0104 85.7423 56.177 106.399 81.4635C116.638 79.6902 135.336 75.2383 153.143 81.9161C161.305 71.8229 182.169 52.1648 198.552 56.088C203.746 59.0535 212.798 75.3144 207.456 116.633C245.296 203.899 160.711 208.565 160.711 208.565" stroke="#302025" stroke-width="5.07471" stroke-linecap="round"/>
<path d="M31.6055 189.625C36.0573 185.168 44.5158 179.844 57.4262 178.05" stroke="#302025" stroke-width="5.07471" stroke-linecap="round"/>
<path d="M227.043 189.625C222.591 185.168 214.133 179.844 201.222 178.05" stroke="#302025" stroke-width="5.07471" stroke-linecap="round"/>
<path d="M25.8191 169.549C31.3752 166.581 41.0169 163.95 53.8907 165.99" stroke="#302025" stroke-width="5.07471" stroke-linecap="round"/>
<path d="M232.829 169.549C227.273 166.581 217.632 163.95 204.758 165.99" stroke="#302025" stroke-width="5.07471" stroke-linecap="round"/>
<path d="M66.3314 75.2267C62.2019 75.7431 60.6652 92.5203 62.5204 104.496C62.623 105.158 63.3978 105.454 63.9294 105.046C65.9773 103.476 70.3078 100.228 73.4544 98.3757C76.7924 96.4107 81.7313 94.2893 83.7117 93.4635C84.1829 93.267 84.3995 92.7188 84.1769 92.2593C80.5007 84.6706 73.6251 74.3147 66.3314 75.2267Z" fill="#FDE2E5" stroke="#EEB8C3" stroke-width="5.07471" stroke-linecap="round"/>
<path d="M192.758 75.2267C196.888 75.7431 198.425 92.5203 196.569 104.496C196.467 105.158 195.692 105.454 195.16 105.046C193.113 103.476 188.782 100.228 185.635 98.3757C182.297 96.4107 177.359 94.2893 175.378 93.4635C174.907 93.267 174.69 92.7188 174.913 92.2593C178.589 84.6706 185.465 74.3147 192.758 75.2267Z" fill="#FDE2E5" stroke="#EEB8C3" stroke-width="5.07471" stroke-linecap="round"/>
<path d="M77.416 158.139C77.4662 158.373 77.5897 158.59 77.7787 158.742C77.9675 158.894 78.2038 158.969 78.44 158.949C78.6762 158.928 78.8965 158.815 79.0569 158.633C79.2174 158.452 79.3023 158.216 79.3122 157.978C79.3122 157.978 79.3122 157.978 79.3122 157.978C79.3559 157.239 79.5085 156.491 79.7247 155.76C81.5192 150.191 86.0632 145.327 91.0621 144.017C91.9882 143.776 92.9605 143.613 93.9544 143.514C100.64 142.963 107.987 144.593 114.021 148.404C114.688 148.839 115.335 149.31 115.954 149.819C116.137 149.972 116.368 150.067 116.611 150.07C116.853 150.073 117.085 149.986 117.259 149.825C117.432 149.663 117.536 149.438 117.55 149.196C117.564 148.954 117.486 148.716 117.347 148.522C117.347 148.522 117.347 148.522 117.347 148.522C116.826 147.807 116.249 147.126 115.632 146.484C109.96 140.779 101.778 137.786 93.4528 138.464C92.2026 138.589 90.9451 138.818 89.701 139.188C82.2689 141.572 77.8783 148.431 77.2523 155.353C77.1979 156.275 77.232 157.213 77.416 158.139Z" fill="#302025"/>
<path d="M185.545 170.057C183.764 170.77 163.135 171.682 153.044 171.831C133.459 149.144 163.731 120.642 182.427 138.887C194.836 150.997 187.771 169.167 185.545 170.057Z" fill="#FEFFFE"/>
<path d="M178.519 170.502C177.225 171.058 168.934 171.719 161.599 171.835C142.014 155.365 163.828 132.662 179.114 146.104C190.093 155.758 180.137 169.806 178.519 170.502Z" fill="#211A19"/>
<path d="M185.867 171.185C185.68 171.341 185.443 171.431 185.197 171.427C184.952 171.422 184.719 171.324 184.549 171.152C184.379 170.98 184.283 170.747 184.28 170.501C184.277 170.256 184.369 170.019 184.526 169.834C185.275 168.942 185.916 167.948 186.455 166.908C190.701 158.695 188.478 148.938 182.647 142.279L182.846 142.495C181.745 141.457 180.602 140.505 179.407 139.657C171.18 133.128 159.288 135.171 152.234 143.682C151.426 144.585 150.671 145.524 149.95 146.52C149.808 146.717 149.6 146.863 149.361 146.918C149.122 146.974 148.872 146.937 148.665 146.812C148.458 146.688 148.307 146.485 148.244 146.248C148.181 146.011 148.212 145.759 148.318 145.541C148.318 145.541 148.318 145.541 148.318 145.541C148.893 144.378 149.525 143.26 150.242 142.162C155.832 131.773 172.412 127.186 182.343 135.518C183.772 136.532 185.097 137.663 186.335 138.883L186.535 139.1C193.318 146.96 194.912 159.84 188.579 168.237C187.789 169.319 186.887 170.322 185.867 171.185Z" fill="#302025"/>
<circle cx="159.375" cy="151.367" r="5.34222" fill="white"/>
<path d="M161.6 249.323C161.6 249.323 158.483 242.645 157.593 239.974C157.593 239.974 153.78 223.96 159.374 216.824C161.351 214.301 166.052 211.905 166.052 211.905C172.673 216.043 175.58 223.326 179.852 229.734C183.749 235.58 187.267 244.256 182.079 250.213C179.98 252.623 175.306 254.158 174.955 254.22C167.388 255.555 166.524 254.247 161.6 249.323Z" fill="#FDD4DD"/>
<path d="M158.93 243.513C160.265 248.856 162.8 253.159 168.279 254.643C172.556 255.802 176.367 254.399 179.406 252.417C189.647 245.739 184.303 233.719 167.832 210.125" stroke="#302025" stroke-width="5.07471" stroke-linecap="round"/>
<path d="M107.733 209.215C105.137 226.444 93.8669 231.538 88.5566 231.931C44.893 226.336 51.0869 192.408 63.1844 187.098C58.2674 181.787 57.5793 167.996 63.1848 167.044C75.6936 164.92 79.7059 176.772 78.2309 183.548C91.2117 184.02 94.2603 196.135 94.1619 202.134L107.733 209.215Z" fill="#FDD4DD"/>
<path d="M90.3218 215.105C97.408 208.911 97.1129 184.13 78.5268 183.245C79.7068 177.067 75.2816 164.764 64.0709 166.708C55.8103 168.141 57.7714 179.801 62.2951 186.783C49.9072 194.75 47.5498 228.677 89.7323 231.923" stroke="#302025" stroke-width="5.07471" stroke-linecap="round"/>
<path d="M69.0859 198.561C72.4295 195.611 82.3619 194.429 84.7219 203.029C87.0821 211.63 78.5265 215.715 72.6262 214.492" stroke="#302025" stroke-width="5.07471" stroke-linecap="round"/>
<path d="M72.3301 206.569L74.9852 205.094" stroke="#302025" stroke-width="5.07471" stroke-linecap="round"/>
<path d="M107.732 208.929L95.0422 203.325" stroke="#302025" stroke-width="5.07471" stroke-linecap="round"/>
<path d="M119.441 190.315L117.531 184.379H128.99L133.764 181.639L137.105 184.379L144.266 184.835L150.475 183.002L149.52 188.945C148.246 190.921 145.699 194.965 145.699 195.33C145.699 195.695 142.199 197.922 140.449 198.99L133.764 199.447L126.601 198.07C125.169 197.007 122.306 194.789 122.306 194.424C122.306 194.059 120.396 191.532 119.441 190.315Z" fill="#1F1919"/>
<ellipse cx="132.666" cy="173.619" rx="8.01333" ry="5.34222" fill="#211A19"/>
<path d="M145.13 192.34C145.13 192.34 141.871 198.256 137.109 199.483C132.347 200.709 128.564 198.466 128.564 198.466C128.564 198.466 129.909 192.979 135.513 191.536C140.829 190.166 145.13 192.34 145.13 192.34Z" fill="#D8718A"/>
<path d="M150.919 182.53L149.234 180.633C150.055 179.903 151.254 179.785 152.202 180.341C153.151 180.897 153.633 182 153.398 183.074L150.919 182.53ZM115.306 181.439L112.909 182.27C112.491 181.064 113.033 179.735 114.176 179.167C115.319 178.598 116.707 178.968 117.416 180.029L115.306 181.439ZM133.179 200.782L133.179 198.245L133.179 200.782ZM130.163 176.763C130.163 175.362 131.299 174.226 132.7 174.225C134.102 174.225 135.238 175.361 135.238 176.762L132.701 176.763L130.163 176.763ZM150.919 182.53C153.398 183.074 153.398 183.075 153.397 183.076C153.397 183.076 153.397 183.077 153.397 183.078C153.396 183.08 153.396 183.082 153.395 183.084C153.394 183.089 153.393 183.094 153.392 183.101C153.389 183.115 153.384 183.133 153.379 183.155C153.369 183.199 153.355 183.26 153.336 183.338C153.298 183.492 153.243 183.71 153.168 183.983C153.019 184.528 152.793 185.294 152.477 186.209C151.849 188.03 150.853 190.481 149.379 192.955C146.47 197.838 141.361 203.32 133.179 203.32L133.179 200.782L133.179 198.245C138.731 198.245 142.492 194.601 145.019 190.357C146.264 188.268 147.128 186.156 147.68 184.554C147.955 183.758 148.149 183.098 148.273 182.645C148.335 182.419 148.379 182.245 148.406 182.132C148.42 182.075 148.43 182.034 148.436 182.009C148.438 181.997 148.44 181.989 148.441 181.985C148.442 181.983 148.442 181.982 148.442 181.982C148.442 181.982 148.442 181.982 148.442 181.983C148.442 181.983 148.441 181.984 148.441 181.984C148.441 181.985 148.441 181.986 150.919 182.53ZM133.179 200.782L133.179 203.32C129.616 203.32 126.551 201.77 124.062 199.717C121.58 197.671 119.529 195.012 117.914 192.471C116.29 189.915 115.045 187.377 114.209 185.489C113.789 184.541 113.468 183.748 113.251 183.188C113.142 182.907 113.058 182.684 113.001 182.528C112.973 182.45 112.951 182.389 112.935 182.345C112.928 182.324 112.922 182.306 112.917 182.294C112.915 182.287 112.913 182.282 112.912 182.278C112.911 182.276 112.91 182.275 112.91 182.273C112.91 182.273 112.909 182.272 112.909 182.271C112.909 182.271 112.909 182.27 115.306 181.439C117.703 180.607 117.703 180.607 117.703 180.606C117.703 180.606 117.703 180.606 117.703 180.606C117.703 180.605 117.703 180.606 117.703 180.606C117.703 180.607 117.704 180.608 117.705 180.611C117.707 180.617 117.711 180.628 117.716 180.643C117.727 180.673 117.744 180.72 117.767 180.784C117.814 180.911 117.885 181.104 117.982 181.352C118.175 181.849 118.465 182.568 118.849 183.433C119.619 185.172 120.749 187.47 122.197 189.75C123.655 192.045 125.374 194.222 127.29 195.802C129.199 197.376 131.159 198.245 133.179 198.245L133.179 200.782ZM150.919 182.53C152.605 184.426 152.604 184.427 152.603 184.428C152.602 184.429 152.601 184.43 152.6 184.43C152.599 184.432 152.597 184.434 152.595 184.435C152.591 184.439 152.586 184.443 152.581 184.447C152.571 184.456 152.559 184.467 152.545 184.479C152.517 184.503 152.48 184.533 152.436 184.57C152.347 184.642 152.226 184.738 152.075 184.852C151.772 185.078 151.344 185.376 150.802 185.697C149.722 186.338 148.158 187.09 146.208 187.54C142.198 188.466 136.842 188.041 131.114 183.444L132.701 181.465L134.289 179.486C138.765 183.077 142.519 183.184 145.066 182.596C146.395 182.289 147.473 181.772 148.214 181.332C148.582 181.114 148.86 180.919 149.035 180.788C149.123 180.722 149.184 180.673 149.218 180.646C149.235 180.632 149.245 180.624 149.247 180.621C149.249 180.62 149.248 180.62 149.246 180.622C149.245 180.623 149.243 180.625 149.241 180.627C149.24 180.628 149.239 180.629 149.238 180.63C149.237 180.63 149.236 180.631 149.236 180.631C149.235 180.632 149.234 180.633 150.919 182.53ZM132.701 181.465L134.216 183.501C127.856 188.232 122.612 188.509 118.76 187.066C116.924 186.378 115.561 185.354 114.659 184.51C114.205 184.086 113.859 183.699 113.618 183.406C113.497 183.259 113.402 183.135 113.332 183.04C113.297 182.992 113.268 182.952 113.245 182.92C113.234 182.904 113.224 182.89 113.216 182.878C113.212 182.872 113.208 182.866 113.205 182.861C113.204 182.859 113.202 182.857 113.2 182.854C113.2 182.853 113.199 182.852 113.198 182.851C113.197 182.85 113.196 182.848 115.306 181.439C117.416 180.029 117.415 180.027 117.414 180.026C117.414 180.026 117.413 180.024 117.412 180.024C117.411 180.022 117.41 180.02 117.409 180.019C117.407 180.016 117.406 180.014 117.404 180.012C117.402 180.008 117.401 180.006 117.401 180.007C117.401 180.007 117.406 180.014 117.416 180.028C117.437 180.056 117.477 180.109 117.537 180.182C117.658 180.329 117.854 180.551 118.125 180.804C118.671 181.314 119.479 181.916 120.541 182.314C122.485 183.042 125.939 183.333 131.187 179.429L132.701 181.465ZM132.701 176.763L135.238 176.762L135.239 181.465L132.701 181.465L130.164 181.466L130.163 176.763L132.701 176.763Z" fill="#211A19"/>
</svg>
