<svg width="258" height="333" viewBox="0 0 258 333" fill="none" xmlns="http://www.w3.org/2000/svg">
<g clip-path="url(#clip0_45_477)">
<path d="M75.8491 230.875C94.1779 241.803 128.259 243.21 128.259 243.21C128.259 243.21 116.405 261.246 119.5 273.5C126.371 300.708 160.5 295 179.5 289.859C179.5 289.859 198 303.977 223.5 310.5C249 317.023 281.999 320 281.999 320L281.999 261C281.999 261 333.372 212.303 266.248 96.9874C266.867 38.5469 251.572 17.39 243.847 14.1166C220.377 11.357 194.559 42.187 184.856 57.595C158.947 51.2334 133.636 60.5228 119.665 64.684C86.7138 32.8704 62.6247 32.6657 54.6991 36.5401C35.8027 55.3824 43.1554 101.844 49.1938 122.719C34.7284 160.136 31.8652 204.651 75.8491 230.875Z" fill="#FDD4DD"/>
<path d="M162.37 57.7754C163.461 60.8772 164.286 64.4064 164.734 68.1857C166.318 81.5433 162.603 92.9643 156.438 93.6952C150.273 94.4259 143.992 84.19 142.408 70.8324C141.96 67.0531 141.937 63.4289 142.272 60.1579L162.37 57.7754Z" fill="#D8718A"/>
<path d="M124.458 65.1444C129.019 63.9295 135.354 62.3341 135.354 62.3341C135.354 62.3341 138.418 83.9885 131.316 87.548C118.907 92.7407 118.694 66.9382 118.694 66.9382C118.694 66.9382 120.591 66.1123 124.458 65.1444Z" fill="#D8718A"/>
<path d="M180.232 58.4664C175.701 58.3563 169.427 58.2937 169.427 58.2937C169.429 58.319 171.412 80.0627 178.837 81.8545C191.572 83.9863 186.029 58.9165 186.016 58.8581C186.016 58.8581 184.06 58.4996 180.232 58.4664Z" fill="#D8718A"/>
<path d="M216.321 232.8C216.321 232.8 333.379 212.332 266.255 97.0164C266.874 38.5759 251.578 17.4189 243.853 14.1454C220.384 11.3858 194.566 42.2158 184.863 57.6238C158.954 51.2622 133.642 60.5516 119.672 64.7128C86.7206 32.8992 62.6316 32.6947 54.706 36.569C35.8096 55.4114 43.1622 101.873 49.2006 122.748C34.7352 160.165 31.8721 204.68 75.8559 230.904C94.1848 241.832 128.266 243.238 128.266 243.238C120.522 252.279 110.044 276.195 128.266 288.36C145.495 299.862 175.268 295.243 197.496 279.363C218.496 264.359 204.997 242.357 189.496 244.859C178.637 246.612 176.88 258.668 168.495 262.861C161.495 266.362 154.996 266.362 147.496 262.861" stroke="#302025" stroke-width="7.11872" stroke-linecap="round"/>
<path d="M24.9107 198.719C32.0034 193.449 44.8341 187.798 63.118 187.959" stroke="#302025" stroke-width="7.11872" stroke-linecap="round"/>
<path d="M21.0014 169.675C29.3208 166.697 43.2407 165.025 60.6866 170.499" stroke="#302025" stroke-width="7.11872" stroke-linecap="round"/>
<path d="M62.8261 62.6419C57.1589 64.0431 57.7887 87.668 62.3509 104.044C62.6031 104.95 63.7312 105.234 64.4045 104.578C66.9979 102.052 72.4941 96.8127 76.5715 93.7128C80.8969 90.4242 87.4267 86.6534 90.0491 85.176C90.673 84.8245 90.8841 84.025 90.4982 83.4217C84.1239 73.4575 72.8358 60.1669 62.8261 62.6419Z" fill="#FDE2E5" stroke="#EEB8C3" stroke-width="3" stroke-linecap="round"/>
<path d="M238.944 41.7631C244.782 41.8004 249.694 64.9178 249.087 81.9067C249.053 82.8459 248.023 83.3861 247.215 82.906C244.103 81.0565 237.534 77.2473 232.845 75.1866C227.87 73.0005 220.64 70.861 217.745 70.0377C217.056 69.8419 216.664 69.1139 216.898 68.4371C220.766 57.2586 228.634 41.6972 238.944 41.7631Z" fill="#FDE2E5" stroke="#EEB8C3" stroke-width="3" stroke-linecap="round"/>
<path d="M79.1161 144.574C79.2245 144.891 79.4324 145.173 79.7208 145.354C80.009 145.535 80.3504 145.599 80.6761 145.532C81.0019 145.465 81.2901 145.271 81.4834 144.991C81.677 144.711 81.7563 144.369 81.7307 144.035C81.7307 144.035 81.7307 144.035 81.7307 144.035C81.6696 142.999 81.7587 141.932 81.9392 140.878C83.5193 132.824 89.0459 125.298 95.7933 122.648C97.0435 122.159 98.3711 121.771 99.7393 121.47C108.961 119.597 119.465 120.655 128.5 124.967C129.501 125.463 130.481 126.012 131.426 126.619C131.707 126.802 132.045 126.896 132.383 126.861C132.721 126.825 133.03 126.665 133.245 126.412C133.46 126.158 133.567 125.827 133.547 125.488C133.527 125.148 133.378 124.83 133.152 124.583C133.152 124.583 133.152 124.583 133.152 124.583C132.308 123.673 131.392 122.819 130.427 122.027C121.583 115.017 109.691 112.197 98.2066 114.518C96.4856 114.898 94.7717 115.424 93.0997 116.146C83.1402 120.694 78.1568 130.974 78.4278 140.72C78.5042 142.012 78.7067 143.314 79.1161 144.574Z" fill="#302025"/>
<path d="M244.125 124.265C244.116 124.6 244.002 124.931 243.781 125.19C243.56 125.448 243.253 125.612 242.922 125.645C242.591 125.678 242.258 125.579 241.99 125.369C241.721 125.16 241.544 124.858 241.469 124.531C241.469 124.531 241.469 124.531 241.469 124.531C241.21 123.425 240.898 122.339 240.517 121.32C237.466 112.308 228.182 110.241 219.043 110.387C218.365 110.393 217.688 110.419 217.011 110.465C207.476 111.088 198.122 115.607 189.156 121.009C188.156 121.614 187.161 122.228 186.165 122.856C185.882 123.035 185.542 123.125 185.204 123.084C184.867 123.044 184.56 122.88 184.349 122.623C184.137 122.366 184.035 122.034 184.06 121.695C184.085 121.355 184.238 121.04 184.468 120.796C184.468 120.796 184.468 120.796 184.468 120.796C185.296 119.922 186.139 119.067 187.008 118.228C194.727 110.779 204.675 104.191 216.537 103.362C217.369 103.306 218.203 103.281 219.04 103.287C224.264 103.344 229.793 104.118 234.794 106.932C239.867 109.654 243.396 115.183 243.935 120.502C244.101 121.768 244.152 123.041 244.125 124.265Z" fill="#302025"/>
<path d="M164.082 143.647C164.082 143.647 169.847 146.356 172.824 147.219C178.818 148.957 183.946 145.921 189.265 143.639C195.905 161.598 196.14 201.208 169.077 199.259C157.16 198.401 142.225 189.256 140.349 149.098C150.178 153.458 157.212 150.543 164.082 143.647Z" fill="#1F1919"/>
<ellipse cx="162.906" cy="133.509" rx="11.241" ry="7.49399" transform="rotate(-6.76084 162.906 133.509)" fill="#211A19"/>
<path d="M188.238 187.043C188.062 195.554 180.185 197.944 173.336 197.88C169.054 197.839 155.883 199.664 156.069 190.682C156.175 185.521 162.228 179.004 175.502 179.186C183.737 179.299 188.325 182.863 188.238 187.043Z" fill="#D8718A"/>
<path d="M189.808 142.908L187.146 140.545C188.048 139.529 189.45 139.115 190.759 139.478C192.068 139.841 193.056 140.918 193.306 142.253L189.808 142.908ZM140.017 147.27L136.468 147.533C136.354 145.999 137.239 144.564 138.662 143.978C140.085 143.392 141.723 143.787 142.723 144.957L140.017 147.27ZM174.072 198.626L174.494 202.16V202.16L174.072 198.626ZM159.942 138.303C159.71 136.351 161.104 134.581 163.057 134.349C165.009 134.117 166.779 135.512 167.011 137.464L163.476 137.883L159.942 138.303ZM189.808 142.908C193.306 142.253 193.306 142.254 193.307 142.255C193.307 142.256 193.307 142.257 193.307 142.258C193.308 142.261 193.308 142.265 193.309 142.269C193.311 142.277 193.313 142.289 193.316 142.304C193.321 142.334 193.329 142.376 193.339 142.431C193.358 142.54 193.386 142.698 193.421 142.901C193.49 143.307 193.587 143.896 193.701 144.642C193.927 146.133 194.22 148.257 194.489 150.811C195.026 155.904 195.476 162.785 195.095 169.813C194.718 176.78 193.51 184.214 190.518 190.218C187.454 196.364 182.378 201.219 174.494 202.16L174.072 198.626L173.65 195.092C178.568 194.504 181.859 191.63 184.147 187.042C186.504 182.312 187.631 176.008 187.987 169.428C188.34 162.909 187.923 156.433 187.41 151.557C187.154 149.127 186.876 147.112 186.663 145.712C186.556 145.012 186.466 144.466 186.404 144.1C186.372 143.917 186.348 143.778 186.332 143.688C186.324 143.643 186.318 143.609 186.314 143.589C186.312 143.578 186.311 143.571 186.31 143.567C186.309 143.565 186.309 143.563 186.309 143.563C186.309 143.563 186.309 143.563 186.309 143.563C186.309 143.563 186.309 143.564 189.808 142.908ZM174.072 198.626L174.494 202.16C165.733 203.207 158.811 199.906 153.577 194.616C148.457 189.441 144.918 182.357 142.455 175.493C139.975 168.581 138.485 161.601 137.613 156.384C137.176 153.767 136.891 151.573 136.715 150.026C136.627 149.252 136.566 148.639 136.526 148.214C136.507 148.002 136.492 147.837 136.483 147.722C136.478 147.665 136.474 147.62 136.472 147.589C136.471 147.573 136.47 147.56 136.469 147.551C136.469 147.546 136.468 147.543 136.468 147.54C136.468 147.538 136.468 147.537 136.468 147.536C136.468 147.535 136.468 147.533 140.017 147.27C143.567 147.006 143.567 147.005 143.567 147.004C143.567 147.005 143.567 147.004 143.567 147.004C143.567 147.005 143.567 147.006 143.567 147.008C143.567 147.012 143.568 147.019 143.569 147.03C143.57 147.051 143.573 147.085 143.577 147.132C143.585 147.225 143.597 147.368 143.615 147.557C143.65 147.936 143.706 148.499 143.788 149.221C143.952 150.664 144.22 152.734 144.634 155.211C145.465 160.183 146.868 166.714 149.156 173.088C151.46 179.511 154.562 185.49 158.637 189.609C162.597 193.612 167.425 195.836 173.65 195.092L174.072 198.626ZM189.808 142.908C192.469 145.272 192.468 145.273 192.466 145.275C192.466 145.275 192.464 145.277 192.463 145.278C192.461 145.281 192.459 145.283 192.456 145.286C192.451 145.292 192.446 145.298 192.439 145.305C192.427 145.319 192.412 145.335 192.394 145.355C192.359 145.393 192.313 145.442 192.257 145.5C192.146 145.616 191.993 145.769 191.801 145.952C191.417 146.317 190.869 146.803 190.167 147.34C188.768 148.411 186.714 149.716 184.072 150.666C178.638 152.619 171.108 152.91 162.369 147.453L164.254 144.434L166.139 141.415C172.967 145.678 178.214 145.207 181.665 143.967C183.466 143.319 184.881 142.421 185.841 141.687C186.318 141.322 186.673 141.005 186.896 140.793C187.007 140.687 187.084 140.609 187.127 140.565C187.148 140.543 187.16 140.529 187.163 140.526C187.165 140.524 187.164 140.525 187.162 140.528C187.16 140.529 187.158 140.531 187.156 140.534C187.154 140.536 187.153 140.537 187.151 140.539C187.151 140.54 187.149 140.541 187.149 140.542C187.148 140.543 187.146 140.545 189.808 142.908ZM164.254 144.434L166.7 147.02C158.621 154.66 151.363 155.912 145.758 154.538C143.087 153.883 141.018 152.681 139.622 151.655C138.921 151.139 138.374 150.657 137.99 150.289C137.798 150.104 137.644 149.947 137.531 149.826C137.475 149.766 137.428 149.714 137.391 149.673C137.373 149.653 137.357 149.635 137.344 149.619C137.337 149.612 137.331 149.605 137.326 149.599C137.323 149.595 137.32 149.592 137.318 149.59C137.317 149.588 137.315 149.586 137.314 149.586C137.313 149.584 137.311 149.582 140.017 147.27C142.723 144.957 142.722 144.956 142.72 144.954C142.72 144.953 142.718 144.952 142.717 144.95C142.716 144.948 142.714 144.946 142.712 144.945C142.709 144.941 142.707 144.938 142.705 144.936C142.7 144.931 142.698 144.929 142.698 144.929C142.699 144.929 142.707 144.938 142.723 144.956C142.757 144.991 142.822 145.059 142.917 145.151C143.11 145.335 143.42 145.612 143.839 145.92C144.684 146.541 145.909 147.245 147.454 147.624C150.282 148.318 155.142 148.153 161.808 141.848L164.254 144.434ZM163.476 137.883L167.011 137.464L167.788 144.014L164.254 144.434L160.719 144.854L159.942 138.303L163.476 137.883Z" fill="#211A19"/>
<path d="M178.5 290C229 322 277 319.5 277 319.5" stroke="#302025" stroke-width="6.63621" stroke-linecap="round"/>
<path d="M253.401 260.104C263.767 261.709 270.869 271.412 269.265 281.778C267.66 292.143 257.956 299.245 247.591 297.641C237.225 296.036 235.301 287.134 236.905 276.769C238.51 266.403 243.036 258.5 253.401 260.104Z" fill="#FEFFFE"/>
</g>
<defs>
<clipPath id="clip0_45_477">
<rect width="258" height="333" fill="white"/>
</clipPath>
</defs>
</svg>
