<svg width="391" height="378" viewBox="0 0 391 378" fill="none" xmlns="http://www.w3.org/2000/svg">
<g clip-path="url(#clip0_245_2)">
<path d="M180.5 41.9082C191.3 38.3082 202.834 37.7417 207.501 38.4083C218 20.9085 234.5 16.2414 239.5 18.4082C253.1 27.6082 255 44.9082 254 61.4086L259 74.4082C259.833 74.5749 270.074 75.0023 273.5 82.9082C280 97.9082 262 102.408 262 102.408C262 102.408 265 124.408 243.5 129.408C249 143.408 236 150.908 236 150.908C236 150.908 245.5 189.908 245.5 188.908C245.5 188.908 269.635 163.078 300 182.908C324.5 198.908 320 227.408 320 227.408C320 227.408 356 182.908 393.5 215.909L390.5 761.409H0L0.5 232.908C7.5 216.408 30 222.908 33.5 230.909C33.5 218.408 48.9 198.408 74.5 198.408C100.1 198.408 109.833 206.575 111.5 215.909C119.5 186.408 134.831 184.908 146 184.908C157.169 184.908 163.5 188.408 163.5 188.408C163.5 188.408 169 170.908 170 151.908C154 148.908 156.5 132.908 156.5 132.908C156.5 132.908 151.638 130.078 149 127.908C146.007 125.446 142.5 120.908 142.5 120.908C133 122.408 127.106 112.788 126.5 104.908C125.808 95.9079 132.668 92.4085 136.502 90.9085C136.502 83.9082 140 76.4082 140 76.4082C140 76.4082 128.499 41.4081 145.5 29.4082C155.5 25.4082 175.833 35.4083 180.5 41.9082Z" fill="white"/>
<path d="M162.168 124.949C170.049 129.648 184.705 130.253 184.705 130.253L222.571 125.764C222.571 125.764 272.909 116.962 244.044 67.3736C244.31 42.2427 237.733 33.1446 234.411 31.737C224.318 30.5503 213.216 43.808 209.043 50.4338C197.902 47.6981 187.017 51.6928 181.009 53.4823C166.84 39.8016 156.481 39.7136 153.072 41.3796C144.947 49.4823 148.108 69.4619 150.705 78.4389C144.485 94.5292 143.253 113.672 162.168 124.949Z" fill="#FDD4DD"/>
<path d="M199.374 50.5114C199.843 51.8453 200.197 53.3631 200.39 54.9883C201.071 60.7323 199.474 65.6439 196.823 65.9582C194.172 66.2723 191.47 61.8704 190.789 56.1265C190.597 54.5013 190.587 52.9426 190.731 51.536L199.374 50.5114Z" fill="#D8718A"/>
<path d="M183.07 53.6806C185.017 53.162 187.716 52.4819 187.755 52.472C187.755 52.472 189.073 61.7833 186.02 63.3143C180.683 65.5475 180.592 54.4517 180.592 54.4517C180.607 54.445 181.423 54.0928 183.07 53.6806Z" fill="#D8718A"/>
<path d="M207.051 50.809C205.102 50.7617 202.404 50.7342 202.404 50.7342C202.404 50.7342 203.256 60.094 206.45 60.8658C211.933 61.7839 209.538 50.9769 209.538 50.9769C209.522 50.974 208.681 50.8232 207.051 50.809Z" fill="#D8718A"/>
<path d="M184.707 130.266C184.707 130.266 170.051 129.661 162.169 124.961C143.255 113.684 144.487 94.5419 150.707 78.4516C148.11 69.4746 144.949 49.495 153.074 41.3923C156.483 39.7262 166.842 39.8143 181.011 53.4949C187.019 51.7055 197.904 47.7108 209.045 50.4465C213.218 43.8207 224.32 30.563 234.413 31.7497C237.735 33.1573 244.312 42.2554 244.046 67.3863C272.911 116.975 222.573 125.777 222.573 125.777" stroke="#302025" stroke-width="3.06123" stroke-linecap="round"/>
<path d="M143.981 112.96C145.588 109.516 149.287 104.756 156.238 101.08" stroke="#302025" stroke-width="3.06123" stroke-linecap="round"/>
<path d="M258 96.7945C255.663 93.7987 250.99 89.9892 243.392 87.9651" stroke="#302025" stroke-width="3.06123" stroke-linecap="round"/>
<path d="M136.566 102.77C139.105 99.9432 144.03 96.4655 151.749 94.9711" stroke="#302025" stroke-width="3.06123" stroke-linecap="round"/>
<path d="M262.941 85.1988C259.832 83.013 254.253 80.7282 246.395 81.0027" stroke="#302025" stroke-width="3.06123" stroke-linecap="round"/>
<path d="M158.12 50.432C155.683 51.0345 155.954 61.1938 157.916 68.236C158.024 68.6253 158.51 68.7476 158.799 68.4656C159.914 67.3794 162.278 65.1263 164.031 63.7932C165.891 62.3791 168.699 60.7575 169.827 60.1222C170.095 59.9711 170.186 59.6272 170.02 59.3678C167.279 55.0829 162.425 49.3677 158.12 50.432Z" fill="#FDE2E5" stroke="#EEB8C3" stroke-width="3.06123" stroke-linecap="round"/>
<path d="M232.304 43.6263C234.814 43.6423 236.926 53.5834 236.665 60.889C236.651 61.2929 236.208 61.5252 235.86 61.3187C234.522 60.5234 231.697 58.8854 229.681 57.9992C227.542 57.0591 224.432 56.1391 223.187 55.7851C222.891 55.7008 222.722 55.3878 222.823 55.0967C224.486 50.2897 227.87 43.5979 232.304 43.6263Z" fill="#FDE2E5" stroke="#EEB8C3" stroke-width="3.06123" stroke-linecap="round"/>
<path d="M196.328 177.471C195.878 172.384 199.441 166.83 201.432 164.714L212.462 168.752C209.908 174.858 212.087 179.309 213.146 180.85C215.475 184.238 229.751 196.675 223.025 209.476C218.95 217.232 207.547 218.064 203.644 211.384C202.408 209.27 202.108 205.951 203.434 203.179C204.646 200.647 207.457 200.317 207.643 197.352C207.728 195.985 206.509 193.912 203.014 191.125C198.249 187.327 196.891 183.83 196.328 177.471Z" fill="#FDD4DD"/>
<path d="M224.131 198.422C223.948 197.983 223.779 197.53 223.654 197.102C224.033 195.212 221.754 192.672 221.754 192.672C221.7 192.671 215.711 192.545 214.469 195.522C213.105 199.511 220.254 200.56 223.647 200.833L224.131 198.422Z" fill="#D8718A"/>
<path d="M216.616 184.872C216.364 184.466 216.121 184.043 215.922 183.636C215.888 181.651 213.373 179.592 213.34 179.565C213.34 179.565 207.893 180.749 207.367 184.052C206.935 188.394 213.561 187.885 216.66 187.416L216.616 184.872Z" fill="#D8718A"/>
<path d="M201.416 164.711C199.426 166.827 196.232 172.103 196.313 177.468C196.401 183.405 198.234 187.324 202.999 191.122C206.494 193.909 207.661 195.721 207.627 197.349C207.568 200.156 204.63 200.644 203.419 203.176C202.092 205.948 202.392 209.267 203.628 211.381C207.531 218.062 218.934 217.229 223.009 209.473C229.736 196.672 215.459 184.235 213.131 180.847C212.072 179.306 209.893 174.855 212.447 168.749" stroke="#302025" stroke-width="3.06123"/>
<path d="M222.918 142.691L223.633 155.242L224.143 176.756L218.428 182.776L211.898 180.225L209.347 170.021H201.49C201.49 170.021 199.745 185.552 192.51 183.388C187.415 181.865 186.485 178.11 184.653 172.266C182.942 166.809 183.224 155.242 183.224 155.242V138.507C183.224 138.507 174.216 141.156 170.979 133.609C167.743 126.062 181.694 115.854 181.694 115.854L185.979 107.69C189.713 105.797 194.245 110.853 194.245 110.853C194.245 110.853 214.503 103.466 222.918 110.853C227.794 115.133 222.204 116.772 230.979 127.588C239.755 138.404 222.918 142.691 222.918 142.691Z" fill="#FDD4DD"/>
<path d="M214.11 152.615C214.092 156.916 210.59 160.388 206.289 160.369C201.988 160.351 198.516 156.849 198.534 152.548C198.553 148.247 202.045 146.923 206.346 146.942C210.648 146.96 214.129 148.313 214.11 152.615Z" fill="#FEFFFE"/>
<path d="M216.709 132.161C209.362 113.08 218.546 110.243 222.525 111.039C226.097 111.753 225.893 119.61 225.893 119.61L230.178 125.121C240.791 140.937 223.035 142.468 223.035 142.468L224.056 155.733C224.056 155.733 226.285 175.123 221.999 180.837C219.599 184.038 212.153 182.678 211.183 178.797C210.265 175.123 209.754 169.577 209.754 169.577H201.693C201.693 169.577 200.44 179.642 197.918 181.756C194.142 184.919 189.335 183.642 187.627 180.021C181.897 167.878 182.674 144.896 183.75 138.182C178.852 140.631 173.922 139.01 171.3 134.917C165.484 125.835 176.539 119.816 181.607 115.835C184.464 113.59 181.199 110.529 186.709 107.774C190.076 105.427 203.75 111.243 187.627 130.325" stroke="#302025" stroke-width="3.06123" stroke-linecap="round" stroke-linejoin="round"/>
<path d="M200.1 87.4409C200.1 87.4409 202.579 88.6058 203.86 88.977C206.437 89.7242 208.642 88.4187 210.929 87.4377C212.502 95.5332 209.798 109.915 204.442 111.043C199.414 112.103 198.01 103.493 189.894 89.7852C194.121 91.6601 197.146 90.4063 200.1 87.4409Z" fill="#1F1919"/>
<ellipse cx="199.594" cy="83.0813" rx="4.83391" ry="3.22261" transform="rotate(-6.76084 199.594 83.0813)" fill="#211A19"/>
<path d="M208.222 104.307C209.111 106.896 207.41 109.486 205.058 110.328C203.588 110.854 200.894 110.814 199.956 108.083C199.416 106.513 198.789 103.349 203.529 102.368C206.489 101.756 207.786 103.036 208.222 104.307Z" fill="#D8718A"/>
<path d="M211.162 87.1234L210.018 86.1071C210.453 85.6164 211.154 85.4581 211.758 85.7136C212.363 85.9691 212.737 86.5816 212.689 87.2361L211.162 87.1234ZM189.751 88.9989L188.361 89.6402C188.041 88.9461 188.282 88.1223 188.925 87.71C189.569 87.2978 190.418 87.4235 190.915 88.0046L189.751 88.9989ZM204.395 111.084L204.214 109.564L204.395 111.084ZM198.319 85.1431C198.219 84.3036 198.819 83.5424 199.658 83.4427C200.498 83.343 201.259 83.9427 201.359 84.7822L199.839 84.9626L198.319 85.1431ZM211.162 87.1234C212.689 87.2361 212.689 87.2363 212.689 87.2367C212.689 87.2369 212.689 87.2373 212.689 87.2378C212.688 87.2387 212.688 87.24 212.688 87.2416C212.688 87.2449 212.688 87.2495 212.687 87.2556C212.686 87.2677 212.685 87.2853 212.683 87.3083C212.68 87.3544 212.674 87.4218 212.667 87.5094C212.653 87.6844 212.632 87.9397 212.603 88.264C212.545 88.9125 212.457 89.8376 212.336 90.9488C212.093 93.1682 211.715 96.1441 211.176 99.1478C210.641 102.134 209.932 105.223 209.01 107.633C208.55 108.833 208.008 109.946 207.352 110.808C206.712 111.649 205.803 112.457 204.577 112.603L204.395 111.084L204.214 109.564C204.248 109.56 204.497 109.505 204.916 108.954C205.32 108.423 205.739 107.613 206.151 106.538C206.97 104.399 207.638 101.535 208.163 98.6072C208.686 95.6962 209.054 92.7951 209.292 90.6161C209.411 89.5282 209.497 88.6237 209.554 87.9925C209.582 87.6769 209.602 87.4298 209.616 87.2624C209.623 87.1787 209.628 87.115 209.631 87.0726C209.633 87.0514 209.634 87.0355 209.635 87.0251C209.635 87.02 209.635 87.0162 209.635 87.0138C209.636 87.0126 209.636 87.0117 209.636 87.0112C209.636 87.011 209.636 87.0109 209.636 87.0107C209.636 87.0107 209.636 87.0108 211.162 87.1234ZM204.395 111.084L204.577 112.603C203.384 112.746 202.325 112.076 201.579 111.459C200.761 110.784 199.927 109.839 199.112 108.778C197.473 106.643 195.733 103.791 194.155 100.979C192.571 98.1561 191.123 95.3227 190.073 93.1989C189.548 92.136 189.121 91.2485 188.825 90.6258C188.677 90.3145 188.561 90.0692 188.483 89.9012C188.443 89.8172 188.413 89.7526 188.393 89.7086C188.383 89.6866 188.375 89.6698 188.37 89.6583C188.367 89.6526 188.365 89.6482 188.363 89.6452C188.363 89.6436 188.362 89.6425 188.362 89.6416C188.362 89.6412 188.361 89.6408 188.361 89.6406C188.361 89.6403 188.361 89.6402 189.751 88.9989C191.141 88.3577 191.141 88.3577 191.141 88.3577C191.141 88.3579 191.141 88.358 191.141 88.3583C191.141 88.3588 191.142 88.3597 191.142 88.3609C191.143 88.3633 191.145 88.3671 191.148 88.3723C191.152 88.3825 191.159 88.3981 191.169 88.4188C191.188 88.4603 191.217 88.5224 191.255 88.6037C191.331 88.7664 191.444 89.006 191.589 89.3113C191.88 89.922 192.3 90.7953 192.817 91.8423C193.854 93.9382 195.276 96.7206 196.825 99.4815C198.38 102.254 200.037 104.955 201.54 106.914C202.296 107.899 202.968 108.637 203.529 109.1C204.16 109.621 204.351 109.547 204.214 109.564L204.395 111.084ZM211.162 87.1234C212.307 88.1398 212.306 88.1405 212.305 88.1412C212.305 88.1414 212.305 88.1422 212.304 88.1427C212.303 88.1437 212.302 88.1449 212.301 88.146C212.299 88.1484 212.296 88.1511 212.294 88.1541C212.288 88.1601 212.282 88.1672 212.274 88.1755C212.259 88.1919 212.239 88.2129 212.215 88.2378C212.167 88.2877 212.102 88.3537 212.019 88.4324C211.854 88.5894 211.619 88.7983 211.317 89.0294C210.715 89.4896 209.832 90.0512 208.696 90.4594C206.359 91.2991 203.121 91.4244 199.363 89.0779L200.173 87.7796L200.984 86.4813C203.92 88.3147 206.176 88.1118 207.661 87.5785C208.435 87.3002 209.044 86.9141 209.456 86.5981C209.662 86.4412 209.814 86.3049 209.91 86.2138C209.958 86.1684 209.991 86.1346 210.009 86.1157C210.018 86.1062 210.024 86.1005 210.025 86.0989C210.026 86.0981 210.025 86.0984 210.024 86.0997C210.024 86.1004 210.023 86.1014 210.022 86.1026C210.021 86.1032 210.021 86.1039 210.02 86.1046C210.02 86.105 210.019 86.1056 210.019 86.1058C210.018 86.1065 210.018 86.1071 211.162 87.1234ZM200.173 87.7796L201.225 88.8917C197.751 92.1769 194.63 92.7156 192.22 92.1244C191.071 91.8427 190.181 91.3262 189.581 90.8849C189.279 90.663 189.044 90.4556 188.879 90.2972C188.797 90.2178 188.731 90.1501 188.682 90.0982C188.658 90.0723 188.638 90.0502 188.622 90.0326C188.614 90.0237 188.607 90.016 188.601 90.0094C188.598 90.0061 188.596 90.0031 188.593 90.0004C188.592 89.9991 188.591 89.9978 188.59 89.9966C188.59 89.996 188.589 89.9952 188.589 89.9949C188.588 89.994 188.587 89.9932 189.751 88.9989C190.915 88.0046 190.914 88.0038 190.913 88.0031C190.913 88.0029 190.912 88.0021 190.912 88.0017C190.911 88.0008 190.911 87.9999 190.91 87.9991C190.909 87.9976 190.907 87.9963 190.907 87.9953C190.905 87.9933 190.904 87.9923 190.904 87.9923C190.904 87.9924 190.908 87.9964 190.915 88.004C190.929 88.0192 190.957 88.0482 190.998 88.0877C191.081 88.1672 191.214 88.2861 191.394 88.4184C191.758 88.6854 192.285 88.9884 192.949 89.1513C194.165 89.4496 196.255 89.3787 199.122 86.6675L200.173 87.7796ZM199.839 84.9626L201.359 84.7822L201.693 87.5992L200.173 87.7796L198.653 87.96L198.319 85.1431L199.839 84.9626Z" fill="#211A19"/>
<path d="M223.721 58.2892C224.759 56.4626 227.486 56.7945 228.055 58.8167L230.657 68.068C230.666 68.0978 230.686 68.1231 230.712 68.1387L238.993 72.9371C240.793 73.9804 240.466 76.6729 238.468 77.2539L229.278 79.9267C229.248 79.9354 229.222 79.955 229.207 79.982L224.461 88.339C223.424 90.1654 220.697 89.8335 220.128 87.8116L217.525 78.5602C217.517 78.5303 217.497 78.5051 217.47 78.4895L209.189 73.6901C207.389 72.6466 207.716 69.9543 209.714 69.3733L218.905 66.7015C218.935 66.6929 218.96 66.6731 218.976 66.6462L223.721 58.2892Z" fill="#FFB555" stroke="white" stroke-width="2.2449"/>
<path d="M173.926 65.6364C174.964 63.8098 177.691 64.1417 178.26 66.1638L180.862 75.4152C180.871 75.445 180.891 75.4703 180.917 75.4859L189.198 80.2842C190.999 81.3276 190.671 84.0201 188.673 84.601L179.483 87.2739C179.453 87.2825 179.427 87.3022 179.412 87.3292L174.666 95.6862C173.629 97.5126 170.902 97.1806 170.333 95.1587L167.731 85.9074C167.722 85.8775 167.702 85.8523 167.675 85.8367L159.394 81.0372C157.594 79.9938 157.921 77.3015 159.919 76.7205L169.11 74.0487C169.14 74.04 169.165 74.0203 169.181 73.9933L173.926 65.6364Z" fill="#FFB555" stroke="white" stroke-width="2.2449"/>
</g>
<defs>
<clipPath id="clip0_245_2">
<rect width="391" height="378" fill="white"/>
</clipPath>
</defs>
</svg>
