<svg width="68" height="69" viewBox="0 0 68 69" fill="none" xmlns="http://www.w3.org/2000/svg">
<ellipse cx="15.0931" cy="32.0805" rx="5.8477" ry="7.48416" transform="rotate(-10.3133 15.0931 32.0805)" fill="#FABE46"/>
<path d="M19.8103 42.5647C22.7997 40.036 24.8131 37.0537 25.6466 35.3402C26.4337 34.0435 28.9527 31.3668 32.7316 31.0334C36.5105 30.6999 39.4929 32.7468 40.5117 33.812L43.2903 38.2578C43.5682 38.5819 45.1798 40.0361 48.2919 43.2593C51.2094 46.281 50.6537 50.6185 49.6812 52.5677C48.3101 55.3158 46.6247 56.1799 43.2903 56.5966C40.562 56.9376 37.872 55.6241 36.2049 55.0685C34.5377 54.5128 32.9261 54.4016 30.9255 55.0685C28.9249 55.7353 26.7493 56.872 24.1179 56.5966C21.0178 56.2722 18.3294 53.9107 17.5886 52.5677C16.6624 50.4374 16.1971 45.6212 19.8103 42.5647Z" fill="#FABE46"/>
<ellipse cx="26.4953" cy="20.5685" rx="5.8477" ry="7.48416" transform="rotate(-5.53398 26.4953 20.5685)" fill="#FABE46"/>
<ellipse cx="41.0293" cy="20.0764" rx="5.8477" ry="7.48416" transform="rotate(6.25115 41.0293 20.0764)" fill="#FABE46"/>
<ellipse cx="52.2033" cy="31.9926" rx="5.8477" ry="7.48416" transform="rotate(17.1862 52.2033 31.9926)" fill="#FABE46"/>
</svg>
