<svg width="68" height="69" viewBox="0 0 68 69" fill="none" xmlns="http://www.w3.org/2000/svg">
<path d="M9 42.6601V24.7736C9 23.4012 9.83441 22.1666 11.1079 21.6548L28.95 14.4846C29.7259 14.1728 30.5902 14.1614 31.3741 14.4527L46.0567 19.9085C47.3735 20.3978 48.2471 21.6544 48.2471 23.0592V40.613C48.2471 41.9765 47.4234 43.205 46.162 43.7226L28.4724 50.982C27.7101 51.2949 26.8595 51.3168 26.0821 51.0436L11.247 45.8313C9.90085 45.3583 9 44.087 9 42.6601Z" fill="#FEED98"/>
<path d="M9.09766 24.3833V42.338C9.09766 44.017 10.1579 45.5129 11.742 46.0691L26.1017 51.1109C26.8733 51.3818 27.6811 50.8092 27.6811 49.9916V31.7737C27.6811 30.122 26.6545 28.6443 25.1067 28.0679L11.2314 22.901C10.1979 22.5162 9.09766 23.2805 9.09766 24.3833Z" fill="#FBD259"/>
<path d="M47.8684 21.9537L48.2942 40.7756C48.324 42.0931 47.534 43.291 46.3113 43.7825L28.7683 50.8334C28.2486 51.0422 27.6825 50.6596 27.6825 50.0995V30.8883C27.6825 29.5705 28.4994 28.3907 29.7329 27.9271L47.0667 21.4119C47.4492 21.2681 47.8591 21.5452 47.8684 21.9537Z" fill="#F9CB51"/>
<path d="M33.8032 48.6974L33.932 45.0914C33.9801 43.7428 34.8302 42.5537 36.0906 42.0718L46.2283 38.1956C47.0178 37.8937 47.8921 37.9004 48.677 38.2144L56.3297 41.2755C57.5492 41.7632 58.3729 42.9166 58.4384 44.2284L58.6053 47.5647C58.6775 49.0098 57.8169 50.339 56.4687 50.8644L46.44 54.7727C45.6923 55.064 44.8651 55.0783 44.1079 54.813L36.0507 51.9895C34.6615 51.5027 33.7506 50.1685 33.8032 48.6974Z" fill="#FDF3B7"/>
<path d="M58.1919 43.1627L58.5391 47.5613C58.6483 48.9436 57.8446 50.2358 56.5565 50.7491L46.6011 54.7163C46.0975 54.9169 45.5459 54.563 45.5185 54.0216L45.2952 49.6113C45.2259 48.2424 46.046 46.9846 47.3266 46.4958L57.389 42.6552C57.759 42.514 58.1607 42.7679 58.1919 43.1627Z" fill="#F9CB4F"/>
<path d="M44.8149 48.4748L44.9692 54.2616C44.9766 54.5368 44.7076 54.7351 44.4469 54.6466L35.4286 51.5869C34.5267 51.2809 33.9288 50.4236 33.9532 49.4715L34.0741 44.755C34.0916 44.0741 34.7764 43.6144 35.4132 43.8561L43.7951 47.0381C44.395 47.2659 44.7978 47.8334 44.8149 48.4748Z" fill="#FCD45A"/>
</svg>
