<svg width="68" height="69" viewBox="0 0 68 69" fill="none" xmlns="http://www.w3.org/2000/svg">
<path d="M55.043 6.27977C56.4944 5.71281 59.6971 5.62694 60.8945 9.81785C61.3305 13.0221 61.9319 20.7383 61.0117 26.8423C62.7709 29.9867 63.7529 33.483 63.7529 37.1675C63.7529 50.8821 50.1673 62.0005 33.4092 62.0005C16.6513 62.0003 3.06641 50.882 3.06641 37.1675C3.06642 33.4092 4.08796 29.8467 5.91406 26.6538C5.03409 20.5804 5.62811 12.9892 6.05957 9.81785C7.25697 5.62694 10.4597 5.71281 11.9111 6.27977C15.743 7.54156 20.1819 11.4027 22.6816 13.9331C26.017 12.9011 29.6323 12.3355 33.4092 12.3354C37.2246 12.3354 40.8757 12.9123 44.2393 13.9643C46.7329 11.4346 51.1947 7.547 55.043 6.27977Z" fill="#F5CFBC"/>
<path d="M12.4815 11.9163C14.4737 12.5744 16.8344 14.8105 17.7657 15.8463L9.86985 21.4519C9.38395 18.6735 9.66739 14.9933 9.86985 13.5005C10.4043 11.6239 11.8337 11.6624 12.4815 11.9163Z" fill="#EAA29B"/>
<path d="M54.4794 11.9163C52.4872 12.5744 50.1266 14.8105 49.1953 15.8463L57.0911 21.4519C57.577 18.6735 57.2935 14.9933 57.0911 13.5005C56.5566 11.6239 55.1273 11.6624 54.4794 11.9163Z" fill="#EAA29B"/>
<path d="M26.9492 48.312C28.3779 50.9103 32.3052 50.5021 33.4125 47.5767C34.5691 50.5702 38.447 50.6382 39.8757 48.312" stroke="#A76359" stroke-width="2.01495" stroke-linecap="round" stroke-linejoin="round"/>
<rect x="16.8125" y="32.7451" width="6.9395" height="9.5248" rx="3.46975" fill="#535353"/>
<rect x="43.0742" y="32.7451" width="6.9395" height="9.5248" rx="3.46975" fill="#535353"/>
<path d="M33.4141 47.7803V43.4941" stroke="#A76359" stroke-width="1.90496"/>
<path d="M29.6016 41.9981C29.6016 41.3217 30.1498 40.7734 30.8262 40.7734H35.8607C36.5371 40.7734 37.0853 41.3217 37.0853 41.9981C37.0853 43.8768 35.5623 45.3998 33.6836 45.3998H33.0033C31.1246 45.3998 29.6016 43.8768 29.6016 41.9981Z" fill="#A76359"/>
<path d="M3 42.6104C3 42.6104 5.40434 42.6104 8.10257 42.8825C11.2322 43.1981 13.1371 43.6309 13.1371 43.6309" stroke="#C05B59" stroke-width="2.5853" stroke-linecap="round"/>
<path d="M4.01953 52.2095C4.01953 52.2095 6.17444 51.1431 8.71345 50.1902C11.6584 49.085 13.5576 48.6279 13.5576 48.6279" stroke="#C05B59" stroke-width="2.5853" stroke-linecap="round"/>
<path d="M64.2422 42.6104C64.2422 42.6104 61.8378 42.6104 59.1396 42.8825C56.01 43.1981 54.1051 43.6309 54.1051 43.6309" stroke="#C05B59" stroke-width="2.5853" stroke-linecap="round"/>
<path d="M63.2227 52.2095C63.2227 52.2095 61.0677 51.1431 58.5287 50.1902C55.5838 49.085 53.6846 48.6279 53.6846 48.6279" stroke="#C05B59" stroke-width="2.5853" stroke-linecap="round"/>
</svg>
