<svg width="68" height="69" viewBox="0 0 68 69" fill="none" xmlns="http://www.w3.org/2000/svg">
<path d="M26.5567 45.6359C13.0502 46.7353 9.49241 33.5148 9.37047 26.2249C9.36588 25.9504 9.61364 25.7414 9.88636 25.7729C27.0739 27.7578 28.6146 39.1945 27.1544 45.1378C27.0865 45.4144 26.8407 45.6127 26.5567 45.6359Z" fill="#99C04F"/>
<path d="M33.2671 51.5356C32.1248 37.8698 44.2512 32.9887 55.4967 34.2858C55.7589 34.3161 55.9387 34.5676 55.8895 34.8269C53.0829 49.614 39.7975 53.4682 33.7663 52.1268C33.4882 52.065 33.2908 51.8195 33.2671 51.5356Z" fill="#99C04F"/>
<path d="M32.3244 34.3339C25.1063 22.9031 34.0505 9.97485 48.223 5.45608C48.495 5.36934 48.7809 5.56156 48.8173 5.84477C51.71 28.3594 39.1363 33.0809 33.0632 34.6303C32.7794 34.7027 32.4808 34.5816 32.3244 34.3339Z" fill="#99C04F"/>
<path d="M29.8169 63.955C28.8483 54.4242 29.6309 31.5969 40.51 16.5337" stroke="#82AA41" stroke-width="2.09212" stroke-linecap="round"/>
<path d="M29.8181 55.7026C34.2347 50.5887 40.1596 44.6595 44.6926 41.87" stroke="#82AA41" stroke-width="2.09212" stroke-linecap="round"/>
<path d="M29.7049 48.6135C26.4505 44.4292 21.2196 38.6175 17.5004 34.0844" stroke="#82AA41" stroke-width="2.09212" stroke-linecap="round"/>
</svg>
