<svg width="68" height="69" viewBox="0 0 68 69" fill="none" xmlns="http://www.w3.org/2000/svg">
<path d="M3.35637 46.7495L3.07386 22.0295C3.02939 18.1388 5.39368 14.6253 9.01465 13.201L31.2578 4.45206C33.6175 3.52388 36.2527 3.59155 38.5617 4.63962L59.4836 14.1361C62.8317 15.6558 64.9819 18.993 64.9819 22.6699V46.8294C64.9819 50.6011 62.7208 54.0053 59.2442 55.4679L37.7741 64.5001C35.425 65.4884 32.7746 65.4773 30.4338 64.4695L9.02142 55.2503C5.61897 53.7853 3.39871 50.4537 3.35637 46.7495Z" fill="white"/>
<path d="M4.41656 24.8743L4.87291 49.0613C4.90416 50.7175 5.89268 52.2054 7.40732 52.8761L27.0967 61.5945C29.9132 62.8416 33.0814 60.7795 33.0814 57.6993V34.6287C33.0814 33.0006 32.1534 31.5149 30.6903 30.8006L10.5445 20.9659C7.68309 19.569 4.35649 21.6907 4.41656 24.8743Z" fill="#F2F5FC"/>
<path d="M64.1367 23.2683V50.019C64.1367 51.2138 63.4236 52.2933 62.3245 52.762L39.3055 62.5789C37.3424 63.4161 35.1611 61.9803 35.1538 59.8462L35.0619 33.096C35.0578 31.8959 35.7734 30.8104 36.8779 30.3412L59.9889 20.5237C61.9555 19.6883 64.1367 21.1316 64.1367 23.2683Z" fill="#F8FAFF"/>
<ellipse cx="50.7213" cy="40.6744" rx="2.93223" ry="3.94699" transform="rotate(28.9553 50.7213 40.6744)" fill="#EC7B7B"/>
<ellipse cx="2.93223" cy="3.94699" rx="2.93223" ry="3.94699" transform="matrix(-0.874998 0.484127 0.484127 0.874998 19 36.6528)" fill="#7BAFEC"/>
<ellipse cx="42.2017" cy="34.2848" rx="2.93223" ry="3.94699" transform="rotate(28.9553 42.2017 34.2848)" fill="#7BAFEC"/>
<ellipse cx="2.93223" cy="3.94699" rx="2.93223" ry="3.94699" transform="matrix(-0.874998 0.484127 0.484127 0.874998 27.5195 30.2632)" fill="#7BAFEC"/>
<ellipse cx="42.2017" cy="53.0289" rx="2.93223" ry="3.94699" transform="rotate(28.9553 42.2017 53.0289)" fill="#7BAFEC"/>
<ellipse cx="2.93223" cy="3.94699" rx="2.93223" ry="3.94699" transform="matrix(-0.874998 0.484127 0.484127 0.874998 27.5195 49.0073)" fill="#7BAFEC"/>
<ellipse cx="58.3892" cy="27.4689" rx="2.93223" ry="3.94699" transform="rotate(28.9553 58.3892 27.4689)" fill="#7BAFEC"/>
<ellipse cx="2.93223" cy="3.94699" rx="2.93223" ry="3.94699" transform="matrix(-0.874998 0.484127 0.484127 0.874998 11.332 23.4473)" fill="#7BAFEC"/>
<ellipse cx="1.90498" cy="4.43943" rx="1.90498" ry="4.43943" transform="matrix(-0.0190705 0.999818 0.999818 0.0190705 28.707 19.9526)" fill="#7BAFEC"/>
<ellipse cx="1.90498" cy="4.43943" rx="1.90498" ry="4.43943" transform="matrix(-0.0190705 0.999818 0.999818 0.0190705 29.7031 13.6499)" fill="#7BAFEC"/>
<ellipse cx="1.90498" cy="4.43943" rx="1.90498" ry="4.43943" transform="matrix(-0.0190705 0.999818 0.999818 0.0190705 30.1289 7.68555)" fill="#7BAFEC"/>
<ellipse cx="1.90498" cy="4.43943" rx="1.90498" ry="4.43943" transform="matrix(-0.0190705 0.999818 0.999818 0.0190705 44.1875 13.6499)" fill="#7BAFEC"/>
<ellipse cx="1.90498" cy="4.43943" rx="1.90498" ry="4.43943" transform="matrix(-0.0190705 0.999818 0.999818 0.0190705 15.2227 13.6499)" fill="#7BAFEC"/>
<ellipse cx="58.3892" cy="46.6378" rx="2.93223" ry="3.94699" transform="rotate(28.9553 58.3892 46.6378)" fill="#7BAFEC"/>
<ellipse cx="2.93223" cy="3.94699" rx="2.93223" ry="3.94699" transform="matrix(-0.874998 0.484127 0.484127 0.874998 11.332 42.6177)" fill="#7BAFEC"/>
</svg>
