<svg width="68" height="69" viewBox="0 0 68 69" fill="none" xmlns="http://www.w3.org/2000/svg">
<g clip-path="url(#clip0_276_244)">
<rect x="18.6641" y="37.3813" width="8.11787" height="11.9149" rx="4.05893" transform="rotate(46.6635 18.6641 37.3813)" fill="#FED9A9"/>
<rect width="8.11787" height="11.9149" rx="4.05893" transform="matrix(-0.686282 0.727336 0.727336 0.686282 50.2656 37.3813)" fill="#FED9A9"/>
<rect width="8.11787" height="11.9149" rx="4.05893" transform="matrix(-0.995467 -0.0951119 -0.0951119 0.995467 44.0664 57.1392)" fill="#FED9A9"/>
<rect x="24.6602" y="57.1392" width="8.11787" height="11.9149" rx="4.05893" transform="rotate(-5.45776 24.6602 57.1392)" fill="#FED9A9"/>
<path d="M15.9507 20.6004C16.0995 18.5464 17.8092 16.9561 19.8685 16.9561H49.7734C51.8483 16.9561 53.5653 18.5698 53.6939 20.6407L54.3847 31.77C54.525 34.0308 52.7293 35.9414 50.4642 35.9414H19.0626C16.7815 35.9414 14.9801 34.0048 15.1448 31.7297L15.9507 20.6004Z" fill="#FECF56"/>
<path d="M16.2259 39.4762C17.3261 35.8756 25.3913 33.126 25.3913 33.126H41.8761C43.0807 33.3878 51.7606 35.6137 52.3498 38.8216C52.939 42.0294 48.1082 46.0229 48.1082 46.0229C48.1082 46.0229 52.6239 55.3846 52.3498 57.3486C52.0758 59.3126 51.0413 59.9673 50.0068 60.4256C50.0068 60.4256 45.4114 62.6514 34.4257 62.6514C22.76 62.6514 20.0082 61.3623 18.2554 60.4256C16.5404 59.509 16.0748 58.2652 16.2259 57.0868C16.3771 55.9084 20.6122 46.0229 20.6122 46.0229C20.6122 46.0229 15.8686 40.6456 16.2259 39.4762Z" fill="#B094CE"/>
<ellipse cx="34.6798" cy="33.1917" rx="5.43373" ry="5.76107" fill="#FECB9E"/>
<ellipse cx="34.7412" cy="20.8836" rx="15.5811" ry="14.4027" fill="#FEDAAC"/>
<path d="M31.4023 27.4307C31.4023 27.4307 32.5341 28.5436 34.7833 28.5436C37.0325 28.5436 37.8835 27.4307 37.8835 27.4307" stroke="#EEA167" stroke-width="2.09493" stroke-linecap="round" stroke-linejoin="round"/>
<ellipse cx="27.8715" cy="22.2583" rx="2.42227" ry="2.5532" fill="#636871"/>
<ellipse cx="41.4848" cy="22.2583" rx="2.42227" ry="2.5532" fill="#636871"/>
<path d="M34.3454 9.09987C28.1129 17.6891 21.2302 19.0072 18.5679 18.5925L15.9492 20.2293C17.3109 5.77423 26.8167 6.13709e-05 34.3454 0C50.3192 0.589267 53.789 13.1589 53.789 20.9494L51.1703 18.5925C40.4861 17.9641 35.5019 12.0022 34.3454 9.09987Z" fill="#FECF56"/>
</g>
<defs>
<clipPath id="clip0_276_244">
<rect width="68" height="69" fill="white"/>
</clipPath>
</defs>
</svg>
