<svg width="76" height="108" viewBox="0 0 76 108" fill="none" xmlns="http://www.w3.org/2000/svg">
<path d="M1.032 9.83121C0.48036 4.57606 4.6012 0 9.88521 0H66.1584C71.4133 0 75.5247 4.52805 75.019 9.75853L66.3548 99.3705C65.9136 103.934 62.0788 107.416 57.4943 107.416H19.292C14.7354 107.416 10.9145 103.975 10.4388 99.4432L1.032 9.83121Z" fill="white" fill-opacity="0.5"/>
<path d="M7.7168 23.7378H68.2494L60.554 93.82C60.2236 96.8288 57.6818 99.1068 54.6549 99.1068H21.9712C18.9654 99.1068 16.4342 96.8595 16.0784 93.8748L7.7168 23.7378Z" fill="#3B8DF3"/>
<rect x="16.0254" y="32.6011" width="11.8691" height="61.7195" rx="5.93457" transform="rotate(-5.55082 16.0254 32.6011)" fill="#B4D4FE"/>
</svg>
