<svg width="68" height="69" viewBox="0 0 68 69" fill="none" xmlns="http://www.w3.org/2000/svg">
<circle cx="33.3432" cy="13.2143" r="8.21429" fill="#B5B5B5"/>
<path d="M33.6699 24.0566C42.5455 24.0568 49.9783 30.5564 51.9092 39.2803C52.1738 39.2093 52.447 39.1719 52.7266 39.1719C55.0856 39.1719 56.998 41.8196 56.998 45.0859C56.9979 48.3522 55.0855 51 52.7266 51C52.2011 51 51.6984 50.8673 51.2334 50.627C48.5876 58.1347 41.7228 63.4852 33.6699 63.4854C25.7005 63.4854 18.8943 58.2455 16.1895 50.8604C15.8935 50.9502 15.5869 51 15.2715 51C12.9125 51 11.0001 48.3522 11 45.0859C11 41.8196 12.9124 39.1719 15.2715 39.1719C15.3323 39.1719 15.3929 39.1733 15.4531 39.1768C17.4198 30.5049 24.8293 24.0566 33.6699 24.0566Z" fill="#FDD29D"/>
<path d="M16.5807 37.6926L15.595 42.2926C14.1495 39.5326 12.3886 41.0878 11.6218 41.964C8.8618 21.1983 24.795 14.8569 33.1736 14.5283C53.9393 15.7112 57.0497 32.9831 56.0093 41.4712C54.3007 39.2369 52.3402 41.0878 51.5736 42.2926L49.9307 37.6926C40.9936 37.1669 35.0355 30.1355 33.1736 26.6855C27.5221 35.3597 19.7569 37.6378 16.5807 37.6926Z" fill="#BDBDBD"/>
<path d="M29.3984 53.249C29.3984 53.249 30.0622 54.9427 33.3479 54.9427C36.6337 54.9427 37.4484 53.2491 37.4484 53.2491" stroke="#A2673E" stroke-width="1.64286" stroke-linecap="round"/>
<ellipse cx="33.5068" cy="49.1929" rx="2.13571" ry="1.47857" fill="#FEC07D"/>
<ellipse cx="24.6362" cy="44.4283" rx="2.46429" ry="2.95714" fill="#373635"/>
<ellipse cx="42.3783" cy="44.4283" rx="2.46429" ry="2.95714" fill="#373635"/>
</svg>
