<svg width="68" height="69" viewBox="0 0 68 69" fill="none" xmlns="http://www.w3.org/2000/svg">
<path d="M34.4902 19.7524C43.5503 19.7524 51.1372 26.3865 53.1084 35.2915C53.3787 35.2189 53.6578 35.1802 53.9434 35.1802C56.3513 35.1802 58.3036 37.8832 58.3037 41.2173C58.3037 44.5515 56.3514 47.2544 53.9434 47.2544C53.4069 47.2544 52.8936 47.1199 52.4189 46.8745C49.7181 54.5383 42.7106 60.0005 34.4902 60.0005C26.3553 60.0004 19.4075 54.6513 16.6465 47.1128C16.3441 47.2047 16.0304 47.2544 15.708 47.2544C13.3 47.2544 11.3477 44.5515 11.3477 41.2173C11.3478 37.8833 13.3001 35.1802 15.708 35.1802C15.7708 35.1802 15.8333 35.1824 15.8955 35.186C17.9031 26.3341 25.466 19.7525 34.4902 19.7524Z" fill="#FDD29D"/>
<path d="M17.2926 33.6715L16.2864 38.3671C14.8109 35.5498 13.0133 37.1373 12.2306 38.0317C8.54953 34.5097 7.20873 27.9695 12.576 22.7709C13.4014 20.7421 12.2306 18.5783 16.2864 15.0567C19.6191 11.8704 22.6377 12.6195 22.6377 12.6195C22.6377 12.6195 23.1408 10.3611 27.1656 8.85178C29.2652 7.70597 32.3208 8.06775 33.7079 8.01335C38.0524 8.26083 42.9313 8.18109 45.1114 12.6195C55.8405 13.8827 55.002 25.9571 55.002 25.9571C55.002 25.9571 60.7037 29.4788 57.5404 37.5286C55.7964 35.2479 53.7951 37.1373 53.0125 38.3671L52.6018 33.3358C52.6018 33.3358 50.3284 32.1014 49.2478 30.988C48.1672 29.8747 47.0677 27.6341 47.0677 27.6341C38.012 31.6588 26.7204 27.8021 24.8198 24.2804C23.1428 28.6405 20.5348 33.6156 17.2926 33.6715Z" fill="#BDBDBD"/>
<path d="M30.1289 49.5508C30.1289 49.5508 30.8065 51.2796 34.1605 51.2796C37.5144 51.2796 38.3462 49.5508 38.3462 49.5508" stroke="#A2673E" stroke-width="1.67699" stroke-linecap="round"/>
<ellipse cx="34.3207" cy="45.4102" rx="2.18009" ry="1.50929" fill="#FEC07D"/>
<ellipse cx="25.2655" cy="40.5469" rx="2.51549" ry="3.01858" fill="#373635"/>
<ellipse cx="43.3788" cy="40.5469" rx="2.51549" ry="3.01858" fill="#373635"/>
</svg>
