<svg width="42" height="40" viewBox="0 0 42 40" fill="none" xmlns="http://www.w3.org/2000/svg">
<path d="M0 4.21149C2.82477 16.923 15.5362 15.5106 16.2424 16.2168L20.4796 12.6858C17.0899 0.821769 5.41414 2.09291 0 4.21149Z" fill="#4BA95E"/>
<rect x="15.5664" y="2.33789" width="7.06192" height="11.2991" rx="3.53096" transform="rotate(-19.3325 15.5664 2.33789)" fill="#282626"/>
<path d="M7.0928 19.0673C6.3847 7.06182 17.4882 8.00334 21.9607 10.5927C28.1752 0.423486 35.3784 4.00161 38.2031 7.06182C43.8527 13.8413 41.9695 25.4228 40.3217 30.3662C37.497 36.5807 31.612 36.7219 29.0226 36.0157C23.3731 41.6653 17.7236 38.3697 15.605 36.0157C15.605 36.0157 7.8009 31.0727 7.0928 19.0673Z" fill="#9BE35C"/>
<rect x="12.7656" y="11.2993" width="7.06192" height="9.18142" rx="3.53096" transform="rotate(18.278 12.7656 11.2993)" fill="#E6FCB0"/>
</svg>
