<svg width="68" height="69" viewBox="0 0 68 69" fill="none" xmlns="http://www.w3.org/2000/svg">
<path d="M62.7177 34.9969C64.539 52.1173 57.102 59.1294 53.1558 60.4954C41.1344 68.5091 29.0226 62.0132 24.4694 57.7635L5.34611 37.2737C5.04255 36.0595 4.4344 34.0864 6.25677 32.2651C7.91087 30.6119 9.8994 31.5062 10.8101 31.8098L22.1933 43.193L23.5593 41.827L8.07674 24.0692C6.98394 22.2479 7.62141 20.5783 8.07674 19.9712C9.90035 17.6946 12.177 18.1499 13.543 19.5159L28.5666 34.9969L30.3879 33.6311L13.9963 14.5071C13.2678 13.4142 12.6323 11.7753 13.9963 9.95396C15.8196 8.13265 18.0963 8.13265 20.3729 9.95396L36.7628 28.1671L38.1288 27.2565L24.4694 9.95396C24.1658 8.89149 24.0141 6.40227 25.8354 4.94521C27.6567 3.48816 30.2369 4.03455 31.2993 4.48988L51.3338 29.533L52.2445 28.6223L50.4238 16.3284C49.6953 14.1429 51.3333 12.2306 54.0653 11.7753C57.2526 11.7753 58.3162 13.7482 58.6198 14.5071L62.7177 34.9969Z" fill="#FACC31"/>
<path d="M44.2676 49.5679C43.0534 45.47 42.6284 35.817 50.6422 29.9888" stroke="#ECB436" stroke-width="1.82132" stroke-linecap="round"/>
</svg>
