<svg width="68" height="69" viewBox="0 0 68 69" fill="none" xmlns="http://www.w3.org/2000/svg">
<path d="M30.3808 7.47446C31.9632 4.64357 36.0368 4.64357 37.6192 7.47447L43.639 18.2431C44.2425 19.3227 45.2964 20.0765 46.513 20.2988L58.7056 22.5264C61.9651 23.1219 63.2439 27.1112 60.938 29.4907L52.5353 38.1615C51.6528 39.0722 51.2356 40.3366 51.4028 41.5937L52.9898 53.5261C53.421 56.7679 50.1048 59.2096 47.1372 57.8352L35.7424 52.5582C34.6372 52.0463 33.3628 52.0463 32.2576 52.5582L20.8628 57.8352C17.8952 59.2096 14.579 56.7679 15.0102 53.5261L16.5972 41.5937C16.7644 40.3366 16.3472 39.0722 15.4647 38.1615L7.06205 29.4907C4.75614 27.1112 6.03489 23.1219 9.29445 22.5264L21.487 20.2988C22.7036 20.0765 23.7575 19.3227 24.361 18.2431L30.3808 7.47446Z" fill="#FACE47"/>
</svg>
