<svg width="68" height="69" viewBox="0 0 68 69" fill="none" xmlns="http://www.w3.org/2000/svg">
<path d="M30.7976 20.7631V53.4682C30.3287 62.3455 18.186 66.0813 13.0449 60.009C7.19773 53.1029 14.6725 42.1636 26.1253 45.2461L26.1254 15.6235C25.7516 11.8858 28.4615 10.6399 29.8631 10.4842L51.3551 6.27943C56.2141 5.15811 57.7403 7.68108 57.8961 9.08273V46.9272C57.5223 52.5338 53.9188 54.4347 52.0499 54.5904C48.7794 54.863 41.4664 54.4679 40.3695 48.9838C38.5244 39.7581 45.5089 35.4346 53.2239 37.1157V16.5582L30.7976 20.7631Z" fill="#7B91DF"/>
<circle cx="20.2787" cy="52.7211" r="10.2787" fill="#7B91DF"/>
<circle cx="48.7794" cy="46.6476" r="8.8771" fill="#7B91DF"/>
</svg>
