<svg width="68" height="69" viewBox="0 0 68 69" fill="none" xmlns="http://www.w3.org/2000/svg">
<path d="M62.3703 45.2841L51.2319 44.8869L51.236 39.3176L51.6338 36.931L56.4029 40.1136L63.4403 40.9092C64.6224 40.8847 65.5497 42.1404 65.5515 43.2958C65.5527 44.0588 65.011 44.8884 64.3592 45.285C63.9611 45.5273 62.3703 45.2841 62.3703 45.2841Z" fill="#3D88E6"/>
<path d="M7.87953 52.8428C7.87953 52.8428 11 48.5 13.0505 46.4785C17.3704 42.2197 28.1658 42.8986 28.1658 42.8986C28.1658 42.8986 26.6501 45.0238 25.3814 46.0807C22.8571 48.1834 19.6909 49.0383 16.6305 50.0584L11.8572 54.8316C10.0013 57.0001 6.50292 55.0001 7.87953 52.8428Z" fill="#3D88E6"/>
<path d="M48.0517 19.4303C49.7743 16.8427 51.376 14.2599 52.8345 13.0666C54.4256 12.4302 55.0885 16.5138 55.221 18.6352C58.085 19.2716 59.5965 23.0107 61.1876 25.795C61.8089 26.8824 63.1764 26.9884 62.7786 28.5794C61.824 32.398 58.138 32.6897 56.4143 32.5571C51.1361 32.1511 51.2433 39.717 51.2433 41.308L61.1876 48.8657C62.3809 49.6612 62.9972 51.0337 61.9831 52.0478C60.7898 53.2411 58.8009 52.8433 57.6076 52.0478L44.879 44.888C35.0143 41.3876 29.2334 43.1643 25.7861 44.4902C22.5963 46.479 19.6287 46.8267 15.0386 46.479C13.3069 46.3479 10.6632 45.6835 9.86765 46.0813C9.07211 46.479 6.68557 47.6723 5.09445 48.8657C3.96914 49.7096 2.34277 50.399 1.5128 49.2634C0.667931 48.1074 0.913572 46.6782 1.90869 45.6835C3.50051 44.0924 5.93034 41.6976 8.67259 40.5125C10.8511 39.571 11.6334 40.9363 13.8453 39.717C16.8658 38.0518 18.3534 33.6178 19.4141 32.5571C15.4347 30.9656 -0.714648 19.4303 4.29713 15.8504C6.68375 14.1457 8.77728 17.8707 10.6614 20.2259C12.2525 22.2147 15.4347 27.3857 25.3806 29.7727C33.336 26.5905 39.3026 30.966 43.678 26.9884C45.945 24.9274 45.5375 23.2074 48.0517 19.4303Z" fill="#579EF7"/>
</svg>
