<svg width="68" height="69" viewBox="0 0 68 69" fill="none" xmlns="http://www.w3.org/2000/svg">
<mask id="path-1-inside-1_276_227" fill="white">
<path d="M34.208 13.1514C44.73 13.1514 53.2597 21.8893 53.2598 32.668C53.2598 38.8322 50.4689 44.3276 46.1123 47.9043L44.9902 55.7607C44.8583 56.6838 44.2759 57.4799 43.4189 57.8477C41.1967 58.8012 36.7326 60.5391 33.709 60.5479C30.6391 60.5566 26.6374 58.832 24.6445 57.8691C23.855 57.4877 23.3311 56.7275 23.207 55.8594L22.0391 47.6855C17.8336 44.1056 15.1562 38.7071 15.1562 32.668C15.1563 21.8893 23.686 13.1514 34.208 13.1514Z"/>
</mask>
<path d="M34.208 13.1514C44.73 13.1514 53.2597 21.8893 53.2598 32.668C53.2598 38.8322 50.4689 44.3276 46.1123 47.9043L44.9902 55.7607C44.8583 56.6838 44.2759 57.4799 43.4189 57.8477C41.1967 58.8012 36.7326 60.5391 33.709 60.5479C30.6391 60.5566 26.6374 58.832 24.6445 57.8691C23.855 57.4877 23.3311 56.7275 23.207 55.8594L22.0391 47.6855C17.8336 44.1056 15.1562 38.7071 15.1562 32.668C15.1563 21.8893 23.686 13.1514 34.208 13.1514Z" fill="#FFFFD2"/>
<path d="M34.208 13.1514L34.208 11.2926H34.208V13.1514ZM53.2598 32.668H55.1185V32.668L53.2598 32.668ZM46.1123 47.9043L44.9329 46.4677L44.3744 46.9262L44.2723 47.6415L46.1123 47.9043ZM44.9902 55.7607L46.8302 56.0238L46.8303 56.0235L44.9902 55.7607ZM43.4189 57.8477L44.1519 59.5558L44.1519 59.5558L43.4189 57.8477ZM33.709 60.5479L33.7143 62.4066H33.7144L33.709 60.5479ZM24.6445 57.8691L23.8359 59.5428H23.8359L24.6445 57.8691ZM23.207 55.8594L25.0471 55.5965L25.0471 55.5965L23.207 55.8594ZM22.0391 47.6855L23.8791 47.4226L23.7796 46.7262L23.2439 46.2702L22.0391 47.6855ZM15.1562 32.668L13.2975 32.668V32.668H15.1562ZM34.208 13.1514L34.208 15.0101C43.6615 15.0102 51.401 22.8734 51.401 32.668L53.2598 32.668L55.1185 32.668C55.1184 20.9053 45.7985 11.2927 34.208 11.2926L34.208 13.1514ZM53.2598 32.668H51.401C51.401 38.2613 48.8708 43.2348 44.9329 46.4677L46.1123 47.9043L47.2917 49.3409C52.0671 45.4205 55.1185 39.403 55.1185 32.668H53.2598ZM46.1123 47.9043L44.2723 47.6415L43.1502 55.4979L44.9902 55.7607L46.8303 56.0235L47.9524 48.1671L46.1123 47.9043ZM44.9902 55.7607L43.1502 55.4977C43.1051 55.8135 42.9158 56.0409 42.686 56.1396L43.4189 57.8477L44.1519 59.5558C45.636 58.9189 46.6115 57.5542 46.8302 56.0238L44.9902 55.7607ZM43.4189 57.8477L42.686 56.1396C41.6069 56.6026 39.9986 57.2493 38.3091 57.7783C36.5827 58.3188 34.9278 58.6856 33.7036 58.6891L33.709 60.5479L33.7144 62.4066C35.5138 62.4014 37.6028 61.8948 39.4199 61.3259C41.2739 60.7453 43.0088 60.0463 44.1519 59.5558L43.4189 57.8477ZM33.709 60.5479L33.7037 58.6891C32.4706 58.6926 30.9295 58.3382 29.3665 57.8114C27.832 57.2943 26.409 56.6573 25.4531 56.1955L24.6445 57.8691L23.8359 59.5428C24.873 60.0438 26.4472 60.7505 28.1793 61.3342C29.8828 61.9083 31.8774 62.4118 33.7143 62.4066L33.709 60.5479ZM24.6445 57.8691L25.4531 56.1955C25.2586 56.1015 25.0897 55.8947 25.0471 55.5965L23.207 55.8594L21.367 56.1223C21.5724 57.5602 22.4513 58.8738 23.8359 59.5428L24.6445 57.8691ZM23.207 55.8594L25.0471 55.5965L23.8791 47.4226L22.0391 47.6855L20.199 47.9485L21.367 56.1223L23.207 55.8594ZM22.0391 47.6855L23.2439 46.2702C19.4425 43.0342 17.015 38.1483 17.015 32.668H15.1562H13.2975C13.2975 39.2659 16.2247 45.177 20.8342 49.1009L22.0391 47.6855ZM15.1562 32.668L17.015 32.668C17.015 22.8733 24.7545 15.0101 34.208 15.0101V13.1514V11.2926C22.6174 11.2926 13.2976 20.9053 13.2975 32.668L15.1562 32.668Z" fill="#FEE18D" mask="url(#path-1-inside-1_276_227)"/>
<ellipse cx="34.5658" cy="23.613" rx="6.74441" ry="10.1166" transform="rotate(-90 34.5658 23.613)" fill="#FBFCFE"/>
<path d="M27.2383 61.3794C27.2383 60.9231 27.6081 60.5479 28.0644 60.5479H40.4352C40.8458 60.5479 41.1787 60.8807 41.1787 61.2913C41.1787 64.9869 38.1829 67.9828 34.4873 67.9828H33.7985C30.1754 67.9828 27.2383 65.0025 27.2383 61.3794Z" fill="#8F99A5"/>
<path d="M23.5195 56.1504C23.5195 56.1504 29.2855 56.3917 34.2072 56.2753C39.1289 56.1588 44.8949 56.2752 44.8949 56.2752L44.205 60.8267C44.0673 61.7353 43.2863 62.4069 42.3673 62.4069H26.0519C25.1308 62.4069 24.3487 61.7324 24.2134 60.8213L23.5195 56.1504Z" fill="#ADB5C1"/>
<rect x="4" y="29.8809" width="7.4349" height="2.78809" rx="1.39404" fill="#FCDE8C"/>
<rect x="56.9766" y="29.8809" width="7.4349" height="2.78809" rx="1.39404" fill="#FCDE8C"/>
<rect x="48.6055" y="14.0698" width="7.4349" height="2.78809" rx="1.39404" transform="rotate(-48.461 48.6055 14.0698)" fill="#FCDE8C"/>
<rect width="7.4349" height="2.78809" rx="1.39404" transform="matrix(-0.66313 -0.748504 -0.748504 0.66313 19.3828 14.0698)" fill="#FCDE8C"/>
<rect width="7.4349" height="2.78809" rx="1.39404" transform="matrix(-4.37114e-08 -1 -1 4.37114e-08 35.5977 9.43506)" fill="#FCDE8C"/>
</svg>
