<svg width="1266" height="1278" viewBox="0 0 1266 1278" fill="none" xmlns="http://www.w3.org/2000/svg">
<ellipse cx="404.499" cy="1239.5" rx="316" ry="38.5" fill="#CFCDEF"/>
<path d="M220.187 1158.86C245.092 1156.44 268.633 1134.27 277.028 1122.78L247.64 1073.29C220.535 1091.1 197.131 1084.61 188.755 1080.9C170.338 1072.74 97.5713 1015.19 41.9771 1059.12C8.29533 1085.74 14.5622 1141.41 50.2546 1154.19C61.5529 1158.24 77.8067 1156.69 89.9634 1147.8C101.067 1139.69 100.124 1125.85 114.235 1122.28C120.74 1120.64 131.827 1124.64 148.396 1138.96C170.987 1158.49 189.054 1161.88 220.187 1158.86Z" fill="#FDD4DD"/>
<path d="M94.2348 1043.83C96.5103 1044.32 98.8408 1044.72 101.011 1044.94C109.774 1041.41 124.062 1050.09 124.062 1050.09C124.075 1050.15 130.169 1079.06 116.904 1087.75C98.9214 1097.91 87.4203 1064.44 83.0453 1048.34L94.2348 1043.83Z" fill="#D8718A"/>
<path d="M166.27 1067.82C168.444 1068.67 170.692 1069.45 172.824 1070.04C182.464 1068.41 194.72 1078.78 194.762 1078.81C194.762 1078.81 193.97 1106.11 178.532 1111.63C158.014 1117.62 154.482 1085.26 153.946 1069.91L166.27 1067.82Z" fill="#D8718A"/>
<path d="M277.057 1122.86C268.661 1134.35 246.128 1154.49 220.215 1158.94C191.542 1163.86 171.015 1158.57 148.425 1139.04C131.855 1124.72 122.074 1120.73 114.263 1122.36C100.8 1125.18 101.096 1139.77 89.9917 1147.88C77.835 1156.77 61.5812 1158.32 50.2829 1154.27C14.5905 1141.49 8.32365 1085.82 42.0054 1059.2C97.5996 1015.27 170.366 1072.82 188.783 1080.98C197.159 1084.69 220.563 1091.17 247.669 1073.37" stroke="#302025" stroke-width="15"/>
<path d="M16.1702 668.209C-11.8298 721.709 35.17 809.209 55.6095 847.209C41.6632 996.431 148.23 1026.17 245.671 1004.14C232.871 1126.88 255.832 1207.62 267.499 1230C323.499 1260 396.499 1232.5 361.671 1201.71L365.999 1166C381.499 1164.17 422.299 1166.6 431.499 1163L433.499 1210C444.499 1216.5 470.036 1233.11 494.498 1228.5C513.835 1224.85 547.171 1216.91 537.171 1201.71C527.171 1186.51 522.999 1156.67 507.499 1147C507.499 1140.5 556.171 1008.21 452.671 896.71C452.671 896.71 473.59 826.442 478.172 785.21C482.673 744.71 499.173 695.209 436.671 659.709C409.171 573.709 357.671 520.21 333.671 524.21C306.171 528.792 269.171 604.709 275.171 635.209C208.171 650.709 173.17 681.209 154.17 695.209C77.17 639.413 32.17 649.709 16.1702 668.209Z" fill="#FDD4DD"/>
<path d="M435.815 1099.63C435.815 1120.71 418.73 1137.79 397.654 1137.79C376.578 1137.79 359.493 1120.71 359.493 1099.63C359.493 1078.56 376.578 1072 397.654 1072C418.73 1072 435.815 1078.56 435.815 1099.63Z" fill="#FEFFFE"/>
<path d="M180.877 681.842C180.877 681.842 200.834 714.077 192.406 724.309C176.96 740.566 158.473 699.924 158.473 699.924C158.473 699.924 160.811 697.388 166.081 693.35C172.247 688.471 180.877 681.842 180.877 681.842Z" fill="#D8718A"/>
<path d="M252.225 649.286C252.225 649.286 269.802 684.457 283.946 682.472C307.61 677.485 281.577 639.087 281.577 639.087C281.577 639.087 277.927 639.8 271.217 642.317C263.228 645.176 252.225 649.286 252.225 649.286Z" fill="#D8718A"/>
<path d="M202.234 669.095C202.234 669.095 224.16 711.003 238.166 708.209C261.505 701.872 230.952 657.227 230.952 657.227C230.952 657.227 227.349 658.149 220.795 661.047C212.982 664.36 202.234 669.095 202.234 669.095Z" fill="#D8718A"/>
<path d="M64.8625 1007.1C72.6245 990.181 90.6011 966.738 124.541 948.504" stroke="#302025" stroke-width="15" stroke-linecap="round"/>
<path d="M28.2043 957.406C40.5555 943.473 64.5761 926.277 102.353 918.709" stroke="#302025" stroke-width="15" stroke-linecap="round"/>
<path d="M525.951 802.412C508.659 795.507 479.475 790.926 442.321 801.124" stroke="#302025" stroke-width="15" stroke-linecap="round"/>
<path d="M518.23 741.141C499.677 739.567 470.423 743.676 437.845 764.245" stroke="#302025" stroke-width="15" stroke-linecap="round"/>
<path d="M342.666 576.71C350.737 567.027 373.923 602.565 384.662 638.992C384.884 639.748 384.182 640.451 383.423 640.242C378.694 638.94 365.103 635.422 352.166 634.21C338.87 632.964 327.301 633.789 323.77 634.103C323.176 634.156 322.666 633.688 322.675 633.092C323.045 608.983 335.279 585.573 342.666 576.71Z" fill="#FDE2E5" stroke="#EEB8C3" stroke-width="5" stroke-linecap="round"/>
<path d="M54.167 710.208C57.8341 706.236 86.2564 704.238 119.449 735.527C119.843 735.899 119.881 736.522 119.515 736.923C117.05 739.632 107.955 749.616 98.6663 759.708C89.3638 769.816 81.2243 783.627 79.0569 787.425C78.7541 787.955 78.0661 788.103 77.5978 787.711C58.6667 771.848 48.26 716.607 54.167 710.208Z" fill="#FDE2E5" stroke="#EEB8C3" stroke-width="5" stroke-linecap="round"/>
<path d="M357.508 830.773C351.644 861.181 319.648 915.306 238.568 888.543" stroke="#302025" stroke-width="12.4488" stroke-linecap="round" stroke-linejoin="round"/>
<path d="M149.867 860.584C157.583 830.593 186.166 808.209 219.666 826.709" stroke="#302025" stroke-width="12.4488" stroke-linecap="round" stroke-linejoin="round"/>
<path d="M326.618 777.24C334.334 747.249 362.666 728.709 396.166 747.209" stroke="#302025" stroke-width="12.4488" stroke-linecap="round" stroke-linejoin="round"/>
<path d="M288.108 836.507C288.108 836.507 313.219 867.045 313.769 885.678" stroke="#302025" stroke-width="12.4488" stroke-linecap="round" stroke-linejoin="round"/>
<ellipse cx="19.6576" cy="13.1051" rx="19.6576" ry="13.1051" transform="matrix(-0.948249 0.317528 0.317528 0.948249 300.929 814.709)" fill="#211A19"/>
<path d="M253.671 1002.21C251.013 1002.89 248.346 1003.53 245.672 1004.14M245.672 1004.14C148.231 1026.17 41.6641 996.431 55.6104 847.209C35.1709 809.209 -11.8287 721.709 16.1713 668.209C32.1711 649.709 77.1709 639.413 154.171 695.209C173.171 681.209 208.172 650.709 275.172 635.209C269.172 604.709 306.172 528.792 333.672 524.21C357.672 520.21 409.172 573.709 436.672 659.709C499.174 695.209 482.673 744.71 478.173 785.21C473.591 826.442 452.672 896.71 452.672 896.71C556.172 1008.21 510.999 1149.5 510.999 1149.5C551.999 1198 544.787 1218.31 494.999 1227.5C469.048 1232.29 436.833 1222 433.5 1206.5L430 1162.5C420.8 1166.1 384.5 1167.5 365 1165.5L361.672 1194C403.5 1239.79 308.999 1259.5 263.035 1227.5C251.368 1205.12 232.872 1126.88 245.672 1004.14Z" stroke="#302025" stroke-width="15" stroke-linecap="round" stroke-linejoin="round"/>
<rect x="446.493" width="819" height="1177" rx="110" fill="#FEFDFE"/>
<path d="M378.714 1048.53L338.715 976.529C356.024 951.466 455.152 888.832 484.993 917.328C540.903 970.718 426.993 1034.33 378.714 1048.53Z" fill="#FDD4DD"/>
<path d="M381.714 1048.53C419.864 1040.83 538.993 967.828 487.493 917.328C461.725 892.06 409.818 926.167 337.92 971.609" stroke="#302025" stroke-width="15" stroke-linecap="round"/>
</svg>
