<svg width="405" height="399" viewBox="0 0 405 399" fill="none" xmlns="http://www.w3.org/2000/svg">
<rect width="405" height="399" fill="#FDD4DD"/>
<path d="M73.8987 160.457C74.0054 160.953 74.2681 161.416 74.6702 161.74C75.0719 162.063 75.5746 162.221 76.0772 162.178C76.5797 162.135 77.0484 161.894 77.3896 161.508C77.7311 161.121 77.9115 160.62 77.9326 160.113C77.9326 160.113 77.9326 160.113 77.9326 160.113C78.0256 158.54 78.3502 156.95 78.8103 155.394C82.628 143.547 92.2949 133.199 102.93 130.413C104.9 129.9 106.969 129.553 109.083 129.343C123.305 128.169 138.936 131.639 151.774 139.745C153.192 140.671 154.569 141.673 155.885 142.756C156.275 143.081 156.767 143.283 157.283 143.29C157.799 143.297 158.292 143.111 158.661 142.768C159.031 142.424 159.251 141.945 159.281 141.431C159.311 140.915 159.145 140.41 158.848 139.997C158.848 139.997 158.848 139.997 158.848 139.997C157.74 138.476 156.513 137.027 155.2 135.662C143.133 123.525 125.726 117.155 108.016 118.6C105.356 118.864 102.681 119.352 100.034 120.139C84.2228 125.21 74.8822 139.803 73.5503 154.529C73.4346 156.49 73.5071 158.486 73.8987 160.457Z" fill="#302025"/>
<path d="M303.937 166.25C300.148 167.765 256.262 169.707 234.795 170.023C193.129 121.757 257.529 61.1218 297.303 99.9372C323.704 125.701 308.672 164.356 303.937 166.25Z" fill="#FEFFFE"/>
<path d="M288.988 167.195C286.234 168.379 268.596 169.784 252.991 170.031C211.325 134.994 257.732 86.6936 290.253 115.291C313.61 135.829 292.43 165.716 288.988 167.195Z" fill="#211A19"/>
<path d="M304.622 168.649C304.225 168.98 303.721 169.172 303.198 169.162C302.676 169.152 302.181 168.943 301.818 168.578C301.456 168.213 301.252 167.716 301.246 167.194C301.24 166.671 301.436 166.168 301.771 165.774C301.771 165.774 301.771 165.774 301.771 165.774C303.364 163.876 304.726 161.761 305.873 159.549C314.907 142.076 310.178 121.319 297.771 107.151L298.196 107.613C295.854 105.403 293.421 103.378 290.879 101.574C273.376 87.6851 248.078 92.0303 233.07 110.138C231.351 112.059 229.746 114.055 228.212 116.174C227.91 116.593 227.468 116.903 226.959 117.022C226.45 117.141 225.919 117.061 225.478 116.796C225.036 116.532 224.716 116.101 224.582 115.596C224.447 115.091 224.513 114.555 224.74 114.091C224.74 114.091 224.74 114.091 224.74 114.091C225.963 111.618 227.307 109.239 228.833 106.904C240.726 84.8012 275.997 75.0428 297.125 92.7684C300.165 94.9256 302.984 97.3322 305.619 99.9284L306.043 100.39C320.473 117.111 323.866 144.512 310.392 162.377C308.711 164.678 306.792 166.811 304.622 168.649Z" fill="#302025"/>
<circle cx="247.365" cy="129.365" r="11.3652" fill="white"/>
<circle cx="289.365" cy="142.365" r="11.3652" fill="white"/>
<path d="M27.6335 275.409C34.1752 260.516 48.6341 241.228 74.7906 229.931" stroke="#302025" stroke-width="10" stroke-linecap="round"/>
<path d="M380.27 255.254C372.848 240.78 357.259 222.394 330.472 212.685" stroke="#302025" stroke-width="10" stroke-linecap="round"/>
<path d="M11.0464 224.543C20.909 213.327 39.6605 201.128 68.3066 200.855" stroke="#302025" stroke-width="10" stroke-linecap="round"/>
<path d="M393.777 203.485C383.26 192.881 363.811 181.828 335.2 183.272" stroke="#302025" stroke-width="10" stroke-linecap="round"/>
<ellipse cx="201.486" cy="181.797" rx="17.0478" ry="11.3652" transform="rotate(-4.02709 201.486 181.797)" fill="#211A19"/>
<path d="M229.045 224.669C229.045 224.669 223.013 237.71 213.091 241.025C203.169 244.339 194.804 240.143 194.804 240.143C194.804 240.143 196.839 228.299 208.517 224.398C219.594 220.698 229.045 224.669 229.045 224.669Z" fill="#D8718A"/>
<path d="M206.5 296C276.499 280.5 312.499 176.5 256.373 183.654C227.699 187.308 219.943 217.981 197.573 214.5C182.5 223.499 111.501 177.5 111.501 228.501C111.501 250.381 165.876 304.995 206.5 296Z" fill="black"/>
<path d="M256.373 183.654L255.931 180.182V180.182L256.373 183.654ZM206.5 296L205.744 292.582V292.582L206.5 296ZM111.501 228.501L115.001 228.501V228.501L111.501 228.501ZM198.647 186.991C200.017 185.627 202.233 185.632 203.597 187.002C204.96 188.372 204.955 190.588 203.585 191.952L201.116 189.471L198.647 186.991ZM197.571 196.798L201.015 197.426L201.015 197.426L197.571 196.798ZM256.373 183.654L255.931 180.182C263.43 179.226 269.767 180.078 274.818 182.68C279.922 185.309 283.391 189.561 285.373 194.764C289.254 204.949 287.486 218.768 281.987 232.623C270.944 260.443 243.673 291.353 207.257 299.417L206.5 296L205.744 292.582C239.326 285.146 265.055 256.307 275.48 230.04C280.715 216.852 281.799 205.044 278.832 197.256C277.39 193.473 275.01 190.652 271.613 188.903C268.163 187.126 263.348 186.293 256.816 187.125L256.373 183.654ZM206.5 296L207.257 299.417C196.213 301.862 184.467 299.942 173.251 295.588C162.02 291.227 151.099 284.344 141.551 276.539C132.001 268.731 123.712 259.91 117.78 251.572C111.969 243.406 108.001 235.125 108.001 228.501L111.501 228.501L115.001 228.501C115.001 232.817 117.829 239.567 123.483 247.514C129.016 255.289 136.86 263.662 145.981 271.119C155.105 278.577 165.395 285.029 175.785 289.062C186.19 293.102 196.476 294.635 205.744 292.582L206.5 296ZM256.373 183.654L256.816 187.125C243.736 188.793 235.391 196.552 226.985 204.323C218.894 211.801 210.135 219.997 197.035 217.959L197.573 214.5L198.111 211.042C207.381 212.484 213.685 207.084 222.233 199.182C230.466 191.573 240.336 182.169 255.931 180.182L256.373 183.654ZM197.573 214.5L199.367 217.505C196.495 219.22 192.795 219.392 189.241 219.08C185.562 218.757 181.326 217.838 176.896 216.703C167.792 214.369 157.924 211.163 148.186 209.179C138.42 207.19 130.037 206.742 124.227 209.272C121.456 210.478 119.236 212.378 117.659 215.292C116.047 218.269 115.001 222.506 115.001 228.501L111.501 228.501L108.001 228.501C108.001 221.745 109.173 216.264 111.503 211.959C113.867 207.591 117.312 204.647 121.433 202.854C129.406 199.383 139.715 200.31 149.583 202.32C159.479 204.336 170.187 207.756 178.634 209.922C182.981 211.036 186.764 211.836 189.853 212.107C193.067 212.389 194.882 212.03 195.778 211.495L197.573 214.5ZM201.116 189.471C203.585 191.952 203.586 191.951 203.587 191.95C203.587 191.95 203.588 191.949 203.589 191.948C203.59 191.947 203.591 191.946 203.592 191.945C203.594 191.943 203.596 191.942 203.597 191.94C203.6 191.937 203.603 191.934 203.605 191.932C203.609 191.927 203.611 191.926 203.611 191.926C203.61 191.927 203.6 191.938 203.582 191.957C203.546 191.997 203.478 192.073 203.387 192.184C203.204 192.407 202.931 192.765 202.631 193.246C202.028 194.214 201.341 195.634 201.015 197.426L197.571 196.798L194.128 196.17C194.647 193.322 195.734 191.078 196.691 189.543C197.171 188.772 197.626 188.169 197.976 187.743C198.151 187.53 198.301 187.36 198.415 187.234C198.473 187.171 198.522 187.12 198.561 187.079C198.58 187.059 198.597 187.041 198.611 187.026C198.619 187.019 198.625 187.012 198.631 187.006C198.634 187.003 198.637 187.001 198.64 186.998C198.641 186.997 198.642 186.995 198.643 186.994C198.644 186.994 198.645 186.993 198.645 186.992C198.646 186.992 198.647 186.991 201.116 189.471ZM197.571 196.798L201.015 197.426C201.034 197.322 201.008 197.474 200.986 198.131C200.968 198.681 200.956 199.406 200.949 200.261C200.936 201.966 200.945 204.107 200.963 206.214C200.981 208.318 201.009 210.375 201.031 211.906C201.043 212.671 201.053 213.305 201.06 213.746C201.064 213.967 201.067 214.14 201.069 214.258C201.07 214.317 201.071 214.362 201.071 214.392C201.072 214.407 201.072 214.418 201.072 214.426C201.072 214.43 201.072 214.433 201.072 214.434C201.072 214.435 201.072 214.436 201.072 214.436C201.072 214.437 201.072 214.437 201.072 214.437C201.072 214.437 201.072 214.437 197.573 214.5C194.073 214.563 194.073 214.563 194.073 214.563C194.073 214.563 194.073 214.563 194.073 214.563C194.073 214.562 194.073 214.561 194.073 214.56C194.073 214.558 194.073 214.555 194.073 214.551C194.073 214.543 194.073 214.531 194.072 214.516C194.072 214.485 194.071 214.439 194.07 214.38C194.068 214.261 194.065 214.086 194.061 213.863C194.054 213.417 194.044 212.78 194.032 212.009C194.009 210.47 193.982 208.398 193.964 206.275C193.945 204.155 193.936 201.97 193.95 200.207C193.956 199.328 193.969 198.534 193.99 197.898C194.008 197.371 194.037 196.671 194.128 196.17L197.571 196.798Z" fill="#211A19"/>
<path d="M252.998 265C252.998 265 236.603 281.984 224.998 287.5C210.064 294.598 195.687 292.75 195.687 292.75C195.687 292.75 192.585 275.364 210.999 265C231.304 253.571 252.998 265 252.998 265Z" fill="#D8718A"/>
</svg>
