<svg width="68" height="69" viewBox="0 0 68 69" fill="none" xmlns="http://www.w3.org/2000/svg">
<path d="M41.3339 17.2208C41.3339 17.2208 43.6994 13.2179 46.3014 11.2165C48.1938 9.96556 47.9573 14.4688 48.4304 16.22C54.5807 17.9713 54.1076 22.7247 54.1076 22.7247C54.1076 22.7247 56 24.9556 56 25.7269C54.9536 30.1696 51.9694 30.5961 50.3182 30.7304C48.6669 30.8648 49.3812 33.9828 49.8497 37.7352C50.3182 41.4877 46.6447 46.5014 46.3014 50.4946C46.0649 53.2466 47.0111 54.7477 47.0111 54.7477C47.0111 54.7477 48.1537 54.4409 48.9035 55.4982C49.6131 56.4989 49.14 58 49.14 58H33.2912H17.6788C17.6788 58 12.5031 55.4976 12.0241 48.2428C11.5452 40.9876 18.4004 37.4851 13.9029 33.7324C10.3545 30.7716 15.5669 27.2277 18.1639 31.4808C24.4829 41.8293 10.3494 44.2399 19.5712 53.923C21.2271 31.9811 38.7318 33.9825 38.7318 23.7254C38.7318 19.2674 41.3339 17.2208 41.3339 17.2208Z" fill="#579EF7"/>
</svg>
