<svg width="68" height="69" viewBox="0 0 68 69" fill="none" xmlns="http://www.w3.org/2000/svg">
<path d="M37.4777 16.697C38.1584 13.9395 42.0784 13.9395 42.7592 16.697L45.2447 26.7651C45.4868 27.746 46.2526 28.5118 47.2335 28.7539L57.3016 31.2394C60.0591 31.9201 60.0591 35.8402 57.3016 36.5209L47.2335 39.0064C46.2526 39.2485 45.4868 40.0143 45.2447 40.9952L42.7592 51.0633C42.0784 53.8208 38.1584 53.8208 37.4777 51.0633L34.9922 40.9952C34.7501 40.0143 33.9842 39.2485 33.0034 39.0064L22.9353 36.5209C20.1778 35.8402 20.1778 31.9201 22.9353 31.2394L33.0034 28.7539C33.9842 28.5118 34.7501 27.746 34.9922 26.7651L37.4777 16.697Z" fill="#FBD062"/>
<path d="M14.4151 10.9571C14.7305 9.67929 16.5471 9.67929 16.8626 10.9571L18.0144 15.6229C18.1266 16.0774 18.4815 16.4323 18.936 16.5445L23.6017 17.6963C24.8796 18.0118 24.8796 19.8284 23.6017 20.1438L18.936 21.2956C18.4815 21.4078 18.1266 21.7627 18.0144 22.2173L16.8626 26.883C16.5471 28.1608 14.7305 28.1608 14.4151 26.883L13.2633 22.2173C13.151 21.7627 12.7961 21.4078 12.3416 21.2956L7.6759 20.1438C6.39804 19.8284 6.39804 18.0118 7.67589 17.6963L12.3416 16.5445C12.7961 16.4323 13.151 16.0774 13.2633 15.6229L14.4151 10.9571Z" fill="#99D8CA"/>
<path d="M14.4163 36.7975C14.7318 35.5196 16.5484 35.5196 16.8638 36.7975L18.5542 43.6447C18.6664 44.0992 19.0213 44.4541 19.4758 44.5663L26.323 46.2567C27.6009 46.5721 27.6009 48.3887 26.323 48.7042L19.4758 50.3945C19.0213 50.5067 18.6664 50.8616 18.5542 51.3162L16.8638 58.1634C16.5484 59.4412 14.7318 59.4412 14.4163 58.1634L12.726 51.3162C12.6138 50.8616 12.2589 50.5067 11.8043 50.3945L4.95714 48.7042C3.67929 48.3887 3.67929 46.5721 4.95714 46.2567L11.8043 44.5663C12.2589 44.4541 12.6138 44.0992 12.726 43.6447L14.4163 36.7975Z" fill="#A7ADED"/>
</svg>
