<svg width="68" height="69" viewBox="0 0 68 69" fill="none" xmlns="http://www.w3.org/2000/svg">
<path d="M55.043 7.27993C56.4944 6.71298 59.6971 6.62627 60.8945 10.817C61.3305 14.0213 61.9321 21.7383 61.0117 27.8424C62.7707 30.9866 63.7529 34.4825 63.7529 38.1666C63.7529 51.8813 50.1673 62.9997 33.4092 62.9997C16.6513 62.9995 3.06641 51.8811 3.06641 38.1666C3.06649 34.4087 4.08819 30.8467 5.91406 27.654C5.03394 21.5804 5.6281 13.9884 6.05957 10.817C7.257 6.62625 10.4597 6.71298 11.9111 7.27993C15.7429 8.54176 20.1819 12.4019 22.6816 14.9323C26.017 13.9003 29.6323 13.3347 33.4092 13.3346C37.2247 13.3346 40.8756 13.9124 44.2393 14.9645C46.7328 12.4348 51.1946 8.54728 55.043 7.27993Z" fill="#FECB57"/>
<path d="M12.4815 12.9158C14.4737 13.5739 16.8344 15.81 17.7657 16.8458L9.86985 22.4514C9.38395 19.673 9.66739 15.9928 9.86985 14.5C10.4043 12.6234 11.8337 12.662 12.4815 12.9158Z" fill="#F1948B"/>
<path d="M54.4794 12.9158C52.4872 13.5739 50.1266 15.81 49.1953 16.8458L57.0911 22.4514C57.577 19.673 57.2935 15.9928 57.0911 14.5C56.5566 12.6234 55.1273 12.662 54.4794 12.9158Z" fill="#F1948B"/>
<path d="M26.9492 49.3115C28.3779 51.9099 32.3052 51.5016 33.4125 48.5762C34.5691 51.5697 38.447 51.6377 39.8757 49.3115" stroke="#B08145" stroke-width="2.01495" stroke-linecap="round" stroke-linejoin="round"/>
<rect x="16.8125" y="33.7446" width="6.9395" height="9.5248" rx="3.46975" fill="#535353"/>
<rect x="43.0742" y="33.7446" width="6.9395" height="9.5248" rx="3.46975" fill="#535353"/>
<path d="M33.4141 48.7798V44.4937" stroke="#A97D47" stroke-width="1.90496"/>
<path d="M29.6016 42.9976C29.6016 42.3212 30.1498 41.7729 30.8262 41.7729H35.8607C36.5371 41.7729 37.0853 42.3212 37.0853 42.9976C37.0853 44.8763 35.5623 46.3993 33.6836 46.3993H33.0033C31.1246 46.3993 29.6016 44.8763 29.6016 42.9976Z" fill="#A97D47"/>
<path d="M3 43.6099C3 43.6099 5.40434 43.6099 8.10257 43.882C11.2322 44.1976 13.1371 44.6304 13.1371 44.6304" stroke="#BC8A4E" stroke-width="2.5853" stroke-linecap="round"/>
<path d="M4.01953 53.209C4.01953 53.209 6.17444 52.1426 8.71345 51.1897C11.6584 50.0845 13.5576 49.6275 13.5576 49.6275" stroke="#BC8A4E" stroke-width="2.5853" stroke-linecap="round"/>
<path d="M64.2461 43.6099C64.2461 43.6099 61.8417 43.6099 59.1435 43.882C56.0139 44.1976 54.109 44.6304 54.109 44.6304" stroke="#BC8A4E" stroke-width="2.5853" stroke-linecap="round"/>
<path d="M63.2227 53.209C63.2227 53.209 61.0677 52.1426 58.5287 51.1897C55.5838 50.0845 53.6846 49.6275 53.6846 49.6275" stroke="#BC8A4E" stroke-width="2.5853" stroke-linecap="round"/>
</svg>
