<svg width="164" height="155" viewBox="0 0 164 155" fill="none" xmlns="http://www.w3.org/2000/svg">
<path d="M45.8554 14.9096C66.6013 -11.7643 88.7748 3.49371 96.8977 13.5924C115.866 -1.95069 129.609 13.7021 134.109 23.4714C169.015 22.1542 166.052 53.1089 151.891 63.3173C183.768 84.9197 143.659 114.689 126.206 110.079C111.716 139.321 89.6527 132.801 80.4322 125.885C54.0877 140.638 34.3294 117.982 27.7433 104.81C-13.4192 95.5892 -0.904897 58.3777 15.23 47.1814C4.42874 17.9391 31.1464 13.4826 45.8554 14.9096Z" fill="white"/>
<ellipse cx="57.3819" cy="143.997" rx="14.4894" ry="8.56193" transform="rotate(10.246 57.3819 143.997)" fill="white"/>
<path d="M57.5118 82.9932L62.9396 79.1162L70.694 83.7686L64.4908 88.421C64.4908 88.421 66.0416 99.2767 59.0629 98.5013C52.0843 97.7259 53.6351 92.2981 53.6351 92.2981C52.0843 92.2981 48.9827 92.2981 48.2073 88.421C47.587 85.3194 49.2533 82.6973 52.084 82.2178C54.9148 81.7384 57.5118 82.9932 57.5118 82.9932Z" fill="#CCC9DC"/>
<path d="M59.7206 69.0316C60.4939 66.706 63.5998 65.1542 65.9149 56.63C70.1316 41.1043 89.9342 35.027 101.588 47.3248C116.673 63.2439 103.908 76.4037 99.2557 78.3406C94.0831 80.4943 80.0557 87.2219 74.4626 88.4264C67.0102 89.2287 66.1457 84.9913 65.3664 82.1492C56.8698 79.9658 58.9473 71.3573 59.7206 69.0316Z" fill="#FF715A"/>
<ellipse cx="81.9676" cy="52.1255" rx="8.52943" ry="6.97863" transform="rotate(-23.9462 81.9676 52.1255)" fill="#FFDCE6"/>
</svg>
