<svg width="205" height="214" viewBox="0 0 205 214" fill="none" xmlns="http://www.w3.org/2000/svg">
<path d="M53 206.5C42.6894 217.279 21.8333 214 13 204.5C8.66667 201.5 0 192.2 0 179C0 162.5 9 162 13 154.5C17 147 19.5 147.5 29 116.5C45.3729 63.0723 122.414 63.0077 141.5 115C170.5 194 75 183.5 53 206.5Z" fill="white"/>
<path d="M31.9446 175.267L41.4063 168.509L54.9234 176.619L44.1101 184.729C44.1101 184.729 46.8134 203.652 34.6485 202.3C22.4835 200.949 25.1868 191.487 25.1868 191.487C22.4835 191.487 17.0768 191.487 15.7252 184.729C14.6438 179.322 17.5485 174.751 22.483 173.915C27.4175 173.08 31.9446 175.267 31.9446 175.267Z" fill="#CCC9DC"/>
<path d="M35.7938 150.93C37.1417 146.875 42.5559 144.17 46.5915 129.311C53.9418 102.247 88.4614 91.6535 108.776 113.091C135.072 140.84 112.819 163.78 104.71 167.157C95.6937 170.911 71.2415 182.638 61.4915 184.738C48.5008 186.137 46.9938 178.75 45.6353 173.796C30.8242 169.99 34.4458 154.984 35.7938 150.93Z" fill="#FF715A"/>
<ellipse cx="74.5759" cy="121.46" rx="14.8683" ry="12.165" transform="rotate(-23.9462 74.5759 121.46)" fill="#FFDCE6"/>
<rect x="84.5" width="18" height="63" rx="9" fill="white"/>
<rect x="146.831" y="11" width="18" height="63" rx="9" transform="rotate(29.8226 146.831 11)" fill="white"/>
<rect x="195.544" y="52" width="18" height="63" rx="9" transform="rotate(60.8932 195.544 52)" fill="white"/>
</svg>
