<svg width="68" height="69" viewBox="0 0 68 69" fill="none" xmlns="http://www.w3.org/2000/svg">
<path d="M14.0277 48.1738L18.4376 45.0239L24.7376 48.8038L19.6978 52.5837C19.6978 52.5837 20.9577 61.4034 15.2879 60.7734C9.61812 60.1434 10.8781 55.7336 10.8781 55.7336C9.61811 55.7336 7.0982 55.7336 6.46822 52.5837C5.96424 50.0638 7.31802 47.9334 9.61787 47.5438C11.9177 47.1543 14.0277 48.1738 14.0277 48.1738Z" fill="#CCC9DC"/>
<path d="M15.8192 36.8309C16.4474 34.9414 18.9708 33.6807 20.8517 26.7552C24.2776 14.1412 40.3663 9.20377 49.8344 19.1952C62.0905 32.1287 51.719 42.8204 47.9395 44.3941C43.7371 46.1438 32.3405 51.6097 27.7963 52.5883C21.7416 53.2401 21.0392 49.7974 20.4061 47.4883C13.503 45.7144 15.1909 38.7205 15.8192 36.8309Z" fill="#FF715A"/>
<ellipse cx="33.8963" cy="23.0962" rx="6.92977" ry="5.66981" transform="rotate(-23.9462 33.8963 23.0962)" fill="#FFDCE6"/>
</svg>
