<svg width="70" height="69" viewBox="0 0 70 69" fill="none" xmlns="http://www.w3.org/2000/svg">
<path d="M9.8037 52.0261L15.4444 47.9971L23.5029 52.832L17.0563 57.6668C17.0563 57.6668 18.668 68.9482 11.4156 68.1424C4.1633 67.3366 5.77493 61.6959 5.77493 61.6959C4.1633 61.6959 0.940044 61.6959 0.134229 57.6668C-0.510422 54.4436 1.22122 51.7186 4.16299 51.2203C7.10477 50.7221 9.8037 52.0261 9.8037 52.0261Z" fill="#CCC9DC"/>
<path d="M12.0984 37.5164C12.902 35.0995 16.1297 33.4869 18.5356 24.6283C22.9177 8.49366 43.497 2.17807 55.6077 14.9582C71.2847 31.5016 58.0184 45.1776 53.184 47.1905C47.8086 49.4286 33.2311 56.42 27.4185 57.6718C19.6739 58.5056 18.7755 54.1019 17.9656 51.1484C9.13574 48.8793 11.2948 39.9333 12.0984 37.5164Z" fill="#FF715A"/>
<ellipse cx="35.2184" cy="19.9479" rx="8.86396" ry="7.25233" transform="rotate(-23.9462 35.2184 19.9479)" fill="#FFDCE6"/>
</svg>
