<svg width="68" height="69" viewBox="0 0 68 69" fill="none" xmlns="http://www.w3.org/2000/svg">
<path d="M36.6153 56.6734L39.4981 44.9998C39.4981 44.9998 43.2969 44.542 44.9981 45.9999C45.3317 46.2858 45.764 47.5247 45.764 47.5247L40.9908 57.469C40.9908 57.469 40.769 58.0909 40.4971 58.5C39.5 60 35.9985 59.5 36.6153 56.6734Z" fill="#3D88E6"/>
<path d="M19.9088 53.0936L18.5 48L22.2954 45.9337L26.6709 45.1382L25.4776 51.5025C26 52.5 29 56 29 56C30.5 58 27 61 25.0798 59.0601L19.9088 53.0936Z" fill="#3D88E6"/>
<path d="M50.1413 20.4765C50.4595 18.249 53.456 15.3055 54.9145 14.1122C56.5056 13.4759 57.1685 17.5595 57.3011 19.6809C60.165 20.3173 62.4721 24.4541 63.2676 26.4429C64.5405 27.0794 64.8587 28.5644 64.8587 29.2273C63.904 33.0459 60.218 33.7354 58.4944 33.6028C53.2161 33.1968 52.1301 42.7515 53.3234 45.1381L59.6877 55.0823C60.9605 56.6734 59.9529 58.1319 59.2899 58.6622C57.6988 59.9351 56.5055 59.1926 56.1078 58.6622L44.9702 46.7292C35.1055 43.2288 25.7447 45.0055 22.2974 46.3314C19.4334 48.5589 16.0656 50.1765 14.7398 50.7069L11.1598 52.2979C10.6294 53.889 9.48905 57.2303 9.171 57.8667C8.77344 58.6622 7.97769 59.4578 5.98885 59.4578C4.39777 59.4578 4 57.8667 4 57.0712C4.31822 55.7983 6.25389 50.4417 7.18195 47.9225C10.3639 46.3314 12.2204 43.0167 12.7509 41.5582C12.4327 36.7849 14.4746 33.4702 15.5353 32.4095C12.6713 30.5002 10.8945 27.3711 10.3641 26.0452C9.09107 23.8177 9.83367 19.8135 10.3641 18.0898C10.3641 16.1804 9.83374 15.438 9.56856 15.3054C6.70462 14.6689 6.78418 12.6536 7.18195 11.7256C8.13659 9.81631 9.70115 9.86934 10.3641 10.1345C13.8645 10.1345 14.4745 14.1122 14.342 16.1011C13.7056 18.3286 14.0769 22.0676 14.342 23.6587C15.2967 28.1137 17.922 29.4926 19.1153 29.6252C27.0706 26.4429 42.9814 29.2273 46.1636 27.2386C46.4818 23.42 48.948 21.1395 50.1413 20.4765Z" fill="#579EF7"/>
</svg>
