<svg width="245" height="240" viewBox="0 0 245 240" fill="none" xmlns="http://www.w3.org/2000/svg">
<path d="M220.41 78.044C215.114 91.2276 190.314 87.248 190.314 87.248C190.314 87.248 181.114 74.2251 184.288 61.0686C186.011 53.9248 202.5 49.0557 205.5 64.5556C216.5 61.0686 224.31 68.336 220.41 78.044Z" fill="url(#paint0_linear_70_1681)"/>
<ellipse cx="216.728" cy="76.0557" rx="2.44958" ry="3.75602" transform="rotate(21.8873 216.728 76.0557)" fill="white"/>
<path d="M169.573 27.3633C173.398 37.3331 157.704 47.8235 157.704 47.8235C157.704 47.8235 145.977 45.3552 140.997 36.4858C138.293 31.6698 144.885 20.5558 154.463 27.5588C158.739 20.013 166.757 20.0218 169.573 27.3633Z" fill="url(#paint1_linear_70_1681)"/>
<ellipse cx="166.529" cy="28.1511" rx="1.84107" ry="2.82297" transform="rotate(-20.9882 166.529 28.1511)" fill="white"/>
<path d="M205.247 5.48067C207.5 11.3514 198.258 17.5288 198.258 17.5288C198.258 17.5288 191.353 16.0753 188.42 10.8525C186.828 8.01657 190.709 1.47204 196.35 5.59579C198.867 1.1524 203.589 1.15759 205.247 5.48067Z" fill="url(#paint2_linear_70_1681)"/>
<ellipse cx="203.454" cy="5.94449" rx="1.08412" ry="1.66232" transform="rotate(-20.9882 203.454 5.94449)" fill="white"/>
<path d="M12.6241 190.109C14.2576 189.583 15.7021 189.835 16.9576 190.864C18.2132 191.893 19.1577 193.391 19.7912 195.36C20.4247 197.329 20.5134 199.28 20.0573 201.214C19.6106 203.129 18.752 204.292 17.4815 204.701C16.588 204.988 15.7701 204.697 15.0277 203.826C14.2854 202.956 13.5526 201.612 12.8294 199.796C12.5081 200.808 12.139 201.959 11.722 203.249C10.917 205.727 10.2213 207.06 9.63492 207.249C9.41153 207.321 9.09484 207.222 8.68483 206.954C8.27482 206.685 7.9822 206.278 7.80697 205.734C7.62726 205.175 7.26086 203.391 6.70777 200.379C6.1502 197.354 5.61082 195.031 5.08964 193.412C4.9234 192.895 4.99386 192.588 5.30101 192.489C5.60816 192.39 6.02259 192.457 6.54429 192.69C7.07996 192.918 7.39721 193.185 7.49605 193.493C7.59041 193.786 7.82707 195.335 8.20604 198.141C8.59897 200.942 8.98221 203.114 9.35576 204.658C9.74464 202.946 10.2742 201.311 10.9444 199.755C11.624 198.181 12.1942 197.319 12.6549 197.171C13.1296 197.018 13.7947 197.96 14.6501 199.996C14.9716 200.755 15.3356 201.431 15.7422 202.025C16.1628 202.614 16.5476 202.852 16.8967 202.739C17.6785 202.488 18.1535 201.642 18.3215 200.201C18.499 198.742 18.3407 197.244 17.8465 195.708C17.2983 194.005 16.499 192.814 15.4486 192.135C14.9004 191.772 14.3889 191.667 13.9143 191.82C13.4535 191.968 13.004 191.936 12.5655 191.723C12.1411 191.505 11.8907 191.277 11.8143 191.04C11.684 190.635 11.9539 190.325 12.6241 190.109ZM22.3511 188.504C22.2612 188.225 22.2875 187.924 22.43 187.6C22.5726 187.277 22.7555 187.08 22.9789 187.008C23.2162 186.931 23.5876 187.128 24.0929 187.597C24.5937 188.052 24.9048 188.468 25.0261 188.845C25.071 188.985 25.0486 189.131 24.9589 189.283C24.8692 189.435 24.7546 189.533 24.6149 189.578C24.2799 189.686 23.8378 189.605 23.2886 189.335C22.7534 189.06 22.4409 188.783 22.3511 188.504ZM23.2034 191.512C23.4686 191.426 23.7716 191.506 24.1123 191.751C24.453 191.995 24.6727 192.271 24.7716 192.579C24.8704 192.886 24.9645 193.872 25.0539 195.538C25.1387 197.19 25.1795 199.065 25.1762 201.161C25.1635 201.936 24.9757 202.381 24.6127 202.498C24.4172 202.561 24.225 202.538 24.0359 202.429C23.8424 202.307 23.7142 202.148 23.6513 201.952C23.5839 201.743 23.5294 201.406 23.4879 200.942C23.4558 200.459 23.4207 199.823 23.3825 199.034C23.3538 198.227 23.3211 197.575 23.2846 197.078C23.262 196.577 23.2214 196.02 23.1628 195.407C23.0998 194.781 23.047 194.281 23.0045 193.91C22.9714 193.52 22.9453 193.128 22.9263 192.733C22.9016 191.986 22.9939 191.579 23.2034 191.512ZM30.632 198.273C30.7173 198.538 30.9136 198.622 31.2207 198.523C31.7513 198.352 32.3463 197.999 33.0059 197.463C33.6749 196.909 34.0513 196.618 34.1351 196.591C34.3864 196.51 34.5548 196.602 34.6401 196.868C34.7704 197.273 34.5021 197.875 33.8351 198.675C33.1821 199.471 32.5136 199.979 31.8295 200.199C31.1593 200.414 30.5424 200.413 29.9789 200.193C29.4108 199.96 29.0638 199.648 28.938 199.257C28.8122 198.866 28.7365 198.344 28.7108 197.69C28.6807 197.021 28.6597 196.142 28.6478 195.052C28.6455 193.943 28.6294 193.032 28.5998 192.317C27.993 192.682 27.5779 192.9 27.3545 192.972C27.1312 193.044 26.8718 193.004 26.5766 192.853C26.2908 192.683 26.1142 192.493 26.0468 192.284C25.9389 191.949 26.7431 191.335 28.4592 190.444C28.3376 189.205 28.1331 188.138 27.8455 187.244C27.7107 186.826 27.7829 186.571 28.0622 186.481C28.2995 186.405 28.6421 186.464 29.09 186.659C29.5334 186.84 29.8158 187.119 29.9371 187.496C30.0584 187.873 30.1531 188.574 30.2213 189.6C30.9946 189.274 31.6187 189.035 32.0933 188.882C32.931 188.612 33.4083 188.659 33.5251 189.022C33.5925 189.231 33.4183 189.48 33.0025 189.768C32.6007 190.051 31.7209 190.573 30.3633 191.334C30.425 192.531 30.4617 193.914 30.4732 195.481C30.4802 197.035 30.5331 197.966 30.632 198.273ZM34.5634 182.286C34.3881 181.742 34.4681 181.415 34.8031 181.308C35.0684 181.222 35.415 181.342 35.843 181.666C36.285 181.986 36.5688 182.342 36.6946 182.733C36.9867 183.64 37.255 185.264 37.4997 187.604C37.7538 189.926 37.8684 192.293 37.8433 194.704C38.4262 191.728 39.0056 189.531 39.5816 188.113C40.1671 186.677 40.7949 185.851 41.465 185.635C41.828 185.518 42.348 185.697 43.0248 186.173C43.7157 186.644 44.1622 187.194 44.3644 187.822C44.5666 188.45 44.6953 189.449 44.7506 190.818C44.9004 194.251 44.5914 196.092 43.8235 196.339C43.5164 196.438 43.2954 196.278 43.1606 195.859C43.0258 195.44 42.9665 194.681 42.9825 193.582C43.0261 191.18 42.9265 189.602 42.6839 188.848C42.6031 188.597 42.4728 188.407 42.2933 188.28C42.1137 188.153 41.9332 188.119 41.7517 188.177C41.5702 188.236 41.3782 188.405 41.1759 188.686C40.9735 188.967 40.7625 189.412 40.5427 190.022C40.2702 190.803 40.0015 191.668 39.7365 192.616C39.4855 193.56 39.3311 194.133 39.2733 194.337C39.225 194.522 39.1356 194.866 39.0052 195.37C38.8886 195.87 38.8013 196.245 38.743 196.495C38.6802 196.731 38.5963 196.997 38.4912 197.292C38.3183 197.856 38.1481 198.165 37.9806 198.219C37.8131 198.273 37.5403 198.192 37.1622 197.974C36.7796 197.743 36.5546 197.523 36.4872 197.313C36.4154 197.09 36.3596 196.653 36.32 196.003C36.1554 193.098 36.0044 191.121 35.8669 190.071C35.4247 186.207 34.9902 183.612 34.5634 182.286ZM61.1484 174.517C61.5114 174.4 61.9555 174.511 62.4807 174.85C63.0199 175.185 63.3389 175.506 63.4378 175.814C63.5321 176.107 63.5235 176.271 63.4118 176.307C63.3141 176.339 63.1029 176.353 62.7782 176.349C62.4491 176.332 62.1658 176.362 61.9285 176.438C61.384 176.613 60.8107 177.106 60.2086 177.916C59.6204 178.721 59.1098 179.648 58.6768 180.697C58.2578 181.741 57.9747 182.872 57.8275 184.09C57.6758 185.295 57.7235 186.281 57.9706 187.049C58.2178 187.816 58.5952 188.319 59.1029 188.556C59.6201 188.775 60.1998 188.781 60.8421 188.574C61.4843 188.368 62.1183 188.063 62.744 187.662C63.3652 187.246 63.854 186.85 64.2104 186.473C65.1342 185.514 65.6519 185.016 65.7636 184.98C66.0009 184.903 66.1713 185.026 66.2746 185.347C66.3734 185.654 66.1871 186.176 65.7156 186.913C65.2396 187.637 64.5943 188.36 63.7797 189.085C62.9651 189.809 62.1809 190.293 61.427 190.535C60.4497 190.85 59.3934 190.728 58.2582 190.168C57.1185 189.595 56.3847 188.799 56.0567 187.78C55.6344 186.468 55.5839 184.851 55.9054 182.929C56.2364 180.989 56.8788 179.203 57.8327 177.571C58.8006 175.935 59.9058 174.916 61.1484 174.517ZM73.4888 175.976C73.4728 175.735 73.4792 175.563 73.5081 175.462C73.537 175.36 73.6422 175.28 73.8237 175.222C74.0191 175.159 74.3079 175.266 74.69 175.544C75.086 175.817 75.338 176.121 75.4458 176.456C75.5042 176.637 75.543 177.811 75.5622 179.978C75.5814 182.144 75.6099 183.86 75.6478 185.127C75.6689 185.767 75.526 186.137 75.2188 186.236C75.0373 186.294 74.859 186.267 74.6839 186.154C74.5089 186.04 74.3562 185.781 74.2259 185.377C74.0956 184.972 74.0203 184.187 73.9999 183.023C73.719 184.161 73.3354 185.147 72.849 185.981C72.3626 186.816 71.8331 187.325 71.2607 187.509C70.7022 187.689 70.0863 187.595 69.413 187.226C68.7396 186.857 68.3131 186.393 68.1334 185.835C67.7066 184.509 67.5581 182.731 67.688 180.501C67.8273 178.253 68.1553 177.046 68.6719 176.879C68.9232 176.799 69.1778 176.848 69.4356 177.027C69.703 177.187 69.8838 177.414 69.9782 177.707C70.0186 177.833 69.9762 178.347 69.8508 179.25C69.721 180.139 69.6361 181.168 69.5961 182.337C69.5516 183.491 69.6551 184.459 69.9067 185.241C69.9786 185.465 70.1091 185.631 70.2981 185.739C70.4827 185.834 70.6727 185.85 70.8681 185.787C71.3987 185.616 71.8764 184.946 72.3014 183.777C72.7403 182.604 73.06 181.299 73.2605 179.863C73.461 178.427 73.5371 177.132 73.4888 175.976ZM80.9835 182.069C81.0688 182.335 81.2651 182.418 81.5722 182.319C82.1028 182.148 82.6978 181.795 83.3574 181.259C84.0264 180.705 84.4029 180.414 84.4866 180.387C84.7379 180.307 84.9063 180.399 84.9916 180.664C85.1219 181.069 84.8536 181.671 84.1866 182.472C83.5336 183.267 82.8651 183.775 82.181 183.995C81.5108 184.211 80.8939 184.209 80.3304 183.99C79.7623 183.757 79.4153 183.445 79.2895 183.054C79.1637 182.663 79.088 182.14 79.0623 181.486C79.0322 180.818 79.0112 179.938 78.9993 178.848C78.997 177.74 78.9809 176.828 78.9513 176.114C78.3445 176.478 77.9294 176.697 77.706 176.769C77.4827 176.84 77.2233 176.801 76.9281 176.649C76.6423 176.479 76.4657 176.29 76.3983 176.08C76.2904 175.745 77.0946 175.132 78.8107 174.241C78.6891 173.001 78.4846 171.934 78.197 171.041C78.0622 170.622 78.1344 170.368 78.4137 170.278C78.651 170.201 78.9936 170.261 79.4415 170.455C79.8849 170.636 80.1673 170.915 80.2886 171.292C80.4099 171.669 80.5046 172.37 80.5728 173.396C81.3461 173.07 81.9702 172.831 82.4448 172.678C83.2825 172.409 83.7598 172.455 83.8766 172.818C83.944 173.028 83.7698 173.276 83.354 173.564C82.9522 173.848 82.0724 174.37 80.7148 175.13C80.7765 176.327 80.8132 177.71 80.8247 179.278C80.8317 180.832 80.8846 181.762 80.9835 182.069ZM93.5426 172.712C93.7807 173.452 93.5713 174.19 92.9143 174.925C92.2668 175.642 91.4334 176.164 90.4142 176.492C89.409 176.816 88.4585 176.998 87.5629 177.04C87.5652 177.717 87.6449 178.3 87.8021 178.789C87.9549 179.264 88.2206 179.586 88.5991 179.757C88.9916 179.924 89.53 179.897 90.2141 179.677C90.9122 179.452 91.586 179.104 92.2356 178.633C92.8947 178.144 93.2592 177.888 93.329 177.865C93.692 177.749 93.9184 177.83 94.0083 178.109C94.1296 178.486 93.8363 179.035 93.1284 179.756C92.416 180.463 91.655 180.946 90.8452 181.207C89.7562 181.557 88.7663 181.522 87.8755 181.099C86.9802 180.663 86.3731 179.95 86.0541 178.959C85.7351 177.967 85.6679 176.849 85.8524 175.603C86.0325 174.343 86.4224 173.209 87.0219 172.199C87.6215 171.19 88.3331 170.552 89.1569 170.287C89.9806 170.022 90.8533 170.173 91.7751 170.739C92.7108 171.3 93.3 171.958 93.5426 172.712ZM89.794 171.908C89.2774 172.074 88.8275 172.519 88.4443 173.244C88.0565 173.954 87.7953 174.77 87.6604 175.691C88.2593 175.637 88.9148 175.496 89.6269 175.267C90.3389 175.037 90.9242 174.726 91.3829 174.332C91.837 173.924 92.0035 173.531 91.8822 173.154C91.7608 172.777 91.4628 172.449 90.9879 172.171C90.5271 171.888 90.1291 171.8 89.794 171.908ZM49.1019 204.656C49.4649 204.539 49.909 204.65 50.4342 204.99C50.9734 205.325 51.2924 205.646 51.3913 205.953C51.4856 206.246 51.4769 206.411 51.3653 206.447C51.2675 206.478 51.0563 206.492 50.7317 206.489C50.4026 206.471 50.1193 206.501 49.882 206.577C49.3375 206.752 48.7642 207.245 48.162 208.055C47.5739 208.861 47.0633 209.788 46.6303 210.836C46.2113 211.88 45.9282 213.011 45.781 214.229C45.6293 215.434 45.677 216.42 45.9241 217.188C46.1712 217.956 46.5487 218.458 47.0564 218.695C47.5736 218.914 48.1533 218.92 48.7955 218.714C49.4378 218.507 50.0717 218.203 50.6975 217.801C51.3187 217.385 51.8075 216.989 52.1639 216.613C53.0876 215.653 53.6054 215.155 53.717 215.119C53.9544 215.043 54.1247 215.165 54.2281 215.486C54.3269 215.793 54.1406 216.316 53.6691 217.053C53.1931 217.776 52.5478 218.5 51.7332 219.224C50.9186 219.949 50.1344 220.432 49.3804 220.675C48.4031 220.989 47.3469 220.867 46.2117 220.308C45.072 219.735 44.3382 218.939 44.0102 217.919C43.5878 216.607 43.5374 214.99 43.8589 213.068C44.1898 211.128 44.8323 209.342 45.7862 207.71C46.7541 206.074 47.8593 205.056 49.1019 204.656ZM59.4107 206.122C60.0389 205.92 60.7217 206.055 61.4589 206.526C62.1916 206.984 62.6411 207.471 62.8073 207.988C62.9691 208.49 62.9608 209.063 62.7825 209.706C63.0174 209.861 63.1596 210.016 63.209 210.169C63.3348 210.56 63.4597 211.26 63.5838 212.267C63.7217 213.271 63.817 213.926 63.8694 214.232C63.9359 214.535 63.9843 214.781 64.0148 214.971C64.0408 215.148 64.0598 215.327 64.0718 215.508C64.1283 215.875 64.0588 216.09 63.8634 216.153C63.6121 216.233 63.333 216.084 63.0262 215.706C62.7288 215.308 62.4539 214.765 62.2013 214.076C61.4664 216.053 60.5684 217.213 59.5074 217.554C58.8651 217.761 58.1423 217.693 57.3388 217.351C56.5448 216.99 56.0534 216.517 55.8647 215.93C55.5951 215.093 55.5698 213.961 55.7887 212.534C56.0031 211.094 56.444 209.735 57.1113 208.457C57.7786 207.179 58.545 206.401 59.4107 206.122ZM61.5601 209.498C61.1423 208.2 60.6751 207.634 60.1585 207.8C59.614 207.975 59.1046 208.571 58.6302 209.586C58.1513 210.588 57.8178 211.658 57.6297 212.797C57.4416 213.936 57.4396 214.792 57.6238 215.364C57.7002 215.601 57.8609 215.765 58.1057 215.856C58.3461 215.933 58.599 215.929 58.8642 215.843C59.5204 215.632 60.1188 214.954 60.6595 213.809C61.1957 212.651 61.4199 211.385 61.3322 210.011C61.3067 209.788 61.3849 209.624 61.5669 209.519L61.5601 209.498ZM68.6711 212.294C68.7564 212.56 68.9527 212.643 69.2598 212.544C69.7904 212.373 70.3854 212.02 71.045 211.484C71.7141 210.93 72.0905 210.639 72.1742 210.612C72.4255 210.531 72.5939 210.624 72.6792 210.889C72.8095 211.294 72.5412 211.896 71.8742 212.696C71.2212 213.492 70.5527 214 69.8686 214.22C69.1984 214.436 68.5815 214.434 68.018 214.215C67.4499 213.982 67.1029 213.669 66.9771 213.279C66.8513 212.888 66.7756 212.365 66.7499 211.711C66.7198 211.043 66.6988 210.163 66.6869 209.073C66.6846 207.965 66.6685 207.053 66.6389 206.339C66.0321 206.703 65.617 206.922 65.3936 206.993C65.1703 207.065 64.9109 207.026 64.6157 206.874C64.3299 206.704 64.1533 206.514 64.0859 206.305C63.978 205.97 64.7822 205.357 66.4983 204.466C66.3767 203.226 66.1722 202.159 65.8846 201.266C65.7498 200.847 65.822 200.592 66.1013 200.503C66.3386 200.426 66.6812 200.485 67.1291 200.68C67.5725 200.861 67.8549 201.14 67.9762 201.517C68.0975 201.894 68.1922 202.595 68.2604 203.621C69.0337 203.295 69.6578 203.056 70.1325 202.903C70.9701 202.634 71.4474 202.68 71.5642 203.043C71.6316 203.253 71.4574 203.501 71.0416 203.789C70.6398 204.073 69.76 204.595 68.4024 205.355C68.4641 206.552 68.5008 207.935 68.5123 209.503C68.5193 211.057 68.5722 211.987 68.6711 212.294Z" fill="#758790"/>
<path d="M196.745 204.449C191.675 205.772 185.448 203.114 182.968 201.46L185.172 189.612C191.785 191.155 195.918 188.191 197.296 186.857C200.327 183.923 210.477 167.358 224.576 171.981C233.118 174.781 235.905 186.177 229.811 191.265C227.883 192.876 224.576 193.745 221.545 192.876C218.776 192.082 217.963 189.294 214.932 189.612C213.534 189.758 211.644 191.345 209.421 195.356C206.39 200.825 203.083 202.796 196.745 204.449Z" fill="#FDD4DD"/>
<path d="M213.199 172.747C212.787 173.007 212.359 173.255 211.948 173.455C209.977 173.393 207.801 176.114 207.789 176.131C207.789 176.131 208.676 182.264 211.914 183.017C216.183 183.716 216.026 176.307 215.724 172.826L213.199 172.747Z" fill="#D8718A"/>
<path d="M200.773 182.662C200.407 182.986 200.021 183.303 199.644 183.572C197.628 183.948 195.965 186.88 195.965 186.88C195.983 186.926 198.106 192.189 201.524 192.158C205.99 191.855 204.347 185.239 203.344 182.183L200.773 182.662Z" fill="#D8718A"/>
<path d="M182.968 201.479C185.448 203.132 191.331 205.463 196.745 204.467C202.737 203.365 206.39 200.843 209.421 195.374C211.644 191.363 213.278 189.872 214.932 189.63C217.781 189.211 218.776 192.1 221.545 192.894C224.576 193.763 227.883 192.894 229.811 191.283C235.905 186.195 233.118 174.799 224.576 171.999C210.477 167.376 200.327 183.941 197.296 186.875C195.918 188.209 191.785 191.173 185.172 189.63" stroke="#302025" stroke-width="3.14103"/>
<path d="M131.845 200.034C131.426 196.893 145.247 197.626 145.247 197.626L152.68 175.953L188.803 184.643L193.724 200.244C193.724 200.244 202.518 204.648 197.283 209.876C194.98 212.176 190.583 211.342 190.583 211.342C190.583 211.342 187.232 211.551 185.975 210.504C184.718 209.457 181.264 205.793 181.264 205.793C181.264 205.793 178.437 215.932 169.642 215.007C163.674 214.378 162.417 209.667 162.417 209.667C162.417 209.667 138.262 209.886 137.603 209.667C135.404 208.934 132.231 202.926 131.845 200.034Z" fill="#FDD4DD"/>
<path d="M127.03 166.53C132.912 173.882 148.292 178.296 148.292 178.296L188.803 185.062C188.803 185.062 249.844 184.015 225.658 141.402C234.958 117.35 227.82 104.477 225.134 101.929C215.864 97.1568 205.974 105.489 200.425 112.923C187.337 102.139 169.957 107.374 169.957 107.374C169.957 107.374 178.333 89.6797 164.408 88.6323C151.948 90.7263 136.141 112.576 135.406 122.137C121.062 132.502 112.914 148.887 127.03 166.53Z" fill="#FDD4DD"/>
<path d="M147.633 128.783C147.59 128.924 147.59 129.078 147.644 129.217C147.699 129.356 147.802 129.469 147.934 129.53C148.066 129.592 148.218 129.6 148.36 129.552C148.501 129.505 148.62 129.406 148.7 129.283C148.7 129.283 148.7 129.283 148.7 129.283C148.932 128.944 149.212 128.635 149.52 128.353C152.25 126.028 156.159 125.125 159.526 125.486C159.735 125.511 159.936 125.54 160.141 125.573C163.809 126.125 167.059 128.369 169.482 131.638C169.752 131.998 170.012 132.37 170.261 132.75C170.341 132.874 170.459 132.973 170.6 133.021C170.742 133.069 170.894 133.062 171.026 133C171.158 132.939 171.262 132.827 171.317 132.688C171.372 132.549 171.372 132.395 171.329 132.254C171.329 132.254 171.329 132.254 171.329 132.254C171.186 131.791 171.021 131.332 170.834 130.879C169.248 126.815 165.376 123.15 160.646 122.473C160.388 122.431 160.135 122.397 159.873 122.369C155.397 121.975 150.895 123.738 148.323 127.368C148.039 127.806 147.798 128.279 147.633 128.783Z" fill="#302025"/>
<path d="M211.397 142.332C211.367 142.475 211.294 142.611 211.181 142.707C211.069 142.804 210.926 142.854 210.782 142.847C210.637 142.84 210.5 142.776 210.398 142.669C210.295 142.562 210.236 142.42 210.22 142.275C210.22 142.275 210.22 142.275 210.22 142.275C210.174 141.872 210.115 141.476 210.041 141.09C209.435 137.494 207.091 135.307 203.898 134.287C203.489 134.147 203.073 134.023 202.638 133.908C200.015 133.393 196.623 133.336 193.672 133.957C193.29 134.044 192.911 134.148 192.54 134.276C192.403 134.325 192.25 134.334 192.108 134.288C191.967 134.242 191.85 134.147 191.78 134.02C191.711 133.893 191.695 133.742 191.733 133.599C191.77 133.455 191.861 133.331 191.976 133.242C191.976 133.242 191.976 133.242 191.976 133.242C192.334 132.972 192.713 132.731 193.104 132.514C196.258 130.891 199.604 130.298 203.373 130.882C203.896 131 204.404 131.14 204.912 131.314C208.938 132.369 212.291 136.985 211.59 141.027C211.549 141.47 211.483 141.905 211.397 142.332Z" fill="#302025"/>
<path d="M168.281 189.12C168.281 191.736 165 193.857 160.952 193.857C156.904 193.857 153.623 191.736 153.623 189.12C153.623 186.504 156.904 185.69 160.952 185.69C165 185.69 168.281 186.504 168.281 189.12Z" fill="#FEFFFE"/>
<path d="M194.709 109.495C194.709 109.495 190.53 116.245 192.295 118.388C195.53 121.792 199.401 113.282 199.401 113.282C199.401 113.282 198.911 112.751 197.808 111.905C196.516 110.884 194.709 109.495 194.709 109.495Z" fill="#D8718A"/>
<path d="M177.376 105.612C177.376 105.612 177.562 113.843 174.749 114.859C169.88 116.251 170.944 106.595 170.944 106.595C170.944 106.595 171.69 106.37 173.178 106.179C174.937 105.927 177.376 105.612 177.376 105.612Z" fill="#D8718A"/>
<path d="M190.244 107.233C190.244 107.233 188.028 115.163 185.041 115.317C179.978 115.232 183.804 106.303 183.804 106.303C183.804 106.303 184.583 106.304 186.063 106.555C187.819 106.825 190.244 107.233 190.244 107.233Z" fill="#D8718A"/>
<path d="M114.675 148.851C117.43 146.092 122.666 142.797 130.657 141.687" stroke="#302025" stroke-width="3.14103" stroke-linecap="round"/>
<path d="M170.024 189.085C163.361 181.188 141.583 181.712 145.98 200.662" stroke="#302025" stroke-width="3.14103" stroke-linecap="round"/>
<path d="M145.352 196.893C145.352 196.893 139.174 196.893 134.986 197.626C133.181 197.942 132.055 199.364 132.055 201.291C132.055 203.699 134.463 208.934 137.918 209.562C140.682 210.064 152.332 209.422 157.811 209.038" stroke="#302025" stroke-width="3.14103" stroke-linecap="round"/>
<path d="M112.162 136.425C115.601 134.587 121.569 132.959 129.537 134.221" stroke="#302025" stroke-width="3.14103" stroke-linecap="round"/>
<path d="M221.956 166.231C219.201 163.472 213.965 160.177 205.974 159.066" stroke="#302025" stroke-width="3.14103" stroke-linecap="round"/>
<path d="M225.538 153.805C222.099 151.968 216.131 150.339 208.163 151.602" stroke="#302025" stroke-width="3.14103" stroke-linecap="round"/>
<path d="M161.292 96.9436C159.626 94.9451 151.437 106.004 147.221 112.483C147.108 112.657 147.291 112.874 147.483 112.793C148.884 112.203 152.317 110.819 155.01 110.241C158.126 109.572 161.701 109.091 162.396 109C162.472 108.99 162.534 108.943 162.56 108.871C163.576 106.061 162.842 98.8026 161.292 96.9436Z" fill="#FDE2E5" stroke="#EEB8C3" stroke-width="1.04701" stroke-linecap="round"/>
<path d="M220.475 109.669C221.634 109.568 223.779 120.318 220.645 127.114C220.575 127.266 220.362 127.274 220.273 127.132C219.727 126.257 218.099 123.833 215.659 121.814C213.118 119.711 209.75 118.53 208.719 118.2C208.572 118.153 208.521 117.971 208.622 117.855C211.991 114 215.76 110.079 220.475 109.669Z" fill="#FDE2E5" stroke="#EEB8C3" stroke-width="1.04701" stroke-linecap="round"/>
<path d="M153.52 205.896C154.741 207.118 158.064 209.602 161.582 209.77" stroke="#302025" stroke-width="3.14103" stroke-linecap="round"/>
<path d="M142.944 183.072C143.572 176.79 150.409 175.191 156.241 176.163C165.245 177.663 164.442 182.723 163.151 185.271C161.86 187.819 149.016 190.192 146.818 189.459C144.619 188.726 142.653 185.975 142.944 183.072Z" fill="#FDD4DD" stroke="#302025" stroke-width="3.14103" stroke-linecap="round"/>
<path d="M175.087 206.735C175.506 203.175 174.145 198.488 168.701 198.15C162.891 197.789 159.949 208.286 164.408 212.389C166.57 214.378 169.644 215.469 173.936 214.064C180.218 212.009 182.94 203.699 182.94 190.611" stroke="#302025" stroke-width="3.14103" stroke-linecap="round"/>
<path d="M181.265 205.374C182.661 207.363 186.019 211.034 188.175 211.342C189.641 211.551 194.143 211.551 196.027 210.504C197.912 209.457 202.079 205.73 194.457 200.872C193.131 198.952 190.143 193.103 188.803 185.062" stroke="#302025" stroke-width="3.14103" stroke-linecap="round"/>
<path d="M184.929 184.853C203.147 184.853 210.995 182.499 220.318 177.838C225.971 175.011 238.535 160.353 225.762 138.156C227.751 129.256 231.625 110.62 225.762 102.662C222.412 98.7884 212.884 97.9089 200.738 112.818C196.76 109.887 185.368 103.542 170.375 107.06C172.469 102.069 172.968 90.1462 165.768 88.9464C160.743 88.1089 141.268 99.626 135.405 122.241C128.634 126.255 117.974 137.507 119.49 149.987C120.852 161.19 130.379 175.115 145.142 178.047" stroke="#302025" stroke-width="3.14103" stroke-linecap="round" stroke-linejoin="round"/>
<path d="M157.602 143.601C161.441 150.406 173.432 160.792 190.687 147.893" stroke="#302025" stroke-width="3.14103" stroke-linecap="round" stroke-linejoin="round"/>
<path d="M174.666 139.413C174.666 139.413 171.104 148.731 172.465 153.233" stroke="#302025" stroke-width="3.14103" stroke-linecap="round" stroke-linejoin="round"/>
<ellipse cx="174.812" cy="138.531" rx="4.95991" ry="3.30661" fill="#211A19"/>
<path d="M48.0464 160.254C47.8801 160.781 48.1723 161.343 48.699 161.509C49.2257 161.675 49.7874 161.383 49.9536 160.856L49 160.555L48.0464 160.254ZM99.0336 142.608C99.5008 142.313 99.6409 141.696 99.3464 141.229L94.5475 133.615C94.253 133.148 93.6355 133.008 93.1683 133.302C92.7011 133.597 92.561 134.214 92.8555 134.681L97.1212 141.449L90.3534 145.715C89.8861 146.009 89.7461 146.627 90.0406 147.094C90.3351 147.561 90.9526 147.701 91.4198 147.407L99.0336 142.608ZM49 160.555C49.9536 160.856 49.9535 160.856 49.9535 160.857C49.9535 160.857 49.9534 160.857 49.9534 160.857C49.9534 160.857 49.9535 160.857 49.9536 160.856C49.9539 160.855 49.9544 160.854 49.9552 160.851C49.9569 160.846 49.9596 160.838 49.9635 160.826C49.9712 160.802 49.9833 160.766 50 160.717C50.0334 160.619 50.085 160.472 50.1557 160.281C50.297 159.898 50.5143 159.342 50.8143 158.658C51.4147 157.289 52.3429 155.415 53.6507 153.405C56.2744 149.372 60.3728 144.868 66.3411 142.702L66 141.762L65.6589 140.822C59.1272 143.192 54.7256 148.085 51.9743 152.314C50.5946 154.435 49.6166 156.409 48.9826 157.855C48.6653 158.579 48.4334 159.172 48.2799 159.587C48.2031 159.794 48.1458 159.958 48.1072 160.071C48.0879 160.128 48.0732 160.172 48.0631 160.202C48.0581 160.218 48.0542 160.23 48.0514 160.239C48.05 160.243 48.0489 160.246 48.048 160.249C48.0476 160.25 48.0473 160.251 48.047 160.252C48.0469 160.253 48.0467 160.253 48.0466 160.253C48.0465 160.254 48.0464 160.254 49 160.555ZM66 141.762L66.3411 142.702C72.3768 140.512 80.3191 140.493 86.8516 141.057C90.0989 141.338 92.9613 141.759 95.0113 142.11C96.0359 142.285 96.8563 142.443 97.419 142.556C97.7003 142.613 97.9172 142.659 98.0628 142.69C98.1356 142.705 98.1906 142.717 98.227 142.726C98.2451 142.73 98.2587 142.733 98.2674 142.735C98.2718 142.735 98.275 142.736 98.2769 142.737C98.2779 142.737 98.2786 142.737 98.279 142.737C98.2792 142.737 98.2793 142.737 98.2793 142.737C98.2793 142.737 98.2792 142.737 98.5004 141.762C98.7216 140.787 98.7213 140.787 98.721 140.787C98.7208 140.787 98.7204 140.786 98.72 140.786C98.7192 140.786 98.718 140.786 98.7166 140.786C98.7137 140.785 98.7096 140.784 98.7043 140.783C98.6937 140.78 98.6784 140.777 98.6583 140.773C98.6183 140.764 98.5594 140.751 98.4827 140.734C98.3292 140.701 98.1042 140.654 97.8142 140.596C97.2343 140.479 96.3945 140.317 95.3487 140.138C93.258 139.781 90.3391 139.351 87.0238 139.065C80.4311 138.495 72.1232 138.476 65.6589 140.822L66 141.762Z" fill="#758790"/>
<defs>
<linearGradient id="paint0_linear_70_1681" x1="201" y1="62.0557" x2="194.522" y2="88.9387" gradientUnits="userSpaceOnUse">
<stop offset="0.0377511" stop-color="#FFA59B"/>
<stop offset="1" stop-color="#FE7C68"/>
</linearGradient>
<linearGradient id="paint1_linear_70_1681" x1="150.706" y1="28.4831" x2="160.886" y2="46.6028" gradientUnits="userSpaceOnUse">
<stop offset="0.0377511" stop-color="#FFA59B"/>
<stop offset="1" stop-color="#FE7C68"/>
</linearGradient>
<linearGradient id="paint2_linear_70_1681" x1="194.138" y1="6.14008" x2="200.132" y2="16.8099" gradientUnits="userSpaceOnUse">
<stop offset="0.0377511" stop-color="#FFA59B"/>
<stop offset="1" stop-color="#FE7C68"/>
</linearGradient>
</defs>
</svg>
