<svg width="298" height="278" viewBox="0 0 298 278" fill="none" xmlns="http://www.w3.org/2000/svg">
<g filter="url(#filter0_d_370_4068)">
<rect x="13.0557" y="21.6396" width="260" height="239" rx="20" transform="rotate(-2.77424 13.0557 21.6396)" fill="white"/>
<path d="M244.669 214.655L57.8881 223.706L52.4977 112.466C52.4977 112.466 99.4825 100.749 126.422 116.317C158.973 135.129 174.126 165.652 207.559 171.901C224.878 175.139 242.66 173.204 242.66 173.204L244.669 214.655Z" fill="url(#paint0_linear_370_4068)" fill-opacity="0.2" style="mix-blend-mode:hard-light"/>
<path d="M52.4922 112.337L57.9131 224.206L247.69 215.01" stroke="#E2E2E2" stroke-linecap="round"/>
<path d="M53.4908 112.288C53.4908 112.288 94.2609 96.2197 128.766 116.15C164.79 136.43 167.788 167.321 216.619 172.964C232.941 174.85 245.657 173.059 245.657 173.059" stroke="#4BA95E" stroke-width="5"/>
<circle cx="52.4677" cy="111.838" r="8" transform="rotate(-2.77424 52.4677 111.838)" fill="#4FA961"/>
<circle cx="245.634" cy="172.559" r="8" transform="rotate(-2.77424 245.634 172.559)" fill="#4FA961"/>
<circle cx="245.633" cy="172.56" r="4" transform="rotate(-2.77424 245.633 172.56)" fill="white"/>
<circle cx="52.4682" cy="111.838" r="4" transform="rotate(-2.77424 52.4682 111.838)" fill="white"/>
<circle cx="232.077" cy="58.0812" r="5" transform="rotate(-2.77424 232.077 58.0812)" fill="#F3765F"/>
<path d="M61.1728 126.194C61.1728 126.194 91.2784 179.299 95.5883 185.598C99.8982 191.897 115.655 200.945 123.837 179.724C132.02 158.503 136.971 121.276 145.677 103.578C159.804 74.8603 177.532 58.4829 229.592 58.4644" stroke="#F3765F" stroke-width="3" stroke-linecap="round" stroke-dasharray="11 11"/>
<g filter="url(#filter1_d_370_4068)">
<rect x="189.47" y="129.228" width="70" height="31" rx="11" transform="rotate(-2.77424 189.47 129.228)" fill="#4BA95E" shape-rendering="crispEdges"/>
<path d="M204.379 139.336L207.458 139.187L209.644 143.222L209.724 143.218L211.51 138.991L214.589 138.841L211.192 145.994L211.347 149.192L208.606 149.325L208.451 146.127L204.379 139.336ZM220.246 145.416L220.038 141.126L222.779 140.993L223.148 148.62L220.546 148.747L220.476 147.297L220.397 147.3C220.255 147.795 219.983 148.19 219.583 148.485C219.182 148.776 218.697 148.936 218.128 148.963C217.595 148.989 217.122 148.889 216.71 148.664C216.3 148.438 215.975 148.115 215.732 147.696C215.493 147.276 215.358 146.788 215.328 146.232L215.092 141.366L217.833 141.233L218.041 145.523C218.062 145.9 218.173 146.192 218.372 146.398C218.574 146.604 218.848 146.699 219.192 146.682C219.42 146.671 219.615 146.613 219.776 146.509C219.94 146.402 220.062 146.256 220.143 146.073C220.227 145.887 220.261 145.668 220.246 145.416ZM228.224 148.514C227.396 148.554 226.68 148.424 226.075 148.125C225.469 147.823 224.995 147.384 224.652 146.81C224.309 146.233 224.118 145.554 224.081 144.773C224.043 143.991 224.167 143.298 224.453 142.694C224.738 142.086 225.168 141.604 225.741 141.248C226.315 140.888 227.015 140.688 227.843 140.648C228.591 140.612 229.245 140.716 229.804 140.961C230.367 141.203 230.81 141.563 231.136 142.041C231.461 142.517 231.641 143.086 231.676 143.747L229.134 143.871C229.078 143.472 228.947 143.173 228.742 142.974C228.54 142.771 228.286 142.677 227.982 142.692C227.743 142.704 227.538 142.783 227.366 142.931C227.194 143.075 227.065 143.289 226.979 143.572C226.893 143.851 226.86 144.2 226.88 144.617C226.9 145.034 226.967 145.379 227.08 145.653C227.192 145.923 227.341 146.123 227.527 146.253C227.712 146.38 227.924 146.438 228.163 146.426C228.364 146.417 228.541 146.362 228.692 146.261C228.843 146.158 228.962 146.013 229.049 145.826C229.14 145.636 229.188 145.408 229.195 145.142L231.738 145.019C231.76 145.691 231.635 146.285 231.361 146.799C231.087 147.31 230.684 147.714 230.151 148.012C229.621 148.31 228.979 148.477 228.224 148.514ZM235.154 148.158C234.667 148.182 234.233 148.123 233.851 147.982C233.473 147.838 233.169 147.607 232.942 147.29C232.714 146.972 232.588 146.56 232.563 146.054C232.543 145.637 232.597 145.277 232.725 144.976C232.853 144.671 233.04 144.418 233.285 144.217C233.531 144.016 233.821 143.858 234.153 143.742C234.49 143.626 234.854 143.544 235.246 143.495C235.672 143.441 236.013 143.385 236.269 143.326C236.528 143.263 236.713 143.186 236.825 143.095C236.936 143 236.989 142.879 236.982 142.734L236.981 142.714C236.971 142.515 236.887 142.367 236.73 142.268C236.573 142.17 236.375 142.126 236.136 142.138C235.875 142.15 235.664 142.219 235.504 142.342C235.347 142.463 235.258 142.641 235.236 142.878L232.714 143C232.725 142.535 232.851 142.101 233.094 141.698C233.339 141.291 233.71 140.958 234.205 140.698C234.7 140.435 235.327 140.285 236.085 140.249C236.631 140.222 237.124 140.263 237.564 140.371C238.004 140.476 238.381 140.635 238.697 140.849C239.012 141.059 239.257 141.313 239.431 141.61C239.608 141.903 239.705 142.227 239.722 142.581L239.975 147.805L237.412 147.929L237.361 146.857L237.301 146.86C237.162 147.152 236.988 147.391 236.778 147.577C236.572 147.763 236.331 147.902 236.057 147.995C235.786 148.088 235.485 148.142 235.154 148.158ZM235.964 146.387C236.173 146.377 236.366 146.324 236.544 146.229C236.725 146.134 236.87 146.003 236.978 145.835C237.086 145.667 237.134 145.467 237.123 145.236L237.092 144.6C237.02 144.633 236.944 144.665 236.863 144.696C236.784 144.726 236.7 144.755 236.608 144.783C236.52 144.81 236.425 144.836 236.323 144.861C236.225 144.886 236.121 144.909 236.013 144.931C235.803 144.974 235.631 145.037 235.499 145.12C235.371 145.199 235.276 145.295 235.215 145.408C235.157 145.517 235.131 145.637 235.138 145.77C235.148 145.982 235.23 146.14 235.385 146.246C235.539 146.351 235.732 146.398 235.964 146.387ZM245.464 139.894L245.56 141.88L240.534 142.124L240.438 140.137L245.464 139.894ZM241.323 138.263L244.064 138.13L244.403 145.132C244.408 145.238 244.431 145.326 244.471 145.397C244.511 145.465 244.57 145.515 244.647 145.548C244.725 145.577 244.824 145.589 244.943 145.583C245.026 145.579 245.121 145.565 245.229 145.54C245.341 145.514 245.423 145.494 245.475 145.478L245.966 147.385C245.845 147.428 245.672 147.481 245.446 147.545C245.224 147.609 244.957 147.657 244.647 147.688C244.019 147.752 243.488 147.713 243.053 147.571C242.618 147.426 242.284 147.182 242.052 146.838C241.82 146.495 241.694 146.056 241.675 145.523L241.323 138.263Z" fill="white"/>
</g>
<path d="M116.528 43.3892L114.224 43.5008L117.242 33.1608L120.013 33.0265L124.012 43.0265L121.707 43.1382L118.78 35.4157L118.7 35.4196L116.528 43.3892ZM116.19 39.3987L121.633 39.135L121.714 40.8134L116.272 41.0771L116.19 39.3987ZM129.93 39.4845L129.718 35.1047L131.833 35.0022L132.203 42.6296L130.172 42.728L130.104 41.3426L130.025 41.3465C129.874 41.8017 129.606 42.1748 129.218 42.4657C128.834 42.7564 128.356 42.9156 127.783 42.9433C127.273 42.9681 126.819 42.8739 126.42 42.661C126.022 42.448 125.703 42.1333 125.464 41.7168C125.228 41.3002 125.094 40.794 125.062 40.1983L124.826 35.3417L126.942 35.2392L127.159 39.7184C127.184 40.1684 127.322 40.5184 127.573 40.7684C127.824 41.0184 128.15 41.1337 128.55 41.1143C128.805 41.1019 129.041 41.0324 129.257 40.9058C129.473 40.7759 129.643 40.5918 129.768 40.3535C129.896 40.115 129.95 39.8254 129.93 39.4845ZM137.582 34.7236L137.659 36.3127L133.066 36.5353L132.989 34.9462L137.582 34.7236ZM133.943 33.0683L136.058 32.9658L136.403 40.0767C136.412 40.2721 136.45 40.4229 136.515 40.5293C136.579 40.6323 136.666 40.7028 136.774 40.7407C136.885 40.7784 137.012 40.7939 137.154 40.787C137.253 40.7821 137.352 40.7691 137.451 40.7477C137.549 40.723 137.625 40.7044 137.677 40.6919L138.086 42.25C137.982 42.2882 137.835 42.3335 137.645 42.3858C137.455 42.4415 137.223 42.4809 136.949 42.5042C136.44 42.5487 135.99 42.5025 135.598 42.3655C135.21 42.2284 134.902 42.0011 134.674 41.6836C134.446 41.3661 134.322 40.9574 134.301 40.4573L133.943 33.0683ZM139.33 42.2843L138.96 34.6569L141.011 34.5575L141.075 35.8883L141.155 35.8845C141.271 35.4043 141.487 35.0355 141.803 34.7779C142.119 34.5171 142.49 34.3763 142.917 34.3556C143.023 34.3505 143.138 34.3515 143.261 34.3588C143.384 34.3662 143.493 34.3791 143.586 34.3978L143.677 36.2749C143.577 36.2499 143.438 36.2301 143.261 36.2154C143.085 36.2007 142.924 36.1969 142.778 36.204C142.467 36.2191 142.192 36.3004 141.954 36.448C141.718 36.5921 141.535 36.7868 141.405 37.0321C141.277 37.2772 141.221 37.5553 141.236 37.8665L141.445 42.1818L139.33 42.2843ZM148.18 42.0047C147.395 42.0428 146.712 41.9166 146.131 41.6262C145.552 41.3324 145.097 40.8998 144.764 40.3286C144.43 39.7541 144.244 39.0646 144.205 38.2602C144.167 37.4756 144.286 36.7796 144.562 36.1723C144.838 35.5649 145.244 35.0824 145.781 34.7245C146.321 34.3665 146.965 34.1694 147.714 34.1331C148.217 34.1087 148.689 34.1672 149.131 34.3084C149.575 34.4461 149.968 34.6676 150.308 34.973C150.651 35.2783 150.926 35.6698 151.131 36.1476C151.337 36.6221 151.455 37.1838 151.487 37.8327L151.515 38.4137L145.074 38.7258L145.011 37.4148L149.46 37.1992C149.445 36.8947 149.366 36.6281 149.222 36.3994C149.078 36.1708 148.886 35.996 148.644 35.8749C148.406 35.7504 148.133 35.6956 147.825 35.7106C147.504 35.7261 147.223 35.8144 146.982 35.9754C146.744 36.1329 146.561 36.3392 146.434 36.5942C146.307 36.846 146.249 37.1225 146.26 37.4239L146.321 38.6704C146.339 39.0477 146.424 39.3705 146.577 39.6385C146.732 39.9064 146.943 40.1085 147.208 40.245C147.474 40.3815 147.784 40.4411 148.138 40.4239C148.373 40.4126 148.587 40.369 148.779 40.2933C148.971 40.2177 149.133 40.1103 149.266 39.9711C149.398 39.8319 149.496 39.6646 149.56 39.4691L151.523 39.5034C151.446 39.9783 151.263 40.3986 150.972 40.7645C150.684 41.1268 150.303 41.4174 149.829 41.6361C149.359 41.8514 148.809 41.9743 148.18 42.0047ZM159.136 35.8593L157.205 36.0723C157.164 35.9084 157.085 35.7629 156.97 35.6358C156.854 35.5053 156.705 35.4047 156.522 35.3339C156.343 35.2597 156.13 35.2285 155.885 35.2403C155.558 35.2562 155.285 35.3391 155.066 35.4891C154.848 35.6357 154.744 35.8232 154.755 36.0517C154.764 36.2337 154.844 36.3842 154.996 36.5029C155.148 36.6216 155.403 36.7105 155.76 36.7695L157.154 36.9807C157.903 37.097 158.468 37.3152 158.849 37.6352C159.229 37.9553 159.433 38.39 159.459 38.9396C159.484 39.4395 159.357 39.8853 159.081 40.2769C158.808 40.6684 158.422 40.9825 157.922 41.2191C157.426 41.4522 156.847 41.5848 156.184 41.6168C155.175 41.6658 154.36 41.4945 153.741 41.1031C153.124 40.7083 152.747 40.1492 152.609 39.4258L154.684 39.2158C154.762 39.5206 154.926 39.7483 155.175 39.8988C155.425 40.046 155.738 40.1104 156.116 40.0921C156.486 40.0742 156.781 39.9885 156.999 39.8353C157.22 39.6785 157.327 39.4859 157.319 39.2573C157.307 39.0655 157.218 38.9121 157.053 38.7973C156.888 38.6792 156.639 38.5951 156.304 38.5449L154.971 38.3458C154.219 38.2329 153.652 38.0015 153.27 37.6517C152.891 37.3017 152.688 36.842 152.66 36.2726C152.637 35.7827 152.749 35.3542 152.996 34.9871C153.247 34.6199 153.61 34.3286 154.084 34.1131C154.561 33.8975 155.126 33.774 155.778 33.7424C156.741 33.6957 157.509 33.8625 158.082 34.2429C158.658 34.6232 159.009 35.162 159.136 35.8593ZM166.324 41.1205C165.838 41.1441 165.4 41.0807 165.011 40.9303C164.622 40.7766 164.308 40.538 164.07 40.2143C163.836 39.8873 163.706 39.4721 163.682 38.9689C163.661 38.5452 163.722 38.1855 163.863 37.89C164.005 37.5944 164.206 37.3524 164.465 37.164C164.725 36.9755 165.023 36.8283 165.36 36.7224C165.7 36.6164 166.057 36.536 166.433 36.4813C166.874 36.4134 167.23 36.3531 167.499 36.3002C167.769 36.244 167.963 36.1715 168.081 36.0829C168.2 35.9942 168.255 35.8687 168.247 35.7065L168.246 35.6767C168.23 35.3622 168.119 35.1237 167.912 34.9612C167.709 34.7985 167.426 34.7259 167.066 34.7434C166.685 34.7618 166.386 34.8609 166.169 35.0407C165.952 35.2171 165.813 35.4329 165.752 35.688L163.788 35.6239C163.865 35.1556 164.041 34.7456 164.316 34.3938C164.591 34.0387 164.954 33.759 165.405 33.5546C165.86 33.3467 166.392 33.228 167.001 33.1985C167.424 33.178 167.832 33.208 168.224 33.2885C168.62 33.3689 168.973 33.5061 169.285 33.7001C169.599 33.8939 169.852 34.1504 170.044 34.4696C170.235 34.7856 170.341 35.1703 170.363 35.6238L170.613 40.7684L168.607 40.8656L168.555 39.8079L168.496 39.8108C168.385 40.0551 168.231 40.2732 168.035 40.4652C167.838 40.654 167.598 40.8066 167.315 40.9232C167.032 41.0365 166.702 41.1022 166.324 41.1205ZM166.859 39.6312C167.171 39.6161 167.442 39.5416 167.675 39.4076C167.907 39.2702 168.086 39.0923 168.211 38.8739C168.337 38.6554 168.393 38.4121 168.38 38.1439L168.341 37.3345C168.277 37.3808 168.188 37.4249 168.074 37.4669C167.963 37.5055 167.837 37.5431 167.696 37.5798C167.555 37.6132 167.414 37.6449 167.272 37.675C167.131 37.7018 167.003 37.7262 166.888 37.7484C166.641 37.7968 166.427 37.8653 166.246 37.9537C166.064 38.0422 165.925 38.1567 165.829 38.2974C165.733 38.4348 165.69 38.6028 165.699 38.8015C165.713 39.0895 165.828 39.3046 166.044 39.4468C166.263 39.5855 166.535 39.6469 166.859 39.6312ZM172.393 43.5491L171.884 33.0614L173.97 32.9604L174.032 34.2415L174.126 34.237C174.209 34.0272 174.333 33.8122 174.498 33.5918C174.667 33.3679 174.89 33.1779 175.167 33.0218C175.448 32.8622 175.802 32.772 176.23 32.7513C176.786 32.7244 177.306 32.8452 177.79 33.1137C178.274 33.3789 178.671 33.7961 178.981 34.3651C179.29 34.9308 179.466 35.6506 179.508 36.5246C179.55 37.3754 179.447 38.1004 179.201 38.6997C178.957 39.2955 178.608 39.7554 178.153 40.0795C177.7 40.4 177.184 40.5744 176.605 40.6024C176.194 40.6223 175.842 40.5714 175.547 40.4496C175.256 40.3277 175.014 40.1685 174.822 39.9721C174.63 39.7723 174.481 39.5688 174.375 39.3616L174.31 39.3648L174.508 43.4466L172.393 43.5491ZM174.14 36.7748C174.162 37.2283 174.244 37.6209 174.386 37.9525C174.528 38.284 174.723 38.5384 174.971 38.7156C175.218 38.8894 175.512 38.968 175.853 38.9515C176.197 38.9348 176.484 38.8264 176.713 38.6261C176.942 38.4226 177.11 38.149 177.216 37.8054C177.325 37.4583 177.369 37.063 177.348 36.6193C177.326 36.179 177.246 35.7947 177.108 35.4663C176.969 35.1378 176.776 34.885 176.528 34.7079C176.281 34.5307 175.983 34.4506 175.636 34.4674C175.291 34.4841 175.005 34.5893 174.775 34.7829C174.549 34.9764 174.381 35.2433 174.271 35.5838C174.162 35.9243 174.118 36.3213 174.14 36.7748ZM181.242 43.1203L180.733 32.6326L182.819 32.5316L182.881 33.8127L182.975 33.8082C183.058 33.5984 183.182 33.3834 183.347 33.163C183.516 32.9391 183.739 32.7491 184.016 32.593C184.297 32.4334 184.651 32.3432 185.079 32.3225C185.635 32.2956 186.155 32.4164 186.639 32.6849C187.123 32.9501 187.52 33.3673 187.83 33.9363C188.139 34.502 188.315 35.2218 188.357 36.0958C188.399 36.9466 188.296 37.6716 188.05 38.2709C187.806 38.8667 187.457 39.3266 187.001 39.6507C186.549 39.9712 186.033 40.1456 185.454 40.1736C185.043 40.1935 184.691 40.1426 184.396 40.0208C184.105 39.8989 183.863 39.7397 183.671 39.5433C183.479 39.3435 183.33 39.14 183.224 38.9328L183.159 38.936L183.357 43.0178L181.242 43.1203ZM182.989 36.346C183.011 36.7995 183.093 37.1921 183.235 37.5237C183.377 37.8552 183.572 38.1096 183.82 38.2868C184.067 38.4606 184.361 38.5392 184.702 38.5227C185.046 38.506 185.333 38.3976 185.562 38.1973C185.791 37.9938 185.959 37.7202 186.065 37.3766C186.174 37.0295 186.218 36.6342 186.197 36.1905C186.175 35.7502 186.095 35.3659 185.957 35.0375C185.818 34.709 185.625 34.4562 185.377 34.2791C185.13 34.1019 184.832 34.0218 184.485 34.0386C184.14 34.0553 183.854 34.1605 183.624 34.3541C183.398 34.5476 183.23 34.8145 183.12 35.155C183.011 35.4955 182.967 35.8925 182.989 36.346ZM191.575 29.5588L192.067 39.7287L189.952 39.8312L189.459 29.6614L191.575 29.5588ZM193.762 39.6466L193.392 32.0192L195.508 31.9167L195.877 39.5441L193.762 39.6466ZM194.407 30.9845C194.093 30.9997 193.818 30.9085 193.583 30.7109C193.351 30.5097 193.227 30.2619 193.213 29.9672C193.199 29.6759 193.298 29.4206 193.51 29.2013C193.724 28.9785 193.989 28.8595 194.304 28.8442C194.618 28.829 194.891 28.9219 195.123 29.1231C195.359 29.3207 195.483 29.5652 195.497 29.8565C195.512 30.1512 195.411 30.4099 195.197 30.6327C194.985 30.852 194.722 30.9692 194.407 30.9845ZM201.025 39.444C200.244 39.4818 199.564 39.3489 198.985 39.0451C198.409 38.7378 197.957 38.2952 197.627 37.7172C197.3 37.1391 197.118 36.4644 197.081 35.693C197.043 34.9117 197.16 34.2191 197.433 33.6153C197.709 33.0079 198.118 32.5252 198.662 32.167C199.205 31.8056 199.862 31.6061 200.634 31.5688C201.299 31.5365 201.888 31.6291 202.399 31.8465C202.911 32.064 203.323 32.3842 203.635 32.807C203.948 33.2299 204.133 33.7352 204.192 34.3231L202.195 34.4198C202.121 34.0418 201.957 33.7428 201.704 33.5228C201.454 33.2993 201.136 33.1969 200.748 33.2157C200.421 33.2316 200.139 33.3348 199.902 33.5255C199.669 33.7126 199.493 33.9784 199.374 34.3226C199.254 34.6669 199.206 35.079 199.229 35.559C199.253 36.0457 199.339 36.4563 199.488 36.7908C199.64 37.1252 199.843 37.3759 200.097 37.5428C200.351 37.7097 200.641 37.7852 200.969 37.7693C201.211 37.7576 201.425 37.6974 201.612 37.5888C201.803 37.48 201.956 37.3282 202.073 37.1334C202.193 36.9352 202.266 36.701 202.293 36.4309L204.289 36.3342C204.284 36.9185 204.15 37.4393 203.887 37.8967C203.627 38.3506 203.255 38.7138 202.77 38.9861C202.286 39.2585 201.704 39.4111 201.025 39.444ZM207.961 39.1029C207.474 39.1265 207.037 39.0631 206.648 38.9127C206.259 38.759 205.945 38.5203 205.707 38.1967C205.472 37.8696 205.343 37.4545 205.318 36.9513C205.298 36.5276 205.358 36.1679 205.5 35.8724C205.642 35.5768 205.842 35.3348 206.102 35.1464C206.362 34.9579 206.66 34.8107 206.996 34.7048C207.336 34.5987 207.694 34.5184 208.07 34.4637C208.511 34.3958 208.867 34.3355 209.136 34.2826C209.405 34.2264 209.599 34.1539 209.718 34.0652C209.836 33.9765 209.892 33.8511 209.884 33.6889L209.882 33.6591C209.867 33.3446 209.756 33.1061 209.549 32.9435C209.345 32.7809 209.063 32.7083 208.702 32.7258C208.322 32.7442 208.023 32.8433 207.806 33.023C207.589 33.1995 207.45 33.4153 207.389 33.6704L205.425 33.6063C205.502 33.138 205.678 32.728 205.953 32.3762C206.227 32.0211 206.591 31.7413 207.042 31.537C207.496 31.3291 208.028 31.2104 208.637 31.1809C209.061 31.1604 209.469 31.1904 209.861 31.2709C210.257 31.3513 210.61 31.4885 210.921 31.6825C211.236 31.8763 211.489 32.1328 211.68 32.452C211.872 32.768 211.978 33.1527 212 33.6062L212.249 38.7508L210.243 38.848L210.192 37.7903L210.132 37.7932C210.021 38.0374 209.868 38.2556 209.671 38.4476C209.475 38.6363 209.235 38.789 208.952 38.9056C208.669 39.0188 208.338 39.0846 207.961 39.1029ZM208.496 37.6136C208.807 37.5985 209.079 37.524 209.312 37.3899C209.544 37.2526 209.723 37.0747 209.848 36.8562C209.974 36.6378 210.03 36.3945 210.017 36.1263L209.978 35.3169C209.913 35.3632 209.824 35.4073 209.71 35.4493C209.599 35.4879 209.473 35.5255 209.332 35.5622C209.191 35.5956 209.05 35.6273 208.909 35.6574C208.768 35.6842 208.639 35.7086 208.524 35.7308C208.278 35.7792 208.064 35.8477 207.882 35.9361C207.701 36.0245 207.562 36.1391 207.466 36.2798C207.37 36.4172 207.326 36.5852 207.336 36.7839C207.35 37.0719 207.465 37.287 207.681 37.4291C207.9 37.5678 208.172 37.6293 208.496 37.6136ZM217.578 30.8472L217.655 32.4363L213.062 32.6588L212.985 31.0698L217.578 30.8472ZM213.939 29.1919L216.054 29.0894L216.399 36.2003C216.408 36.3957 216.446 36.5465 216.51 36.6529C216.575 36.7559 216.662 36.8264 216.77 36.8643C216.881 36.902 217.008 36.9174 217.15 36.9106C217.249 36.9057 217.348 36.8926 217.447 36.8713C217.545 36.8466 217.621 36.828 217.673 36.8155L218.082 38.3735C217.978 38.4118 217.831 38.4571 217.641 38.5094C217.451 38.5651 217.219 38.6045 216.945 38.6278C216.436 38.6723 215.986 38.6261 215.594 38.4891C215.206 38.352 214.898 38.1247 214.67 37.8072C214.442 37.4897 214.318 37.081 214.297 36.5809L213.939 29.1919ZM219.326 38.4079L218.956 30.7804L221.071 30.6779L221.441 38.3054L219.326 38.4079ZM219.971 29.7457C219.657 29.761 219.382 29.6698 219.146 29.4721C218.914 29.271 218.791 29.0231 218.777 28.7285C218.763 28.4371 218.862 28.1818 219.073 27.9625C219.288 27.7397 219.553 27.6207 219.867 27.6055C220.182 27.5902 220.455 27.6832 220.687 27.8843C220.922 28.082 221.047 28.3265 221.061 28.6178C221.075 28.9124 220.975 29.1711 220.76 29.3939C220.549 29.6132 220.286 29.7305 219.971 29.7457ZM226.589 38.2052C225.818 38.2426 225.143 38.111 224.564 37.8106C223.989 37.5066 223.534 37.0674 223.201 36.4929C222.868 35.9151 222.682 35.2355 222.644 34.4542C222.606 33.6663 222.725 32.9704 223.001 32.3663C223.277 31.759 223.687 31.2779 224.23 30.9231C224.777 30.5647 225.436 30.3669 226.207 30.3295C226.979 30.2921 227.652 30.4254 228.228 30.7294C228.806 31.0298 229.262 31.469 229.596 32.0468C229.929 32.6213 230.114 33.3025 230.153 34.0904C230.19 34.8717 230.071 35.566 229.796 36.1733C229.52 36.7774 229.108 37.2585 228.561 37.6169C228.018 37.9717 227.36 38.1678 226.589 38.2052ZM226.52 36.566C226.871 36.549 227.159 36.4355 227.384 36.2255C227.609 36.0122 227.773 35.7288 227.875 35.3754C227.981 35.0219 228.023 34.6233 228.002 34.1797C227.98 33.7361 227.9 33.3435 227.76 33.0018C227.624 32.66 227.434 32.3938 227.189 32.2032C226.944 32.0127 226.646 31.9259 226.296 31.9429C225.941 31.9601 225.648 32.0755 225.416 32.2891C225.188 32.5026 225.021 32.7861 224.915 33.1397C224.813 33.4931 224.772 33.8915 224.794 34.3352C224.815 34.7788 224.894 35.1715 225.03 35.5133C225.169 35.855 225.363 36.121 225.611 36.3114C225.863 36.4983 226.165 36.5832 226.52 36.566ZM233.613 33.2956L233.827 37.7052L231.711 37.8077L231.342 30.1803L233.358 30.0826L233.423 31.4283L233.513 31.424C233.66 30.9722 233.926 30.6075 234.311 30.3301C234.695 30.0493 235.171 29.8952 235.737 29.8677C236.266 29.8421 236.734 29.9356 237.139 30.1482C237.544 30.3609 237.866 30.6771 238.106 31.0969C238.345 31.5133 238.479 32.0178 238.508 32.6104L238.743 37.4669L236.628 37.5695L236.411 33.0903C236.391 32.6234 236.254 32.265 236 32.0152C235.746 31.7621 235.406 31.6458 234.983 31.6663C234.698 31.6801 234.449 31.7535 234.237 31.8866C234.028 32.0195 233.867 32.2065 233.756 32.4474C233.648 32.685 233.601 32.9677 233.613 33.2956ZM246.492 31.6262L244.561 31.8392C244.52 31.6753 244.442 31.5298 244.326 31.4027C244.21 31.2722 244.061 31.1716 243.879 31.1008C243.699 31.0266 243.487 30.9954 243.242 31.0072C242.914 31.0231 242.641 31.106 242.423 31.256C242.204 31.4026 242.1 31.5902 242.112 31.8186C242.12 32.0007 242.201 32.1511 242.352 32.2698C242.504 32.3886 242.759 32.4774 243.117 32.5364L244.511 32.7476C245.26 32.8639 245.825 33.0821 246.205 33.4021C246.586 33.7222 246.789 34.157 246.816 34.7065C246.84 35.2064 246.714 35.6522 246.438 36.0438C246.165 36.4354 245.778 36.7494 245.279 36.986C244.782 37.2191 244.203 37.3517 243.541 37.3838C242.531 37.4327 241.717 37.2615 241.097 36.8701C240.481 36.4752 240.103 35.9161 239.966 35.1927L242.041 34.9827C242.119 35.2875 242.282 35.5152 242.532 35.6657C242.781 35.8129 243.095 35.8773 243.472 35.859C243.843 35.8411 244.137 35.7555 244.356 35.6022C244.577 35.4455 244.684 35.2528 244.676 35.0242C244.663 34.8324 244.575 34.6791 244.41 34.5643C244.245 34.4462 243.995 34.362 243.661 34.3119L242.327 34.1127C241.575 33.9998 241.008 33.7685 240.626 33.4186C240.248 33.0687 240.044 32.609 240.017 32.0396C239.993 31.5496 240.105 31.1211 240.353 30.754C240.604 30.3868 240.966 30.0955 241.44 29.8801C241.918 29.6645 242.482 29.5409 243.134 29.5093C244.098 29.4626 244.866 29.6294 245.438 30.0099C246.014 30.3901 246.366 30.9289 246.492 31.6262Z" fill="#F3765F"/>
<path d="M45.6172 74.1917L45.1244 64.0219L49.1367 63.8274C49.9081 63.79 50.5723 63.9055 51.1295 64.1738C51.6866 64.4389 52.12 64.8243 52.4299 65.3303C52.743 65.8328 52.9159 66.4217 52.9486 67.097C52.9813 67.7724 52.8645 68.3753 52.5982 68.9059C52.3319 69.4364 51.9293 69.8591 51.3904 70.1739C50.8548 70.4886 50.1964 70.6648 49.4151 70.7027L46.8577 70.8266L46.7743 69.1035L48.984 68.9964C49.3978 68.9764 49.7354 68.8887 49.9966 68.7333C50.261 68.5745 50.4533 68.3644 50.5733 68.1031C50.6965 67.8383 50.75 67.5387 50.7338 67.2044C50.7175 66.8667 50.6353 66.5753 50.4874 66.3303C50.3426 66.0818 50.1312 65.8946 49.853 65.7688C49.5746 65.6396 49.2269 65.5851 48.8097 65.6053L47.3597 65.6755L47.7674 74.0875L45.6172 74.1917ZM57.9618 73.7429C57.1905 73.7802 56.5155 73.6487 55.9368 73.3482C55.3613 73.0443 54.907 72.6051 54.5739 72.0306C54.2406 71.4527 54.055 70.7732 54.0171 69.9919C53.979 69.204 54.0979 68.508 54.3739 67.904C54.6497 67.2967 55.0595 66.8156 55.6031 66.4607C56.1498 66.1024 56.8089 65.9045 57.5802 65.8672C58.3516 65.8298 59.025 65.9631 59.6005 66.267C60.1792 66.5675 60.6351 67.0066 60.9684 67.5844C61.3016 68.159 61.4872 68.8402 61.5254 69.6281C61.5632 70.4093 61.4442 71.1037 61.1684 71.711C60.8924 72.315 60.481 72.7962 59.9343 73.1545C59.3907 73.5094 58.7332 73.7055 57.9618 73.7429ZM57.8924 72.1037C58.2433 72.0867 58.5314 71.9732 58.7569 71.7631C58.9821 71.5498 59.1459 71.2665 59.2483 70.9131C59.3539 70.5595 59.396 70.161 59.3745 69.7174C59.353 69.2738 59.2726 68.8811 59.1332 68.5394C58.9972 68.1976 58.8068 67.9314 58.562 67.7409C58.3171 67.5503 58.0193 67.4636 57.6683 67.4806C57.3141 67.4977 57.0211 67.6131 56.7892 67.8268C56.5606 68.0403 56.3935 68.3238 56.2879 68.6773C56.1855 69.0307 56.1451 69.4292 56.1666 69.8728C56.1881 70.3164 56.2669 70.7091 56.4029 71.051C56.5422 71.3926 56.7359 71.6587 56.9841 71.8491C57.2354 72.036 57.5381 72.1208 57.8924 72.1037ZM63.0843 73.3453L62.7147 65.7179L64.8301 65.6154L65.1997 73.2428L63.0843 73.3453ZM63.7297 64.6832C63.4152 64.6984 63.1403 64.6072 62.9051 64.4096C62.673 64.2084 62.5499 63.9606 62.5356 63.6659C62.5215 63.3746 62.6203 63.1193 62.8319 62.9C63.0468 62.6772 63.3115 62.5582 63.626 62.543C63.9405 62.5277 64.2138 62.6207 64.4458 62.8218C64.681 63.0194 64.8057 63.2639 64.8198 63.5552C64.8341 63.8499 64.7338 64.1086 64.519 64.3314C64.3073 64.5507 64.0442 64.668 63.7297 64.6832ZM69.7109 73.1487C69.1315 73.1767 68.5996 73.0532 68.1151 72.778C67.6337 72.4994 67.2415 72.0754 66.9385 71.5061C66.6386 70.9332 66.4681 70.2214 66.4269 69.3706C66.3845 68.4967 66.49 67.7632 66.7433 67.1702C66.9965 66.5739 67.3495 66.1205 67.8023 65.8098C68.2583 65.4957 68.766 65.3251 69.3255 65.298C69.7525 65.2773 70.1119 65.3329 70.4037 65.4648C70.6986 65.5932 70.939 65.7607 71.1249 65.9674C71.3139 66.1706 71.4598 66.3726 71.5624 66.5733L71.627 66.5702L71.4417 62.7466L73.5521 62.6443L74.0449 72.8142L71.9593 72.9153L71.9001 71.6937L71.8107 71.698C71.7217 71.9147 71.5912 72.1317 71.4192 72.3491C71.2504 72.563 71.0253 72.7448 70.7438 72.8945C70.4657 73.044 70.1214 73.1288 69.7109 73.1487ZM70.2997 71.4328C70.6407 71.4162 70.9242 71.3096 71.1502 71.1128C71.3795 70.9126 71.5488 70.6406 71.6582 70.2968C71.771 69.9529 71.8164 69.5541 71.7944 69.1006C71.7724 68.6471 71.6904 68.2561 71.5484 67.9279C71.4064 67.5996 71.2118 67.3502 70.9646 67.1797C70.7175 67.0092 70.4234 66.9322 70.0824 66.9487C69.7348 66.9655 69.4464 67.0741 69.2172 67.2743C68.988 67.4746 68.8202 67.7448 68.7139 68.0851C68.6076 68.4254 68.5652 68.8157 68.5865 69.256C68.608 69.6996 68.6882 70.089 68.8273 70.424C68.9694 70.7556 69.1627 71.0117 69.407 71.1923C69.6545 71.3695 69.9521 71.4496 70.2997 71.4328ZM81.8662 66.97L79.9354 67.183C79.8942 67.0191 79.8158 66.8736 79.7002 66.7464C79.5844 66.616 79.4351 66.5154 79.2525 66.4446C79.073 66.3703 78.8608 66.3391 78.6158 66.351C78.2881 66.3669 78.015 66.4498 77.7967 66.5998C77.5781 66.7464 77.4744 66.9339 77.4855 67.1624C77.4943 67.3444 77.5746 67.4948 77.7263 67.6136C77.8781 67.7323 78.1329 67.8212 78.4908 67.8802L79.8848 68.0913C80.6337 68.2077 81.1985 68.4259 81.579 68.7459C81.9595 69.0659 82.1631 69.5007 82.1897 70.0503C82.2139 70.5502 82.0879 70.9959 81.8115 71.3876C81.5385 71.7791 81.1522 72.0932 80.6526 72.3297C80.1562 72.5629 79.577 72.6955 78.9149 72.7275C77.9052 72.7765 77.0905 72.6052 76.471 72.2138C75.8545 71.819 75.4774 71.2599 75.3394 70.5365L77.4148 70.3264C77.4926 70.6313 77.6563 70.8589 77.9058 71.0094C78.1552 71.1566 78.4686 71.2211 78.846 71.2028C79.2168 71.1848 79.5112 71.0992 79.7295 70.946C79.9508 70.7892 80.0576 70.5966 80.0499 70.368C80.0373 70.1761 79.9485 70.0228 79.7837 69.908C79.6187 69.7899 79.3691 69.7058 79.0348 69.6556L77.7012 69.4565C76.9491 69.3436 76.3821 69.1122 76.0001 68.7624C75.6214 68.4124 75.4183 67.9527 75.3907 67.3833C75.367 66.8934 75.4789 66.4649 75.7266 66.0978C75.9776 65.7306 76.3401 65.4393 76.8142 65.2238C77.2915 65.0082 77.8562 64.8846 78.5084 64.853C79.4718 64.8064 80.2397 64.9732 80.8123 65.3536C81.3882 65.7339 81.7395 66.2726 81.8662 66.97ZM89.6894 72.1805C89.11 72.2086 88.5781 72.0851 88.0936 71.8099C87.6122 71.5313 87.22 71.1073 86.917 70.5379C86.6171 69.9651 86.4466 69.2533 86.4054 68.4025C86.363 67.5286 86.4685 66.7951 86.7218 66.2021C86.975 65.6058 87.328 65.1524 87.7808 64.8417C88.2368 64.5276 88.7445 64.357 89.304 64.3299C89.731 64.3092 90.0905 64.3648 90.3822 64.4967C90.6771 64.6251 90.9175 64.7926 91.1034 64.9993C91.2924 65.2025 91.4383 65.4045 91.5409 65.6052L91.6055 65.6021L91.4202 61.7785L93.5306 61.6762L94.0235 71.8461L91.9378 71.9472L91.8786 70.7256L91.7893 70.7299C91.7002 70.9466 91.5697 71.1636 91.3977 71.381C91.2289 71.5949 91.0038 71.7767 90.7223 71.9264C90.4442 72.0759 90.0999 72.1606 89.6894 72.1805ZM90.2782 70.4647C90.6192 70.4481 90.9027 70.3415 91.1288 70.1447C91.358 69.9445 91.5273 69.6725 91.6367 69.3287C91.7495 68.9848 91.7949 68.586 91.7729 68.1325C91.7509 67.6789 91.6689 67.288 91.5269 66.9598C91.3849 66.6315 91.1903 66.3821 90.9431 66.2116C90.696 66.0411 90.4019 65.9641 90.0609 65.9806C89.7133 65.9974 89.4249 66.106 89.1957 66.3062C88.9665 66.5065 88.7987 66.7767 88.6924 67.117C88.5861 67.4573 88.5437 67.8476 88.565 68.2879C88.5865 68.7315 88.6668 69.1209 88.8058 69.4559C88.9479 69.7875 89.1412 70.0436 89.3855 70.2242C89.633 70.4014 89.9306 70.4815 90.2782 70.4647ZM99.246 71.7423C98.4614 71.7804 97.7783 71.6542 97.1968 71.3638C96.6185 71.07 96.1628 70.6374 95.8299 70.0662C95.4967 69.4917 95.3107 68.8022 95.2717 67.9978C95.2337 67.2132 95.3526 66.5172 95.6285 65.9099C95.9043 65.3025 96.3106 64.82 96.8475 64.4621C97.3876 64.1041 98.0317 63.907 98.7799 63.8707C99.2831 63.8463 99.7555 63.9048 100.197 64.046C100.642 64.1837 101.034 64.4052 101.374 64.7106C101.717 65.0159 101.992 65.4074 102.197 65.8852C102.403 66.3597 102.521 66.9214 102.553 67.5703L102.581 68.1513L96.1404 68.4634L96.0769 67.1524L100.526 66.9368C100.511 66.6322 100.432 66.3657 100.288 66.137C100.145 65.9084 99.9519 65.7336 99.7105 65.6125C99.4722 65.488 99.1991 65.4332 98.8912 65.4482C98.5701 65.4637 98.289 65.552 98.0479 65.713C97.81 65.8705 97.6275 66.0768 97.5005 66.3318C97.3733 66.5836 97.3154 66.8601 97.3267 67.1615L97.3871 68.4079C97.4054 68.7853 97.4907 69.1081 97.6431 69.3761C97.7987 69.644 98.0093 69.8461 98.2747 69.9826C98.5401 70.1191 98.85 70.1787 99.2042 70.1615C99.4392 70.1502 99.6528 70.1066 99.8449 70.0309C100.037 69.9553 100.199 69.8479 100.332 69.7087C100.465 69.5695 100.563 69.4022 100.626 69.2067L102.589 69.241C102.513 69.7159 102.329 70.1362 102.038 70.5021C101.75 70.8644 101.369 71.155 100.896 71.3737C100.425 71.589 99.875 71.7119 99.246 71.7423ZM53.1416 83.2017L50.8446 90.9584L48.4611 91.0739L45.4248 83.5757L47.6594 83.4674L49.508 88.848L49.5874 88.8442L50.9021 83.3103L53.1416 83.2017ZM57.8014 90.7706C57.0301 90.808 56.3551 90.6764 55.7764 90.376C55.2009 90.072 54.7466 89.6328 54.4134 89.0583C54.0802 88.4804 53.8946 87.8009 53.8567 87.0196C53.8186 86.2317 53.9375 85.5358 54.2135 84.9317C54.4893 84.3244 54.8991 83.8433 55.4427 83.4884C55.9894 83.1301 56.6484 82.9323 57.4198 82.8949C58.1911 82.8575 58.8646 82.9908 59.4401 83.2947C60.0188 83.5952 60.4747 84.0343 60.808 84.6122C61.1411 85.1867 61.3268 85.8679 61.365 86.6558C61.4028 87.4371 61.2838 88.1314 61.008 88.7387C60.732 89.3427 60.3206 89.8239 59.7738 90.1822C59.2303 90.5371 58.5728 90.7332 57.8014 90.7706ZM57.732 89.1314C58.0829 89.1144 58.371 89.0009 58.5965 88.7909C58.8217 88.5775 58.9855 88.2942 59.0879 87.9408C59.1935 87.5873 59.2356 87.1887 59.2141 86.7451C59.1926 86.3015 59.1122 85.9088 58.9728 85.5672C58.8368 85.2253 58.6464 84.9591 58.4015 84.7686C58.1567 84.578 57.8588 84.4913 57.5079 84.5083C57.1537 84.5254 56.8607 84.6409 56.6288 84.8545C56.4002 85.068 56.2331 85.3515 56.1274 85.705C56.0251 86.0584 55.9847 86.4569 56.0062 86.9005C56.0277 87.3441 56.1064 87.7369 56.2425 88.0787C56.3818 88.4204 56.5755 88.6864 56.8237 88.8768C57.075 89.0637 57.3777 89.1486 57.732 89.1314ZM66.6113 82.549L66.6883 84.1381L62.0949 84.3607L62.0179 82.7716L66.6113 82.549ZM62.9722 80.8937L65.0876 80.7912L65.4322 87.9022C65.4417 88.0975 65.4788 88.2483 65.5437 88.3547C65.6084 88.4577 65.6948 88.5282 65.8028 88.5661C65.9142 88.6038 66.041 88.6193 66.1834 88.6124C66.2827 88.6076 66.3816 88.5945 66.4801 88.5731C66.5785 88.5484 66.6539 88.5298 66.7064 88.5173L67.1153 90.0754C67.011 90.1136 66.8639 90.1589 66.674 90.2112C66.4842 90.2669 66.2522 90.3063 65.9779 90.3296C65.469 90.3741 65.0188 90.3279 64.6273 90.191C64.239 90.0538 63.931 89.8265 63.7033 89.509C63.4755 89.1916 63.3512 88.7828 63.3303 88.2827L62.9722 80.8937ZM68.3589 90.1097L67.9893 82.4823L70.0401 82.3829L70.1046 83.7137L70.1841 83.7099C70.3002 83.2297 70.5162 82.8609 70.8323 82.6033C71.1481 82.3425 71.5196 82.2017 71.9467 82.181C72.0526 82.1759 72.1671 82.1769 72.2903 82.1843C72.4134 82.1916 72.5219 82.2046 72.6157 82.2232L72.7066 84.1003C72.6059 84.0753 72.4672 84.0555 72.2906 84.0408C72.114 84.0261 71.9529 84.0223 71.8073 84.0294C71.4961 84.0445 71.2213 84.1258 70.9829 84.2734C70.7476 84.4175 70.5646 84.6122 70.4338 84.8575C70.3063 85.1026 70.2501 85.3807 70.2652 85.6919L70.4743 90.0072L68.3589 90.1097ZM77.2089 89.8302C76.4243 89.8682 75.7412 89.742 75.1597 89.4516C74.5814 89.1578 74.1257 88.7252 73.7928 88.154C73.4597 87.5795 73.2736 86.89 73.2346 86.0856C73.1966 85.301 73.3155 84.605 73.5914 83.9977C73.8672 83.3904 74.2736 82.9078 74.8104 82.5499C75.3505 82.1919 75.9946 81.9948 76.7428 81.9585C77.246 81.9342 77.7184 81.9926 78.1599 82.1338C78.6046 82.2715 78.997 82.4931 79.3369 82.7985C79.6802 83.1037 79.9547 83.4952 80.1604 83.973C80.3659 84.4476 80.4844 85.0092 80.5158 85.6581L80.544 86.2391L74.1034 86.5512L74.0398 85.2402L78.4892 85.0246C78.4744 84.7201 78.3951 84.4535 78.2513 84.2248C78.1075 83.9962 77.9149 83.8214 77.6734 83.7003C77.4351 83.5758 77.162 83.521 76.8541 83.536C76.533 83.5515 76.2519 83.6398 76.0108 83.8008C75.7729 83.9583 75.5904 84.1646 75.4634 84.4197C75.3363 84.6714 75.2783 84.9479 75.2896 85.2494L75.35 86.4958C75.3683 86.8732 75.4536 87.1959 75.606 87.4639C75.7616 87.7318 75.9722 87.9339 76.2376 88.0704C76.5031 88.2069 76.8129 88.2665 77.1671 88.2494C77.4022 88.238 77.6157 88.1944 77.8079 88.1188C78 88.0431 78.1623 87.9357 78.295 87.7965C78.4276 87.6573 78.5257 87.49 78.5892 87.2945L80.552 87.3288C80.4754 87.8037 80.2917 88.224 80.0008 88.5899C79.7131 88.9522 79.3323 89.2428 78.8585 89.4615C78.3877 89.6768 77.8379 89.7997 77.2089 89.8302ZM88.7729 89.2698C87.9916 89.3076 87.3116 89.1747 86.7327 88.8709C86.1571 88.5637 85.7042 88.121 85.3743 87.5431C85.0476 86.9649 84.8656 86.2902 84.8282 85.5188C84.7903 84.7375 84.9078 84.045 85.1805 83.4411C85.4563 82.8338 85.866 82.351 86.4094 81.9928C86.9527 81.6314 87.61 81.4319 88.3813 81.3946C89.0467 81.3623 89.6353 81.4549 90.1468 81.6724C90.6584 81.8898 91.0705 82.21 91.383 82.6328C91.6955 83.0557 91.8809 83.5611 91.9393 84.1489L89.943 84.2456C89.8683 83.8676 89.7045 83.5686 89.4516 83.3486C89.2019 83.1251 88.8833 83.0227 88.496 83.0415C88.1682 83.0574 87.8862 83.1607 87.6499 83.3513C87.4167 83.5385 87.2405 83.8042 87.1211 84.1484C87.0017 84.4927 86.9537 84.9048 86.9769 85.3848C87.0005 85.8715 87.0868 86.2821 87.2357 86.6166C87.388 86.9511 87.5909 87.2017 87.8446 87.3686C88.0982 87.5355 88.3889 87.611 88.7166 87.5951C88.9583 87.5834 89.1727 87.5232 89.3599 87.4146C89.5504 87.3058 89.704 87.1541 89.8207 86.9593C89.9405 86.761 90.0138 86.5268 90.0405 86.2567L92.0367 86.16C92.0319 86.7443 91.8978 87.2651 91.6346 87.7225C91.3745 88.1764 91.0022 88.5396 90.5177 88.8119C90.0332 89.0843 89.4516 89.2369 88.7729 89.2698ZM95.4283 84.378L95.642 88.7876L93.5266 88.8901L93.0338 78.7202L95.0896 78.6206L95.278 82.5088L95.3674 82.5045C95.5178 82.0459 95.7788 81.6799 96.1504 81.4063C96.5219 81.1295 96.9973 80.9771 97.5767 80.949C98.1064 80.9233 98.5738 81.0168 98.979 81.2294C99.3873 81.4386 99.7112 81.7531 99.9505 82.1729C100.193 82.5892 100.327 83.0954 100.353 83.6914L100.588 88.5479L98.4725 88.6504L98.2555 84.1713C98.236 83.7011 98.0991 83.341 97.8448 83.0912C97.5937 82.8412 97.253 82.7267 96.8227 82.7475C96.5346 82.7615 96.2827 82.8351 96.0668 82.9683C95.8543 83.1014 95.6908 83.2885 95.5764 83.5296C95.4651 83.7673 95.4158 84.0501 95.4283 84.378ZM104.435 88.5059C103.948 88.5295 103.51 88.4661 103.121 88.3157C102.732 88.162 102.419 87.9233 102.181 87.5997C101.946 87.2726 101.816 86.8575 101.792 86.3543C101.771 85.9305 101.832 85.5709 101.974 85.2753C102.115 84.9798 102.316 84.7378 102.576 84.5493C102.835 84.3609 103.133 84.2137 103.47 84.1078C103.81 84.0017 104.168 83.9213 104.543 83.8666C104.985 83.7988 105.34 83.7384 105.61 83.6855C105.879 83.6294 106.073 83.5569 106.191 83.4682C106.31 83.3795 106.365 83.2541 106.357 83.0918L106.356 83.062C106.341 82.7475 106.23 82.509 106.023 82.3465C105.819 82.1838 105.537 82.1112 105.176 82.1287C104.795 82.1472 104.496 82.2463 104.279 82.426C104.062 82.6024 103.923 82.8182 103.863 83.0734L101.899 83.0093C101.975 82.541 102.151 82.1309 102.426 81.7791C102.701 81.424 103.064 81.1443 103.516 80.9399C103.97 80.7321 104.502 80.6134 105.111 80.5839C105.535 80.5634 105.943 80.5934 106.335 80.6739C106.73 80.7543 107.084 80.8915 107.395 81.0854C107.71 81.2792 107.963 81.5358 108.154 81.855C108.345 82.1709 108.452 82.5557 108.474 83.0092L108.723 88.1537L106.717 88.2509L106.666 87.1932L106.606 87.1961C106.495 87.4404 106.341 87.6586 106.145 87.8506C105.948 88.0393 105.709 88.192 105.426 88.3085C105.142 88.4218 104.812 88.4876 104.435 88.5059ZM104.97 87.0166C105.281 87.0015 105.553 86.9269 105.785 86.7929C106.017 86.6556 106.196 86.4777 106.322 86.2592C106.447 86.0408 106.503 85.7975 106.49 85.5293L106.451 84.7199C106.387 84.7661 106.298 84.8103 106.184 84.8523C106.073 84.8909 105.947 84.9285 105.806 84.9652C105.665 84.9986 105.524 85.0303 105.383 85.0604C105.241 85.0871 105.113 85.1116 104.998 85.1338C104.751 85.1822 104.537 85.2506 104.356 85.3391C104.174 85.4275 104.036 85.5421 103.94 85.6828C103.843 85.8202 103.8 85.9882 103.81 86.1868C103.824 86.4748 103.939 86.6899 104.154 86.8321C104.374 86.9708 104.645 87.0323 104.97 87.0166ZM114.052 80.2502L114.129 81.8392L109.535 82.0618L109.458 80.4728L114.052 80.2502ZM110.413 78.5948L112.528 78.4923L112.873 85.6033C112.882 85.7986 112.919 85.9495 112.984 86.0558C113.049 86.1589 113.135 86.2293 113.243 86.2673C113.355 86.305 113.481 86.3204 113.624 86.3135C113.723 86.3087 113.822 86.2956 113.921 86.2743C114.019 86.2496 114.094 86.231 114.147 86.2185L114.556 87.7765C114.451 87.8148 114.304 87.86 114.114 87.9124C113.925 87.968 113.693 88.0075 113.418 88.0307C112.909 88.0753 112.459 88.0291 112.068 87.8921C111.679 87.755 111.371 87.5277 111.144 87.2102C110.916 86.8927 110.792 86.4839 110.771 85.9839L110.413 78.5948Z" fill="#272427"/>
<rect width="43" height="20" transform="translate(78.3799 212.702) rotate(-2.77424)" fill="white"/>
<path d="M81.562 219.462L81.5071 218.33L88.2534 218.003L88.3083 219.136L85.5885 219.267L85.956 226.852L84.6451 226.916L84.2775 219.331L81.562 219.462ZM91.9405 226.694C91.2964 226.726 90.735 226.615 90.2563 226.362C89.7803 226.107 89.4038 225.734 89.1269 225.244C88.8527 224.751 88.6992 224.165 88.6664 223.487C88.6339 222.817 88.7302 222.221 88.9551 221.698C89.1829 221.175 89.5155 220.759 89.9527 220.451C90.3929 220.142 90.9166 219.973 91.5238 219.944C91.8927 219.926 92.2532 219.97 92.6053 220.075C92.9574 220.18 93.2774 220.357 93.5653 220.604C93.8532 220.852 94.0867 221.181 94.2658 221.59C94.4448 221.997 94.5486 222.497 94.5774 223.09L94.5992 223.541L89.4022 223.793L89.356 222.839L93.3059 222.648C93.2897 222.313 93.2072 222.02 93.0585 221.768C92.9096 221.514 92.7081 221.317 92.454 221.179C92.2026 221.04 91.9124 220.979 91.5832 220.995C91.2257 221.012 90.9178 221.115 90.6596 221.304C90.4041 221.49 90.2108 221.727 90.0797 222.015C89.9513 222.3 89.895 222.605 89.9108 222.932L89.9469 223.677C89.9681 224.114 90.0627 224.482 90.2308 224.781C90.4017 225.08 90.6301 225.303 90.9161 225.451C91.2018 225.597 91.5306 225.661 91.9023 225.643C92.1435 225.631 92.3618 225.586 92.5571 225.508C92.7523 225.428 92.9189 225.315 93.0569 225.168C93.1948 225.022 93.2972 224.845 93.3639 224.637L94.579 224.796C94.4997 225.155 94.3417 225.475 94.1049 225.753C93.8708 226.029 93.57 226.25 93.2026 226.416C92.8379 226.578 92.4172 226.671 91.9405 226.694ZM96.1511 226.358L95.8343 219.82L97.0559 219.761L97.1074 220.825L97.1883 220.821C97.3071 220.454 97.5162 220.163 97.8157 219.946C98.1151 219.727 98.4805 219.607 98.9118 219.586C99.3488 219.565 99.7198 219.649 100.025 219.839C100.333 220.029 100.566 220.299 100.725 220.65L100.793 220.647C100.933 220.29 101.167 220 101.498 219.776C101.828 219.55 102.229 219.425 102.7 219.402C103.293 219.374 103.786 219.536 104.178 219.89C104.574 220.243 104.79 220.794 104.826 221.543L105.038 225.928L103.766 225.989L103.559 221.724C103.538 221.282 103.401 220.967 103.151 220.78C102.9 220.593 102.607 220.508 102.272 220.524C101.858 220.544 101.542 220.687 101.325 220.954C101.107 221.217 101.008 221.548 101.027 221.945L101.229 226.112L99.9606 226.174L99.75 221.828C99.7328 221.473 99.6083 221.193 99.3765 220.988C99.1447 220.783 98.8515 220.69 98.4968 220.707C98.2556 220.718 98.0359 220.793 97.8378 220.931C97.6424 221.065 97.4877 221.248 97.3737 221.478C97.2626 221.708 97.2141 221.971 97.2284 222.266L97.4238 226.296L96.1511 226.358ZM106.863 228.297L106.427 219.307L107.67 219.247L107.722 220.307L107.828 220.302C107.895 220.162 107.994 219.999 108.124 219.814C108.255 219.628 108.44 219.463 108.68 219.317C108.921 219.169 109.244 219.085 109.65 219.066C110.177 219.04 110.655 219.151 111.082 219.397C111.509 219.644 111.853 220.013 112.113 220.503C112.375 220.994 112.524 221.593 112.558 222.299C112.592 223.006 112.504 223.617 112.293 224.134C112.082 224.648 111.777 225.051 111.379 225.343C110.98 225.632 110.517 225.79 109.989 225.816C109.592 225.835 109.264 225.784 109.005 225.663C108.749 225.541 108.546 225.395 108.395 225.223C108.244 225.051 108.127 224.898 108.044 224.762L107.968 224.766L108.136 228.235L106.863 228.297ZM107.833 222.516C107.855 222.975 107.941 223.375 108.091 223.715C108.242 224.054 108.448 224.316 108.71 224.5C108.972 224.68 109.286 224.762 109.652 224.744C110.032 224.726 110.345 224.609 110.59 224.396C110.836 224.179 111.015 223.893 111.129 223.538C111.246 223.182 111.293 222.786 111.272 222.349C111.251 221.918 111.167 221.533 111.02 221.196C110.876 220.859 110.669 220.598 110.402 220.411C110.137 220.225 109.813 220.141 109.43 220.16C109.061 220.178 108.753 220.288 108.507 220.49C108.264 220.693 108.085 220.967 107.971 221.314C107.857 221.661 107.811 222.062 107.833 222.516ZM118.801 220.307L117.658 220.568C117.602 220.422 117.519 220.286 117.407 220.157C117.299 220.029 117.155 219.926 116.974 219.85C116.794 219.773 116.572 219.741 116.309 219.754C115.948 219.772 115.651 219.867 115.418 220.04C115.184 220.211 115.074 220.423 115.086 220.675C115.097 220.894 115.186 221.066 115.354 221.191C115.522 221.317 115.789 221.413 116.153 221.481L117.203 221.669C117.812 221.779 118.27 221.971 118.58 222.246C118.889 222.522 119.054 222.89 119.077 223.353C119.096 223.745 118.999 224.099 118.787 224.417C118.578 224.731 118.276 224.985 117.881 225.177C117.489 225.37 117.03 225.479 116.502 225.504C115.77 225.54 115.165 225.413 114.687 225.123C114.209 224.83 113.904 224.397 113.771 223.823L114.992 223.577C115.084 223.893 115.253 224.128 115.5 224.281C115.746 224.432 116.061 224.497 116.444 224.479C116.861 224.459 117.19 224.356 117.431 224.171C117.673 223.983 117.787 223.762 117.775 223.51C117.765 223.306 117.68 223.138 117.52 223.006C117.363 222.874 117.126 222.781 116.811 222.725L115.692 222.536C115.076 222.426 114.614 222.227 114.307 221.937C114.003 221.648 113.839 221.27 113.817 220.805C113.798 220.419 113.889 220.076 114.091 219.776C114.293 219.476 114.58 219.236 114.952 219.056C115.324 218.873 115.756 218.77 116.247 218.746C116.953 218.712 117.517 218.838 117.938 219.125C118.358 219.409 118.646 219.803 118.801 220.307Z" fill="#D3D3D3"/>
</g>
<defs>
<filter id="filter0_d_370_4068" x="-0.944336" y="-0.944336" width="299.263" height="279.304" filterUnits="userSpaceOnUse" color-interpolation-filters="sRGB">
<feFlood flood-opacity="0" result="BackgroundImageFix"/>
<feColorMatrix in="SourceAlpha" type="matrix" values="0 0 0 0 0 0 0 0 0 0 0 0 0 0 0 0 0 0 127 0" result="hardAlpha"/>
<feOffset dy="4"/>
<feGaussianBlur stdDeviation="7"/>
<feComposite in2="hardAlpha" operator="out"/>
<feColorMatrix type="matrix" values="0 0 0 0 0 0 0 0 0 0 0 0 0 0 0 0 0 0 0.03 0"/>
<feBlend mode="normal" in2="BackgroundImageFix" result="effect1_dropShadow_370_4068"/>
<feBlend mode="normal" in="SourceGraphic" in2="effect1_dropShadow_370_4068" result="shape"/>
</filter>
<filter id="filter1_d_370_4068" x="175.47" y="115.84" width="99.418" height="62.3516" filterUnits="userSpaceOnUse" color-interpolation-filters="sRGB">
<feFlood flood-opacity="0" result="BackgroundImageFix"/>
<feColorMatrix in="SourceAlpha" type="matrix" values="0 0 0 0 0 0 0 0 0 0 0 0 0 0 0 0 0 0 127 0" result="hardAlpha"/>
<feOffset dy="4"/>
<feGaussianBlur stdDeviation="7"/>
<feComposite in2="hardAlpha" operator="out"/>
<feColorMatrix type="matrix" values="0 0 0 0 0.720252 0 0 0 0 0.720252 0 0 0 0 0.720252 0 0 0 0.3 0"/>
<feBlend mode="normal" in2="BackgroundImageFix" result="effect1_dropShadow_370_4068"/>
<feBlend mode="normal" in="SourceGraphic" in2="effect1_dropShadow_370_4068" result="shape"/>
</filter>
<linearGradient id="paint0_linear_370_4068" x1="155.602" y1="308.41" x2="146.829" y2="127.348" gradientUnits="userSpaceOnUse">
<stop stop-color="white" stop-opacity="0"/>
<stop offset="1" stop-color="#248112" stop-opacity="0.6"/>
</linearGradient>
</defs>
</svg>
