<svg width="298" height="278" viewBox="0 0 298 278" fill="none" xmlns="http://www.w3.org/2000/svg">
<g filter="url(#filter0_d_104_1086)">
<rect x="13.0557" y="21.6401" width="260" height="239" rx="20" transform="rotate(-2.77424 13.0557 21.6401)" fill="white"/>
<path d="M244.669 214.656L57.8881 223.707L52.4977 112.467C52.4977 112.467 99.4825 100.75 126.422 116.318C158.973 135.13 174.126 165.652 207.559 171.902C224.878 175.14 242.66 173.205 242.66 173.205L244.669 214.656Z" fill="url(#paint0_linear_104_1086)" fill-opacity="0.2" style="mix-blend-mode:hard-light"/>
<path d="M52.4922 112.338L57.9131 224.207L247.69 215.01" stroke="#E2E2E2" stroke-linecap="round"/>
<path d="M53.4908 112.289C53.4908 112.289 94.2609 96.2207 128.766 116.15C164.79 136.431 167.788 167.322 216.619 172.965C232.941 174.851 245.657 173.06 245.657 173.06" stroke="#4BA95E" stroke-width="5"/>
<circle cx="52.4677" cy="111.838" r="8" transform="rotate(-2.77424 52.4677 111.838)" fill="#4FA961"/>
<circle cx="245.633" cy="172.56" r="8" transform="rotate(-2.77424 245.633 172.56)" fill="#4FA961"/>
<circle cx="245.632" cy="172.56" r="4" transform="rotate(-2.77424 245.632 172.56)" fill="white"/>
<circle cx="52.4672" cy="111.838" r="4" transform="rotate(-2.77424 52.4672 111.838)" fill="white"/>
<circle cx="232.076" cy="58.0822" r="5" transform="rotate(-2.77424 232.076 58.0822)" fill="#F3765F"/>
<path d="M61.1728 126.195C61.1728 126.195 91.2784 179.3 95.5883 185.599C99.8982 191.898 115.655 200.946 123.837 179.725C132.02 158.504 136.971 121.277 145.677 103.579C159.804 74.8613 177.532 58.4839 229.592 58.4654" stroke="#F3765F" stroke-width="3" stroke-linecap="round" stroke-dasharray="11 11"/>
<g filter="url(#filter1_d_104_1086)">
<rect x="189.47" y="129.228" width="70" height="31" rx="11" transform="rotate(-2.77424 189.47 129.228)" fill="#4BA95E" shape-rendering="crispEdges"/>
<path d="M204.379 139.336L207.458 139.187L209.644 143.222L209.724 143.218L211.51 138.99L214.589 138.841L211.192 145.994L211.347 149.192L208.606 149.325L208.451 146.127L204.379 139.336ZM220.246 145.416L220.038 141.125L222.779 140.993L223.148 148.62L220.546 148.746L220.476 147.296L220.397 147.3C220.255 147.795 219.983 148.189 219.583 148.484C219.182 148.776 218.697 148.935 218.128 148.963C217.595 148.989 217.122 148.889 216.71 148.663C216.3 148.437 215.975 148.115 215.732 147.695C215.493 147.275 215.358 146.788 215.328 146.231L215.092 141.365L217.833 141.232L218.041 145.523C218.062 145.9 218.173 146.192 218.372 146.398C218.574 146.603 218.848 146.698 219.192 146.681C219.42 146.67 219.615 146.613 219.776 146.509C219.94 146.401 220.062 146.256 220.143 146.073C220.227 145.886 220.261 145.667 220.246 145.416ZM228.224 148.513C227.396 148.553 226.68 148.424 226.075 148.125C225.469 147.822 224.995 147.384 224.652 146.81C224.309 146.233 224.118 145.553 224.081 144.772C224.043 143.991 224.167 143.298 224.453 142.693C224.738 142.086 225.168 141.603 225.741 141.247C226.315 140.888 227.015 140.688 227.843 140.648C228.591 140.611 229.245 140.716 229.804 140.961C230.367 141.202 230.81 141.562 231.136 142.041C231.461 142.516 231.641 143.085 231.676 143.747L229.134 143.87C229.078 143.471 228.947 143.172 228.742 142.973C228.54 142.771 228.286 142.677 227.982 142.692C227.743 142.703 227.538 142.783 227.366 142.93C227.194 143.075 227.065 143.289 226.979 143.571C226.893 143.851 226.86 144.199 226.88 144.616C226.9 145.034 226.967 145.379 227.08 145.652C227.192 145.922 227.341 146.122 227.527 146.253C227.712 146.38 227.924 146.437 228.163 146.426C228.364 146.416 228.541 146.361 228.692 146.261C228.843 146.157 228.962 146.012 229.049 145.825C229.14 145.635 229.188 145.407 229.195 145.141L231.738 145.018C231.76 145.691 231.635 146.284 231.361 146.798C231.087 147.309 230.684 147.714 230.151 148.012C229.621 148.31 228.979 148.477 228.224 148.513ZM235.154 148.158C234.667 148.181 234.233 148.123 233.851 147.982C233.473 147.838 233.169 147.607 232.942 147.289C232.714 146.972 232.588 146.56 232.563 146.053C232.543 145.636 232.597 145.277 232.725 144.975C232.853 144.67 233.04 144.418 233.285 144.216C233.531 144.015 233.821 143.857 234.153 143.741C234.49 143.626 234.854 143.543 235.246 143.494C235.672 143.441 236.013 143.384 236.269 143.325C236.528 143.263 236.713 143.186 236.825 143.094C236.936 142.999 236.989 142.879 236.982 142.733L236.981 142.713C236.971 142.515 236.887 142.366 236.73 142.268C236.573 142.169 236.375 142.126 236.136 142.137C235.875 142.15 235.664 142.218 235.504 142.342C235.347 142.462 235.258 142.641 235.236 142.878L232.714 143C232.725 142.535 232.851 142.101 233.094 141.697C233.339 141.29 233.71 140.957 234.205 140.698C234.7 140.435 235.327 140.285 236.085 140.248C236.631 140.222 237.124 140.263 237.564 140.371C238.004 140.475 238.381 140.635 238.697 140.848C239.012 141.059 239.257 141.312 239.431 141.609C239.608 141.903 239.705 142.226 239.722 142.581L239.975 147.805L237.412 147.929L237.361 146.856L237.301 146.859C237.162 147.151 236.988 147.39 236.778 147.576C236.572 147.762 236.331 147.902 236.057 147.994C235.786 148.087 235.485 148.142 235.154 148.158ZM235.964 146.386C236.173 146.376 236.366 146.324 236.544 146.229C236.725 146.134 236.87 146.002 236.978 145.834C237.086 145.667 237.134 145.467 237.123 145.235L237.092 144.599C237.02 144.633 236.944 144.665 236.863 144.695C236.784 144.726 236.7 144.755 236.608 144.782C236.52 144.81 236.425 144.836 236.323 144.861C236.225 144.885 236.121 144.909 236.013 144.93C235.803 144.974 235.631 145.037 235.499 145.12C235.371 145.199 235.276 145.295 235.215 145.407C235.157 145.516 235.131 145.637 235.138 145.769C235.148 145.981 235.23 146.14 235.385 146.245C235.539 146.35 235.732 146.398 235.964 146.386ZM245.464 139.893L245.56 141.88L240.534 142.123L240.438 140.137L245.464 139.893ZM241.323 138.262L244.064 138.129L244.403 145.131C244.408 145.237 244.431 145.326 244.471 145.397C244.511 145.464 244.57 145.515 244.647 145.547C244.725 145.577 244.824 145.589 244.943 145.583C245.026 145.579 245.121 145.564 245.229 145.539C245.341 145.514 245.423 145.493 245.475 145.477L245.966 147.385C245.845 147.427 245.672 147.48 245.446 147.544C245.224 147.608 244.957 147.656 244.647 147.688C244.019 147.751 243.488 147.712 243.053 147.571C242.618 147.426 242.284 147.182 242.052 146.838C241.82 146.494 241.694 146.056 241.675 145.522L241.323 138.262Z" fill="white"/>
</g>
<path d="M168.511 36.042C168.565 37.151 168.4 38.1047 168.017 38.9031C167.638 39.7012 167.097 40.3231 166.396 40.7685C165.697 41.2105 164.899 41.4533 164.002 41.4968C163.098 41.5406 162.277 41.3746 161.539 40.9989C160.801 40.6232 160.204 40.0565 159.749 39.2987C159.294 38.541 159.04 37.6093 158.987 36.5035C158.933 35.3945 159.096 34.4409 159.475 33.6427C159.854 32.8446 160.394 32.2245 161.092 31.7825C161.791 31.3371 162.592 31.0926 163.496 31.0488C164.393 31.0053 165.21 31.1714 165.949 31.5471C166.69 31.9193 167.288 32.4843 167.743 33.2421C168.201 33.9997 168.457 34.933 168.511 36.042ZM166.331 36.1477C166.296 35.4293 166.159 34.8287 165.92 34.3458C165.684 33.8628 165.367 33.5033 164.967 33.2671C164.567 33.031 164.107 32.9255 163.588 32.9507C163.068 32.9759 162.621 33.1253 162.246 33.399C161.871 33.6727 161.588 34.0613 161.396 34.565C161.208 35.0686 161.132 35.6795 161.167 36.3979C161.201 37.1163 161.337 37.717 161.572 38.2C161.811 38.6828 162.131 39.0423 162.531 39.2784C162.93 39.5146 163.39 39.6201 163.91 39.5949C164.429 39.5697 164.877 39.4203 165.252 39.1466C165.627 38.8729 165.908 38.4843 166.096 37.9808C166.287 37.4771 166.366 36.866 166.331 36.1477ZM173.998 33.2277L174.075 34.8167L169.481 35.0393L169.404 33.4503L173.998 33.2277ZM170.359 31.5723L172.474 31.4698L172.819 38.5808C172.828 38.7761 172.865 38.927 172.93 39.0333C172.995 39.1364 173.081 39.2069 173.189 39.2448C173.301 39.2825 173.427 39.2979 173.57 39.291C173.669 39.2862 173.768 39.2731 173.867 39.2518C173.965 39.2271 174.04 39.2085 174.093 39.196L174.502 40.754C174.397 40.7923 174.25 40.8375 174.06 40.8899C173.871 40.9455 173.639 40.985 173.364 41.0082C172.855 41.0528 172.405 41.0066 172.014 40.8696C171.625 40.7325 171.317 40.5052 171.09 40.1877C170.862 39.8702 170.738 39.4614 170.717 38.9614L170.359 31.5723ZM177.811 36.2683L178.025 40.6779L175.909 40.7804L175.416 30.6105L177.472 30.5109L177.661 34.3991L177.75 34.3947C177.9 33.9362 178.161 33.5701 178.533 33.2966C178.905 33.0198 179.38 32.8673 179.959 32.8393C180.489 32.8136 180.956 32.9071 181.362 33.1197C181.77 33.3289 182.094 33.6434 182.333 34.0632C182.576 34.4795 182.71 34.9856 182.735 35.5817L182.971 40.4382L180.855 40.5407L180.638 36.0616C180.619 35.5914 180.482 35.2313 180.227 34.9815C179.976 34.7315 179.636 34.617 179.205 34.6378C178.917 34.6518 178.665 34.7254 178.449 34.8586C178.237 34.9917 178.073 35.1788 177.959 35.4199C177.848 35.6576 177.798 35.9404 177.811 36.2683ZM188.119 40.3381C187.334 40.3761 186.651 40.2499 186.069 39.9595C185.491 39.6657 185.035 39.2332 184.702 38.662C184.369 38.0875 184.183 37.398 184.144 36.5935C184.106 35.8089 184.225 35.113 184.501 34.5056C184.777 33.8983 185.183 33.4157 185.72 33.0579C186.26 32.6999 186.904 32.5027 187.653 32.4665C188.156 32.4421 188.628 32.5005 189.07 32.6417C189.514 32.7794 189.907 33.001 190.247 33.3064C190.59 33.6116 190.864 34.0032 191.07 34.481C191.276 34.9555 191.394 35.5172 191.425 36.166L191.454 36.747L185.013 37.0591L184.95 35.7482L189.399 35.5326C189.384 35.228 189.305 34.9614 189.161 34.7328C189.017 34.5041 188.825 34.3293 188.583 34.2083C188.345 34.0838 188.072 34.029 187.764 34.0439C187.443 34.0595 187.162 34.1477 186.921 34.3087C186.683 34.4663 186.5 34.6726 186.373 34.9276C186.246 35.1793 186.188 35.4559 186.199 35.7573L186.26 37.0037C186.278 37.3811 186.363 37.7038 186.516 37.9718C186.671 38.2397 186.882 38.4419 187.147 38.5783C187.413 38.7148 187.723 38.7744 188.077 38.7573C188.312 38.7459 188.525 38.7024 188.718 38.6267C188.91 38.551 189.072 38.4436 189.205 38.3044C189.337 38.1653 189.435 37.9979 189.499 37.8024L191.462 37.8367C191.385 38.3116 191.201 38.732 190.911 39.0978C190.623 39.4602 190.242 39.7507 189.768 39.9695C189.297 40.1847 188.748 40.3076 188.119 40.3381ZM192.993 39.9526L192.623 32.3252L194.674 32.2258L194.738 33.5566L194.818 33.5528C194.934 33.0726 195.15 32.7038 195.466 32.4462C195.782 32.1854 196.153 32.0446 196.58 32.0239C196.686 32.0188 196.801 32.0198 196.924 32.0271C197.047 32.0345 197.156 32.0474 197.249 32.0661L197.34 33.9432C197.24 33.9182 197.101 33.8984 196.924 33.8837C196.748 33.869 196.587 33.8652 196.441 33.8723C196.13 33.8874 195.855 33.9687 195.617 34.1163C195.381 34.2604 195.198 34.4551 195.068 34.7004C194.94 34.9455 194.884 35.2236 194.899 35.5348L195.108 39.8501L192.993 39.9526ZM204.133 39.5571C203.646 39.5807 203.208 39.5173 202.82 39.3669C202.431 39.2132 202.117 38.9745 201.879 38.6509C201.644 38.3238 201.515 37.9087 201.49 37.4055C201.47 36.9817 201.53 36.6221 201.672 36.3265C201.813 36.031 202.014 35.789 202.274 35.6005C202.533 35.4121 202.832 35.2649 203.168 35.159C203.508 35.0529 203.866 34.9725 204.242 34.9178C204.683 34.85 205.038 34.7896 205.308 34.7368C205.577 34.6806 205.771 34.6081 205.89 34.5194C206.008 34.4307 206.064 34.3053 206.056 34.143L206.054 34.1133C206.039 33.7988 205.928 33.5602 205.721 33.3977C205.517 33.235 205.235 33.1624 204.874 33.1799C204.493 33.1984 204.195 33.2975 203.978 33.4772C203.761 33.6537 203.622 33.8694 203.561 34.1246L201.597 34.0605C201.674 33.5922 201.85 33.1821 202.125 32.8304C202.399 32.4753 202.762 32.1955 203.214 31.9911C203.668 31.7833 204.2 31.6646 204.809 31.6351C205.233 31.6146 205.641 31.6446 206.033 31.7251C206.429 31.8055 206.782 31.9427 207.093 32.1366C207.408 32.3304 207.661 32.587 207.852 32.9062C208.043 33.2221 208.15 33.6069 208.172 34.0604L208.421 39.2049L206.415 39.3021L206.364 38.2444L206.304 38.2473C206.193 38.4916 206.04 38.7098 205.843 38.9018C205.647 39.0905 205.407 39.2432 205.124 39.3597C204.841 39.473 204.51 39.5388 204.133 39.5571ZM204.668 38.0678C204.979 38.0527 205.251 37.9782 205.483 37.8441C205.716 37.7068 205.895 37.5289 206.02 37.3104C206.145 37.092 206.202 36.8487 206.189 36.5805L206.149 35.7711C206.085 35.8173 205.996 35.8615 205.882 35.9035C205.771 35.9421 205.645 35.9797 205.504 36.0164C205.363 36.0498 205.222 36.0815 205.081 36.1116C204.94 36.1383 204.811 36.1628 204.696 36.185C204.45 36.2334 204.236 36.3018 204.054 36.3903C203.873 36.4787 203.734 36.5933 203.638 36.734C203.542 36.8714 203.498 37.0394 203.508 37.238C203.522 37.526 203.637 37.7411 203.853 37.8833C204.072 38.022 204.344 38.0835 204.668 38.0678ZM210.201 41.9857L209.693 31.498L211.779 31.3969L211.841 32.6781L211.935 32.6735C212.018 32.4638 212.142 32.2487 212.307 32.0283C212.475 31.8045 212.698 31.6145 212.976 31.4584C213.257 31.2987 213.611 31.2086 214.038 31.1879C214.594 31.1609 215.114 31.2817 215.599 31.5503C216.083 31.8155 216.48 32.2326 216.789 32.8017C217.099 33.3674 217.275 34.0872 217.317 34.9612C217.358 35.812 217.256 36.537 217.009 37.1363C216.766 37.7321 216.417 38.192 215.961 38.516C215.509 38.8366 214.993 39.0109 214.414 39.039C214.003 39.0589 213.651 39.008 213.356 38.8862C213.065 38.7642 212.823 38.6051 212.631 38.4086C212.439 38.2089 212.29 38.0054 212.183 37.7982L212.119 37.8013L212.317 41.8832L210.201 41.9857ZM211.948 35.2114C211.97 35.6649 212.052 36.0575 212.195 36.389C212.337 36.7206 212.532 36.975 212.779 37.1521C213.026 37.326 213.321 37.4046 213.662 37.3881C214.006 37.3714 214.293 37.2629 214.522 37.0627C214.751 36.8591 214.919 36.5856 215.025 36.2419C215.134 35.8949 215.178 35.4995 215.156 35.0559C215.135 34.6156 215.055 34.2313 214.916 33.9028C214.778 33.5744 214.584 33.3216 214.337 33.1445C214.089 32.9673 213.792 32.8872 213.444 32.904C213.1 32.9207 212.813 33.0258 212.584 33.2195C212.357 33.4129 212.189 33.6799 212.08 34.0204C211.97 34.3608 211.926 34.7578 211.948 35.2114ZM219.05 41.5569L218.542 31.0692L220.628 30.9681L220.69 32.2493L220.784 32.2447C220.867 32.035 220.991 31.8199 221.156 31.5995C221.324 31.3757 221.547 31.1857 221.825 31.0296C222.106 30.8699 222.46 30.7798 222.887 30.7591C223.443 30.7321 223.963 30.8529 224.448 31.1215C224.932 31.3867 225.329 31.8038 225.638 32.3729C225.948 32.9386 226.124 33.6584 226.166 34.5324C226.207 35.3832 226.105 36.1082 225.858 36.7075C225.615 37.3033 225.266 37.7632 224.81 38.0872C224.358 38.4078 223.842 38.5821 223.263 38.6102C222.852 38.6301 222.5 38.5792 222.205 38.4574C221.914 38.3354 221.672 38.1763 221.48 37.9798C221.288 37.7801 221.139 37.5766 221.032 37.3694L220.968 37.3725L221.166 41.4544L219.05 41.5569ZM220.797 34.7826C220.819 35.2361 220.901 35.6287 221.044 35.9602C221.186 36.2918 221.381 36.5462 221.628 36.7233C221.875 36.8972 222.17 36.9758 222.511 36.9593C222.855 36.9426 223.142 36.8341 223.371 36.6339C223.6 36.4303 223.768 36.1567 223.874 35.8131C223.983 35.4661 224.027 35.0707 224.005 34.6271C223.984 34.1868 223.904 33.8025 223.765 33.474C223.627 33.1456 223.433 32.8928 223.186 32.7157C222.938 32.5385 222.641 32.4584 222.293 32.4752C221.949 32.4919 221.662 32.597 221.433 32.7907C221.206 32.9841 221.038 33.2511 220.929 33.5916C220.819 33.932 220.775 34.329 220.797 34.7826ZM233.843 32.5079L231.912 32.7209C231.871 32.557 231.792 32.4115 231.676 32.2843C231.561 32.1539 231.411 32.0533 231.229 31.9825C231.049 31.9082 230.837 31.877 230.592 31.8889C230.264 31.9048 229.991 31.9877 229.773 32.1376C229.554 32.2843 229.451 32.4718 229.462 32.7002C229.471 32.8823 229.551 33.0327 229.703 33.1515C229.854 33.2702 230.109 33.3591 230.467 33.4181L231.861 33.6292C232.61 33.7456 233.175 33.9638 233.555 34.2838C233.936 34.6038 234.139 35.0386 234.166 35.5882C234.19 36.088 234.064 36.5338 233.788 36.9255C233.515 37.317 233.128 37.6311 232.629 37.8676C232.133 38.1007 231.553 38.2333 230.891 38.2654C229.881 38.3144 229.067 38.1431 228.447 37.7517C227.831 37.3568 227.454 36.7977 227.316 36.0744L229.391 35.8643C229.469 36.1692 229.633 36.3968 229.882 36.5473C230.131 36.6945 230.445 36.759 230.822 36.7407C231.193 36.7227 231.488 36.6371 231.706 36.4839C231.927 36.3271 232.034 36.1345 232.026 35.9059C232.014 35.714 231.925 35.5607 231.76 35.4459C231.595 35.3278 231.345 35.2437 231.011 35.1935L229.677 34.9943C228.925 34.8815 228.358 34.6501 227.976 34.3003C227.598 33.9503 227.395 33.4906 227.367 32.9212C227.343 32.4313 227.455 32.0027 227.703 31.6357C227.954 31.2685 228.316 30.9771 228.79 30.7617C229.268 30.5461 229.833 30.4225 230.485 30.3909C231.448 30.3442 232.216 30.5111 232.789 30.8915C233.365 31.2717 233.716 31.8105 233.843 32.5079Z" fill="#F3765F"/>
<path d="M50.2686 81.7161L48.0936 81.8215C48.0403 81.5421 47.947 81.2961 47.814 81.0835C47.6807 80.8676 47.5143 80.6865 47.3148 80.5403C47.1152 80.394 46.8877 80.2855 46.6321 80.215C46.3798 80.1442 46.1079 80.1159 45.8166 80.13C45.2902 80.1556 44.8381 80.3085 44.4601 80.589C44.082 80.8661 43.7974 81.2582 43.6062 81.7652C43.415 82.2689 43.3364 82.8733 43.3706 83.5785C43.4057 84.3035 43.5428 84.9074 43.7819 85.3902C44.0243 85.8729 44.3469 86.2306 44.7497 86.4633C45.1526 86.6959 45.6106 86.7998 46.1237 86.775C46.4117 86.761 46.6763 86.71 46.9176 86.622C47.1622 86.5338 47.377 86.4123 47.562 86.2573C47.7468 86.099 47.8969 85.9109 48.0124 85.6929C48.1313 85.4748 48.209 85.2288 48.2455 84.9549L50.421 84.8595C50.3873 85.329 50.2684 85.786 50.0643 86.2306C49.8634 86.6717 49.5825 87.0719 49.2216 87.4312C48.8639 87.787 48.4299 88.0768 47.9198 88.3006C47.4128 88.521 46.8333 88.6469 46.1811 88.6785C45.274 88.7225 44.453 88.5565 43.718 88.1807C42.9864 87.8047 42.3948 87.2377 41.9433 86.4798C41.4951 85.7217 41.2442 84.7898 41.1906 83.6841C41.1369 82.5751 41.2997 81.6215 41.6791 80.8233C42.0586 80.0251 42.5959 79.4051 43.2913 78.9633C43.9865 78.5181 44.781 78.2739 45.6748 78.2306C46.2641 78.202 46.8143 78.2583 47.3255 78.3994C47.8401 78.5404 48.3003 78.7604 48.7064 79.0592C49.1123 79.3548 49.4488 79.7251 49.7159 80.1701C49.9863 80.6149 50.1706 81.1302 50.2686 81.7161ZM54.273 88.2914C53.7864 88.315 53.3486 88.2516 52.9597 88.1012C52.5707 87.9475 52.2572 87.7088 52.0191 87.3852C51.7843 87.0581 51.6547 86.643 51.6303 86.1398C51.6098 85.7161 51.6703 85.3564 51.8119 85.0608C51.9536 84.7653 52.1542 84.5233 52.4139 84.3348C52.6735 84.1464 52.9717 83.9992 53.3083 83.8933C53.6483 83.7872 54.0061 83.7069 54.3817 83.6521C54.8231 83.5843 55.1785 83.5239 55.4481 83.4711C55.7174 83.4149 55.9114 83.3424 56.0298 83.2537C56.1483 83.165 56.2036 83.0396 56.1958 82.8774L56.1943 82.8476C56.1791 82.5331 56.068 82.2946 55.861 82.132C55.6574 81.9694 55.3751 81.8968 55.0143 81.9142C54.6335 81.9327 54.3347 82.0318 54.1178 82.2115C53.9007 82.388 53.7618 82.6037 53.7012 82.8589L51.737 82.7948C51.8138 82.3265 51.9897 81.9165 52.2647 81.5647C52.5395 81.2096 52.9026 80.9298 53.3539 80.7255C53.8084 80.5176 54.3402 80.3989 54.9493 80.3694C55.3731 80.3489 55.781 80.3789 56.1732 80.4594C56.5686 80.5398 56.922 80.677 57.2334 80.8709C57.5481 81.0648 57.8011 81.3213 57.9924 81.6405C58.1836 81.9564 58.2902 82.3412 58.3122 82.7947L58.5614 87.9392L56.5553 88.0365L56.504 86.9788L56.4444 86.9816C56.3335 87.2259 56.1798 87.4441 55.9834 87.6361C55.7868 87.8248 55.547 87.9775 55.2639 88.0941C54.9807 88.2073 54.6504 88.2731 54.273 88.2914ZM54.8081 86.8021C55.1193 86.787 55.3911 86.7125 55.6235 86.5784C55.8558 86.4411 56.0347 86.2632 56.1601 86.0447C56.2856 85.8263 56.3418 85.583 56.3288 85.3148L56.2896 84.5054C56.2255 84.5517 56.1364 84.5958 56.0223 84.6378C55.9113 84.6764 55.7854 84.714 55.6445 84.7507C55.5034 84.7841 55.3622 84.8158 55.221 84.8459C55.0796 84.8726 54.9514 84.8971 54.8363 84.9193C54.5898 84.9677 54.3758 85.0362 54.1942 85.1246C54.0127 85.213 53.8739 85.3276 53.7779 85.4683C53.6817 85.6057 53.6384 85.7737 53.648 85.9723C53.6619 86.2604 53.7769 86.4754 53.9928 86.6176C54.2119 86.7563 54.4837 86.8178 54.8081 86.8021ZM63.8901 80.0357L63.9671 81.6248L59.3737 81.8473L59.2967 80.2583L63.8901 80.0357ZM60.251 78.3804L62.3664 78.2778L62.711 85.3888C62.7204 85.5841 62.7576 85.735 62.8225 85.8413C62.8872 85.9444 62.9736 86.0149 63.0816 86.0528C63.1929 86.0905 63.3198 86.1059 63.4621 86.099C63.5615 86.0942 63.6604 86.0811 63.7589 86.0598C63.8572 86.0351 63.9327 86.0165 63.9851 86.004L64.3941 87.562C64.2898 87.6003 64.1427 87.6456 63.9527 87.6979C63.763 87.7536 63.531 87.793 63.2567 87.8163C62.7478 87.8608 62.2976 87.8146 61.906 87.6776C61.5178 87.5405 61.2098 87.3132 60.982 86.9957C60.7543 86.6782 60.6299 86.2695 60.609 85.7694L60.251 78.3804ZM70.3787 87.3666L67.9334 79.8398L70.0737 79.7361L71.5039 84.8035L71.5734 84.8001L72.5566 79.6158L74.6571 79.514L76.1553 84.5482L76.2199 84.5451L77.135 79.3939L79.2703 79.2904L77.5691 87.0182L75.3296 87.1267L73.7862 82.3933L73.6918 82.3979L72.6133 87.2583L70.3787 87.3666ZM84.0604 86.8529C83.2758 86.891 82.5928 86.7648 82.0113 86.4744C81.4329 86.1806 80.9773 85.748 80.6443 85.1768C80.3112 84.6023 80.1251 83.9128 80.0862 83.1084C80.0481 82.3238 80.1671 81.6278 80.4429 81.0205C80.7188 80.4132 81.1251 79.9306 81.6619 79.5727C82.202 79.2147 82.8462 79.0176 83.5944 78.9813C84.0976 78.957 84.5699 79.0154 85.0115 79.1566C85.4561 79.2943 85.8485 79.5159 86.1885 79.8213C86.5318 80.1265 86.8063 80.518 87.0119 80.9958C87.2174 81.4704 87.3359 82.032 87.3673 82.6809L87.3955 83.2619L80.9549 83.574L80.8914 82.263L85.3407 82.0474C85.3259 81.7429 85.2466 81.4763 85.1028 81.2476C84.959 81.019 84.7664 80.8442 84.5249 80.7231C84.2866 80.5986 84.0135 80.5438 83.7056 80.5588C83.3845 80.5743 83.1034 80.6626 82.8624 80.8236C82.6244 80.9811 82.442 81.1874 82.315 81.4425C82.1878 81.6942 82.1298 81.9707 82.1411 82.2722L82.2015 83.5186C82.2198 83.896 82.3051 84.2187 82.4575 84.4867C82.6132 84.7546 82.8237 84.9567 83.0892 85.0932C83.3546 85.2297 83.6644 85.2893 84.0187 85.2722C84.2537 85.2608 84.4673 85.2172 84.6594 85.1416C84.8515 85.0659 85.0139 84.9585 85.1465 84.8193C85.2791 84.6801 85.3772 84.5128 85.4407 84.3173L87.4035 84.3516C87.327 84.8265 87.1432 85.2468 86.8524 85.6127C86.5647 85.975 86.1839 86.2656 85.71 86.4843C85.2393 86.6996 84.6894 86.8225 84.0604 86.8529ZM88.9345 86.4674L88.5649 78.84L90.6804 78.7375L91.05 86.3649L88.9345 86.4674ZM89.58 77.8053C89.2655 77.8205 88.9906 77.7293 88.7554 77.5317C88.5233 77.3306 88.4001 77.0827 88.3859 76.788C88.3717 76.4967 88.4705 76.2414 88.6822 76.0221C88.8971 75.7993 89.1618 75.6803 89.4763 75.6651C89.7908 75.6498 90.064 75.7428 90.2961 75.9439C90.5313 76.1415 90.656 76.386 90.6701 76.6774C90.6844 76.972 90.5841 77.2307 90.3693 77.4535C90.1576 77.6728 89.8945 77.7901 89.58 77.8053ZM96.3271 89.1355C95.6419 89.1687 95.0497 89.1028 94.5506 88.9379C94.0549 88.7761 93.6553 88.5416 93.3518 88.2344C93.0482 87.9272 92.8437 87.5755 92.7382 87.1791L94.6819 86.8211C94.7489 86.9705 94.8502 87.1082 94.9857 87.2344C95.1212 87.3606 95.2968 87.4582 95.5126 87.5274C95.7317 87.5998 95.9953 87.6285 96.3032 87.6136C96.7633 87.5913 97.1369 87.4603 97.424 87.2208C97.7145 86.9844 97.847 86.6046 97.8217 86.0816L97.7541 84.6862L97.6647 84.6905C97.5823 84.9069 97.4529 85.1139 97.2767 85.3116C97.1004 85.5093 96.8695 85.6748 96.584 85.8081C96.2984 85.9414 95.9537 86.0178 95.5499 86.0374C94.9771 86.0651 94.4493 85.958 93.9664 85.7159C93.4866 85.4704 93.0944 85.0796 92.7897 84.5435C92.4881 84.004 92.3169 83.3121 92.2759 82.4679C92.2341 81.6039 92.3398 80.8754 92.5931 80.2824C92.8464 79.6894 93.1995 79.2376 93.6523 78.927C94.1085 78.6162 94.6163 78.4472 95.1758 78.4201C95.6028 78.3994 95.9639 78.4549 96.259 78.5867C96.5539 78.715 96.7943 78.8826 96.9801 79.0893C97.1692 79.2925 97.3167 79.4944 97.4226 79.695L97.5021 79.6911L97.44 78.41L99.5405 78.3082L99.9137 86.0101C99.9452 86.6589 99.8126 87.2096 99.5159 87.6619C99.2193 88.1143 98.7949 88.4634 98.2427 88.7092C97.694 88.9581 97.0554 89.1002 96.3271 89.1355ZM96.1432 84.4158C96.4842 84.3993 96.7681 84.3009 96.995 84.1207C97.225 83.937 97.3952 83.6832 97.5056 83.3593C97.6192 83.0319 97.6651 82.6448 97.6435 82.1979C97.6218 81.751 97.5401 81.3667 97.3985 81.045C97.2566 80.7201 97.0621 80.4723 96.8149 80.3018C96.5677 80.1313 96.2737 80.0543 95.9327 80.0708C95.5851 80.0876 95.2967 80.1962 95.0675 80.3964C94.8381 80.5934 94.6702 80.8603 94.5637 81.1973C94.4573 81.5343 94.4146 81.9196 94.4356 82.3533C94.4569 82.7936 94.5366 83.1714 94.6747 83.4865C94.8159 83.7983 95.0082 84.0361 95.2518 84.2002C95.4985 84.3608 95.7956 84.4327 96.1432 84.4158ZM103.495 81.3419L103.709 85.7515L101.594 85.854L101.101 75.6841L103.157 75.5845L103.345 79.4727L103.434 79.4684C103.585 79.0098 103.846 78.6438 104.217 78.3702C104.589 78.0934 105.064 77.941 105.644 77.9129C106.173 77.8872 106.641 77.9807 107.046 78.1934C107.454 78.4025 107.778 78.717 108.017 79.1368C108.26 79.5531 108.394 80.0593 108.419 80.6553L108.655 85.5118L106.539 85.6143L106.322 81.1352C106.303 80.665 106.166 80.3049 105.912 80.0551C105.661 79.8051 105.32 79.6906 104.89 79.7114C104.602 79.7254 104.35 79.799 104.134 79.9322C103.921 80.0653 103.758 80.2524 103.643 80.4936C103.532 80.7312 103.483 81.014 103.495 81.3419ZM114.007 77.6072L114.084 79.1962L109.491 79.4188L109.414 77.8297L114.007 77.6072ZM110.368 75.9518L112.483 75.8493L112.828 82.9603C112.837 83.1556 112.875 83.3064 112.939 83.4128C113.004 83.5158 113.091 83.5863 113.199 83.6242C113.31 83.662 113.437 83.6774 113.579 83.6705C113.678 83.6657 113.777 83.6526 113.876 83.6312C113.974 83.6066 114.05 83.588 114.102 83.5755L114.511 85.1335C114.407 85.1717 114.26 85.217 114.07 85.2694C113.88 85.325 113.648 85.3645 113.374 85.3877C112.865 85.4323 112.415 85.3861 112.023 85.2491C111.635 85.1119 111.327 84.8846 111.099 84.5672C110.871 84.2497 110.747 83.8409 110.726 83.3409L110.368 75.9518Z" fill="#272427"/>
<rect width="43" height="20" transform="translate(78.3799 212.702) rotate(-2.77424)" fill="white"/>
<path d="M86.5073 219.223L86.4525 218.09L93.1988 217.764L93.2537 218.896L90.5339 219.028L90.9014 226.612L89.5904 226.676L89.2229 219.091L86.5073 219.223ZM95.0099 226.413L94.6931 219.875L95.9657 219.814L96.2825 226.352L95.0099 226.413ZM95.2869 218.836C95.0656 218.846 94.8719 218.782 94.7058 218.642C94.5425 218.499 94.4558 218.324 94.4457 218.117C94.4355 217.907 94.5049 217.724 94.6538 217.569C94.8055 217.411 94.9919 217.327 95.2133 217.316C95.4346 217.305 95.6269 217.371 95.7903 217.514C95.9563 217.654 96.0445 217.829 96.0546 218.039C96.0647 218.246 95.9939 218.429 95.8423 218.587C95.6933 218.742 95.5082 218.825 95.2869 218.836ZM97.9946 226.269L97.6778 219.731L98.8994 219.672L98.951 220.736L99.0319 220.732C99.1506 220.365 99.3597 220.073 99.6593 219.857C99.9587 219.637 100.324 219.517 100.755 219.496C101.192 219.475 101.563 219.56 101.868 219.75C102.176 219.94 102.41 220.21 102.569 220.56L102.637 220.557C102.776 220.201 103.011 219.91 103.341 219.687C103.672 219.46 104.072 219.336 104.543 219.313C105.137 219.284 105.629 219.447 106.022 219.8C106.417 220.154 106.633 220.705 106.67 221.454L106.882 225.838L105.609 225.9L105.403 221.635C105.381 221.192 105.245 220.877 104.994 220.69C104.743 220.503 104.451 220.418 104.116 220.434C103.701 220.454 103.386 220.598 103.168 220.864C102.95 221.128 102.851 221.458 102.871 221.856L103.072 226.023L101.804 226.084L101.594 221.738C101.576 221.384 101.452 221.104 101.22 220.899C100.988 220.694 100.695 220.6 100.34 220.617C100.099 220.629 99.8795 220.704 99.6814 220.841C99.486 220.976 99.3312 221.158 99.2173 221.388C99.1061 221.618 99.0577 221.881 99.072 222.176L99.2673 226.207L97.9946 226.269ZM111.412 225.751C110.768 225.782 110.206 225.671 109.728 225.419C109.252 225.163 108.875 224.79 108.598 224.3C108.324 223.807 108.171 223.221 108.138 222.543C108.105 221.874 108.201 221.277 108.426 220.754C108.654 220.231 108.987 219.816 109.424 219.507C109.864 219.199 110.388 219.03 110.995 219C111.364 218.982 111.724 219.026 112.077 219.131C112.429 219.236 112.749 219.413 113.037 219.661C113.324 219.908 113.558 220.237 113.737 220.646C113.916 221.053 114.02 221.553 114.049 222.146L114.071 222.597L108.873 222.849L108.827 221.895L112.777 221.704C112.761 221.369 112.678 221.076 112.53 220.824C112.381 220.57 112.179 220.373 111.925 220.235C111.674 220.096 111.384 220.035 111.055 220.051C110.697 220.068 110.389 220.172 110.131 220.36C109.875 220.546 109.682 220.783 109.551 221.071C109.423 221.356 109.366 221.662 109.382 221.988L109.418 222.733C109.439 223.17 109.534 223.538 109.702 223.837C109.873 224.136 110.101 224.359 110.387 224.508C110.673 224.653 111.002 224.717 111.374 224.699C111.615 224.687 111.833 224.642 112.028 224.565C112.224 224.484 112.39 224.371 112.528 224.225C112.666 224.079 112.768 223.902 112.835 223.694L114.05 223.852C113.971 224.212 113.813 224.531 113.576 224.81C113.342 225.086 113.041 225.306 112.674 225.472C112.309 225.635 111.889 225.728 111.412 225.751Z" fill="#D3D3D3"/>
</g>
<defs>
<filter id="filter0_d_104_1086" x="-0.944336" y="-0.943848" width="299.263" height="279.304" filterUnits="userSpaceOnUse" color-interpolation-filters="sRGB">
<feFlood flood-opacity="0" result="BackgroundImageFix"/>
<feColorMatrix in="SourceAlpha" type="matrix" values="0 0 0 0 0 0 0 0 0 0 0 0 0 0 0 0 0 0 127 0" result="hardAlpha"/>
<feOffset dy="4"/>
<feGaussianBlur stdDeviation="7"/>
<feComposite in2="hardAlpha" operator="out"/>
<feColorMatrix type="matrix" values="0 0 0 0 0 0 0 0 0 0 0 0 0 0 0 0 0 0 0.03 0"/>
<feBlend mode="normal" in2="BackgroundImageFix" result="effect1_dropShadow_104_1086"/>
<feBlend mode="normal" in="SourceGraphic" in2="effect1_dropShadow_104_1086" result="shape"/>
</filter>
<filter id="filter1_d_104_1086" x="175.47" y="115.839" width="99.418" height="62.3521" filterUnits="userSpaceOnUse" color-interpolation-filters="sRGB">
<feFlood flood-opacity="0" result="BackgroundImageFix"/>
<feColorMatrix in="SourceAlpha" type="matrix" values="0 0 0 0 0 0 0 0 0 0 0 0 0 0 0 0 0 0 127 0" result="hardAlpha"/>
<feOffset dy="4"/>
<feGaussianBlur stdDeviation="7"/>
<feComposite in2="hardAlpha" operator="out"/>
<feColorMatrix type="matrix" values="0 0 0 0 0.720252 0 0 0 0 0.720252 0 0 0 0 0.720252 0 0 0 0.3 0"/>
<feBlend mode="normal" in2="BackgroundImageFix" result="effect1_dropShadow_104_1086"/>
<feBlend mode="normal" in="SourceGraphic" in2="effect1_dropShadow_104_1086" result="shape"/>
</filter>
<linearGradient id="paint0_linear_104_1086" x1="155.602" y1="308.41" x2="146.829" y2="127.349" gradientUnits="userSpaceOnUse">
<stop stop-color="white" stop-opacity="0"/>
<stop offset="1" stop-color="#248112" stop-opacity="0.6"/>
</linearGradient>
</defs>
</svg>
