<svg width="298" height="278" viewBox="0 0 298 278" fill="none" xmlns="http://www.w3.org/2000/svg">
<g filter="url(#filter0_d_104_1086)">
<rect x="13.0557" y="21.6396" width="260" height="239" rx="20" transform="rotate(-2.77424 13.0557 21.6396)" fill="white"/>
<path d="M244.669 214.655L57.8881 223.706L52.4977 112.466C52.4977 112.466 99.4825 100.749 126.422 116.317C158.973 135.129 174.126 165.652 207.559 171.901C224.878 175.139 242.66 173.204 242.66 173.204L244.669 214.655Z" fill="url(#paint0_linear_104_1086)" fill-opacity="0.2" style="mix-blend-mode:hard-light"/>
<path d="M52.4922 112.337L57.9131 224.206L247.69 215.01" stroke="#E2E2E2" stroke-linecap="round"/>
<path d="M53.4908 112.288C53.4908 112.288 94.2609 96.2197 128.766 116.15C164.79 136.43 167.788 167.321 216.619 172.964C232.941 174.85 245.657 173.059 245.657 173.059" stroke="#4BA95E" stroke-width="5"/>
<circle cx="52.4677" cy="111.838" r="8" transform="rotate(-2.77424 52.4677 111.838)" fill="#4FA961"/>
<circle cx="245.633" cy="172.559" r="8" transform="rotate(-2.77424 245.633 172.559)" fill="#4FA961"/>
<circle cx="245.632" cy="172.56" r="4" transform="rotate(-2.77424 245.632 172.56)" fill="white"/>
<circle cx="52.4672" cy="111.838" r="4" transform="rotate(-2.77424 52.4672 111.838)" fill="white"/>
<circle cx="232.076" cy="58.0812" r="5" transform="rotate(-2.77424 232.076 58.0812)" fill="#F3765F"/>
<path d="M61.1728 126.194C61.1728 126.194 91.2784 179.299 95.5883 185.598C99.8982 191.897 115.655 200.945 123.837 179.724C132.02 158.503 136.971 121.276 145.677 103.578C159.804 74.8603 177.532 58.4829 229.592 58.4644" stroke="#F3765F" stroke-width="3" stroke-linecap="round" stroke-dasharray="11 11"/>
<g filter="url(#filter1_d_104_1086)">
<rect x="189.47" y="129.228" width="70" height="31" rx="11" transform="rotate(-2.77424 189.47 129.228)" fill="#4BA95E" shape-rendering="crispEdges"/>
<path d="M204.379 139.336L207.458 139.187L209.644 143.222L209.724 143.218L211.51 138.991L214.589 138.841L211.192 145.994L211.347 149.192L208.606 149.325L208.451 146.127L204.379 139.336ZM220.246 145.416L220.038 141.126L222.779 140.993L223.148 148.62L220.546 148.747L220.476 147.297L220.397 147.3C220.255 147.795 219.983 148.19 219.583 148.485C219.182 148.776 218.697 148.936 218.128 148.963C217.595 148.989 217.122 148.889 216.71 148.664C216.3 148.438 215.975 148.115 215.732 147.696C215.493 147.276 215.358 146.788 215.328 146.232L215.092 141.366L217.833 141.233L218.041 145.523C218.062 145.9 218.173 146.192 218.372 146.398C218.574 146.604 218.848 146.699 219.192 146.682C219.42 146.671 219.615 146.613 219.776 146.509C219.94 146.402 220.062 146.256 220.143 146.073C220.227 145.887 220.261 145.668 220.246 145.416ZM228.224 148.514C227.396 148.554 226.68 148.424 226.075 148.125C225.469 147.823 224.995 147.384 224.652 146.81C224.309 146.233 224.118 145.554 224.081 144.773C224.043 143.991 224.167 143.298 224.453 142.694C224.738 142.086 225.168 141.604 225.741 141.248C226.315 140.888 227.015 140.688 227.843 140.648C228.591 140.612 229.245 140.716 229.804 140.961C230.367 141.203 230.81 141.563 231.136 142.041C231.461 142.517 231.641 143.086 231.676 143.747L229.134 143.871C229.078 143.472 228.947 143.173 228.742 142.974C228.54 142.771 228.286 142.677 227.982 142.692C227.743 142.704 227.538 142.783 227.366 142.931C227.194 143.075 227.065 143.289 226.979 143.572C226.893 143.851 226.86 144.2 226.88 144.617C226.9 145.034 226.967 145.379 227.08 145.653C227.192 145.923 227.341 146.123 227.527 146.253C227.712 146.38 227.924 146.438 228.163 146.426C228.364 146.417 228.541 146.362 228.692 146.261C228.843 146.158 228.962 146.013 229.049 145.826C229.14 145.636 229.188 145.408 229.195 145.142L231.738 145.019C231.76 145.691 231.635 146.285 231.361 146.799C231.087 147.31 230.684 147.714 230.151 148.012C229.621 148.31 228.979 148.477 228.224 148.514ZM235.154 148.158C234.667 148.182 234.233 148.123 233.851 147.982C233.473 147.838 233.169 147.607 232.942 147.29C232.714 146.972 232.588 146.56 232.563 146.054C232.543 145.637 232.597 145.277 232.725 144.976C232.853 144.671 233.04 144.418 233.285 144.217C233.531 144.016 233.821 143.858 234.153 143.742C234.49 143.626 234.854 143.544 235.246 143.495C235.672 143.441 236.013 143.385 236.269 143.326C236.528 143.263 236.713 143.186 236.825 143.095C236.936 143 236.989 142.879 236.982 142.734L236.981 142.714C236.971 142.515 236.887 142.367 236.73 142.268C236.573 142.17 236.375 142.126 236.136 142.138C235.875 142.15 235.664 142.219 235.504 142.342C235.347 142.463 235.258 142.641 235.236 142.878L232.714 143C232.725 142.535 232.851 142.101 233.094 141.698C233.339 141.291 233.71 140.958 234.205 140.698C234.7 140.435 235.327 140.285 236.085 140.249C236.631 140.222 237.124 140.263 237.564 140.371C238.004 140.476 238.381 140.635 238.697 140.849C239.012 141.059 239.257 141.313 239.431 141.61C239.608 141.903 239.705 142.227 239.722 142.581L239.975 147.805L237.412 147.929L237.361 146.857L237.301 146.86C237.162 147.152 236.988 147.391 236.778 147.577C236.572 147.763 236.331 147.902 236.057 147.995C235.786 148.088 235.485 148.142 235.154 148.158ZM235.964 146.387C236.173 146.377 236.366 146.324 236.544 146.229C236.725 146.134 236.87 146.003 236.978 145.835C237.086 145.667 237.134 145.467 237.123 145.236L237.092 144.6C237.02 144.633 236.944 144.665 236.863 144.696C236.784 144.726 236.7 144.755 236.608 144.783C236.52 144.81 236.425 144.836 236.323 144.861C236.225 144.886 236.121 144.909 236.013 144.931C235.803 144.974 235.631 145.037 235.499 145.12C235.371 145.199 235.276 145.295 235.215 145.408C235.157 145.517 235.131 145.637 235.138 145.77C235.148 145.982 235.23 146.14 235.385 146.246C235.539 146.351 235.732 146.398 235.964 146.387ZM245.464 139.894L245.56 141.88L240.534 142.124L240.438 140.137L245.464 139.894ZM241.323 138.263L244.064 138.13L244.403 145.132C244.408 145.238 244.431 145.326 244.471 145.397C244.511 145.465 244.57 145.515 244.647 145.548C244.725 145.577 244.824 145.589 244.943 145.583C245.026 145.579 245.121 145.565 245.229 145.54C245.341 145.514 245.423 145.494 245.475 145.478L245.966 147.385C245.845 147.428 245.672 147.481 245.446 147.545C245.224 147.609 244.957 147.657 244.647 147.688C244.019 147.752 243.488 147.713 243.053 147.571C242.618 147.426 242.284 147.182 242.052 146.838C241.82 146.495 241.694 146.056 241.675 145.523L241.323 138.263Z" fill="white"/>
</g>
<path d="M168.511 36.041C168.565 37.1501 168.4 38.1037 168.017 38.9021C167.638 39.7003 167.097 40.3221 166.396 40.7676C165.697 41.2096 164.899 41.4523 164.002 41.4958C163.098 41.5396 162.277 41.3736 161.539 40.9979C160.801 40.6222 160.204 40.0555 159.749 39.2978C159.294 38.54 159.04 37.6083 158.987 36.5026C158.933 35.3935 159.096 34.4399 159.475 33.6418C159.854 32.8436 160.394 32.2235 161.092 31.7815C161.791 31.3362 162.592 31.0916 163.496 31.0478C164.393 31.0043 165.21 31.1705 165.949 31.5461C166.69 31.9184 167.288 32.4834 167.743 33.2411C168.201 33.9987 168.457 34.932 168.511 36.041ZM166.331 36.1467C166.296 35.4283 166.159 34.8277 165.92 34.3448C165.684 33.8618 165.367 33.5023 164.967 33.2661C164.567 33.03 164.107 32.9245 163.588 32.9497C163.068 32.9749 162.621 33.1243 162.246 33.398C161.871 33.6717 161.588 34.0604 161.396 34.5641C161.208 35.0676 161.132 35.6785 161.167 36.3969C161.201 37.1153 161.337 37.716 161.572 38.199C161.811 38.6818 162.131 39.0413 162.531 39.2775C162.93 39.5136 163.39 39.6191 163.91 39.5939C164.429 39.5687 164.877 39.4193 165.252 39.1456C165.627 38.8719 165.908 38.4833 166.096 37.9798C166.287 37.4761 166.366 36.8651 166.331 36.1467ZM173.998 33.2267L174.075 34.8158L169.481 35.0383L169.404 33.4493L173.998 33.2267ZM170.359 31.5714L172.474 31.4689L172.819 38.5798C172.828 38.7752 172.865 38.926 172.93 39.0324C172.995 39.1354 173.081 39.2059 173.189 39.2438C173.301 39.2815 173.427 39.2969 173.57 39.29C173.669 39.2852 173.768 39.2721 173.867 39.2508C173.965 39.2261 174.04 39.2075 174.093 39.195L174.502 40.753C174.397 40.7913 174.25 40.8366 174.06 40.8889C173.871 40.9446 173.639 40.984 173.364 41.0073C172.855 41.0518 172.405 41.0056 172.014 40.8686C171.625 40.7315 171.317 40.5042 171.09 40.1867C170.862 39.8692 170.738 39.4605 170.717 38.9604L170.359 31.5714ZM177.811 36.2673L178.025 40.6769L175.909 40.7794L175.416 30.6095L177.472 30.5099L177.661 34.3981L177.75 34.3938C177.9 33.9352 178.161 33.5692 178.533 33.2956C178.905 33.0188 179.38 32.8664 179.959 32.8383C180.489 32.8126 180.956 32.9061 181.362 33.1188C181.77 33.3279 182.094 33.6424 182.333 34.0622C182.576 34.4785 182.71 34.9847 182.735 35.5807L182.971 40.4372L180.855 40.5397L180.638 36.0606C180.619 35.5904 180.482 35.2303 180.227 34.9805C179.976 34.7305 179.636 34.616 179.205 34.6368C178.917 34.6508 178.665 34.7244 178.449 34.8576C178.237 34.9907 178.073 35.1778 177.959 35.419C177.848 35.6566 177.798 35.9394 177.811 36.2673ZM188.119 40.3371C187.334 40.3751 186.651 40.2489 186.069 39.9586C185.491 39.6647 185.035 39.2322 184.702 38.661C184.369 38.0865 184.183 37.397 184.144 36.5925C184.106 35.808 184.225 35.112 184.501 34.5046C184.777 33.8973 185.183 33.4147 185.72 33.0569C186.26 32.6989 186.904 32.5017 187.653 32.4655C188.156 32.4411 188.628 32.4995 189.07 32.6407C189.514 32.7784 189.907 33 190.247 33.3054C190.59 33.6106 190.864 34.0022 191.07 34.48C191.276 34.9545 191.394 35.5162 191.425 36.1651L191.454 36.746L185.013 37.0581L184.95 35.7472L189.399 35.5316C189.384 35.227 189.305 34.9604 189.161 34.7318C189.017 34.5032 188.825 34.3283 188.583 34.2073C188.345 34.0828 188.072 34.028 187.764 34.0429C187.443 34.0585 187.162 34.1468 186.921 34.3078C186.683 34.4653 186.5 34.6716 186.373 34.9266C186.246 35.1783 186.188 35.4549 186.199 35.7563L186.26 37.0027C186.278 37.3801 186.363 37.7028 186.516 37.9709C186.671 38.2387 186.882 38.4409 187.147 38.5774C187.413 38.7138 187.723 38.7735 188.077 38.7563C188.312 38.7449 188.525 38.7014 188.718 38.6257C188.91 38.55 189.072 38.4426 189.205 38.3035C189.337 38.1643 189.435 37.997 189.499 37.8014L191.462 37.8357C191.385 38.3106 191.201 38.731 190.911 39.0968C190.623 39.4592 190.242 39.7497 189.768 39.9685C189.297 40.1837 188.748 40.3066 188.119 40.3371ZM192.993 39.9516L192.623 32.3242L194.674 32.2248L194.738 33.5556L194.818 33.5518C194.934 33.0716 195.15 32.7028 195.466 32.4452C195.782 32.1844 196.153 32.0436 196.58 32.0229C196.686 32.0178 196.801 32.0189 196.924 32.0262C197.047 32.0335 197.156 32.0465 197.249 32.0652L197.34 33.9422C197.24 33.9172 197.101 33.8974 196.924 33.8827C196.748 33.8681 196.587 33.8643 196.441 33.8713C196.13 33.8864 195.855 33.9677 195.617 34.1153C195.381 34.2595 195.198 34.4542 195.068 34.6994C194.94 34.9445 194.884 35.2226 194.899 35.5338L195.108 39.8491L192.993 39.9516ZM204.133 39.5561C203.646 39.5797 203.208 39.5163 202.82 39.3659C202.431 39.2122 202.117 38.9735 201.879 38.6499C201.644 38.3228 201.515 37.9077 201.49 37.4045C201.47 36.9808 201.53 36.6211 201.672 36.3256C201.813 36.03 202.014 35.788 202.274 35.5996C202.533 35.4111 202.832 35.2639 203.168 35.158C203.508 35.052 203.866 34.9716 204.242 34.9169C204.683 34.849 205.038 34.7887 205.308 34.7358C205.577 34.6796 205.771 34.6071 205.89 34.5184C206.008 34.4297 206.064 34.3043 206.056 34.1421L206.054 34.1123C206.039 33.7978 205.928 33.5593 205.721 33.3967C205.517 33.2341 205.235 33.1615 204.874 33.179C204.493 33.1974 204.195 33.2965 203.978 33.4762C203.761 33.6527 203.622 33.8685 203.561 34.1236L201.597 34.0595C201.674 33.5912 201.85 33.1812 202.125 32.8294C202.399 32.4743 202.762 32.1945 203.214 31.9902C203.668 31.7823 204.2 31.6636 204.809 31.6341C205.233 31.6136 205.641 31.6436 206.033 31.7241C206.429 31.8045 206.782 31.9417 207.093 32.1357C207.408 32.3295 207.661 32.586 207.852 32.9052C208.043 33.2212 208.15 33.6059 208.172 34.0594L208.421 39.204L206.415 39.3012L206.364 38.2435L206.304 38.2464C206.193 38.4906 206.04 38.7088 205.843 38.9008C205.647 39.0895 205.407 39.2422 205.124 39.3588C204.841 39.472 204.51 39.5378 204.133 39.5561ZM204.668 38.0668C204.979 38.0517 205.251 37.9772 205.483 37.8431C205.716 37.7058 205.895 37.5279 206.02 37.3094C206.145 37.091 206.202 36.8477 206.189 36.5795L206.149 35.7701C206.085 35.8164 205.996 35.8605 205.882 35.9025C205.771 35.9411 205.645 35.9787 205.504 36.0154C205.363 36.0488 205.222 36.0805 205.081 36.1106C204.94 36.1374 204.811 36.1618 204.696 36.184C204.45 36.2324 204.236 36.3009 204.054 36.3893C203.873 36.4777 203.734 36.5923 203.638 36.733C203.542 36.8704 203.498 37.0384 203.508 37.2371C203.522 37.5251 203.637 37.7402 203.853 37.8823C204.072 38.021 204.344 38.0825 204.668 38.0668ZM210.201 41.9847L209.693 31.497L211.779 31.396L211.841 32.6771L211.935 32.6725C212.018 32.4628 212.142 32.2477 212.307 32.0274C212.475 31.8035 212.698 31.6135 212.976 31.4574C213.257 31.2978 213.611 31.2076 214.038 31.1869C214.594 31.16 215.114 31.2808 215.599 31.5493C216.083 31.8145 216.48 32.2317 216.789 32.8007C217.099 33.3664 217.275 34.0862 217.317 34.9602C217.358 35.811 217.256 36.536 217.009 37.1353C216.766 37.7311 216.417 38.191 215.961 38.5151C215.509 38.8356 214.993 39.01 214.414 39.038C214.003 39.0579 213.651 39.007 213.356 38.8852C213.065 38.7633 212.823 38.6041 212.631 38.4077C212.439 38.2079 212.29 38.0044 212.183 37.7972L212.119 37.8003L212.317 41.8822L210.201 41.9847ZM211.948 35.2104C211.97 35.6639 212.052 36.0565 212.195 36.3881C212.337 36.7196 212.532 36.974 212.779 37.1511C213.026 37.325 213.321 37.4036 213.662 37.3871C214.006 37.3704 214.293 37.262 214.522 37.0617C214.751 36.8582 214.919 36.5846 215.025 36.241C215.134 35.8939 215.178 35.4985 215.156 35.0549C215.135 34.6146 215.055 34.2303 214.916 33.9019C214.778 33.5734 214.584 33.3206 214.337 33.1435C214.089 32.9663 213.792 32.8862 213.444 32.903C213.1 32.9197 212.813 33.0249 212.584 33.2185C212.357 33.412 212.189 33.6789 212.08 34.0194C211.97 34.3598 211.926 34.7568 211.948 35.2104ZM219.05 41.5559L218.542 31.0682L220.628 30.9672L220.69 32.2483L220.784 32.2437C220.867 32.034 220.991 31.8189 221.156 31.5986C221.324 31.3747 221.547 31.1847 221.825 31.0286C222.106 30.869 222.46 30.7788 222.887 30.7581C223.443 30.7312 223.963 30.852 224.448 31.1205C224.932 31.3857 225.329 31.8029 225.638 32.3719C225.948 32.9376 226.124 33.6574 226.166 34.5314C226.207 35.3822 226.105 36.1072 225.858 36.7065C225.615 37.3023 225.266 37.7622 224.81 38.0863C224.358 38.4068 223.842 38.5812 223.263 38.6092C222.852 38.6291 222.5 38.5782 222.205 38.4564C221.914 38.3345 221.672 38.1753 221.48 37.9789C221.288 37.7791 221.139 37.5756 221.032 37.3684L220.968 37.3715L221.166 41.4534L219.05 41.5559ZM220.797 34.7816C220.819 35.2351 220.901 35.6277 221.044 35.9593C221.186 36.2908 221.381 36.5452 221.628 36.7223C221.875 36.8962 222.17 36.9748 222.511 36.9583C222.855 36.9416 223.142 36.8332 223.371 36.6329C223.6 36.4294 223.768 36.1558 223.874 35.8122C223.983 35.4651 224.027 35.0697 224.005 34.6261C223.984 34.1858 223.904 33.8015 223.765 33.473C223.627 33.1446 223.433 32.8918 223.186 32.7147C222.938 32.5375 222.641 32.4574 222.293 32.4742C221.949 32.4909 221.662 32.5961 221.433 32.7897C221.206 32.9832 221.038 33.2501 220.929 33.5906C220.819 33.931 220.775 34.328 220.797 34.7816ZM233.843 32.5069L231.912 32.7199C231.871 32.556 231.792 32.4105 231.676 32.2833C231.561 32.1529 231.411 32.0523 231.229 31.9815C231.049 31.9072 230.837 31.8761 230.592 31.8879C230.264 31.9038 229.991 31.9867 229.773 32.1367C229.554 32.2833 229.451 32.4708 229.462 32.6993C229.471 32.8813 229.551 33.0318 229.703 33.1505C229.854 33.2692 230.109 33.3581 230.467 33.4171L231.861 33.6283C232.61 33.7446 233.175 33.9628 233.555 34.2828C233.936 34.6029 234.139 35.0376 234.166 35.5872C234.19 36.0871 234.064 36.5328 233.788 36.9245C233.515 37.316 233.128 37.6301 232.629 37.8667C232.133 38.0998 231.553 38.2324 230.891 38.2644C229.881 38.3134 229.067 38.1421 228.447 37.7507C227.831 37.3559 227.454 36.7968 227.316 36.0734L229.391 35.8634C229.469 36.1682 229.633 36.3959 229.882 36.5464C230.131 36.6936 230.445 36.758 230.822 36.7397C231.193 36.7218 231.488 36.6361 231.706 36.4829C231.927 36.3261 232.034 36.1335 232.026 35.9049C232.014 35.7131 231.925 35.5597 231.76 35.4449C231.595 35.3268 231.345 35.2427 231.011 35.1925L229.677 34.9934C228.925 34.8805 228.358 34.6491 227.976 34.2993C227.598 33.9493 227.395 33.4896 227.367 32.9202C227.343 32.4303 227.455 32.0018 227.703 31.6347C227.954 31.2675 228.316 30.9762 228.79 30.7607C229.268 30.5451 229.833 30.4216 230.485 30.3899C231.448 30.3433 232.216 30.5101 232.789 30.8905C233.365 31.2708 233.716 31.8096 233.843 32.5069Z" fill="#F3765F"/>
<path d="M50.2686 81.7157L48.0936 81.821C48.0403 81.5416 47.947 81.2956 47.814 81.083C47.6807 80.8671 47.5143 80.6861 47.3148 80.5398C47.1152 80.3935 46.8877 80.2851 46.6321 80.2145C46.3798 80.1438 46.1079 80.1154 45.8166 80.1296C45.2902 80.1551 44.8381 80.308 44.4601 80.5885C44.082 80.8657 43.7974 81.2577 43.6062 81.7647C43.415 82.2684 43.3364 82.8728 43.3706 83.578C43.4057 84.303 43.5428 84.9069 43.7819 85.3897C44.0243 85.8724 44.3469 86.2301 44.7497 86.4628C45.1526 86.6954 45.6106 86.7993 46.1237 86.7745C46.4117 86.7605 46.6763 86.7095 46.9176 86.6215C47.1622 86.5333 47.377 86.4118 47.562 86.2568C47.7468 86.0985 47.8969 85.9104 48.0124 85.6924C48.1313 85.4743 48.209 85.2283 48.2455 84.9544L50.421 84.859C50.3873 85.3285 50.2684 85.7855 50.0643 86.2301C49.8634 86.6712 49.5825 87.0714 49.2216 87.4307C48.8639 87.7865 48.4299 88.0763 47.9198 88.3001C47.4128 88.5205 46.8333 88.6464 46.1811 88.678C45.274 88.722 44.453 88.5561 43.718 88.1802C42.9864 87.8042 42.3948 87.2372 41.9433 86.4793C41.4951 85.7212 41.2442 84.7893 41.1906 83.6836C41.1369 82.5746 41.2997 81.621 41.6791 80.8228C42.0586 80.0246 42.5959 79.4046 43.2913 78.9628C43.9865 78.5176 44.781 78.2734 45.6748 78.2301C46.2641 78.2015 46.8143 78.2578 47.3255 78.399C47.8401 78.5399 48.3003 78.7599 48.7064 79.0587C49.1123 79.3543 49.4488 79.7246 49.7159 80.1696C49.9863 80.6144 50.1706 81.1298 50.2686 81.7157ZM54.273 88.2909C53.7864 88.3145 53.3486 88.2511 52.9597 88.1007C52.5707 87.947 52.2572 87.7083 52.0191 87.3847C51.7843 87.0576 51.6547 86.6425 51.6303 86.1393C51.6098 85.7156 51.6703 85.3559 51.8119 85.0604C51.9536 84.7648 52.1542 84.5228 52.4139 84.3344C52.6735 84.1459 52.9717 83.9987 53.3083 83.8928C53.6483 83.7867 54.0061 83.7064 54.3817 83.6517C54.8231 83.5838 55.1785 83.5235 55.4481 83.4706C55.7174 83.4144 55.9114 83.3419 56.0298 83.2532C56.1483 83.1645 56.2036 83.0391 56.1958 82.8769L56.1943 82.8471C56.1791 82.5326 56.068 82.2941 55.861 82.1315C55.6574 81.9689 55.3751 81.8963 55.0143 81.9138C54.6335 81.9322 54.3347 82.0313 54.1178 82.211C53.9007 82.3875 53.7618 82.6033 53.7012 82.8584L51.737 82.7943C51.8138 82.326 51.9897 81.916 52.2647 81.5642C52.5395 81.2091 52.9026 80.9293 53.3539 80.725C53.8084 80.5171 54.3402 80.3984 54.9493 80.3689C55.3731 80.3484 55.781 80.3784 56.1732 80.4589C56.5686 80.5393 56.922 80.6765 57.2334 80.8705C57.5481 81.0643 57.8011 81.3208 57.9924 81.64C58.1836 81.956 58.2902 82.3407 58.3122 82.7942L58.5614 87.9388L56.5553 88.036L56.504 86.9783L56.4444 86.9812C56.3335 87.2254 56.1798 87.4436 55.9834 87.6356C55.7868 87.8243 55.547 87.977 55.2639 88.0936C54.9807 88.2068 54.6504 88.2726 54.273 88.2909ZM54.8081 86.8016C55.1193 86.7865 55.3911 86.712 55.6235 86.5779C55.8558 86.4406 56.0347 86.2627 56.1601 86.0442C56.2856 85.8258 56.3418 85.5825 56.3288 85.3143L56.2896 84.5049C56.2255 84.5512 56.1364 84.5953 56.0223 84.6373C55.9113 84.6759 55.7854 84.7135 55.6445 84.7502C55.5034 84.7836 55.3622 84.8153 55.221 84.8454C55.0796 84.8722 54.9514 84.8966 54.8363 84.9188C54.5898 84.9672 54.3758 85.0357 54.1942 85.1241C54.0127 85.2125 53.8739 85.3271 53.7779 85.4678C53.6817 85.6052 53.6384 85.7732 53.648 85.9719C53.6619 86.2599 53.7769 86.475 53.9928 86.6171C54.2119 86.7558 54.4837 86.8173 54.8081 86.8016ZM63.8901 80.0352L63.9671 81.6243L59.3737 81.8468L59.2967 80.2578L63.8901 80.0352ZM60.251 78.3799L62.3664 78.2774L62.711 85.3883C62.7204 85.5837 62.7576 85.7345 62.8225 85.8409C62.8872 85.9439 62.9736 86.0144 63.0816 86.0523C63.1929 86.09 63.3198 86.1054 63.4621 86.0985C63.5615 86.0937 63.6604 86.0806 63.7589 86.0593C63.8572 86.0346 63.9327 86.016 63.9851 86.0035L64.3941 87.5615C64.2898 87.5998 64.1427 87.6451 63.9527 87.6974C63.763 87.7531 63.531 87.7925 63.2567 87.8158C62.7478 87.8603 62.2976 87.8141 61.906 87.6771C61.5178 87.54 61.2098 87.3127 60.982 86.9952C60.7543 86.6777 60.6299 86.269 60.609 85.7689L60.251 78.3799ZM70.3787 87.3661L67.9334 79.8393L70.0737 79.7356L71.5039 84.803L71.5734 84.7996L72.5566 79.6153L74.6571 79.5135L76.1553 84.5477L76.2199 84.5446L77.135 79.3934L79.2703 79.2899L77.5691 87.0177L75.3296 87.1262L73.7862 82.3928L73.6918 82.3974L72.6133 87.2578L70.3787 87.3661ZM84.0604 86.8525C83.2758 86.8905 82.5928 86.7643 82.0113 86.4739C81.4329 86.1801 80.9773 85.7476 80.6443 85.1764C80.3112 84.6018 80.1251 83.9124 80.0862 83.1079C80.0481 82.3233 80.1671 81.6273 80.4429 81.02C80.7188 80.4127 81.1251 79.9301 81.6619 79.5722C82.202 79.2142 82.8462 79.0171 83.5944 78.9809C84.0976 78.9565 84.5699 79.0149 85.0115 79.1561C85.4561 79.2938 85.8485 79.5154 86.1885 79.8208C86.5318 80.126 86.8063 80.5175 87.0119 80.9954C87.2174 81.4699 87.3359 82.0316 87.3673 82.6804L87.3955 83.2614L80.9549 83.5735L80.8914 82.2625L85.3407 82.0469C85.3259 81.7424 85.2466 81.4758 85.1028 81.2471C84.959 81.0185 84.7664 80.8437 84.5249 80.7227C84.2866 80.5982 84.0135 80.5434 83.7056 80.5583C83.3845 80.5738 83.1034 80.6621 82.8624 80.8231C82.6244 80.9807 82.442 81.1869 82.315 81.442C82.1878 81.6937 82.1298 81.9702 82.1411 82.2717L82.2015 83.5181C82.2198 83.8955 82.3051 84.2182 82.4575 84.4862C82.6132 84.7541 82.8237 84.9563 83.0892 85.0927C83.3546 85.2292 83.6644 85.2888 84.0187 85.2717C84.2537 85.2603 84.4673 85.2167 84.6594 85.1411C84.8515 85.0654 85.0139 84.958 85.1465 84.8188C85.2791 84.6797 85.3772 84.5123 85.4407 84.3168L87.4035 84.3511C87.327 84.826 87.1432 85.2463 86.8524 85.6122C86.5647 85.9745 86.1839 86.2651 85.71 86.4838C85.2393 86.6991 84.6894 86.822 84.0604 86.8525ZM88.9345 86.467L88.5649 78.8395L90.6804 78.737L91.05 86.3644L88.9345 86.467ZM89.58 77.8048C89.2655 77.8201 88.9906 77.7289 88.7554 77.5312C88.5233 77.3301 88.4001 77.0822 88.3859 76.7876C88.3717 76.4962 88.4705 76.2409 88.6822 76.0216C88.8971 75.7988 89.1618 75.6798 89.4763 75.6646C89.7908 75.6493 90.064 75.7423 90.2961 75.9434C90.5313 76.1411 90.656 76.3855 90.6701 76.6769C90.6844 76.9715 90.5841 77.2302 90.3693 77.453C90.1576 77.6723 89.8945 77.7896 89.58 77.8048ZM96.3271 89.135C95.6419 89.1682 95.0497 89.1023 94.5506 88.9374C94.0549 88.7756 93.6553 88.5411 93.3518 88.2339C93.0482 87.9268 92.8437 87.575 92.7382 87.1786L94.6819 86.8206C94.7489 86.97 94.8502 87.1078 94.9857 87.2339C95.1212 87.3601 95.2968 87.4578 95.5126 87.5269C95.7317 87.5993 95.9953 87.628 96.3032 87.6131C96.7633 87.5908 97.1369 87.4598 97.424 87.2203C97.7145 86.9839 97.847 86.6042 97.8217 86.0811L97.7541 84.6857L97.6647 84.69C97.5823 84.9064 97.4529 85.1134 97.2767 85.3111C97.1004 85.5088 96.8695 85.6743 96.584 85.8076C96.2984 85.9409 95.9537 86.0173 95.5499 86.0369C94.9771 86.0646 94.4493 85.9575 93.9664 85.7154C93.4866 85.4699 93.0944 85.0791 92.7897 84.543C92.4881 84.0035 92.3169 83.3116 92.2759 82.4674C92.2341 81.6034 92.3398 80.8749 92.5931 80.2819C92.8464 79.6889 93.1995 79.2371 93.6523 78.9265C94.1085 78.6157 94.6163 78.4468 95.1758 78.4196C95.6028 78.3989 95.9639 78.4545 96.259 78.5862C96.5539 78.7146 96.7943 78.8821 96.9801 79.0888C97.1692 79.292 97.3167 79.4939 97.4226 79.6945L97.5021 79.6906L97.44 78.4095L99.5405 78.3077L99.9137 86.0096C99.9452 86.6584 99.8126 87.2091 99.5159 87.6615C99.2193 88.1138 98.7949 88.4629 98.2427 88.7087C97.694 88.9576 97.0554 89.0997 96.3271 89.135ZM96.1432 84.4154C96.4842 84.3988 96.7681 84.3005 96.995 84.1202C97.225 83.9365 97.3952 83.6827 97.5056 83.3588C97.6192 83.0315 97.6651 82.6443 97.6435 82.1974C97.6218 81.7505 97.5401 81.3662 97.3985 81.0445C97.2566 80.7196 97.0621 80.4718 96.8149 80.3013C96.5677 80.1308 96.2737 80.0538 95.9327 80.0703C95.5851 80.0872 95.2967 80.1957 95.0675 80.396C94.8381 80.5929 94.6702 80.8599 94.5637 81.1968C94.4573 81.5338 94.4146 81.9192 94.4356 82.3528C94.4569 82.7931 94.5366 83.1709 94.6747 83.4861C94.8159 83.7978 95.0082 84.0357 95.2518 84.1997C95.4985 84.3603 95.7956 84.4322 96.1432 84.4154ZM103.495 81.3414L103.709 85.751L101.594 85.8535L101.101 75.6836L103.157 75.584L103.345 79.4722L103.434 79.4679C103.585 79.0093 103.846 78.6433 104.217 78.3698C104.589 78.0929 105.064 77.9405 105.644 77.9124C106.173 77.8867 106.641 77.9802 107.046 78.1929C107.454 78.402 107.778 78.7165 108.017 79.1363C108.26 79.5526 108.394 80.0588 108.419 80.6548L108.655 85.5114L106.539 85.6139L106.322 81.1347C106.303 80.6645 106.166 80.3045 105.912 80.0546C105.661 79.8047 105.32 79.6901 104.89 79.7109C104.602 79.7249 104.35 79.7985 104.134 79.9317C103.921 80.0648 103.758 80.2519 103.643 80.4931C103.532 80.7307 103.483 81.0135 103.495 81.3414ZM114.007 77.6067L114.084 79.1957L109.491 79.4183L109.414 77.8293L114.007 77.6067ZM110.368 75.9513L112.483 75.8488L112.828 82.9598C112.837 83.1551 112.875 83.3059 112.939 83.4123C113.004 83.5154 113.091 83.5858 113.199 83.6237C113.31 83.6615 113.437 83.6769 113.579 83.67C113.678 83.6652 113.777 83.6521 113.876 83.6307C113.974 83.6061 114.05 83.5875 114.102 83.575L114.511 85.133C114.407 85.1712 114.26 85.2165 114.07 85.2689C113.88 85.3245 113.648 85.364 113.374 85.3872C112.865 85.4318 112.415 85.3856 112.023 85.2486C111.635 85.1114 111.327 84.8841 111.099 84.5667C110.871 84.2492 110.747 83.8404 110.726 83.3404L110.368 75.9513Z" fill="#272427"/>
<rect width="43" height="20" transform="translate(78.3799 212.702) rotate(-2.77424)" fill="white"/>
<path d="M86.5073 219.223L86.4525 218.09L93.1988 217.764L93.2537 218.896L90.5339 219.028L90.9014 226.612L89.5904 226.676L89.2229 219.091L86.5073 219.223ZM95.0099 226.413L94.6931 219.875L95.9657 219.814L96.2825 226.352L95.0099 226.413ZM95.2869 218.836C95.0656 218.846 94.8719 218.782 94.7058 218.642C94.5425 218.499 94.4558 218.324 94.4457 218.117C94.4355 217.907 94.5049 217.724 94.6538 217.569C94.8055 217.411 94.9919 217.327 95.2133 217.316C95.4346 217.305 95.6269 217.371 95.7903 217.514C95.9563 217.654 96.0445 217.829 96.0546 218.039C96.0647 218.246 95.9939 218.429 95.8423 218.587C95.6933 218.742 95.5082 218.825 95.2869 218.836ZM97.9946 226.269L97.6778 219.731L98.8994 219.672L98.951 220.736L99.0319 220.732C99.1506 220.365 99.3597 220.073 99.6593 219.857C99.9587 219.637 100.324 219.517 100.755 219.496C101.192 219.475 101.563 219.56 101.868 219.75C102.176 219.94 102.41 220.21 102.569 220.56L102.637 220.557C102.776 220.201 103.011 219.91 103.341 219.687C103.672 219.46 104.072 219.336 104.543 219.313C105.137 219.284 105.629 219.447 106.022 219.8C106.417 220.154 106.633 220.705 106.67 221.454L106.882 225.838L105.609 225.9L105.403 221.635C105.381 221.192 105.245 220.877 104.994 220.69C104.743 220.503 104.451 220.418 104.116 220.434C103.701 220.454 103.386 220.598 103.168 220.864C102.95 221.128 102.851 221.458 102.871 221.856L103.072 226.023L101.804 226.084L101.594 221.738C101.576 221.384 101.452 221.104 101.22 220.899C100.988 220.694 100.695 220.6 100.34 220.617C100.099 220.629 99.8795 220.704 99.6814 220.841C99.486 220.976 99.3312 221.158 99.2173 221.388C99.1061 221.618 99.0577 221.881 99.072 222.176L99.2673 226.207L97.9946 226.269ZM111.412 225.751C110.768 225.782 110.206 225.671 109.728 225.419C109.252 225.163 108.875 224.79 108.598 224.3C108.324 223.807 108.171 223.221 108.138 222.543C108.105 221.874 108.201 221.277 108.426 220.754C108.654 220.231 108.987 219.816 109.424 219.507C109.864 219.199 110.388 219.03 110.995 219C111.364 218.982 111.724 219.026 112.077 219.131C112.429 219.236 112.749 219.413 113.037 219.661C113.324 219.908 113.558 220.237 113.737 220.646C113.916 221.053 114.02 221.553 114.049 222.146L114.071 222.597L108.873 222.849L108.827 221.895L112.777 221.704C112.761 221.369 112.678 221.076 112.53 220.824C112.381 220.57 112.179 220.373 111.925 220.235C111.674 220.096 111.384 220.035 111.055 220.051C110.697 220.068 110.389 220.172 110.131 220.36C109.875 220.546 109.682 220.783 109.551 221.071C109.423 221.356 109.366 221.662 109.382 221.988L109.418 222.733C109.439 223.17 109.534 223.538 109.702 223.837C109.873 224.136 110.101 224.359 110.387 224.508C110.673 224.653 111.002 224.717 111.374 224.699C111.615 224.687 111.833 224.642 112.028 224.565C112.224 224.484 112.39 224.371 112.528 224.225C112.666 224.079 112.768 223.902 112.835 223.694L114.05 223.852C113.971 224.212 113.813 224.531 113.576 224.81C113.342 225.086 113.041 225.306 112.674 225.472C112.309 225.635 111.889 225.728 111.412 225.751Z" fill="#D3D3D3"/>
</g>
<defs>
<filter id="filter0_d_104_1086" x="-0.944336" y="-0.944336" width="299.263" height="279.304" filterUnits="userSpaceOnUse" color-interpolation-filters="sRGB">
<feFlood flood-opacity="0" result="BackgroundImageFix"/>
<feColorMatrix in="SourceAlpha" type="matrix" values="0 0 0 0 0 0 0 0 0 0 0 0 0 0 0 0 0 0 127 0" result="hardAlpha"/>
<feOffset dy="4"/>
<feGaussianBlur stdDeviation="7"/>
<feComposite in2="hardAlpha" operator="out"/>
<feColorMatrix type="matrix" values="0 0 0 0 0 0 0 0 0 0 0 0 0 0 0 0 0 0 0.03 0"/>
<feBlend mode="normal" in2="BackgroundImageFix" result="effect1_dropShadow_104_1086"/>
<feBlend mode="normal" in="SourceGraphic" in2="effect1_dropShadow_104_1086" result="shape"/>
</filter>
<filter id="filter1_d_104_1086" x="175.47" y="115.84" width="99.418" height="62.3516" filterUnits="userSpaceOnUse" color-interpolation-filters="sRGB">
<feFlood flood-opacity="0" result="BackgroundImageFix"/>
<feColorMatrix in="SourceAlpha" type="matrix" values="0 0 0 0 0 0 0 0 0 0 0 0 0 0 0 0 0 0 127 0" result="hardAlpha"/>
<feOffset dy="4"/>
<feGaussianBlur stdDeviation="7"/>
<feComposite in2="hardAlpha" operator="out"/>
<feColorMatrix type="matrix" values="0 0 0 0 0.720252 0 0 0 0 0.720252 0 0 0 0 0.720252 0 0 0 0.3 0"/>
<feBlend mode="normal" in2="BackgroundImageFix" result="effect1_dropShadow_104_1086"/>
<feBlend mode="normal" in="SourceGraphic" in2="effect1_dropShadow_104_1086" result="shape"/>
</filter>
<linearGradient id="paint0_linear_104_1086" x1="155.602" y1="308.41" x2="146.829" y2="127.348" gradientUnits="userSpaceOnUse">
<stop stop-color="white" stop-opacity="0"/>
<stop offset="1" stop-color="#248112" stop-opacity="0.6"/>
</linearGradient>
</defs>
</svg>
