<svg width="298" height="278" viewBox="0 0 298 278" fill="none" xmlns="http://www.w3.org/2000/svg">
<g filter="url(#filter0_d_376_203)">
<rect x="13.0557" y="21.6396" width="260" height="239" rx="20" transform="rotate(-2.77424 13.0557 21.6396)" fill="white"/>
<path d="M244.669 214.655L57.8881 223.706L52.4977 112.466C52.4977 112.466 99.4825 100.749 126.422 116.317C158.973 135.129 174.126 165.652 207.559 171.901C224.878 175.139 242.66 173.204 242.66 173.204L244.669 214.655Z" fill="url(#paint0_linear_376_203)" fill-opacity="0.2" style="mix-blend-mode:hard-light"/>
<path d="M52.4922 112.337L57.9131 224.206L247.69 215.01" stroke="#E2E2E2" stroke-linecap="round"/>
<path d="M53.4908 112.289C53.4908 112.289 94.2609 96.2207 128.766 116.15C164.79 136.431 167.788 167.322 216.619 172.965C232.941 174.851 245.657 173.06 245.657 173.06" stroke="#4BA95E" stroke-width="5"/>
<circle cx="52.4677" cy="111.839" r="8" transform="rotate(-2.77424 52.4677 111.839)" fill="#4FA961"/>
<circle cx="245.633" cy="172.56" r="8" transform="rotate(-2.77424 245.633 172.56)" fill="#4FA961"/>
<circle cx="245.633" cy="172.561" r="4" transform="rotate(-2.77424 245.633 172.561)" fill="white"/>
<circle cx="52.4672" cy="111.838" r="4" transform="rotate(-2.77424 52.4672 111.838)" fill="white"/>
<circle cx="232.076" cy="58.0822" r="5" transform="rotate(-2.77424 232.076 58.0822)" fill="#F3765F"/>
<path d="M61.1728 126.194C61.1728 126.194 91.2784 179.299 95.5883 185.598C99.8982 191.897 115.655 200.945 123.837 179.724C132.02 158.503 136.971 121.276 145.677 103.578C159.804 74.8603 177.532 58.4829 229.592 58.4644" stroke="#F3765F" stroke-width="3" stroke-linecap="round" stroke-dasharray="11 11"/>
<g filter="url(#filter1_d_376_203)">
<rect x="189.47" y="129.228" width="70" height="31" rx="11" transform="rotate(-2.77424 189.47 129.228)" fill="#4BA95E" shape-rendering="crispEdges"/>
<path d="M204.379 139.336L207.458 139.187L209.644 143.222L209.724 143.218L211.51 138.991L214.589 138.841L211.192 145.994L211.347 149.192L208.606 149.325L208.451 146.127L204.379 139.336ZM220.246 145.416L220.038 141.126L222.779 140.993L223.148 148.62L220.546 148.747L220.476 147.297L220.397 147.3C220.255 147.795 219.983 148.19 219.583 148.485C219.182 148.776 218.697 148.936 218.128 148.963C217.595 148.989 217.122 148.889 216.71 148.664C216.3 148.438 215.975 148.115 215.732 147.696C215.493 147.276 215.358 146.788 215.328 146.232L215.092 141.366L217.833 141.233L218.041 145.523C218.062 145.9 218.173 146.192 218.372 146.398C218.574 146.604 218.848 146.699 219.192 146.682C219.42 146.671 219.615 146.613 219.776 146.509C219.94 146.402 220.062 146.256 220.143 146.073C220.227 145.887 220.261 145.668 220.246 145.416ZM228.224 148.514C227.396 148.554 226.68 148.424 226.075 148.125C225.469 147.823 224.995 147.384 224.652 146.81C224.309 146.233 224.118 145.554 224.081 144.773C224.043 143.991 224.167 143.298 224.453 142.694C224.738 142.086 225.168 141.604 225.741 141.248C226.315 140.888 227.015 140.688 227.843 140.648C228.591 140.612 229.245 140.716 229.804 140.961C230.367 141.203 230.81 141.563 231.136 142.041C231.461 142.517 231.641 143.086 231.676 143.747L229.134 143.871C229.078 143.472 228.947 143.173 228.742 142.974C228.54 142.771 228.286 142.677 227.982 142.692C227.743 142.704 227.538 142.783 227.366 142.931C227.194 143.075 227.065 143.289 226.979 143.572C226.893 143.851 226.86 144.2 226.88 144.617C226.9 145.034 226.967 145.379 227.08 145.653C227.192 145.923 227.341 146.123 227.527 146.253C227.712 146.38 227.924 146.438 228.163 146.426C228.364 146.417 228.541 146.362 228.692 146.261C228.843 146.158 228.962 146.013 229.049 145.826C229.14 145.636 229.188 145.408 229.195 145.142L231.738 145.019C231.76 145.691 231.635 146.285 231.361 146.799C231.087 147.31 230.684 147.714 230.151 148.012C229.621 148.31 228.979 148.477 228.224 148.514ZM235.154 148.158C234.667 148.182 234.233 148.123 233.851 147.982C233.473 147.838 233.169 147.607 232.942 147.29C232.714 146.972 232.588 146.56 232.563 146.054C232.543 145.637 232.597 145.277 232.725 144.976C232.853 144.671 233.04 144.418 233.285 144.217C233.531 144.016 233.821 143.858 234.153 143.742C234.49 143.626 234.854 143.544 235.246 143.495C235.672 143.441 236.013 143.385 236.269 143.326C236.528 143.263 236.713 143.186 236.825 143.095C236.936 143 236.989 142.879 236.982 142.734L236.981 142.714C236.971 142.515 236.887 142.367 236.73 142.268C236.573 142.17 236.375 142.126 236.136 142.138C235.875 142.15 235.664 142.219 235.504 142.342C235.347 142.463 235.258 142.641 235.236 142.878L232.714 143C232.725 142.535 232.851 142.101 233.094 141.698C233.339 141.291 233.71 140.958 234.205 140.698C234.7 140.435 235.327 140.285 236.085 140.249C236.631 140.222 237.124 140.263 237.564 140.371C238.004 140.476 238.381 140.635 238.697 140.849C239.012 141.059 239.257 141.313 239.431 141.61C239.608 141.903 239.705 142.227 239.722 142.581L239.975 147.805L237.412 147.929L237.361 146.857L237.301 146.86C237.162 147.152 236.988 147.391 236.778 147.577C236.572 147.763 236.331 147.902 236.057 147.995C235.786 148.088 235.485 148.142 235.154 148.158ZM235.964 146.387C236.173 146.377 236.366 146.324 236.544 146.229C236.725 146.134 236.87 146.003 236.978 145.835C237.086 145.667 237.134 145.467 237.123 145.236L237.092 144.6C237.02 144.633 236.944 144.665 236.863 144.696C236.784 144.726 236.7 144.755 236.608 144.783C236.52 144.81 236.425 144.836 236.323 144.861C236.225 144.886 236.121 144.909 236.013 144.931C235.803 144.974 235.631 145.037 235.499 145.12C235.371 145.199 235.276 145.295 235.215 145.408C235.157 145.517 235.131 145.637 235.138 145.77C235.148 145.982 235.23 146.14 235.385 146.246C235.539 146.351 235.732 146.398 235.964 146.387ZM245.464 139.894L245.56 141.88L240.534 142.124L240.438 140.137L245.464 139.894ZM241.323 138.263L244.064 138.13L244.403 145.132C244.408 145.238 244.431 145.326 244.471 145.397C244.511 145.465 244.57 145.515 244.647 145.548C244.725 145.577 244.824 145.589 244.943 145.583C245.026 145.579 245.121 145.565 245.229 145.54C245.341 145.514 245.423 145.494 245.475 145.478L245.966 147.385C245.845 147.428 245.672 147.481 245.446 147.545C245.224 147.609 244.957 147.657 244.647 147.688C244.019 147.752 243.488 147.713 243.053 147.571C242.618 147.426 242.284 147.182 242.052 146.838C241.82 146.495 241.694 146.056 241.675 145.523L241.323 138.263Z" fill="white"/>
</g>
<path d="M126.899 37.7904C126.952 38.8994 126.788 39.8531 126.405 40.6515C126.026 41.4496 125.485 42.0715 124.783 42.5169C124.085 42.9589 123.287 43.2017 122.39 43.2452C121.486 43.289 120.665 43.123 119.927 42.7473C119.188 42.3716 118.592 41.8049 118.137 41.0471C117.682 40.2894 117.428 39.3576 117.374 38.2519C117.321 37.1429 117.484 36.1893 117.863 35.3911C118.242 34.5929 118.781 33.9729 119.48 33.5309C120.179 33.0855 120.98 32.841 121.883 32.7972C122.781 32.7537 123.598 32.9198 124.337 33.2955C125.078 33.6677 125.676 34.2327 126.131 34.9905C126.589 35.7481 126.845 36.6814 126.899 37.7904ZM124.719 37.896C124.684 37.1777 124.547 36.5771 124.308 36.0942C124.072 35.6112 123.754 35.2516 123.355 35.0155C122.955 34.7794 122.495 34.6739 121.976 34.6991C121.456 34.7243 121.008 34.8737 120.634 35.1474C120.259 35.4211 119.975 35.8097 119.784 36.3134C119.596 36.817 119.52 37.4279 119.554 38.1463C119.589 38.8647 119.724 39.4654 119.96 39.9484C120.199 40.4312 120.519 40.7907 120.918 41.0268C121.318 41.263 121.778 41.3685 122.298 41.3433C122.817 41.3181 123.265 41.1687 123.64 40.895C124.015 40.6213 124.296 40.2327 124.484 39.7292C124.675 39.2255 124.754 38.6144 124.719 37.896ZM132.386 34.9761L132.463 36.5651L127.869 36.7877L127.792 35.1987L132.386 34.9761ZM128.747 33.3207L130.862 33.2182L131.207 40.3292C131.216 40.5245 131.253 40.6754 131.318 40.7817C131.383 40.8848 131.469 40.9552 131.577 40.9932C131.689 41.0309 131.815 41.0463 131.958 41.0394C132.057 41.0346 132.156 41.0215 132.254 41.0002C132.353 40.9755 132.428 40.9569 132.481 40.9444L132.89 42.5024C132.785 42.5407 132.638 42.5859 132.448 42.6383C132.259 42.6939 132.027 42.7334 131.752 42.7566C131.243 42.8012 130.793 42.755 130.402 42.618C130.013 42.4809 129.705 42.2535 129.478 41.9361C129.25 41.6186 129.126 41.2098 129.105 40.7098L128.747 33.3207ZM134.133 42.5367L133.764 34.9093L135.814 34.8099L135.879 36.1408L135.958 36.1369C136.075 35.6568 136.291 35.2879 136.607 35.0304C136.922 34.7695 137.294 34.6287 137.721 34.608C137.827 34.6029 137.941 34.604 138.065 34.6113C138.188 34.6186 138.296 34.6316 138.39 34.6503L138.481 36.5273C138.38 36.5024 138.242 36.4825 138.065 36.4679C137.888 36.4532 137.727 36.4494 137.582 36.4564C137.27 36.4715 136.996 36.5529 136.757 36.7005C136.522 36.8446 136.339 37.0393 136.208 37.2845C136.081 37.5296 136.024 37.8078 136.04 38.119L136.249 42.4342L134.133 42.5367ZM141.819 42.3087C141.332 42.3322 140.894 42.2688 140.505 42.1185C140.116 41.9648 139.803 41.7261 139.565 41.4025C139.33 41.0754 139.2 40.6603 139.176 40.1571C139.155 39.7333 139.216 39.3737 139.357 39.0781C139.499 38.7826 139.7 38.5406 139.959 38.3521C140.219 38.1637 140.517 38.0165 140.854 37.9106C141.194 37.8045 141.552 37.7241 141.927 37.6694C142.369 37.6016 142.724 37.5412 142.994 37.4883C143.263 37.4321 143.457 37.3597 143.575 37.271C143.694 37.1823 143.749 37.0568 143.741 36.8946L143.74 36.8648C143.725 36.5503 143.613 36.3118 143.406 36.1493C143.203 35.9866 142.921 35.914 142.56 35.9315C142.179 35.95 141.88 36.0491 141.663 36.2288C141.446 36.4052 141.307 36.621 141.247 36.8761L139.282 36.812C139.359 36.3438 139.535 35.9337 139.81 35.5819C140.085 35.2268 140.448 34.9471 140.899 34.7427C141.354 34.5349 141.886 34.4162 142.495 34.3867C142.919 34.3661 143.327 34.3961 143.719 34.4767C144.114 34.5571 144.468 34.6943 144.779 34.8882C145.094 35.082 145.347 35.3385 145.538 35.6578C145.729 35.9737 145.836 36.3584 145.858 36.812L146.107 41.9565L144.101 42.0537L144.049 40.996L143.99 40.9989C143.879 41.2432 143.725 41.4614 143.529 41.6534C143.332 41.8421 143.092 41.9947 142.809 42.1113C142.526 42.2246 142.196 42.2904 141.819 42.3087ZM142.354 40.8194C142.665 40.8043 142.937 40.7297 143.169 40.5957C143.401 40.4583 143.58 40.2804 143.706 40.062C143.831 39.8435 143.887 39.6002 143.874 39.3321L143.835 38.5227C143.771 38.5689 143.682 38.6131 143.568 38.6551C143.457 38.6936 143.331 38.7313 143.19 38.768C143.049 38.8013 142.908 38.8331 142.766 38.8631C142.625 38.8899 142.497 38.9144 142.382 38.9365C142.135 38.985 141.921 39.0534 141.74 39.1419C141.558 39.2303 141.419 39.3449 141.323 39.4856C141.227 39.623 141.184 39.791 141.193 39.9896C141.207 40.2776 141.322 40.4927 141.538 40.6349C141.757 40.7736 142.029 40.8351 142.354 40.8194ZM153.83 36.1171L151.899 36.3301C151.858 36.1662 151.78 36.0206 151.664 35.8935C151.548 35.7631 151.399 35.6625 151.216 35.5917C151.037 35.5174 150.825 35.4862 150.58 35.4981C150.252 35.514 149.979 35.5969 149.761 35.7468C149.542 35.8935 149.438 36.081 149.449 36.3094C149.458 36.4915 149.538 36.6419 149.69 36.7607C149.842 36.8794 150.097 36.9683 150.455 37.0272L151.849 37.2384C152.598 37.3548 153.162 37.573 153.543 37.893C153.923 38.213 154.127 38.6478 154.154 39.1973C154.178 39.6972 154.052 40.143 153.775 40.5347C153.502 40.9262 153.116 41.2402 152.617 41.4768C152.12 41.7099 151.541 41.8425 150.879 41.8746C149.869 41.9235 149.054 41.7523 148.435 41.3609C147.818 40.966 147.441 40.4069 147.303 39.6836L149.379 39.4735C149.457 39.7783 149.62 40.006 149.87 40.1565C150.119 40.3037 150.432 40.3682 150.81 40.3499C151.181 40.3319 151.475 40.2463 151.693 40.093C151.915 39.9363 152.022 39.7436 152.014 39.5151C152.001 39.3232 151.912 39.1699 151.748 39.0551C151.583 38.937 151.333 38.8529 150.999 38.8027L149.665 38.6035C148.913 38.4906 148.346 38.2593 147.964 37.9095C147.585 37.5595 147.382 37.0998 147.355 36.5304C147.331 36.0404 147.443 35.6119 147.691 35.2449C147.942 34.8776 148.304 34.5863 148.778 34.3709C149.255 34.1553 149.82 34.0317 150.472 34.0001C151.436 33.9534 152.204 34.1203 152.776 34.5007C153.352 34.8809 153.703 35.4197 153.83 36.1171ZM161.019 41.3783C160.532 41.4019 160.094 41.3385 159.705 41.1881C159.316 41.0344 159.003 40.7957 158.765 40.4721C158.53 40.145 158.4 39.7299 158.376 39.2267C158.355 38.8029 158.416 38.4433 158.558 38.1477C158.699 37.8522 158.9 37.6102 159.159 37.4217C159.419 37.2333 159.717 37.0861 160.054 36.9802C160.394 36.8741 160.752 36.7937 161.127 36.739C161.569 36.6712 161.924 36.6108 162.194 36.5579C162.463 36.5017 162.657 36.4293 162.775 36.3406C162.894 36.2519 162.949 36.1264 162.941 35.9642L162.94 35.9344C162.925 35.6199 162.814 35.3814 162.607 35.2189C162.403 35.0562 162.121 34.9836 161.76 35.0011C161.379 35.0196 161.08 35.1187 160.863 35.2984C160.646 35.4748 160.507 35.6906 160.447 35.9457L158.483 35.8817C158.559 35.4134 158.735 35.0033 159.01 34.6515C159.285 34.2964 159.648 34.0167 160.1 33.8123C160.554 33.6045 161.086 33.4858 161.695 33.4563C162.119 33.4357 162.527 33.4658 162.919 33.5463C163.314 33.6267 163.668 33.7639 163.979 33.9578C164.294 34.1516 164.547 34.4082 164.738 34.7274C164.929 35.0433 165.036 35.428 165.058 35.8816L165.307 41.0261L163.301 41.1233L163.25 40.0656L163.19 40.0685C163.079 40.3128 162.925 40.531 162.729 40.723C162.532 40.9117 162.293 41.0644 162.01 41.1809C161.726 41.2942 161.396 41.36 161.019 41.3783ZM161.554 39.889C161.865 39.8739 162.137 39.7993 162.369 39.6653C162.601 39.528 162.78 39.3501 162.906 39.1316C163.031 38.9132 163.087 38.6699 163.074 38.4017L163.035 37.5923C162.971 37.6385 162.882 37.6827 162.768 37.7247C162.657 37.7633 162.531 37.8009 162.39 37.8376C162.249 37.871 162.108 37.9027 161.967 37.9328C161.825 37.9595 161.697 37.984 161.582 38.0061C161.335 38.0546 161.121 38.123 160.94 38.2115C160.758 38.2999 160.62 38.4145 160.523 38.5552C160.427 38.6926 160.384 38.8606 160.394 39.0592C160.408 39.3472 160.522 39.5623 160.738 39.7045C160.958 39.8432 161.229 39.9047 161.554 39.889ZM167.087 43.8069L166.579 33.3192L168.664 33.2181L168.726 34.4993L168.821 34.4947C168.903 34.285 169.027 34.0699 169.193 33.8495C169.361 33.6257 169.584 33.4357 169.862 33.2795C170.143 33.1199 170.497 33.0298 170.924 33.0091C171.48 32.9821 172 33.1029 172.484 33.3715C172.968 33.6367 173.365 34.0538 173.675 34.6228C173.984 35.1885 174.16 35.9084 174.203 36.7824C174.244 37.6332 174.141 38.3582 173.895 38.9575C173.652 39.5533 173.302 40.0132 172.847 40.3372C172.394 40.6578 171.879 40.8321 171.299 40.8602C170.889 40.8801 170.536 40.8291 170.242 40.7074C169.95 40.5854 169.709 40.4262 169.517 40.2298C169.325 40.0301 169.175 39.8266 169.069 39.6194L169.004 39.6225L169.202 43.7044L167.087 43.8069ZM168.834 37.0325C168.856 37.4861 168.938 37.8786 169.08 38.2102C169.223 38.5418 169.417 38.7962 169.665 38.9733C169.912 39.1471 170.206 39.2258 170.547 39.2093C170.892 39.1926 171.178 39.0841 171.408 38.8839C171.637 38.6803 171.804 38.4067 171.91 38.0631C172.02 37.716 172.064 37.3207 172.042 36.8771C172.021 36.4368 171.941 36.0524 171.802 35.724C171.663 35.3956 171.47 35.1428 171.223 34.9657C170.975 34.7885 170.678 34.7083 170.33 34.7252C169.986 34.7419 169.699 34.847 169.469 35.0407C169.243 35.2341 169.075 35.5011 168.966 35.8415C168.856 36.182 168.812 36.579 168.834 37.0325ZM177.42 30.2454L177.913 40.4153L175.797 40.5178L175.304 30.3479L177.42 30.2454ZM179.607 40.3332L179.238 32.7058L181.353 32.6032L181.723 40.2307L179.607 40.3332ZM180.253 31.671C179.938 31.6863 179.663 31.5951 179.428 31.3974C179.196 31.1963 179.073 30.9484 179.059 30.6538C179.044 30.3625 179.143 30.1071 179.355 29.8878C179.57 29.665 179.834 29.546 180.149 29.5308C180.463 29.5156 180.737 29.6085 180.969 29.8096C181.204 30.0073 181.329 30.2518 181.343 30.5431C181.357 30.8377 181.257 31.0964 181.042 31.3192C180.83 31.5385 180.567 31.6558 180.253 31.671ZM186.871 40.1305C186.089 40.1684 185.409 40.0354 184.83 39.7316C184.255 39.4244 183.802 38.9818 183.472 38.4038C183.145 37.8256 182.963 37.1509 182.926 36.3796C182.888 35.5983 183.006 34.9057 183.278 34.3018C183.554 33.6945 183.964 33.2117 184.507 32.8536C185.05 32.4921 185.708 32.2927 186.479 32.2553C187.144 32.2231 187.733 32.3157 188.245 32.5331C188.756 32.7505 189.168 33.0707 189.481 33.4936C189.793 33.9164 189.979 34.4218 190.037 35.0096L188.041 35.1064C187.966 34.7284 187.802 34.4294 187.549 34.2093C187.3 33.9858 186.981 33.8835 186.594 33.9023C186.266 33.9181 185.984 34.0214 185.748 34.212C185.514 34.3992 185.338 34.6649 185.219 35.0092C185.099 35.3534 185.051 35.7655 185.075 36.2456C185.098 36.7322 185.185 37.1428 185.333 37.4774C185.486 37.8118 185.689 38.0624 185.942 38.2293C186.196 38.3962 186.487 38.4717 186.814 38.4559C187.056 38.4441 187.27 38.384 187.458 38.2754C187.648 38.1666 187.802 38.0148 187.918 37.82C188.038 37.6217 188.111 37.3876 188.138 37.1175L190.134 37.0208C190.13 37.605 189.996 38.1258 189.732 38.5832C189.472 39.0372 189.1 39.4003 188.615 39.6727C188.131 39.945 187.549 40.0976 186.871 40.1305ZM193.806 39.7895C193.32 39.813 192.882 39.7496 192.493 39.5993C192.104 39.4456 191.79 39.2069 191.552 38.8833C191.318 38.5562 191.188 38.1411 191.164 37.6379C191.143 37.2141 191.204 36.8545 191.345 36.5589C191.487 36.2634 191.688 36.0214 191.947 35.8329C192.207 35.6445 192.505 35.4973 192.842 35.3914C193.182 35.2853 193.539 35.2049 193.915 35.1502C194.356 35.0824 194.712 35.022 194.981 34.9691C195.251 34.9129 195.445 34.8405 195.563 34.7518C195.682 34.6631 195.737 34.5376 195.729 34.3754L195.728 34.3456C195.712 34.0311 195.601 33.7926 195.394 33.6301C195.191 33.4674 194.908 33.3948 194.548 33.4123C194.167 33.4308 193.868 33.5298 193.651 33.7096C193.434 33.886 193.295 34.1018 193.234 34.3569L191.27 34.2928C191.347 33.8246 191.523 33.4145 191.798 33.0627C192.073 32.7076 192.436 32.4279 192.887 32.2235C193.342 32.0157 193.874 31.897 194.483 31.8675C194.906 31.8469 195.314 31.8769 195.706 31.9575C196.102 32.0379 196.455 32.1751 196.767 32.369C197.081 32.5628 197.334 32.8193 197.526 33.1386C197.717 33.4545 197.823 33.8392 197.845 34.2928L198.095 39.4373L196.089 39.5345L196.037 38.4768L195.978 38.4797C195.867 38.724 195.713 38.9422 195.517 39.1342C195.32 39.3229 195.08 39.4755 194.797 39.5921C194.514 39.7054 194.184 39.7712 193.806 39.7895ZM194.341 38.3002C194.653 38.2851 194.924 38.2105 195.157 38.0765C195.389 37.9391 195.568 37.7612 195.693 37.5428C195.819 37.3243 195.875 37.081 195.862 36.8129L195.823 36.0035C195.759 36.0497 195.67 36.0939 195.556 36.1359C195.445 36.1744 195.319 36.2121 195.178 36.2488C195.037 36.2821 194.896 36.3139 194.754 36.3439C194.613 36.3707 194.485 36.3952 194.37 36.4173C194.123 36.4658 193.909 36.5342 193.728 36.6227C193.546 36.7111 193.407 36.8257 193.311 36.9664C193.215 37.1038 193.172 37.2718 193.181 37.4704C193.195 37.7584 193.31 37.9735 193.526 38.1157C193.745 38.2544 194.017 38.3159 194.341 38.3002ZM203.189 39.3398C202.408 39.3776 201.728 39.2447 201.149 38.9409C200.574 38.6336 200.121 38.191 199.791 37.613C199.464 37.0349 199.282 36.3601 199.245 35.5888C199.207 34.8075 199.324 34.1149 199.597 33.5111C199.873 32.9037 200.282 32.421 200.826 32.0628C201.369 31.7013 202.026 31.5019 202.798 31.4645C203.463 31.4323 204.052 31.5249 204.563 31.7423C205.075 31.9598 205.487 32.2799 205.799 32.7028C206.112 33.1257 206.297 33.631 206.356 34.2189L204.36 34.3156C204.285 33.9376 204.121 33.6386 203.868 33.4186C203.618 33.1951 203.3 33.0927 202.912 33.1115C202.585 33.1274 202.303 33.2306 202.066 33.4213C201.833 33.6084 201.657 33.8741 201.538 34.2184C201.418 34.5626 201.37 34.9748 201.393 35.4548C201.417 35.9414 201.503 36.3521 201.652 36.6866C201.804 37.021 202.007 37.2717 202.261 37.4386C202.515 37.6055 202.805 37.681 203.133 37.6651C203.375 37.6534 203.589 37.5932 203.776 37.4846C203.967 37.3758 204.121 37.224 204.237 37.0292C204.357 36.831 204.43 36.5968 204.457 36.3267L206.453 36.23C206.448 36.8142 206.314 37.3351 206.051 37.7925C205.791 38.2464 205.419 38.6096 204.934 38.8819C204.45 39.1543 203.868 39.3069 203.189 39.3398ZM207.943 38.9601L207.573 31.3327L209.689 31.2302L210.059 38.8576L207.943 38.9601ZM208.589 30.298C208.274 30.3132 207.999 30.222 207.764 30.0243C207.532 29.8232 207.409 29.5753 207.394 29.2807C207.38 28.9894 207.479 28.7341 207.691 28.5147C207.906 28.292 208.17 28.1729 208.485 28.1577C208.799 28.1425 209.073 28.2354 209.305 28.4365C209.54 28.6342 209.665 28.8787 209.679 29.17C209.693 29.4646 209.593 29.7233 209.378 29.9461C209.166 30.1654 208.903 30.2827 208.589 30.298ZM215.207 38.7574C214.435 38.7948 213.76 38.6633 213.182 38.3628C212.606 38.0589 212.152 37.6196 211.819 37.0451C211.485 36.4673 211.3 35.7877 211.262 35.0065C211.224 34.2186 211.343 33.5226 211.619 32.9186C211.894 32.3112 212.304 31.8301 212.848 31.4753C213.395 31.117 214.054 30.9191 214.825 30.8817C215.596 30.8444 216.27 30.9776 216.845 31.2816C217.424 31.582 217.88 32.0212 218.213 32.599C218.546 33.1735 218.732 33.8547 218.77 34.6426C218.808 35.4239 218.689 36.1182 218.413 36.7256C218.137 37.3296 217.726 37.8108 217.179 38.1691C216.635 38.5239 215.978 38.7201 215.207 38.7574ZM215.137 37.1183C215.488 37.1012 215.776 36.9877 216.002 36.7777C216.227 36.5644 216.391 36.281 216.493 35.9277C216.599 35.5741 216.641 35.1755 216.619 34.7319C216.598 34.2883 216.517 33.8957 216.378 33.554C216.242 33.2122 216.051 32.946 215.807 32.7554C215.562 32.5649 215.264 32.4781 214.913 32.4951C214.559 32.5123 214.266 32.6277 214.034 32.8414C213.805 33.0548 213.638 33.3384 213.533 33.6919C213.43 34.0453 213.39 34.4438 213.411 34.8874C213.433 35.331 213.512 35.7237 213.648 36.0655C213.787 36.4072 213.981 36.6732 214.229 36.8636C214.48 37.0505 214.783 37.1354 215.137 37.1183ZM222.231 33.8478L222.444 38.2574L220.329 38.3599L219.959 30.7325L221.975 30.6348L222.041 31.9805L222.13 31.9762C222.277 31.5244 222.543 31.1598 222.928 30.8823C223.313 30.6015 223.788 30.4474 224.354 30.42C224.884 30.3943 225.351 30.4878 225.756 30.7004C226.162 30.9131 226.484 31.2293 226.723 31.6491C226.962 32.0655 227.096 32.5701 227.125 33.1626L227.36 38.0192L225.245 38.1217L225.028 33.6426C225.009 33.1756 224.872 32.8172 224.618 32.5674C224.363 32.3143 224.024 32.198 223.6 32.2185C223.315 32.2323 223.067 32.3057 222.854 32.4388C222.645 32.5717 222.485 32.7587 222.374 32.9997C222.266 33.2372 222.218 33.5199 222.231 33.8478ZM232.511 37.9189C231.726 37.9569 231.043 37.8307 230.462 37.5404C229.884 37.2465 229.428 36.814 229.095 36.2428C228.762 35.6683 228.576 34.9788 228.537 34.1743C228.499 33.3898 228.618 32.6938 228.893 32.0865C229.169 31.4791 229.576 30.9965 230.112 30.6387C230.653 30.2807 231.297 30.0835 232.045 30.0473C232.548 30.0229 233.02 30.0813 233.462 30.2225C233.907 30.3602 234.299 30.5818 234.639 30.8872C234.982 31.1924 235.257 31.584 235.462 32.0618C235.668 32.5363 235.786 33.098 235.818 33.7469L235.846 34.3279L229.405 34.6399L229.342 33.329L233.791 33.1134C233.776 32.8088 233.697 32.5422 233.553 32.3136C233.41 32.085 233.217 31.9101 232.975 31.7891C232.737 31.6646 232.464 31.6098 232.156 31.6247C231.835 31.6403 231.554 31.7286 231.313 31.8896C231.075 32.0471 230.893 32.2534 230.766 32.5084C230.638 32.7601 230.58 33.0367 230.592 33.3381L230.652 34.5845C230.67 34.9619 230.756 35.2846 230.908 35.5527C231.064 35.8205 231.274 36.0227 231.54 36.1592C231.805 36.2956 232.115 36.3553 232.469 36.3381C232.704 36.3267 232.918 36.2832 233.11 36.2075C233.302 36.1318 233.464 36.0244 233.597 35.8853C233.73 35.7461 233.828 35.5788 233.891 35.3832L235.854 35.4175C235.778 35.8924 235.594 36.3128 235.303 36.6786C235.015 37.041 234.634 37.3315 234.161 37.5503C233.69 37.7656 233.14 37.8884 232.511 37.9189ZM243.467 31.7735L241.536 31.9865C241.495 31.8226 241.417 31.677 241.301 31.5499C241.185 31.4195 241.036 31.3189 240.853 31.2481C240.674 31.1738 240.462 31.1426 240.217 31.1545C239.889 31.1704 239.616 31.2533 239.398 31.4032C239.179 31.5499 239.075 31.7374 239.086 31.9658C239.095 32.1479 239.175 32.2983 239.327 32.4171C239.479 32.5358 239.734 32.6247 240.092 32.6836L241.486 32.8948C242.235 33.0112 242.799 33.2294 243.18 33.5494C243.56 33.8694 243.764 34.3042 243.791 34.8537C243.815 35.3536 243.689 35.7994 243.412 36.1911C243.139 36.5826 242.753 36.8967 242.254 37.1332C241.757 37.3663 241.178 37.4989 240.516 37.531C239.506 37.5799 238.691 37.4087 238.072 37.0173C237.455 36.6224 237.078 36.0633 236.94 35.34L239.016 35.1299C239.094 35.4348 239.257 35.6624 239.507 35.8129C239.756 35.9601 240.069 36.0246 240.447 36.0063C240.818 35.9883 241.112 35.9027 241.33 35.7494C241.552 35.5927 241.659 35.4001 241.651 35.1715C241.638 34.9796 241.549 34.8263 241.385 34.7115C241.22 34.5934 240.97 34.5093 240.636 34.4591L239.302 34.2599C238.55 34.1471 237.983 33.9157 237.601 33.5659C237.222 33.2159 237.019 32.7562 236.992 32.1868C236.968 31.6968 237.08 31.2683 237.328 30.9013C237.579 30.5341 237.941 30.2427 238.415 30.0273C238.892 29.8117 239.457 29.6881 240.109 29.6565C241.073 29.6098 241.841 29.7767 242.413 30.1571C242.989 30.5373 243.34 31.0761 243.467 31.7735Z" fill="#F3765F"/>
<path d="M45.6172 74.1917L45.1244 64.0219L51.9771 63.6898L52.063 65.4626L47.3605 65.6904L47.4779 68.1137L51.8279 67.9029L51.9138 69.6757L47.5638 69.8865L47.6815 72.3148L52.4039 72.0859L52.4898 73.8587L45.6172 74.1917ZM55.7623 63.5064L56.2551 73.6762L54.1397 73.7788L53.6469 63.6089L55.7623 63.5064ZM61.3247 76.2976L60.8165 65.8099L62.9021 65.7088L62.9642 66.99L63.0585 66.9854C63.1413 66.7757 63.2653 66.5606 63.4304 66.3402C63.5988 66.1164 63.8219 65.9264 64.0997 65.7703C64.3806 65.6106 64.7346 65.5205 65.1617 65.4998C65.7178 65.4728 66.238 65.5936 66.7222 65.8622C67.2063 66.1274 67.6031 66.5445 67.9128 67.1136C68.2222 67.6793 68.3981 68.3991 68.4405 69.2731C68.4817 70.1239 68.3791 70.8489 68.1328 71.4482C67.8895 72.044 67.5402 72.5039 67.0847 72.8279C66.6323 73.1485 66.1165 73.3228 65.5372 73.3509C65.1266 73.3708 64.7741 73.3199 64.4795 73.1981C64.1882 73.0761 63.9466 72.917 63.7546 72.7205C63.5624 72.5208 63.4131 72.3173 63.3069 72.1101L63.2423 72.1132L63.4401 76.1951L61.3247 76.2976ZM63.072 69.5233C63.094 69.9768 63.1761 70.3694 63.3182 70.7009C63.4604 71.0325 63.6552 71.2869 63.9027 71.464C64.1501 71.6379 64.4442 71.7165 64.7852 71.7C65.1295 71.6833 65.4162 71.5748 65.6455 71.3746C65.8745 71.171 66.0421 70.8974 66.1482 70.5538C66.2575 70.2068 66.3014 69.8114 66.2799 69.3678C66.2586 68.9275 66.1785 68.5432 66.0399 68.2147C65.9012 67.8863 65.7081 67.6335 65.4606 67.4564C65.2131 67.2792 64.9155 67.1991 64.5679 67.2159C64.2236 67.2326 63.9367 67.3377 63.7072 67.5314C63.481 67.7248 63.313 67.9918 63.2034 68.3323C63.0938 68.6727 63.05 69.0697 63.072 69.5233ZM73.5183 72.989C72.7337 73.0271 72.0507 72.9009 71.4692 72.6105C70.8909 72.3167 70.4352 71.8841 70.1022 71.3129C69.7691 70.7384 69.5831 70.0489 69.5441 69.2445C69.5061 68.4599 69.625 67.7639 69.9008 67.1566C70.1767 66.5492 70.583 66.0667 71.1198 65.7088C71.66 65.3508 72.3041 65.1537 73.0523 65.1174C73.5555 65.093 74.0278 65.1515 74.4694 65.2927C74.9141 65.4304 75.3064 65.6519 75.6464 65.9573C75.9897 66.2626 76.2642 66.6541 76.4698 67.1319C76.6753 67.6064 76.7938 68.1681 76.8253 68.817L76.8534 69.398L70.4128 69.7101L70.3493 68.3991L74.7986 68.1835C74.7839 67.8789 74.7046 67.6123 74.5608 67.3837C74.4169 67.1551 74.2243 66.9803 73.9828 66.8592C73.7445 66.7347 73.4714 66.6799 73.1636 66.6949C72.8424 66.7104 72.5613 66.7987 72.3203 66.9597C72.0824 67.1172 71.8999 67.3235 71.7729 67.5785C71.6457 67.8303 71.5878 68.1068 71.5991 68.4082L71.6595 69.6546C71.6777 70.032 71.7631 70.3548 71.9154 70.6228C72.0711 70.8907 72.2816 71.0928 72.5471 71.2293C72.8125 71.3658 73.1224 71.4254 73.4766 71.4082C73.7116 71.3969 73.9252 71.3533 74.1173 71.2776C74.3094 71.202 74.4718 71.0946 74.6044 70.9554C74.737 70.8162 74.8351 70.6489 74.8986 70.4533L76.8614 70.4877C76.7849 70.9626 76.6012 71.3829 76.3103 71.7488C76.0226 72.1111 75.6418 72.4017 75.1679 72.6204C74.6972 72.8357 74.1473 72.9586 73.5183 72.989ZM84.4745 66.8436L82.5436 67.0566C82.5025 66.8927 82.4241 66.7472 82.3084 66.62C82.1926 66.4896 82.0434 66.389 81.8608 66.3182C81.6813 66.2439 81.4691 66.2128 81.2241 66.2246C80.8964 66.2405 80.6233 66.3234 80.4049 66.4734C80.1864 66.62 80.0827 66.8075 80.0937 67.036C80.1026 67.218 80.1828 67.3685 80.3346 67.4872C80.4864 67.6059 80.7412 67.6948 81.0991 67.7538L82.4931 67.965C83.242 68.0813 83.8067 68.2995 84.1873 68.6195C84.5678 68.9395 84.7713 69.3743 84.798 69.9239C84.8222 70.4238 84.6961 70.8695 84.4198 71.2612C84.1468 71.6527 83.7605 71.9668 83.2609 72.2034C82.7645 72.4365 82.1853 72.5691 81.5232 72.6011C80.5134 72.6501 79.6988 72.4788 79.0792 72.0874C78.4628 71.6926 78.0856 71.1335 77.9477 70.4101L80.0231 70.2001C80.1009 70.5049 80.2646 70.7326 80.5141 70.8831C80.7635 71.0302 81.0768 71.0947 81.4542 71.0764C81.825 71.0584 82.1195 70.9728 82.3377 70.8196C82.5591 70.6628 82.6659 70.4702 82.6581 70.2416C82.6455 70.0497 82.5568 69.8964 82.392 69.7816C82.227 69.6635 81.9773 69.5794 81.6431 69.5292L80.3094 69.3301C79.5573 69.2172 78.9903 68.9858 78.6084 68.636C78.2297 68.286 78.0266 67.8263 77.999 67.2569C77.9753 66.767 78.0872 66.3385 78.3349 65.9714C78.5859 65.6042 78.9484 65.3129 79.4224 65.0974C79.8998 64.8818 80.4645 64.7582 81.1167 64.7266C82.08 64.68 82.848 64.8468 83.4206 65.2272C83.9965 65.6075 84.3478 66.1463 84.4745 66.8436ZM89.698 72.205C88.9267 72.2424 88.2517 72.1108 87.673 71.8104C87.0975 71.5064 86.6432 71.0672 86.3101 70.4927C85.9768 69.9149 85.7912 69.2353 85.7533 68.454C85.7152 67.6661 85.8341 66.9702 86.1101 66.3661C86.3859 65.7588 86.7957 65.2777 87.3393 64.9229C87.886 64.5645 88.5451 64.3667 89.3164 64.3293C90.0878 64.2919 90.7612 64.4252 91.3367 64.7292C91.9154 65.0296 92.3713 65.4688 92.7046 66.0466C93.0377 66.6211 93.2234 67.3023 93.2616 68.0902C93.2994 68.8715 93.1804 69.5658 92.9046 70.1731C92.6286 70.7772 92.2172 71.2583 91.6705 71.6167C91.1269 71.9715 90.4694 72.1676 89.698 72.205ZM89.6286 70.5658C89.9795 70.5488 90.2676 70.4353 90.4931 70.2253C90.7183 70.012 90.8821 69.7286 90.9845 69.3752C91.0901 69.0217 91.1322 68.6231 91.1107 68.1795C91.0892 67.7359 91.0088 67.3433 90.8694 67.0016C90.7334 66.6598 90.543 66.3936 90.2982 66.203C90.0533 66.0125 89.7555 65.9257 89.4045 65.9427C89.0503 65.9599 88.7573 66.0753 88.5254 66.2889C88.2968 66.5024 88.1297 66.7859 88.0241 67.1395C87.9217 67.4928 87.8813 67.8913 87.9028 68.3349C87.9243 68.7786 88.0031 69.1713 88.1391 69.5131C88.2784 69.8548 88.4721 70.1208 88.7203 70.3112C88.9716 70.4981 89.2743 70.583 89.6286 70.5658ZM100.874 71.6386C100.294 71.6667 99.7623 71.5431 99.2777 71.2679C98.7963 70.9893 98.4042 70.5653 98.1011 69.996C97.8013 69.4232 97.6307 68.7114 97.5895 67.8606C97.5472 66.9866 97.6527 66.2531 97.906 65.6602C98.1591 65.0639 98.5121 64.6104 98.965 64.2998C99.4209 63.9857 99.9287 63.8151 100.488 63.788C100.915 63.7673 101.275 63.8228 101.566 63.9547C101.861 64.0831 102.102 64.2506 102.288 64.4573C102.477 64.6605 102.622 64.8625 102.725 65.0633L102.79 65.0602L102.604 61.2365L104.715 61.1342L105.208 71.3041L103.122 71.4052L103.063 70.1836L102.973 70.1879C102.884 70.4046 102.754 70.6217 102.582 70.8391C102.413 71.053 102.188 71.2348 101.906 71.3845C101.628 71.534 101.284 71.6187 100.874 71.6386ZM101.462 69.9227C101.803 69.9062 102.087 69.7995 102.313 69.6028C102.542 69.4025 102.711 69.1305 102.821 68.7867C102.934 68.4428 102.979 68.0441 102.957 67.5905C102.935 67.137 102.853 66.7461 102.711 66.4178C102.569 66.0896 102.374 65.8402 102.127 65.6696C101.88 65.4991 101.586 65.4221 101.245 65.4386C100.897 65.4555 100.609 65.564 100.38 65.7643C100.151 65.9645 99.9829 66.2348 99.8766 66.5751C99.7703 66.9154 99.7278 67.3057 99.7491 67.746C99.7706 68.1896 99.8509 68.5789 99.9899 68.914C100.132 69.2455 100.325 69.5016 100.57 69.6822C100.817 69.8594 101.115 69.9396 101.462 69.9227ZM110.43 71.2004C109.646 71.2384 108.962 71.1122 108.381 70.8218C107.803 70.528 107.347 70.0955 107.014 69.5243C106.681 68.9498 106.495 68.2603 106.456 67.4558C106.418 66.6712 106.537 65.9753 106.813 65.3679C107.088 64.7606 107.495 64.278 108.032 63.9202C108.572 63.5622 109.216 63.365 109.964 63.3288C110.467 63.3044 110.94 63.3628 111.381 63.504C111.826 63.6417 112.218 63.8633 112.558 64.1687C112.901 64.4739 113.176 64.8655 113.382 65.3433C113.587 65.8178 113.706 66.3795 113.737 67.0283L113.765 67.6093L107.325 67.9214L107.261 66.6105L111.71 66.3949C111.696 66.0903 111.616 65.8237 111.473 65.5951C111.329 65.3664 111.136 65.1916 110.895 65.0706C110.656 64.9461 110.383 64.8913 110.075 64.9062C109.754 64.9218 109.473 65.01 109.232 65.171C108.994 65.3286 108.812 65.5349 108.685 65.7899C108.557 66.0416 108.5 66.3182 108.511 66.6196L108.571 67.866C108.59 68.2434 108.675 68.5661 108.827 68.8341C108.983 69.102 109.193 69.3042 109.459 69.4406C109.724 69.5771 110.034 69.6368 110.388 69.6196C110.623 69.6082 110.837 69.5647 111.029 69.489C111.221 69.4133 111.384 69.3059 111.516 69.1667C111.649 69.0276 111.747 68.8602 111.81 68.6647L113.773 68.699C113.697 69.1739 113.513 69.5943 113.222 69.9601C112.934 70.3225 112.554 70.613 112.08 70.8318C111.609 71.047 111.059 71.1699 110.43 71.2004ZM50.0877 83.3497L50.1647 84.9388L45.5714 85.1614L45.4944 83.5723L50.0877 83.3497ZM46.4486 81.6944L48.564 81.5919L48.9086 88.7028C48.9181 88.8982 48.9553 89.049 49.0201 89.1554C49.0849 89.2584 49.1712 89.3289 49.2793 89.3668C49.3906 89.4045 49.5174 89.42 49.6598 89.4131C49.7591 89.4082 49.858 89.3952 49.9565 89.3738C50.0549 89.3491 50.1303 89.3305 50.1828 89.318L50.5918 90.8761C50.4874 90.9143 50.3403 90.9596 50.1504 91.0119C49.9606 91.0676 49.7286 91.107 49.4543 91.1303C48.9454 91.1748 48.4952 91.1286 48.1037 90.9916C47.7154 90.8545 47.4074 90.6272 47.1797 90.3097C46.9519 89.9922 46.8276 89.5835 46.8067 89.0834L46.4486 81.6944ZM56.5692 87.4257L56.357 83.0459L58.4724 82.9434L58.842 90.5708L56.811 90.6693L56.7439 89.2838L56.6644 89.2877C56.5139 89.7429 56.245 90.116 55.8575 90.4069C55.4734 90.6976 54.995 90.8568 54.4223 90.8846C53.9125 90.9093 53.4583 90.8151 53.0597 90.6022C52.6612 90.3892 52.3423 90.0745 52.1031 89.658C51.8672 89.2414 51.7332 88.7352 51.701 88.1395L51.4657 83.283L53.5811 83.1804L53.7982 87.6596C53.8233 88.1096 53.9614 88.4597 54.2124 88.7096C54.4634 88.9596 54.7892 89.0749 55.1898 89.0555C55.4447 89.0431 55.6803 88.9737 55.8964 88.847C56.1125 88.7171 56.2827 88.533 56.4072 88.2947C56.535 88.0562 56.589 87.7666 56.5692 87.4257ZM67.3531 93.1847C66.6678 93.2179 66.0757 93.152 65.5766 92.9871C65.0809 92.8253 64.6813 92.5908 64.3778 92.2836C64.0742 91.9764 63.8696 91.6247 63.7642 91.2283L65.7079 90.8703C65.7749 91.0197 65.8761 91.1574 66.0117 91.2836C66.1472 91.4098 66.3228 91.5074 66.5385 91.5766C66.7577 91.649 67.0213 91.6777 67.3291 91.6628C67.7893 91.6405 68.1629 91.5095 68.4499 91.27C68.7405 91.0336 68.873 90.6538 68.8477 90.1308L68.7801 88.7354L68.6907 88.7397C68.6083 88.9561 68.4789 89.1631 68.3027 89.3608C68.1264 89.5585 67.8955 89.724 67.61 89.8573C67.3244 89.9906 66.9797 90.067 66.5758 90.0866C66.0031 90.1143 65.4753 90.0072 64.9924 89.7651C64.5126 89.5196 64.1204 89.1288 63.8156 88.5927C63.5141 88.0532 63.3428 87.3613 63.3019 86.5171C63.2601 85.6531 63.3658 84.9246 63.6191 84.3316C63.8724 83.7386 64.2255 83.2868 64.6783 82.9762C65.1345 82.6654 65.6423 82.4964 66.2017 82.4693C66.6288 82.4486 66.9899 82.5041 67.2849 82.6359C67.5799 82.7642 67.8203 82.9318 68.0061 83.1385C68.1952 83.3417 68.3427 83.5436 68.4486 83.7442L68.5281 83.7403L68.466 82.4592L70.5665 82.3574L70.9397 90.0593C70.9712 90.7081 70.8386 91.2588 70.5419 91.7111C70.2453 92.1635 69.8209 92.5126 69.2687 92.7584C68.72 93.0073 68.0814 93.1494 67.3531 93.1847ZM67.1692 88.465C67.5102 88.4485 67.7941 88.3501 68.021 88.1699C68.251 87.9862 68.4212 87.7324 68.5316 87.4085C68.6452 87.0811 68.6911 86.694 68.6694 86.2471C68.6478 85.8002 68.5661 85.4159 68.4244 85.0942C68.2826 84.7693 68.0881 84.5215 67.8409 84.351C67.5937 84.1805 67.2996 84.1035 66.9587 84.12C66.6111 84.1368 66.3227 84.2454 66.0934 84.4456C65.8641 84.6426 65.6962 84.9095 65.5897 85.2465C65.4833 85.5835 65.4405 85.9688 65.4616 86.4025C65.4829 86.8428 65.5626 87.2206 65.7006 87.5357C65.8418 87.8475 66.0342 88.0854 66.2778 88.2494C66.5245 88.41 66.8216 88.4819 67.1692 88.465ZM74.8015 89.9418C74.3148 89.9654 73.8771 89.902 73.4882 89.7516C73.0991 89.5979 72.7856 89.3593 72.5476 89.0357C72.3127 88.7086 72.1831 88.2934 72.1587 87.7902C72.1382 87.3665 72.1988 87.0068 72.3404 86.7113C72.482 86.4157 72.6827 86.1737 72.9423 85.9853C73.202 85.7968 73.5001 85.6496 73.8368 85.5437C74.1767 85.4377 74.5345 85.3573 74.9102 85.3026C75.3515 85.2347 75.707 85.1744 75.9765 85.1215C76.2459 85.0653 76.4398 84.9929 76.5583 84.9042C76.6768 84.8155 76.7321 84.69 76.7242 84.5278L76.7228 84.498C76.7075 84.1835 76.5964 83.945 76.3895 83.7825C76.1858 83.6198 75.9035 83.5472 75.5427 83.5647C75.162 83.5831 74.8632 83.6822 74.6462 83.862C74.4291 84.0384 74.2903 84.2542 74.2296 84.5093L72.2654 84.4452C72.3423 83.9769 72.5182 83.5669 72.7932 83.2151C73.068 82.86 73.431 82.5803 73.8824 82.3759C74.3369 82.168 74.8687 82.0494 75.4778 82.0198C75.9015 81.9993 76.3095 82.0293 76.7016 82.1099C77.0971 82.1902 77.4505 82.3274 77.7619 82.5214C78.0765 82.7152 78.3295 82.9717 78.5209 83.2909C78.712 83.6069 78.8186 83.9916 78.8406 84.4451L79.0899 89.5897L77.0837 89.6869L77.0325 88.6292L76.9729 88.6321C76.8619 88.8764 76.7083 89.0945 76.5118 89.2865C76.3152 89.4753 76.0754 89.6279 75.7924 89.7445C75.5092 89.8578 75.1789 89.9235 74.8015 89.9418ZM75.3366 88.4525C75.6478 88.4375 75.9196 88.3629 76.152 88.2289C76.3842 88.0915 76.5631 87.9136 76.6886 87.6952C76.814 87.4767 76.8703 87.2334 76.8573 86.9653L76.818 86.1558C76.7539 86.2021 76.6648 86.2462 76.5507 86.2883C76.4398 86.3268 76.3138 86.3644 76.1729 86.4011C76.0318 86.4345 75.8907 86.4662 75.7495 86.4963C75.6081 86.5231 75.4798 86.5475 75.3648 86.5697C75.1183 86.6182 74.9042 86.6866 74.7227 86.775C74.5412 86.8635 74.4024 86.978 74.3063 87.1187C74.2101 87.2561 74.1668 87.4241 74.1764 87.6228C74.1904 87.9108 74.3053 88.1259 74.5213 88.2681C74.7404 88.4068 75.0121 88.4683 75.3366 88.4525ZM84.4185 81.6861L84.4955 83.2752L79.9022 83.4978L79.8252 81.9087L84.4185 81.6861ZM80.7794 80.0308L82.8948 79.9283L83.2394 87.0393C83.2489 87.2346 83.2861 87.3854 83.3509 87.4918C83.4157 87.5948 83.502 87.6653 83.6101 87.7032C83.7214 87.7409 83.8482 87.7564 83.9906 87.7495C84.0899 87.7447 84.1888 87.7316 84.2873 87.7102C84.3857 87.6855 84.4611 87.6669 84.5136 87.6544L84.9226 89.2125C84.8182 89.2507 84.6711 89.296 84.4812 89.3483C84.2914 89.404 84.0594 89.4434 83.7851 89.4667C83.2763 89.5113 82.826 89.465 82.4345 89.3281C82.0462 89.1909 81.7382 88.9636 81.5105 88.6461C81.2827 88.3287 81.1584 87.9199 81.1375 87.4198L80.7794 80.0308ZM89.5376 89.2327C88.7663 89.2701 88.0913 89.1386 87.5126 88.8381C86.9371 88.5342 86.4828 88.0949 86.1496 87.5204C85.8164 86.9426 85.6308 86.263 85.5929 85.4818C85.5548 84.6939 85.6737 83.9979 85.9497 83.3939C86.2255 82.7865 86.6353 82.3054 87.1789 81.9506C87.7256 81.5923 88.3846 81.3944 89.156 81.357C89.9273 81.3196 90.6008 81.4529 91.1763 81.7569C91.755 82.0573 92.2109 82.4965 92.5442 83.0743C92.8773 83.6488 93.063 84.33 93.1012 85.1179C93.139 85.8992 93.02 86.5935 92.7442 87.2009C92.4682 87.8049 92.0568 88.2861 91.51 88.6444C90.9665 88.9992 90.309 89.1954 89.5376 89.2327ZM89.4682 87.5935C89.8191 87.5765 90.1072 87.463 90.3327 87.253C90.5579 87.0397 90.7217 86.7563 90.824 86.4029C90.9297 86.0494 90.9718 85.6508 90.9503 85.2072C90.9288 84.7636 90.8484 84.371 90.709 84.0293C90.573 83.6875 90.3826 83.4213 90.1377 83.2307C89.8929 83.0402 89.595 82.9534 89.2441 82.9704C88.8899 82.9876 88.5969 83.103 88.365 83.3166C88.1364 83.5301 87.9693 83.8137 87.8636 84.1672C87.7613 84.5206 87.7209 84.9191 87.7424 85.3627C87.7639 85.8063 87.8426 86.199 87.9787 86.5408C88.118 86.8825 88.3117 87.1485 88.5599 87.3389C88.8112 87.5258 89.1139 87.6107 89.4682 87.5935Z" fill="#272427"/>
<rect width="43" height="20" transform="translate(78.3799 212.702) rotate(-2.77424)" fill="white"/>
<path d="M79.1976 219.577L79.1427 218.445L85.889 218.118L85.9439 219.25L83.2241 219.382L83.5916 226.967L82.2807 227.03L81.9131 219.446L79.1976 219.577ZM87.7001 226.768L87.3833 220.23L88.6559 220.168L88.9727 226.706L87.7001 226.768ZM87.9771 219.19C87.7558 219.201 87.5621 219.136 87.396 218.996C87.2327 218.854 87.146 218.679 87.1359 218.471C87.1258 218.261 87.1951 218.079 87.3441 217.924C87.4957 217.766 87.6821 217.681 87.9035 217.671C88.1248 217.66 88.3171 217.726 88.4805 217.869C88.6466 218.009 88.7347 218.183 88.7448 218.393C88.7549 218.601 88.6841 218.783 88.5325 218.941C88.3836 219.096 88.1984 219.179 87.9771 219.19ZM93.509 226.619C92.8648 226.65 92.3034 226.539 91.8247 226.286C91.3487 226.031 90.9723 225.658 90.6954 225.168C90.4212 224.675 90.2677 224.089 90.2348 223.411C90.2024 222.741 90.2986 222.145 90.5236 221.622C90.7514 221.099 91.0839 220.684 91.5212 220.375C91.9613 220.066 92.485 219.897 93.0923 219.868C93.4611 219.85 93.8216 219.894 94.1737 219.999C94.5258 220.104 94.8458 220.281 95.1337 220.529C95.4216 220.776 95.6551 221.105 95.8342 221.514C96.0132 221.921 96.1171 222.421 96.1458 223.014L96.1677 223.465L90.9707 223.717L90.9245 222.763L94.8744 222.572C94.8581 222.237 94.7757 221.944 94.627 221.692C94.4781 221.438 94.2766 221.241 94.0224 221.103C93.7711 220.964 93.4809 220.903 93.1517 220.919C92.7942 220.936 92.4863 221.039 92.2281 221.228C91.9726 221.414 91.7793 221.651 91.6482 221.939C91.5198 222.224 91.4635 222.53 91.4793 222.856L91.5154 223.601C91.5366 224.038 91.6312 224.406 91.7993 224.705C91.9702 225.004 92.1986 225.227 92.4845 225.375C92.7703 225.521 93.0991 225.585 93.4708 225.567C93.712 225.555 93.9303 225.51 94.1256 225.432C94.3208 225.352 94.4874 225.239 94.6253 225.093C94.7633 224.946 94.8657 224.769 94.9324 224.561L96.1475 224.72C96.0682 225.08 95.9101 225.399 95.6733 225.677C95.4393 225.953 95.1385 226.174 94.7711 226.34C94.4064 226.503 93.9857 226.595 93.509 226.619ZM97.7196 226.282L97.4028 219.744L98.6243 219.685L98.6759 220.749L98.7568 220.745C98.8755 220.378 99.0847 220.087 99.3842 219.87C99.6836 219.651 100.049 219.531 100.48 219.51C100.917 219.489 101.288 219.573 101.593 219.763C101.901 219.953 102.135 220.223 102.294 220.574L102.362 220.571C102.501 220.214 102.736 219.924 103.066 219.7C103.397 219.474 103.797 219.349 104.268 219.326C104.861 219.298 105.354 219.46 105.747 219.814C106.142 220.167 106.358 220.718 106.394 221.468L106.607 225.852L105.334 225.913L105.128 221.648C105.106 221.206 104.97 220.891 104.719 220.704C104.468 220.517 104.176 220.432 103.841 220.448C103.426 220.468 103.111 220.611 102.893 220.878C102.675 221.141 102.576 221.472 102.596 221.869L102.797 226.036L101.529 226.098L101.318 221.752C101.301 221.397 101.177 221.117 100.945 220.912C100.713 220.708 100.42 220.614 100.065 220.631C99.8241 220.643 99.6044 220.717 99.4063 220.855C99.2109 220.989 99.0562 221.172 98.9422 221.402C98.831 221.632 98.7826 221.895 98.7969 222.19L98.9922 226.221L97.7196 226.282ZM108.431 228.221L107.996 219.231L109.239 219.171L109.29 220.231L109.396 220.226C109.464 220.086 109.562 219.923 109.693 219.738C109.823 219.552 110.009 219.387 110.249 219.241C110.489 219.093 110.812 219.009 111.218 218.99C111.746 218.964 112.223 219.075 112.651 219.321C113.078 219.568 113.421 219.937 113.681 220.428C113.944 220.918 114.092 221.517 114.127 222.223C114.161 222.93 114.072 223.542 113.861 224.058C113.65 224.572 113.345 224.975 112.947 225.267C112.549 225.557 112.086 225.714 111.558 225.74C111.161 225.759 110.833 225.708 110.573 225.587C110.317 225.466 110.114 225.319 109.963 225.147C109.813 224.975 109.696 224.822 109.613 224.686L109.536 224.69L109.704 228.159L108.431 228.221ZM109.401 222.44C109.424 222.899 109.51 223.299 109.66 223.639C109.81 223.978 110.016 224.24 110.278 224.424C110.54 224.604 110.854 224.686 111.22 224.668C111.6 224.65 111.913 224.534 112.159 224.32C112.404 224.103 112.584 223.817 112.698 223.462C112.814 223.106 112.862 222.71 112.84 222.273C112.82 221.842 112.736 221.457 112.588 221.12C112.444 220.783 112.238 220.522 111.97 220.336C111.705 220.149 111.381 220.065 110.998 220.084C110.629 220.102 110.322 220.212 110.075 220.415C109.832 220.617 109.653 220.892 109.539 221.238C109.425 221.585 109.379 221.986 109.401 222.44ZM118.47 225.409C117.858 225.439 117.316 225.324 116.845 225.065C116.375 224.807 116.001 224.431 115.724 223.938C115.447 223.445 115.292 222.861 115.26 222.186C115.227 221.507 115.324 220.908 115.552 220.388C115.78 219.868 116.116 219.456 116.559 219.153C117.002 218.85 117.53 218.684 118.143 218.654C118.756 218.624 119.298 218.739 119.768 218.998C120.239 219.257 120.612 219.634 120.89 220.129C121.167 220.625 121.322 221.212 121.355 221.89C121.387 222.566 121.29 223.162 121.062 223.679C120.834 224.197 120.498 224.607 120.055 224.91C119.611 225.213 119.083 225.379 118.47 225.409ZM118.423 224.34C118.82 224.321 119.144 224.2 119.395 223.978C119.646 223.755 119.825 223.466 119.933 223.111C120.044 222.756 120.089 222.368 120.069 221.948C120.049 221.531 119.966 221.151 119.822 220.808C119.68 220.463 119.473 220.19 119.202 219.989C118.931 219.789 118.596 219.699 118.199 219.718C117.799 219.737 117.472 219.86 117.218 220.085C116.968 220.311 116.787 220.603 116.676 220.961C116.568 221.316 116.525 221.702 116.545 222.119C116.565 222.539 116.646 222.92 116.788 223.263C116.933 223.606 117.14 223.876 117.412 224.074C117.686 224.271 118.023 224.36 118.423 224.34Z" fill="#D3D3D3"/>
</g>
<defs>
<filter id="filter0_d_376_203" x="-0.944336" y="-0.944336" width="299.263" height="279.304" filterUnits="userSpaceOnUse" color-interpolation-filters="sRGB">
<feFlood flood-opacity="0" result="BackgroundImageFix"/>
<feColorMatrix in="SourceAlpha" type="matrix" values="0 0 0 0 0 0 0 0 0 0 0 0 0 0 0 0 0 0 127 0" result="hardAlpha"/>
<feOffset dy="4"/>
<feGaussianBlur stdDeviation="7"/>
<feComposite in2="hardAlpha" operator="out"/>
<feColorMatrix type="matrix" values="0 0 0 0 0 0 0 0 0 0 0 0 0 0 0 0 0 0 0.03 0"/>
<feBlend mode="normal" in2="BackgroundImageFix" result="effect1_dropShadow_376_203"/>
<feBlend mode="normal" in="SourceGraphic" in2="effect1_dropShadow_376_203" result="shape"/>
</filter>
<filter id="filter1_d_376_203" x="175.47" y="115.84" width="99.418" height="62.3516" filterUnits="userSpaceOnUse" color-interpolation-filters="sRGB">
<feFlood flood-opacity="0" result="BackgroundImageFix"/>
<feColorMatrix in="SourceAlpha" type="matrix" values="0 0 0 0 0 0 0 0 0 0 0 0 0 0 0 0 0 0 127 0" result="hardAlpha"/>
<feOffset dy="4"/>
<feGaussianBlur stdDeviation="7"/>
<feComposite in2="hardAlpha" operator="out"/>
<feColorMatrix type="matrix" values="0 0 0 0 0.720252 0 0 0 0 0.720252 0 0 0 0 0.720252 0 0 0 0.3 0"/>
<feBlend mode="normal" in2="BackgroundImageFix" result="effect1_dropShadow_376_203"/>
<feBlend mode="normal" in="SourceGraphic" in2="effect1_dropShadow_376_203" result="shape"/>
</filter>
<linearGradient id="paint0_linear_376_203" x1="155.602" y1="308.41" x2="146.829" y2="127.348" gradientUnits="userSpaceOnUse">
<stop stop-color="white" stop-opacity="0"/>
<stop offset="1" stop-color="#248112" stop-opacity="0.6"/>
</linearGradient>
</defs>
</svg>
