<svg width="298" height="278" viewBox="0 0 298 278" fill="none" xmlns="http://www.w3.org/2000/svg">
<g filter="url(#filter0_d_370_4202)">
<rect x="13.0557" y="21.6396" width="260" height="239" rx="20" transform="rotate(-2.77424 13.0557 21.6396)" fill="white"/>
<path d="M244.669 214.655L57.8881 223.706L52.4977 112.466C52.4977 112.466 99.4825 100.749 126.422 116.317C158.973 135.129 174.126 165.652 207.559 171.901C224.878 175.139 242.66 173.204 242.66 173.204L244.669 214.655Z" fill="url(#paint0_linear_370_4202)" fill-opacity="0.2" style="mix-blend-mode:hard-light"/>
<path d="M52.4922 112.337L57.9131 224.206L247.69 215.01" stroke="#E2E2E2" stroke-linecap="round"/>
<path d="M53.4908 112.289C53.4908 112.289 94.2609 96.2207 128.766 116.15C164.79 136.431 167.788 167.322 216.619 172.965C232.941 174.851 245.657 173.06 245.657 173.06" stroke="#4BA95E" stroke-width="5"/>
<circle cx="52.4677" cy="111.839" r="8" transform="rotate(-2.77424 52.4677 111.839)" fill="#4FA961"/>
<circle cx="245.633" cy="172.56" r="8" transform="rotate(-2.77424 245.633 172.56)" fill="#4FA961"/>
<circle cx="245.633" cy="172.561" r="4" transform="rotate(-2.77424 245.633 172.561)" fill="white"/>
<circle cx="52.4672" cy="111.838" r="4" transform="rotate(-2.77424 52.4672 111.838)" fill="white"/>
<circle cx="232.076" cy="58.0822" r="5" transform="rotate(-2.77424 232.076 58.0822)" fill="#F3765F"/>
<path d="M61.1728 126.194C61.1728 126.194 91.2784 179.299 95.5883 185.598C99.8982 191.897 115.655 200.945 123.837 179.724C132.02 158.503 136.971 121.276 145.677 103.578C159.804 74.8603 177.532 58.4829 229.592 58.4644" stroke="#F3765F" stroke-width="3" stroke-linecap="round" stroke-dasharray="11 11"/>
<g filter="url(#filter1_d_370_4202)">
<rect x="189.47" y="129.228" width="70" height="31" rx="11" transform="rotate(-2.77424 189.47 129.228)" fill="#4BA95E" shape-rendering="crispEdges"/>
<path d="M204.379 139.336L207.458 139.187L209.644 143.222L209.724 143.218L211.51 138.991L214.589 138.841L211.192 145.994L211.347 149.192L208.606 149.325L208.451 146.127L204.379 139.336ZM220.246 145.416L220.038 141.126L222.779 140.993L223.148 148.62L220.546 148.747L220.476 147.297L220.397 147.3C220.255 147.795 219.983 148.19 219.583 148.485C219.182 148.776 218.697 148.936 218.128 148.963C217.595 148.989 217.122 148.889 216.71 148.664C216.3 148.438 215.975 148.115 215.732 147.696C215.493 147.276 215.358 146.788 215.328 146.232L215.092 141.366L217.833 141.233L218.041 145.523C218.062 145.9 218.173 146.192 218.372 146.398C218.574 146.604 218.848 146.699 219.192 146.682C219.42 146.671 219.615 146.613 219.776 146.509C219.94 146.402 220.062 146.256 220.143 146.073C220.227 145.887 220.261 145.668 220.246 145.416ZM228.224 148.514C227.396 148.554 226.68 148.424 226.075 148.125C225.469 147.823 224.995 147.384 224.652 146.81C224.309 146.233 224.118 145.554 224.081 144.773C224.043 143.991 224.167 143.298 224.453 142.694C224.738 142.086 225.168 141.604 225.741 141.248C226.315 140.888 227.015 140.688 227.843 140.648C228.591 140.612 229.245 140.716 229.804 140.961C230.367 141.203 230.81 141.563 231.136 142.041C231.461 142.517 231.641 143.086 231.676 143.747L229.134 143.871C229.078 143.472 228.947 143.173 228.742 142.974C228.54 142.771 228.286 142.677 227.982 142.692C227.743 142.704 227.538 142.783 227.366 142.931C227.194 143.075 227.065 143.289 226.979 143.572C226.893 143.851 226.86 144.2 226.88 144.617C226.9 145.034 226.967 145.379 227.08 145.653C227.192 145.923 227.341 146.123 227.527 146.253C227.712 146.38 227.924 146.438 228.163 146.426C228.364 146.417 228.541 146.362 228.692 146.261C228.843 146.158 228.962 146.013 229.049 145.826C229.14 145.636 229.188 145.408 229.195 145.142L231.738 145.019C231.76 145.691 231.635 146.285 231.361 146.799C231.087 147.31 230.684 147.714 230.151 148.012C229.621 148.31 228.979 148.477 228.224 148.514ZM235.154 148.158C234.667 148.182 234.233 148.123 233.851 147.982C233.473 147.838 233.169 147.607 232.942 147.29C232.714 146.972 232.588 146.56 232.563 146.054C232.543 145.637 232.597 145.277 232.725 144.976C232.853 144.671 233.04 144.418 233.285 144.217C233.531 144.016 233.821 143.858 234.153 143.742C234.49 143.626 234.854 143.544 235.246 143.495C235.672 143.441 236.013 143.385 236.269 143.326C236.528 143.263 236.713 143.186 236.825 143.095C236.936 143 236.989 142.879 236.982 142.734L236.981 142.714C236.971 142.515 236.887 142.367 236.73 142.268C236.573 142.17 236.375 142.126 236.136 142.138C235.875 142.15 235.664 142.219 235.504 142.342C235.347 142.463 235.258 142.641 235.236 142.878L232.714 143C232.725 142.535 232.851 142.101 233.094 141.698C233.339 141.291 233.71 140.958 234.205 140.698C234.7 140.435 235.327 140.285 236.085 140.249C236.631 140.222 237.124 140.263 237.564 140.371C238.004 140.476 238.381 140.635 238.697 140.849C239.012 141.059 239.257 141.313 239.431 141.61C239.608 141.903 239.705 142.227 239.722 142.581L239.975 147.805L237.412 147.929L237.361 146.857L237.301 146.86C237.162 147.152 236.988 147.391 236.778 147.577C236.572 147.763 236.331 147.902 236.057 147.995C235.786 148.088 235.485 148.142 235.154 148.158ZM235.964 146.387C236.173 146.377 236.366 146.324 236.544 146.229C236.725 146.134 236.87 146.003 236.978 145.835C237.086 145.667 237.134 145.467 237.123 145.236L237.092 144.6C237.02 144.633 236.944 144.665 236.863 144.696C236.784 144.726 236.7 144.755 236.608 144.783C236.52 144.81 236.425 144.836 236.323 144.861C236.225 144.886 236.121 144.909 236.013 144.931C235.803 144.974 235.631 145.037 235.499 145.12C235.371 145.199 235.276 145.295 235.215 145.408C235.157 145.517 235.131 145.637 235.138 145.77C235.148 145.982 235.23 146.14 235.385 146.246C235.539 146.351 235.732 146.398 235.964 146.387ZM245.464 139.894L245.56 141.88L240.534 142.124L240.438 140.137L245.464 139.894ZM241.323 138.263L244.064 138.13L244.403 145.132C244.408 145.238 244.431 145.326 244.471 145.397C244.511 145.465 244.57 145.515 244.647 145.548C244.725 145.577 244.824 145.589 244.943 145.583C245.026 145.579 245.121 145.565 245.229 145.54C245.341 145.514 245.423 145.494 245.475 145.478L245.966 147.385C245.845 147.428 245.672 147.481 245.446 147.545C245.224 147.609 244.957 147.657 244.647 147.688C244.019 147.752 243.488 147.713 243.053 147.571C242.618 147.426 242.284 147.182 242.052 146.838C241.82 146.495 241.694 146.056 241.675 145.523L241.323 138.263Z" fill="white"/>
</g>
<path d="M118.29 33.1103L120.942 32.9818L124.074 39.6789L124.193 39.6732L126.662 32.7046L129.314 32.5761L129.807 42.7459L127.721 42.847L127.401 36.2276L127.316 36.2317L125.003 42.929L123.582 42.9978L120.631 36.5308L120.547 36.5349L120.869 43.1791L118.783 43.2801L118.29 33.1103ZM133.721 42.7006C133.234 42.7242 132.796 42.6608 132.407 42.5104C132.018 42.3567 131.705 42.1181 131.467 41.7945C131.232 41.4674 131.102 41.0522 131.078 40.549C131.058 40.1253 131.118 39.7656 131.26 39.4701C131.401 39.1745 131.602 38.9325 131.862 38.7441C132.121 38.5556 132.419 38.4085 132.756 38.3025C133.096 38.1965 133.454 38.1161 133.829 38.0614C134.271 37.9935 134.626 37.9332 134.896 37.8803C135.165 37.8241 135.359 37.7517 135.478 37.663C135.596 37.5743 135.651 37.4488 135.644 37.2866L135.642 37.2568C135.627 36.9423 135.516 36.7038 135.309 36.5413C135.105 36.3786 134.823 36.306 134.462 36.3235C134.081 36.3419 133.782 36.441 133.566 36.6208C133.348 36.7972 133.21 37.013 133.149 37.2681L131.185 37.204C131.262 36.7357 131.437 36.3257 131.712 35.9739C131.987 35.6188 132.35 35.3391 132.802 35.1347C133.256 34.9269 133.788 34.8082 134.397 34.7787C134.821 34.7581 135.229 34.7881 135.621 34.8687C136.016 34.9491 136.37 35.0862 136.681 35.2802C136.996 35.474 137.249 35.7305 137.44 36.0498C137.631 36.3657 137.738 36.7504 137.76 37.204L138.009 42.3485L136.003 42.4457L135.952 41.388L135.892 41.3909C135.781 41.6352 135.628 41.8533 135.431 42.0454C135.235 42.2341 134.995 42.3867 134.712 42.5033C134.428 42.6166 134.098 42.6824 133.721 42.7006ZM134.256 41.2113C134.567 41.1963 134.839 41.1217 135.071 40.9877C135.304 40.8503 135.482 40.6724 135.608 40.454C135.733 40.2355 135.79 39.9922 135.777 39.7241L135.737 38.9147C135.673 38.9609 135.584 39.005 135.47 39.0471C135.359 39.0856 135.233 39.1233 135.092 39.1599C134.951 39.1933 134.81 39.2251 134.669 39.2551C134.527 39.2819 134.399 39.3063 134.284 39.3285C134.038 39.377 133.824 39.4454 133.642 39.5338C133.46 39.6223 133.322 39.7368 133.226 39.8775C133.129 40.0149 133.086 40.183 133.096 40.3816C133.11 40.6696 133.225 40.8847 133.441 41.0269C133.66 41.1656 133.931 41.2271 134.256 41.2113ZM133.674 33.9277L134.617 31.6173L136.574 31.5225L135.169 33.8553L133.674 33.9277ZM145.732 36.509L143.802 36.7221C143.76 36.5581 143.682 36.4126 143.566 36.2855C143.451 36.155 143.301 36.0544 143.119 35.9836C142.939 35.9094 142.727 35.8782 142.482 35.8901C142.154 35.9059 141.881 35.9889 141.663 36.1388C141.444 36.2854 141.341 36.473 141.352 36.7014C141.36 36.8835 141.441 37.0339 141.593 37.1526C141.744 37.2714 141.999 37.3602 142.357 37.4192L143.751 37.6304C144.5 37.7467 145.065 37.9649 145.445 38.285C145.826 38.605 146.029 39.0398 146.056 39.5893C146.08 40.0892 145.954 40.535 145.678 40.9267C145.405 41.3182 145.018 41.6322 144.519 41.8688C144.022 42.1019 143.443 42.2345 142.781 42.2666C141.771 42.3155 140.957 42.1443 140.337 41.7529C139.721 41.358 139.344 40.7989 139.206 40.0756L141.281 39.8655C141.359 40.1703 141.522 40.398 141.772 40.5485C142.021 40.6957 142.335 40.7601 142.712 40.7418C143.083 40.7239 143.377 40.6383 143.596 40.485C143.817 40.3283 143.924 40.1356 143.916 39.907C143.903 39.7152 143.815 39.5619 143.65 39.4471C143.485 39.329 143.235 39.2448 142.901 39.1947L141.567 38.9955C140.815 38.8826 140.248 38.6513 139.866 38.3014C139.488 37.9515 139.284 37.4918 139.257 36.9224C139.233 36.4324 139.345 36.0039 139.593 35.6368C139.844 35.2696 140.206 34.9783 140.68 34.7629C141.158 34.5473 141.722 34.4237 142.375 34.3921C143.338 34.3454 144.106 34.5123 144.679 34.8927C145.254 35.2729 145.606 35.8117 145.732 36.509ZM152.921 41.7703C152.434 41.7938 151.997 41.7304 151.608 41.58C151.219 41.4263 150.905 41.1877 150.667 40.8641C150.432 40.537 150.303 40.1218 150.278 39.6187C150.258 39.1949 150.318 38.8353 150.46 38.5397C150.601 38.2441 150.802 38.0021 151.062 37.8137C151.321 37.6252 151.62 37.4781 151.956 37.3722C152.296 37.2661 152.654 37.1857 153.03 37.131C153.471 37.0632 153.826 37.0028 154.096 36.9499C154.365 36.8937 154.559 36.8213 154.678 36.7326C154.796 36.6439 154.852 36.5184 154.844 36.3562L154.842 36.3264C154.827 36.0119 154.716 35.7734 154.509 35.6109C154.305 35.4482 154.023 35.3756 153.662 35.3931C153.281 35.4115 152.983 35.5106 152.766 35.6904C152.549 35.8668 152.41 36.0826 152.349 36.3377L150.385 36.2736C150.462 35.8053 150.638 35.3953 150.913 35.0435C151.187 34.6884 151.55 34.4087 152.002 34.2043C152.456 33.9965 152.988 33.8778 153.597 33.8483C154.021 33.8277 154.429 33.8577 154.821 33.9383C155.217 34.0187 155.57 34.1558 155.881 34.3498C156.196 34.5436 156.449 34.8001 156.64 35.1194C156.831 35.4353 156.938 35.82 156.96 36.2736L157.209 41.4181L155.203 41.5153L155.152 40.4576L155.092 40.4605C154.981 40.7048 154.828 40.9229 154.631 41.115C154.435 41.3037 154.195 41.4563 153.912 41.5729C153.629 41.6862 153.298 41.752 152.921 41.7703ZM153.456 40.281C153.767 40.2659 154.039 40.1913 154.271 40.0573C154.504 39.9199 154.683 39.742 154.808 39.5236C154.933 39.3051 154.99 39.0618 154.977 38.7937L154.937 37.9843C154.873 38.0305 154.784 38.0746 154.67 38.1167C154.559 38.1552 154.433 38.1929 154.292 38.2296C154.151 38.2629 154.01 38.2947 153.869 38.3247C153.728 38.3515 153.599 38.376 153.484 38.3981C153.238 38.4466 153.024 38.515 152.842 38.6034C152.661 38.6919 152.522 38.8065 152.426 38.9472C152.33 39.0846 152.286 39.2526 152.296 39.4512C152.31 39.7392 152.425 39.9543 152.641 40.0965C152.86 40.2352 153.132 40.2967 153.456 40.281ZM160.473 31.0662L160.966 41.2361L158.851 41.3386L158.358 31.1687L160.473 31.0662ZM164.471 38.8662L164.353 36.3285L164.661 36.3135L166.964 33.3001L169.392 33.1824L166.295 37.1751L165.794 37.1994L164.471 38.8662ZM162.66 41.1539L162.168 30.9841L164.283 30.8816L164.776 41.0514L162.66 41.1539ZM167.428 40.9229L165.022 37.7096L166.36 36.1466L169.906 40.8029L167.428 40.9229ZM172.981 40.7982C172.495 40.8218 172.057 40.7583 171.668 40.608C171.279 40.4543 170.965 40.2156 170.727 39.892C170.493 39.5649 170.363 39.1498 170.339 38.6466C170.318 38.2228 170.379 37.8632 170.52 37.5676C170.662 37.2721 170.863 37.0301 171.122 36.8416C171.382 36.6532 171.68 36.506 172.017 36.4001C172.357 36.294 172.714 36.2136 173.09 36.1589C173.531 36.0911 173.887 36.0307 174.156 35.9778C174.426 35.9216 174.62 35.8492 174.738 35.7605C174.857 35.6718 174.912 35.5463 174.904 35.3841L174.903 35.3543C174.887 35.0398 174.776 34.8013 174.569 34.6388C174.366 34.4761 174.083 34.4035 173.723 34.421C173.342 34.4395 173.043 34.5386 172.826 34.7183C172.609 34.8947 172.47 35.1105 172.41 35.3656L170.445 35.3015C170.522 34.8333 170.698 34.4232 170.973 34.0714C171.248 33.7163 171.611 33.4366 172.062 33.2322C172.517 33.0244 173.049 32.9057 173.658 32.8762C174.081 32.8556 174.489 32.8857 174.882 32.9662C175.277 33.0466 175.63 33.1838 175.942 33.3777C176.256 33.5715 176.509 33.828 176.701 34.1473C176.892 34.4632 176.998 34.8479 177.02 35.3015L177.27 40.446L175.264 40.5432L175.212 39.4855L175.153 39.4884C175.042 39.7327 174.888 39.9509 174.692 40.1429C174.495 40.3316 174.255 40.4842 173.972 40.6008C173.689 40.7141 173.359 40.7799 172.981 40.7982ZM173.516 39.3089C173.828 39.2938 174.099 39.2192 174.332 39.0852C174.564 38.9479 174.743 38.77 174.868 38.5515C174.994 38.3331 175.05 38.0898 175.037 37.8216L174.998 37.0122C174.934 37.0584 174.845 37.1026 174.731 37.1446C174.62 37.1832 174.494 37.2208 174.353 37.2575C174.212 37.2909 174.071 37.3226 173.929 37.3527C173.788 37.3794 173.66 37.4039 173.545 37.426C173.298 37.4745 173.084 37.5429 172.903 37.6314C172.721 37.7198 172.582 37.8344 172.486 37.9751C172.39 38.1125 172.347 38.2805 172.356 38.4791C172.37 38.7671 172.485 38.9822 172.701 39.1244C172.92 39.2631 173.192 39.3246 173.516 39.3089ZM180.534 30.0941L181.026 40.264L178.911 40.3665L178.418 30.1966L180.534 30.0941ZM182.721 40.1819L182.351 32.5545L184.367 32.4568L184.433 33.8025L184.522 33.7982C184.659 33.3435 184.907 32.9781 185.265 32.7019C185.624 32.4258 186.061 32.2751 186.577 32.2501C187.1 32.2248 187.552 32.334 187.932 32.5777C188.312 32.8181 188.574 33.1571 188.718 33.5948L188.798 33.591C188.932 33.1464 189.196 32.7835 189.591 32.5023C189.989 32.2176 190.467 32.0616 191.027 32.0345C191.738 32 192.327 32.1988 192.793 32.6309C193.261 33.0594 193.516 33.6875 193.556 34.5152L193.805 39.6448L191.694 39.7471L191.466 35.0345C191.445 34.6108 191.317 34.2984 191.082 34.0975C190.846 33.8965 190.56 33.8042 190.222 33.8206C189.838 33.8392 189.545 33.9762 189.341 34.2316C189.138 34.4837 189.046 34.8084 189.065 35.2056L189.291 39.8635L187.24 39.9629L187.009 35.2057C186.991 34.8316 186.869 34.5389 186.643 34.3275C186.421 34.116 186.135 34.0186 185.788 34.0355C185.553 34.0468 185.344 34.1167 185.161 34.245C184.981 34.3699 184.842 34.5409 184.743 34.7581C184.644 34.9719 184.601 35.2195 184.614 35.5009L184.836 40.0794L182.721 40.1819ZM197.657 39.6024C197.171 39.626 196.733 39.5626 196.344 39.4122C195.955 39.2585 195.642 39.0199 195.404 38.6962C195.169 38.3692 195.039 37.954 195.015 37.4508C194.994 37.0271 195.055 36.6674 195.196 36.3719C195.338 36.0763 195.539 35.8343 195.798 35.6459C196.058 35.4574 196.356 35.3102 196.693 35.2043C197.033 35.0983 197.391 35.0179 197.766 34.9632C198.208 34.8953 198.563 34.835 198.833 34.7821C199.102 34.7259 199.296 34.6535 199.414 34.5648C199.533 34.4761 199.588 34.3506 199.58 34.1884L199.579 34.1586C199.564 33.8441 199.452 33.6056 199.245 33.4431C199.042 33.2804 198.76 33.2078 198.399 33.2253C198.018 33.2437 197.719 33.3428 197.502 33.5226C197.285 33.699 197.146 33.9148 197.086 34.1699L195.121 34.1058C195.198 33.6375 195.374 33.2275 195.649 32.8757C195.924 32.5206 196.287 32.2409 196.738 32.0365C197.193 31.8286 197.725 31.71 198.334 31.6804C198.758 31.6599 199.165 31.6899 199.558 31.7705C199.953 31.8508 200.306 31.988 200.618 32.182C200.933 32.3758 201.186 32.6323 201.377 32.9515C201.568 33.2675 201.675 33.6522 201.697 34.1057L201.946 39.2503L199.94 39.3475L199.888 38.2898L199.829 38.2927C199.718 38.537 199.564 38.7551 199.368 38.9471C199.171 39.1359 198.931 39.2885 198.648 39.4051C198.365 39.5184 198.035 39.5841 197.657 39.6024ZM198.193 38.1131C198.504 38.0981 198.776 38.0235 199.008 37.8895C199.24 37.7521 199.419 37.5742 199.545 37.3558C199.67 37.1373 199.726 36.894 199.713 36.6259L199.674 35.8164C199.61 35.8627 199.521 35.9068 199.407 35.9488C199.296 35.9874 199.17 36.025 199.029 36.0617C198.888 36.0951 198.747 36.1268 198.605 36.1569C198.464 36.1837 198.336 36.2081 198.221 36.2303C197.974 36.2787 197.76 36.3472 197.579 36.4356C197.397 36.5241 197.258 36.6386 197.162 36.7793C197.066 36.9167 197.023 37.0847 197.032 37.2834C197.046 37.5714 197.161 37.7865 197.377 37.9287C197.596 38.0674 197.868 38.1289 198.193 38.1131ZM203.547 39.1727L203.486 37.9114L206.996 33.1073L206.994 33.0527L203.389 33.2274L203.307 31.539L209.459 31.2409L209.526 32.6164L206.239 37.2952L206.241 37.3498L209.876 37.1737L209.958 38.862L203.547 39.1727ZM213.758 38.8222C213.271 38.8458 212.833 38.7824 212.444 38.632C212.055 38.4783 211.742 38.2397 211.504 37.9161C211.269 37.589 211.139 37.1738 211.115 36.6706C211.094 36.2469 211.155 35.8873 211.297 35.5917C211.438 35.2961 211.639 35.0541 211.899 34.8657C212.158 34.6772 212.456 34.5301 212.793 34.4242C213.133 34.3181 213.491 34.2377 213.866 34.183C214.308 34.1152 214.663 34.0548 214.933 34.0019C215.202 33.9457 215.396 33.8733 215.515 33.7846C215.633 33.6959 215.688 33.5704 215.68 33.4082L215.679 33.3784C215.664 33.0639 215.553 32.8254 215.346 32.6629C215.142 32.5002 214.86 32.4276 214.499 32.4451C214.118 32.4635 213.819 32.5626 213.602 32.7424C213.385 32.9188 213.247 33.1346 213.186 33.3897L211.222 33.3256C211.299 32.8573 211.474 32.4473 211.749 32.0955C212.024 31.7404 212.387 31.4607 212.839 31.2563C213.293 31.0485 213.825 30.9298 214.434 30.9003C214.858 30.8797 215.266 30.9097 215.658 30.9903C216.053 31.0707 216.407 31.2078 216.718 31.4018C217.033 31.5956 217.286 31.8521 217.477 32.1714C217.668 32.4873 217.775 32.872 217.797 33.3256L218.046 38.4701L216.04 38.5673L215.989 37.5096L215.929 37.5125C215.818 37.7568 215.665 37.9749 215.468 38.167C215.271 38.3557 215.032 38.5083 214.749 38.6249C214.465 38.7382 214.135 38.804 213.758 38.8222ZM214.293 37.333C214.604 37.3179 214.876 37.2433 215.108 37.1093C215.34 36.9719 215.519 36.794 215.645 36.5756C215.77 36.3571 215.827 36.1138 215.814 35.8457L215.774 35.0363C215.71 35.0825 215.621 35.1266 215.507 35.1687C215.396 35.2072 215.27 35.2449 215.129 35.2815C214.988 35.3149 214.847 35.3467 214.706 35.3767C214.564 35.4035 214.436 35.428 214.321 35.4501C214.075 35.4986 213.86 35.567 213.679 35.6554C213.497 35.7439 213.359 35.8585 213.263 35.9992C213.166 36.1365 213.123 36.3046 213.133 36.5032C213.147 36.7912 213.262 37.0063 213.478 37.1485C213.697 37.2872 213.968 37.3487 214.293 37.333ZM213.711 30.0493L214.654 27.7389L216.611 27.6441L215.206 29.9769L213.711 30.0493ZM225.769 32.6306L223.838 32.8437C223.797 32.6797 223.719 32.5342 223.603 32.4071C223.487 32.2767 223.338 32.176 223.156 32.1052C222.976 32.031 222.764 31.9998 222.519 32.0117C222.191 32.0275 221.918 32.1105 221.7 32.2604C221.481 32.407 221.378 32.5946 221.389 32.823C221.397 33.0051 221.478 33.1555 221.629 33.2742C221.781 33.393 222.036 33.4818 222.394 33.5408L223.788 33.752C224.537 33.8683 225.102 34.0865 225.482 34.4066C225.863 34.7266 226.066 35.1614 226.093 35.7109C226.117 36.2108 225.991 36.6566 225.715 37.0483C225.442 37.4398 225.055 37.7538 224.556 37.9904C224.059 38.2235 223.48 38.3561 222.818 38.3882C221.808 38.4371 220.994 38.2659 220.374 37.8745C219.758 37.4796 219.38 36.9205 219.243 36.1972L221.318 35.9871C221.396 36.2919 221.559 36.5196 221.809 36.6701C222.058 36.8173 222.372 36.8817 222.749 36.8635C223.12 36.8455 223.414 36.7599 223.633 36.6066C223.854 36.4499 223.961 36.2572 223.953 36.0286C223.94 35.8368 223.852 35.6835 223.687 35.5687C223.522 35.4506 223.272 35.3664 222.938 35.3163L221.604 35.1171C220.852 35.0042 220.285 34.7729 219.903 34.4231C219.525 34.0731 219.321 33.6134 219.294 33.044C219.27 32.554 219.382 32.1255 219.63 31.7585C219.881 31.3912 220.243 31.0999 220.717 30.8845C221.195 30.6689 221.759 30.5453 222.412 30.5137C223.375 30.467 224.143 30.6339 224.715 31.0143C225.291 31.3945 225.643 31.9333 225.769 32.6306ZM230.993 37.9921C230.222 38.0294 229.547 37.8979 228.968 37.5974C228.392 37.2935 227.938 36.8542 227.605 36.2797C227.272 35.7019 227.086 35.0224 227.048 34.2411C227.01 33.4532 227.129 32.7572 227.405 32.1532C227.681 31.5458 228.091 31.0647 228.634 30.7099C229.181 30.3516 229.84 30.1537 230.611 30.1163C231.383 30.079 232.056 30.2123 232.632 30.5162C233.21 30.8167 233.666 31.2558 233.999 31.8336C234.333 32.4081 234.518 33.0893 234.556 33.8773C234.594 34.6585 234.475 35.3528 234.199 35.9602C233.923 36.5642 233.512 37.0454 232.965 37.4037C232.422 37.7586 231.764 37.9547 230.993 37.9921ZM230.923 36.3529C231.274 36.3359 231.563 36.2224 231.788 36.0123C232.013 35.799 232.177 35.5156 232.279 35.1623C232.385 34.8087 232.427 34.4102 232.406 33.9665C232.384 33.5229 232.304 33.1303 232.164 32.7886C232.028 32.4468 231.838 32.1806 231.593 31.9901C231.348 31.7995 231.05 31.7127 230.699 31.7297C230.345 31.7469 230.052 31.8623 229.82 32.076C229.592 32.2895 229.425 32.573 229.319 32.9265C229.217 33.2799 229.176 33.6784 229.198 34.122C229.219 34.5656 229.298 34.9583 229.434 35.3001C229.573 35.6418 229.767 35.9078 230.015 36.0982C230.266 36.2852 230.569 36.37 230.923 36.3529ZM237.926 35.3068L237.808 32.769L238.116 32.7541L240.418 29.7407L242.847 29.623L239.75 33.6156L239.249 33.6399L237.926 35.3068ZM236.115 37.5945L235.623 27.4246L237.738 27.3221L238.231 37.492L236.115 37.5945ZM240.882 37.3635L238.477 34.1502L239.815 32.5871L243.36 37.2434L240.882 37.3635Z" fill="#F3765F"/>
<path d="M45.1244 64.0219L47.7761 63.8934L50.9079 70.5905L51.0271 70.5848L53.4967 63.6162L56.1484 63.4877L56.6412 73.6575L54.5556 73.7586L54.2348 67.1392L54.1504 67.1433L51.8369 73.8406L50.4167 73.9094L47.4653 67.4424L47.3808 67.4465L47.7028 74.0907L45.6172 74.1917L45.1244 64.0219ZM60.555 73.6122C60.0683 73.6358 59.6306 73.5724 59.2417 73.422C58.8526 73.2683 58.5391 73.0297 58.3011 72.7061C58.0662 72.379 57.9366 71.9638 57.9122 71.4606C57.8917 71.0369 57.9522 70.6772 58.0939 70.3817C58.2355 70.0861 58.4362 69.8441 58.6958 69.6557C58.9555 69.4672 59.2536 69.32 59.5903 69.2141C59.9302 69.1081 60.288 69.0277 60.6637 68.973C61.105 68.9051 61.4605 68.8448 61.73 68.7919C61.9994 68.7357 62.1933 68.6633 62.3118 68.5746C62.4303 68.4859 62.4856 68.3604 62.4777 68.1982L62.4763 68.1684C62.461 67.8539 62.3499 67.6154 62.1429 67.4529C61.9393 67.2902 61.657 67.2176 61.2962 67.2351C60.9155 67.2535 60.6167 67.3526 60.3997 67.5324C60.1826 67.7088 60.0438 67.9246 59.9831 68.1797L58.0189 68.1156C58.0958 67.6473 58.2717 67.2373 58.5466 66.8855C58.8214 66.5304 59.1845 66.2507 59.6358 66.0463C60.0903 65.8384 60.6221 65.7198 61.2313 65.6902C61.655 65.6697 62.063 65.6997 62.4551 65.7803C62.8506 65.8606 63.204 65.9978 63.5153 66.1918C63.83 66.3856 64.083 66.6421 64.2744 66.9613C64.4655 67.2773 64.5721 67.662 64.5941 68.1156L64.8434 73.2601L62.8372 73.3573L62.786 72.2996L62.7264 72.3025C62.6154 72.5468 62.4617 72.7649 62.2653 72.957C62.0687 73.1457 61.8289 73.2983 61.5459 73.4149C61.2627 73.5282 60.9324 73.5939 60.555 73.6122ZM61.09 72.1229C61.4012 72.1079 61.673 72.0333 61.9055 71.8993C62.1377 71.7619 62.3166 71.584 62.442 71.3656C62.5675 71.1471 62.6237 70.9038 62.6108 70.6357L62.5715 69.8262C62.5074 69.8725 62.4183 69.9166 62.3042 69.9587C62.1932 69.9972 62.0673 70.0348 61.9264 70.0715C61.7853 70.1049 61.6442 70.1366 61.503 70.1667C61.3616 70.1935 61.2333 70.2179 61.1183 70.2401C60.8717 70.2886 60.6577 70.357 60.4762 70.4454C60.2946 70.5339 60.1558 70.6484 60.0598 70.7891C59.9636 70.9265 59.9203 71.0945 59.9299 71.2932C59.9439 71.5812 60.0588 71.7963 60.2748 71.9385C60.4939 72.0772 60.7656 72.1387 61.09 72.1229ZM69.938 73.1625C69.1567 73.2004 68.4767 73.0674 67.8979 72.7636C67.3222 72.4564 66.8694 72.0138 66.5394 71.4358C66.2127 70.8577 66.0307 70.1829 65.9933 69.4116C65.9555 68.6303 66.0729 67.9377 66.3456 67.3338C66.6214 66.7265 67.0311 66.2437 67.5745 65.8856C68.1178 65.5241 68.7751 65.3247 69.5465 65.2873C70.2119 65.2551 70.8004 65.3477 71.312 65.5651C71.8236 65.7826 72.2356 66.1027 72.5481 66.5256C72.8606 66.9485 73.046 67.4538 73.1044 68.0416L71.1082 68.1384C71.0334 67.7604 70.8696 67.4614 70.6167 67.2413C70.367 67.0179 70.0484 66.9155 69.6611 66.9343C69.3334 66.9501 69.0513 67.0534 68.815 67.244C68.5819 67.4312 68.4056 67.6969 68.2862 68.0412C68.1669 68.3854 68.1188 68.7976 68.1421 69.2776C68.1656 69.7642 68.2519 70.1748 68.4008 70.5094C68.5531 70.8438 68.756 71.0944 69.0097 71.2613C69.2633 71.4282 69.554 71.5037 69.8818 71.4879C70.1234 71.4762 70.3379 71.416 70.5251 71.3074C70.7156 71.1986 70.8691 71.0468 70.9858 70.852C71.1056 70.6537 71.1789 70.4196 71.2056 70.1495L73.2018 70.0528C73.197 70.637 73.0629 71.1578 72.7997 71.6152C72.5397 72.0692 72.1674 72.4323 71.6828 72.7047C71.1983 72.977 70.6167 73.1296 69.938 73.1625ZM80.7738 67.0229L78.8429 67.2359C78.8018 67.072 78.7234 66.9265 78.6077 66.7994C78.4919 66.6689 78.3427 66.5683 78.16 66.4975C77.9806 66.4233 77.7684 66.3921 77.5234 66.404C77.1956 66.4198 76.9226 66.5027 76.7042 66.6527C76.4857 66.7993 76.3819 66.9869 76.393 67.2153C76.4018 67.3974 76.4821 67.5478 76.6339 67.6665C76.7856 67.7853 77.0405 67.8741 77.3984 67.9331L78.7923 68.1443C79.5413 68.2606 80.106 68.4788 80.4865 68.7989C80.867 69.1189 81.0706 69.5537 81.0972 70.1032C81.1215 70.6031 80.9954 71.0489 80.7191 71.4405C80.446 71.8321 80.0597 72.1461 79.5602 72.3827C79.0638 72.6158 78.4845 72.7484 77.8224 72.7805C76.8127 72.8294 75.9981 72.6582 75.3785 72.2668C74.7621 71.8719 74.3849 71.3128 74.247 70.5895L76.3223 70.3794C76.4002 70.6842 76.5638 70.9119 76.8134 71.0624C77.0627 71.2096 77.3761 71.274 77.7535 71.2557C78.1243 71.2378 78.4188 71.1522 78.637 70.9989C78.8584 70.8422 78.9652 70.6495 78.9574 70.4209C78.9448 70.2291 78.8561 70.0758 78.6912 69.961C78.5262 69.8429 78.2766 69.7587 77.9423 69.7086L76.6087 69.5094C75.8566 69.3965 75.2896 69.1652 74.9076 68.8153C74.529 68.4654 74.3258 68.0057 74.2983 67.4363C74.2745 66.9463 74.3865 66.5178 74.6342 66.1507C74.8851 65.7835 75.2477 65.4922 75.7217 65.2768C76.199 65.0612 76.7638 64.9376 77.4159 64.906C78.3793 64.8593 79.1473 65.0262 79.7199 65.4066C80.2958 65.7868 80.6471 66.3256 80.7738 67.0229ZM84.3543 70.1146L84.2363 67.5769L84.5442 67.5619L86.847 64.5485L89.2753 64.4308L86.1787 68.4235L85.6771 68.4478L84.3543 70.1146ZM82.5438 72.4024L82.051 62.2325L84.1665 62.13L84.6593 72.2999L82.5438 72.4024ZM87.311 72.1714L84.9055 68.958L86.2433 67.395L89.7889 72.0513L87.311 72.1714ZM92.8647 72.0466C92.3781 72.0702 91.9403 72.0068 91.5514 71.8564C91.1624 71.7027 90.8488 71.464 90.6108 71.1404C90.376 70.8133 90.2464 70.3982 90.222 69.895C90.2014 69.4712 90.262 69.1116 90.4036 68.816C90.5453 68.5205 90.7459 68.2785 91.0056 68.09C91.2652 67.9016 91.5634 67.7544 91.9 67.6485C92.24 67.5424 92.5978 67.462 92.9734 67.4073C93.4148 67.3395 93.7702 67.2791 94.0397 67.2262C94.3091 67.1701 94.503 67.0976 94.6215 67.0089C94.74 66.9202 94.7953 66.7948 94.7875 66.6325L94.786 66.6027C94.7708 66.2883 94.6597 66.0497 94.4527 65.8872C94.249 65.7245 93.9668 65.6519 93.6059 65.6694C93.2252 65.6879 92.9264 65.787 92.7095 65.9667C92.4924 66.1431 92.3535 66.3589 92.2929 66.6141L90.3287 66.55C90.4055 66.0817 90.5814 65.6716 90.8564 65.3199C91.1312 64.9648 91.4943 64.685 91.9456 64.4806C92.4001 64.2728 92.9319 64.1541 93.541 64.1246C93.9648 64.1041 94.3727 64.1341 94.7649 64.2146C95.1603 64.295 95.5137 64.4322 95.8251 64.6261C96.1398 64.8199 96.3928 65.0765 96.5841 65.3957C96.7753 65.7116 96.8819 66.0964 96.9038 66.5499L97.1531 71.6944L95.147 71.7916L95.0957 70.7339L95.0361 70.7368C94.9252 70.9811 94.7715 71.1993 94.5751 71.3913C94.3785 71.58 94.1387 71.7327 93.8556 71.8492C93.5724 71.9625 93.2421 72.0283 92.8647 72.0466ZM93.3998 70.5573C93.711 70.5422 93.9828 70.4677 94.2152 70.3336C94.4475 70.1963 94.6263 70.0184 94.7518 69.7999C94.8773 69.5815 94.9335 69.3382 94.9205 69.07L94.8813 68.2606C94.8172 68.3068 94.728 68.351 94.6139 68.393C94.503 68.4316 94.3771 68.4692 94.2361 68.5059C94.0951 68.5393 93.9539 68.571 93.8127 68.6011C93.6713 68.6278 93.5431 68.6523 93.428 68.6745C93.1815 68.7229 92.9675 68.7913 92.7859 68.8798C92.6044 68.9682 92.4656 69.0828 92.3695 69.2235C92.2733 69.3609 92.23 69.5289 92.2397 69.7275C92.2536 70.0155 92.3686 70.2306 92.5845 70.3728C92.8036 70.5115 93.0754 70.573 93.3998 70.5573ZM92.8179 63.2737L93.7611 60.9632L95.7177 60.8684L94.3126 63.2012L92.8179 63.2737ZM101.611 71.6029C101.032 71.6309 100.5 71.5074 100.015 71.2322C99.5338 70.9536 99.1416 70.5296 98.8386 69.9603C98.5387 69.3874 98.3682 68.6756 98.3269 67.8248C98.2846 66.9509 98.3901 66.2174 98.6434 65.6244C98.8966 65.0281 99.2495 64.5747 99.7024 64.264C100.158 63.9499 100.666 63.7793 101.226 63.7522C101.653 63.7315 102.012 63.7871 102.304 63.919C102.599 64.0474 102.839 64.2149 103.025 64.4216C103.214 64.6248 103.36 64.8268 103.462 65.0275L103.527 65.0244L103.342 61.2008L105.452 61.0985L105.945 71.2684L103.859 71.3695L103.8 70.1479L103.711 70.1522C103.622 70.3689 103.491 70.5859 103.319 70.8033C103.15 71.0172 102.925 71.199 102.644 71.3487C102.366 71.4983 102.021 71.583 101.611 71.6029ZM102.2 69.887C102.541 69.8704 102.824 69.7638 103.05 69.567C103.28 69.3668 103.449 69.0948 103.558 68.751C103.671 68.4071 103.716 68.0083 103.694 67.5548C103.672 67.1013 103.59 66.7104 103.448 66.3821C103.306 66.0538 103.112 65.8044 102.865 65.6339C102.618 65.4634 102.323 65.3864 101.982 65.4029C101.635 65.4197 101.346 65.5283 101.117 65.7285C100.888 65.9288 100.72 66.199 100.614 66.5393C100.508 66.8796 100.465 67.2699 100.487 67.7102C100.508 68.1538 100.588 68.5432 100.727 68.8782C100.869 69.2098 101.063 69.4659 101.307 69.6465C101.555 69.8237 101.852 69.9038 102.2 69.887ZM52.4823 85.4138L50.5514 85.6268C50.5103 85.4629 50.4319 85.3174 50.3162 85.1903C50.2004 85.0598 50.0512 84.9592 49.8686 84.8884C49.6891 84.8142 49.4769 84.783 49.2319 84.7948C48.9042 84.8107 48.6311 84.8936 48.4127 85.0436C48.1942 85.1902 48.0905 85.3778 48.1015 85.6062C48.1104 85.7883 48.1907 85.9387 48.3424 86.0574C48.4942 86.1761 48.749 86.265 49.1069 86.324L50.5009 86.5352C51.2498 86.6515 51.8145 86.8697 52.1951 87.1897C52.5756 87.5098 52.7791 87.9445 52.8058 88.4941C52.83 88.994 52.7039 89.4398 52.4276 89.8314C52.1546 90.2229 51.7683 90.537 51.2687 90.7736C50.7723 91.0067 50.1931 91.1393 49.531 91.1714C48.5212 91.2203 47.7066 91.049 47.087 90.6576C46.4706 90.2628 46.0934 89.7037 45.9555 88.9803L48.0309 88.7703C48.1087 89.0751 48.2724 89.3028 48.5219 89.4533C48.7713 89.6005 49.0846 89.6649 49.462 89.6466C49.8328 89.6287 50.1273 89.543 50.3455 89.3898C50.5669 89.2331 50.6737 89.0404 50.6659 88.8118C50.6533 88.62 50.5646 88.4666 50.3998 88.3519C50.2348 88.2338 49.9851 88.1496 49.6509 88.0995L48.3172 87.9003C47.5651 87.7874 46.9981 87.556 46.6162 87.2062C46.2375 86.8562 46.0344 86.3965 46.0068 85.8271C45.9831 85.3372 46.095 84.9087 46.3427 84.5416C46.5937 84.1744 46.9562 83.8831 47.4302 83.6676C47.9076 83.4521 48.4723 83.3285 49.1245 83.2969C50.0878 83.2502 50.8558 83.417 51.4284 83.7974C52.0043 84.1777 52.3556 84.7165 52.4823 85.4138ZM58.9863 87.3086L58.7741 82.9288L60.8895 82.8263L61.2591 90.4537L59.2281 90.5521L59.1609 89.1667L59.0815 89.1705C58.931 89.6258 58.662 89.9989 58.2746 90.2897C57.8905 90.5804 57.4121 90.7397 56.8394 90.7674C56.3296 90.7921 55.8754 90.698 55.4768 90.485C55.0783 90.2721 54.7594 89.9574 54.5202 89.5409C54.2843 89.1243 54.1503 88.6181 54.1181 88.0223L53.8828 83.1658L55.9982 83.0633L56.2152 87.5424C56.2404 87.9925 56.3784 88.3425 56.6295 88.5925C56.8805 88.8425 57.2063 88.9578 57.6069 88.9384C57.8618 88.926 58.0973 88.8565 58.3135 88.7299C58.5296 88.6 58.6998 88.4159 58.8243 88.1776C58.9521 87.9391 59.0061 87.6494 58.9863 87.3086ZM56.5862 82.0493L57.5294 79.7389L59.4859 79.6441L58.0809 81.9769L56.5862 82.0493ZM64.5738 80.0993L65.0666 90.2692L62.9512 90.3717L62.4584 80.2018L64.5738 80.0993ZM68.2057 92.9841C67.9376 92.9971 67.6849 92.9878 67.4478 92.9561C67.2142 92.9276 67.0197 92.8856 66.8643 92.8301L67.2645 91.2279C67.5165 91.292 67.742 91.3225 67.9409 91.3195C68.1432 91.3164 68.3147 91.2616 68.4556 91.1552C68.5997 91.0487 68.7124 90.874 68.7935 90.6312L68.902 90.3024L65.7857 82.589L68.0104 82.4812L69.8609 88.0061L69.9404 88.0023L71.263 82.3236L73.5025 82.2151L70.9475 90.8105C70.825 91.2279 70.6487 91.5948 70.4185 91.9112C70.1917 92.2308 69.897 92.4824 69.5342 92.6659C69.1716 92.8527 68.7288 92.9587 68.2057 92.9841ZM76.9318 89.8386C76.4452 89.8622 76.0074 89.7988 75.6185 89.6484C75.2294 89.4947 74.9159 89.256 74.6779 88.9324C74.4431 88.6053 74.3134 88.1902 74.2891 87.687C74.2685 87.2633 74.3291 86.9036 74.4707 86.6081C74.6123 86.3125 74.813 86.0705 75.0726 85.882C75.3323 85.6936 75.6304 85.5464 75.9671 85.4405C76.307 85.3344 76.6648 85.2541 77.0405 85.1994C77.4818 85.1315 77.8373 85.0711 78.1068 85.0183C78.3762 84.9621 78.5701 84.8896 78.6886 84.8009C78.8071 84.7122 78.8624 84.5868 78.8545 84.4246L78.8531 84.3948C78.8379 84.0803 78.7267 83.8418 78.5198 83.6792C78.3161 83.5166 78.0339 83.444 77.673 83.4614C77.2923 83.4799 76.9935 83.579 76.7766 83.7587C76.5595 83.9352 76.4206 84.1509 76.36 84.4061L74.3957 84.342C74.4726 83.8737 74.6485 83.4637 74.9235 83.1119C75.1983 82.7568 75.5613 82.477 76.0127 82.2727C76.4672 82.0648 76.999 81.9461 77.6081 81.9166C78.0319 81.8961 78.4398 81.9261 78.8319 82.0066C79.2274 82.087 79.5808 82.2242 79.8922 82.4182C80.2068 82.612 80.4598 82.8685 80.6512 83.1877C80.8424 83.5036 80.9489 83.8884 80.9709 84.3419L81.2202 89.4864L79.214 89.5837L79.1628 88.526L79.1032 88.5288C78.9923 88.7731 78.8386 88.9913 78.6421 89.1833C78.4456 89.372 78.2057 89.5247 77.9227 89.6413C77.6395 89.7545 77.3092 89.8203 76.9318 89.8386ZM77.4669 88.3493C77.7781 88.3342 78.0499 88.2597 78.2823 88.1256C78.5146 87.9883 78.6934 87.8104 78.8189 87.5919C78.9443 87.3735 79.0006 87.1302 78.9876 86.862L78.9484 86.0526C78.8842 86.0989 78.7951 86.143 78.681 86.185C78.5701 86.2236 78.4441 86.2612 78.3032 86.2979C78.1622 86.3313 78.021 86.363 77.8798 86.3931C77.7384 86.4198 77.6102 86.4443 77.4951 86.4665C77.2486 86.5149 77.0345 86.5834 76.853 86.6718C76.6715 86.7602 76.5327 86.8748 76.4366 87.0155C76.3404 87.1529 76.2971 87.3209 76.3067 87.5195C76.3207 87.8076 76.4357 88.0227 76.6516 88.1648C76.8707 88.3035 77.1424 88.365 77.4669 88.3493Z" fill="#272427"/>
<rect width="43" height="20" transform="translate(78.3799 212.702) rotate(-2.77424)" fill="white"/>
<path d="M93.4293 217.752L93.8517 226.469L92.5365 226.533L92.1141 217.816L93.4293 217.752ZM98.1186 226.39C97.5908 226.416 97.1132 226.304 96.6858 226.054C96.2612 225.802 95.9189 225.43 95.6591 224.939C95.4019 224.446 95.2562 223.845 95.222 223.139C95.1878 222.432 95.2762 221.822 95.4874 221.308C95.7014 220.795 96.0091 220.394 96.4105 220.108C96.8118 219.821 97.275 219.665 97.8 219.639C98.2057 219.62 98.5353 219.672 98.7888 219.796C99.045 219.917 99.2455 220.064 99.3904 220.236C99.5381 220.408 99.6535 220.561 99.7367 220.693L99.8134 220.689L99.6564 217.45L100.929 217.389L101.351 226.106L100.109 226.166L100.059 225.149L99.9529 225.154C99.883 225.296 99.7801 225.461 99.644 225.646C99.5108 225.832 99.3226 225.998 99.0793 226.143C98.8361 226.289 98.5158 226.371 98.1186 226.39ZM98.3469 225.291C98.7129 225.273 99.0176 225.162 99.2607 224.957C99.5066 224.749 99.6865 224.468 99.8002 224.116C99.9168 223.763 99.964 223.357 99.9417 222.897C99.9197 222.443 99.8352 222.049 99.6881 221.715C99.5411 221.381 99.3367 221.125 99.075 220.947C98.8132 220.769 98.4965 220.689 98.1247 220.707C97.7417 220.726 97.4273 220.84 97.1815 221.051C96.9357 221.262 96.7559 221.543 96.642 221.892C96.531 222.242 96.4859 222.632 96.5068 223.064C96.528 223.501 96.6123 223.891 96.7597 224.233C96.9072 224.576 97.1135 224.843 97.3788 225.035C97.6468 225.224 97.9695 225.31 98.3469 225.291ZM105.928 226.016C105.315 226.046 104.774 225.931 104.303 225.672C103.833 225.414 103.459 225.038 103.182 224.545C102.905 224.052 102.75 223.468 102.717 222.793C102.684 222.114 102.782 221.515 103.01 220.995C103.238 220.475 103.573 220.063 104.017 219.76C104.46 219.457 104.988 219.291 105.601 219.261C106.214 219.231 106.755 219.346 107.226 219.605C107.696 219.864 108.07 220.241 108.347 220.737C108.624 221.232 108.779 221.819 108.812 222.497C108.845 223.173 108.747 223.769 108.519 224.286C108.291 224.804 107.956 225.214 107.512 225.517C107.069 225.82 106.541 225.986 105.928 226.016ZM105.881 224.947C106.278 224.928 106.602 224.807 106.853 224.585C107.104 224.362 107.283 224.073 107.391 223.718C107.502 223.363 107.547 222.975 107.527 222.555C107.507 222.138 107.424 221.758 107.279 221.415C107.138 221.07 106.931 220.797 106.66 220.596C106.388 220.396 106.054 220.306 105.657 220.325C105.257 220.344 104.93 220.467 104.676 220.693C104.425 220.918 104.245 221.21 104.134 221.568C104.026 221.923 103.982 222.309 104.002 222.726C104.023 223.146 104.104 223.528 104.246 223.871C104.39 224.213 104.598 224.483 104.869 224.681C105.143 224.878 105.481 224.967 105.881 224.947ZM105.846 218.605L107.083 216.749L108.343 216.688L106.864 218.556L105.846 218.605ZM103.952 218.697L104.878 216.856L106.126 216.795L104.906 218.651L103.952 218.697Z" fill="#D3D3D3"/>
</g>
<defs>
<filter id="filter0_d_370_4202" x="-0.944336" y="-0.944336" width="299.263" height="279.304" filterUnits="userSpaceOnUse" color-interpolation-filters="sRGB">
<feFlood flood-opacity="0" result="BackgroundImageFix"/>
<feColorMatrix in="SourceAlpha" type="matrix" values="0 0 0 0 0 0 0 0 0 0 0 0 0 0 0 0 0 0 127 0" result="hardAlpha"/>
<feOffset dy="4"/>
<feGaussianBlur stdDeviation="7"/>
<feComposite in2="hardAlpha" operator="out"/>
<feColorMatrix type="matrix" values="0 0 0 0 0 0 0 0 0 0 0 0 0 0 0 0 0 0 0.03 0"/>
<feBlend mode="normal" in2="BackgroundImageFix" result="effect1_dropShadow_370_4202"/>
<feBlend mode="normal" in="SourceGraphic" in2="effect1_dropShadow_370_4202" result="shape"/>
</filter>
<filter id="filter1_d_370_4202" x="175.47" y="115.84" width="99.418" height="62.3516" filterUnits="userSpaceOnUse" color-interpolation-filters="sRGB">
<feFlood flood-opacity="0" result="BackgroundImageFix"/>
<feColorMatrix in="SourceAlpha" type="matrix" values="0 0 0 0 0 0 0 0 0 0 0 0 0 0 0 0 0 0 127 0" result="hardAlpha"/>
<feOffset dy="4"/>
<feGaussianBlur stdDeviation="7"/>
<feComposite in2="hardAlpha" operator="out"/>
<feColorMatrix type="matrix" values="0 0 0 0 0.720252 0 0 0 0 0.720252 0 0 0 0 0.720252 0 0 0 0.3 0"/>
<feBlend mode="normal" in2="BackgroundImageFix" result="effect1_dropShadow_370_4202"/>
<feBlend mode="normal" in="SourceGraphic" in2="effect1_dropShadow_370_4202" result="shape"/>
</filter>
<linearGradient id="paint0_linear_370_4202" x1="155.602" y1="308.41" x2="146.829" y2="127.348" gradientUnits="userSpaceOnUse">
<stop stop-color="white" stop-opacity="0"/>
<stop offset="1" stop-color="#248112" stop-opacity="0.6"/>
</linearGradient>
</defs>
</svg>
