<svg width="68" height="69" viewBox="0 0 68 69" fill="none" xmlns="http://www.w3.org/2000/svg">
<path d="M19.2412 58.3739C19.2412 58.3739 17.9121 56.9353 16.852 53.9727C15.5471 50.3259 15.4688 46.6792 15.4688 46.6792L22.5102 45.0444C22.5102 45.0444 20.8755 47.6852 20.4982 49.5714C20.121 51.4577 21.127 54.9787 21.127 54.9787C25.151 56.7392 21.379 60.6374 19.2412 58.3739Z" fill="#3D88E6"/>
<path d="M50.413 17.8825C51.7963 14.8645 55.1915 12.601 56.7005 11.3435C58.2095 10.589 57.5808 14.4873 58.2095 16.4993C61.1091 17.1436 62.8623 18.8885 63.2395 23.164C63.351 24.4271 65 25.385 65 26.0562C64.0335 29.9224 61.0864 30.7175 59.3413 30.5832C53.9972 30.1721 53.6825 39.763 51.419 42.9067C49.407 45.7012 50.6645 54.853 50.6645 54.853C52.425 54.853 53.3053 56.1105 53.0538 57.7452C52.83 59.2 48.7783 59.38 48.0238 57.6195C48.0238 57.6195 46.6129 54.5278 45.886 52.5895C45.1935 50.7427 44 46 44 46C29 57 21.3648 47.1822 21.3648 47.1822C19.3528 48.0625 14.7001 49.6972 11.9336 51.5835C10.6088 52.4867 9.92159 55.356 9.92159 55.356C9.92159 55.356 11.8078 58.1225 8.66409 58.877C7.09766 59.2529 5.89759 56.9159 5.89759 56.1105C5.89759 55.1045 6.59271 50.6131 7.53234 48.0625C11.9336 43.1582 11.1211 40.3565 11.9336 36.6192C12.5623 33.727 13.4426 32.5952 13.9456 32.0922C4.50488 25.9303 7.67148 19.2656 6.66216 16.6248C5.74796 14.2329 2.75713 14.2207 3.0158 12.2236C3.52069 8.32551 8.67493 10.214 10.4369 12.8525C13.1242 16.8765 10.7927 20.7837 12.5602 24.2957C13.8776 26.9136 15.8811 29.1915 17.0893 29.3257C23.1253 25.3017 42.3031 29.7758 45.7603 25.3018C47.898 22.5353 48.0238 19.2658 50.413 17.8825Z" fill="#4B99FC"/>
</svg>
