<svg width="393" height="318" viewBox="0 0 393 318" fill="none" xmlns="http://www.w3.org/2000/svg">
<path d="M0 20.8158C0 20.8158 115.683 0 193.791 0C271.898 0 393 18.9766 393 18.9766V53.7671C393 53.7671 272.073 31.6277 193.791 31.6277C115.508 31.6277 0 56.9299 0 56.9299V20.8158Z" fill="#FF715A"/>
<path d="M0 51.4232C0 51.4232 115.683 30.6074 193.791 30.6074C271.898 30.6074 393 49.5841 393 49.5841V84.3746C393 84.3746 272.073 62.2351 193.791 62.2351C115.508 62.2351 0 87.5373 0 87.5373V51.4232Z" fill="#FFDCE6"/>
<path d="M6.83931e-07 80.229C6.83931e-07 80.229 115.683 59.3779 193.791 59.3779C271.898 59.3779 393 78.3868 393 78.3868V126.859C393 126.859 271.305 93.9107 193.022 93.9107C114.74 93.9107 0 131.612 0 131.612L6.83931e-07 80.229Z" fill="#FEF7B2"/>
<path d="M6.83931e-07 127.92C6.83931e-07 127.92 96.8954 91.8223 193.791 91.8223C290.686 91.8223 393 126.076 393 126.076V174.602C393 174.602 293.555 126.076 197.207 126.076C100.859 126.076 0 179.36 0 179.36L6.83931e-07 127.92Z" fill="#ACE5E2"/>
<path d="M6.83931e-07 170.424C6.83931e-07 170.424 96.8954 125.491 193.791 125.491C290.686 125.491 393 168.128 393 168.128V228.531C393 228.531 293.555 168.128 197.207 168.128C100.859 168.128 0 234.453 0 234.453L6.83931e-07 170.424Z" fill="#4BA95E"/>
<path d="M6.83931e-07 229.215C6.83931e-07 229.215 96.8954 167.117 193.791 167.117C290.686 167.117 393 226.043 393 226.043V309.521C393 309.521 306.712 206.829 202.376 206.829C98.0402 206.829 0 317.705 0 317.705L6.83931e-07 229.215Z" fill="#3F8BF3"/>
</svg>
