<svg width="68" height="69" viewBox="0 0 68 69" fill="none" xmlns="http://www.w3.org/2000/svg">
<circle cx="28.4529" cy="23.0303" r="13.47" transform="rotate(-27.6178 28.4529 23.0303)" fill="#F0F9FA"/>
<rect x="31.9297" y="38.2061" width="7.92351" height="7.92351" transform="rotate(-27.6178 31.9297 38.2061)" fill="#B3B8BC"/>
<path d="M34.4638 44.7699C34.2961 44.4493 34.42 44.0535 34.7406 43.8858L42.0045 40.0854C42.3251 39.9177 42.721 40.0416 42.8887 40.3622L50.313 54.5528C51.3193 56.4763 50.5758 58.8514 48.6523 59.8577L47.193 60.6212C45.2695 61.6275 42.8944 60.884 41.8881 58.9605L34.4638 44.7699Z" fill="#5D6367"/>
<path d="M20.7437 8.28635C28.8863 4.02632 38.9405 7.1731 43.2007 15.3156C47.4607 23.4582 44.3132 33.5129 36.1706 37.7729C28.028 42.033 17.9733 38.8854 13.7132 30.7429C9.4533 22.6003 12.6012 12.5464 20.7437 8.28635ZM22.5799 11.796C16.376 15.0417 13.9779 22.7023 17.2237 28.9062C20.4695 35.1101 28.1301 37.5082 34.334 34.2624C40.5378 31.0166 42.9359 23.356 39.6902 17.1522C36.4444 10.9483 28.7838 8.55031 22.5799 11.796Z" fill="#CDD6DA"/>
<ellipse cx="33.7057" cy="19.3892" rx="4.75411" ry="7.13116" transform="rotate(-27.6178 33.7057 19.3892)" fill="#FBFCFE"/>
</svg>
