<svg width="68" height="69" viewBox="0 0 68 69" fill="none" xmlns="http://www.w3.org/2000/svg">
<path d="M14.8646 14.6284C21.8758 13.1834 27.0048 10.9861 31.2769 8.54927C32.6035 7.79258 34.2384 7.78086 35.5567 8.55185C37.6551 9.77903 40.8931 11.5857 43.3806 12.582C46.0988 13.6706 49.7144 14.3717 52.3787 14.7787C54.4234 15.091 56 16.8222 56 18.8907V36.7605C56 37.0239 55.9747 37.2884 55.9188 37.5458C53.2994 49.5961 41.7753 57.7564 35.0137 61.0143C34.0059 61.4999 32.8343 61.4705 31.8384 60.9609C18.4623 54.1158 12.8512 42.8613 11.589 37.5551C11.5256 37.2884 11.5 37.0185 11.5 36.7444V18.6567C11.5 16.6884 12.9368 15.0257 14.8646 14.6284Z" fill="#87BFFD" stroke="#6792E8" stroke-width="5"/>
<path d="M24.1211 33.8356L31.4271 41.1416L44.0465 27.1938" stroke="#FDFDFE" stroke-width="4" stroke-linecap="round" stroke-linejoin="round"/>
</svg>
