<svg width="12" height="12" viewBox="0 0 12 12" fill="none" xmlns="http://www.w3.org/2000/svg">
<path d="M4.2212 1.14169C4.86415 -0.380293 7.021 -0.380294 7.66395 1.14168L8.2834 2.60805C8.47274 3.05623 8.82941 3.4129 9.27759 3.60223L10.744 4.22169C12.2659 4.86464 12.2659 7.02148 10.744 7.66444L9.27759 8.28389C8.82941 8.47322 8.47274 8.82989 8.2834 9.27808L7.66395 10.7444C7.021 12.2664 4.86415 12.2664 4.2212 10.7444L3.60175 9.27808C3.41241 8.8299 3.05574 8.47322 2.60756 8.28389L1.1412 7.66444C-0.380781 7.02148 -0.380782 4.86464 1.1412 4.22169L2.60756 3.60223C3.05574 3.4129 3.41241 3.05623 3.60175 2.60805L4.2212 1.14169Z" fill="#CDCADB"/>
</svg>
