<svg width="16" height="16" viewBox="0 0 16 16" fill="none" xmlns="http://www.w3.org/2000/svg">
<path d="M5.5315 1.49563C6.37399 -0.498689 9.20019 -0.498688 10.0427 1.49563L10.8544 3.41707C11.1025 4.00435 11.5698 4.47171 12.1571 4.7198L14.0786 5.5315C16.0729 6.37399 16.0729 9.20019 14.0786 10.0427L12.1571 10.8544C11.5698 11.1025 11.1025 11.5698 10.8544 12.1571L10.0427 14.0786C9.20019 16.0729 6.37399 16.0729 5.5315 14.0786L4.7198 12.1571C4.47171 11.5698 4.00435 11.1025 3.41707 10.8544L1.49563 10.0427C-0.498689 9.20019 -0.498688 6.37399 1.49563 5.5315L3.41707 4.7198C4.00435 4.47171 4.47171 4.00435 4.7198 3.41707L5.5315 1.49563Z" fill="#408AF2"/>
</svg>
