<svg width="57" height="59" viewBox="0 0 57 59" fill="none" xmlns="http://www.w3.org/2000/svg">
<path d="M20.1826 2.36954C20.6915 0.0116546 23.6339 -0.811928 25.2929 0.93914L35.6842 11.907C36.324 12.5823 37.2408 12.9226 38.1663 12.8283L53.1971 11.2959C55.5969 11.0513 57.2894 13.5951 56.1367 15.7141L48.9167 28.9861C48.4722 29.8032 48.4318 30.7803 48.8075 31.6313L54.9097 45.453C55.8839 47.6597 53.9876 50.0555 51.6161 49.614L36.7626 46.8486C35.8481 46.6784 34.9063 46.942 34.2131 47.5623L22.9535 57.6368C21.1559 59.2453 18.2914 58.1821 17.9785 55.7903L16.0185 40.8092C15.8978 39.8869 15.3561 39.0727 14.552 38.605L1.49105 31.0098C-0.594169 29.7972 -0.468203 26.7443 1.70983 25.7076L15.352 19.2141C16.1919 18.8143 16.7989 18.0475 16.9951 17.1382L20.1826 2.36954Z" fill="#FF7761"/>
</svg>
