<svg width="50" height="50" viewBox="0 0 50 50" fill="none" xmlns="http://www.w3.org/2000/svg">
<path d="M21.0311 2.32231C22.3392 -0.774127 26.7272 -0.774123 28.0353 2.32231L32.9905 14.0522C33.3757 14.9641 34.1014 15.6897 35.0132 16.0749L46.7431 21.0301C49.8396 22.3382 49.8396 26.7263 46.7431 28.0343L35.0132 32.9896C34.1014 33.3748 33.3757 34.1004 32.9905 35.0122L28.0353 46.7421C26.7272 49.8386 22.3392 49.8386 21.0311 46.7421L16.0759 35.0122C15.6907 34.1004 14.965 33.3748 14.0532 32.9896L2.32329 28.0343C-0.77315 26.7263 -0.773147 22.3382 2.32329 21.0301L14.0532 16.0749C14.965 15.6897 15.6907 14.9641 16.0759 14.0522L21.0311 2.32231Z" fill="#ADE7E3"/>
</svg>
