<svg width="36" height="35" viewBox="0 0 36 35" fill="none" xmlns="http://www.w3.org/2000/svg">
<path d="M7.69923 1.93194C7.61676 0.466253 9.21003 -0.492492 10.4664 0.266802L18.3359 5.02267C18.8204 5.31549 19.4133 5.36697 19.9411 5.16206L28.5125 1.83386C29.881 1.3025 31.2851 2.52153 30.9512 3.95106L28.8599 12.905C28.7312 13.4563 28.8654 14.0361 29.2234 14.4747L35.0374 21.5981C35.9657 22.7354 35.2402 24.4476 33.7775 24.5718L24.6155 25.3497C24.0514 25.3976 23.5415 25.7045 23.235 26.1805L18.2568 33.9112C17.462 35.1455 15.6095 34.9846 15.0393 33.6318L11.4683 25.1587C11.2484 24.637 10.799 24.2468 10.2516 24.1024L1.36086 21.7568C-0.0585787 21.3824 -0.47805 19.5708 0.632327 18.6105L7.58722 12.5959C8.01543 12.2256 8.24762 11.6776 8.21582 11.1123L7.69923 1.93194Z" fill="#F3DCD3"/>
</svg>
