<svg width="25" height="25" viewBox="0 0 25 25" fill="none" xmlns="http://www.w3.org/2000/svg">
<path d="M8.58951 2.32232C9.89759 -0.774121 14.2856 -0.774125 15.5937 2.32231L16.854 5.3056C17.2392 6.21743 17.9648 6.94307 18.8766 7.32826L21.8599 8.58854C24.9564 9.89661 24.9564 14.2847 21.8599 15.5927L18.8767 16.853C17.9648 17.2382 17.2392 17.9638 16.854 18.8757L15.5937 21.859C14.2856 24.9554 9.89759 24.9554 8.58951 21.859L7.32924 18.8757C6.94405 17.9639 6.21841 17.2382 5.30658 16.853L2.32329 15.5927C-0.773144 14.2847 -0.773149 9.89661 2.32329 8.58854L5.30658 7.32826C6.2184 6.94307 6.94404 6.21743 7.32924 5.3056L8.58951 2.32232Z" fill="#ADE5E1"/>
</svg>
