<svg width="187" height="187" viewBox="0 0 187 187" fill="none" xmlns="http://www.w3.org/2000/svg">
<g clip-path="url(#clip0_235_172)">
<rect width="187" height="187" rx="93.5" fill="white" fill-opacity="0.6"/>
<path d="M12.4452 184.148C3.27256 172.97 29.6845 139.641 40.6916 131.755C57.6876 119.578 69.0941 127.337 61.098 142.521C53.1018 157.705 33.8134 185.813 29.0689 188.194C24.3245 190.575 16.6835 189.313 12.4452 184.148Z" fill="#FDD4DD" stroke="#302025" stroke-width="7.19426" stroke-linecap="round"/>
<path d="M47.1279 88.7891V86H60.2686V88.7891H55.3701V102H52.0264V88.7891H47.1279ZM64.1592 102.227C63.3936 102.227 62.7113 102.094 62.1123 101.828C61.5133 101.557 61.0394 101.159 60.6904 100.633C60.3467 100.102 60.1748 99.4401 60.1748 98.6484C60.1748 97.9818 60.2972 97.4219 60.542 96.9687C60.7868 96.5156 61.1201 96.151 61.542 95.875C61.9639 95.599 62.443 95.3906 62.9795 95.25C63.5212 95.1094 64.0889 95.0104 64.6826 94.9531C65.3805 94.8802 65.943 94.8125 66.3701 94.75C66.7972 94.6823 67.1071 94.5833 67.2998 94.4531C67.4925 94.3229 67.5889 94.1302 67.5889 93.875V93.8281C67.5889 93.3333 67.4326 92.9505 67.1201 92.6797C66.8128 92.4089 66.3753 92.2734 65.8076 92.2734C65.2087 92.2734 64.7321 92.4062 64.3779 92.6719C64.0238 92.9323 63.7894 93.2604 63.6748 93.6562L60.5967 93.4062C60.7529 92.6771 61.0602 92.0469 61.5186 91.5156C61.9769 90.9792 62.568 90.5677 63.292 90.2812C64.0212 89.9896 64.8649 89.8438 65.8232 89.8438C66.4899 89.8438 67.1279 89.9219 67.7373 90.0781C68.3519 90.2344 68.8962 90.4766 69.3701 90.8047C69.8493 91.1328 70.2269 91.5547 70.5029 92.0703C70.779 92.5807 70.917 93.1927 70.917 93.9062V102H67.7607V100.336H67.667C67.4743 100.711 67.2165 101.042 66.8936 101.328C66.5706 101.609 66.1826 101.831 65.7295 101.992C65.2764 102.148 64.7529 102.227 64.1592 102.227ZM65.1123 99.9297C65.6019 99.9297 66.0342 99.8333 66.4092 99.6406C66.7842 99.4427 67.0785 99.1771 67.292 98.8438C67.5055 98.5104 67.6123 98.1328 67.6123 97.7109V96.4375C67.5081 96.5052 67.3649 96.5677 67.1826 96.625C67.0055 96.6771 66.805 96.7266 66.5811 96.7734C66.3571 96.8151 66.1331 96.8542 65.9092 96.8906C65.6852 96.9219 65.4821 96.9505 65.2998 96.9766C64.9092 97.0339 64.568 97.125 64.2764 97.25C63.9847 97.375 63.7581 97.5443 63.5967 97.7578C63.4352 97.9661 63.3545 98.2266 63.3545 98.5391C63.3545 98.9922 63.5186 99.3385 63.8467 99.5781C64.18 99.8125 64.6019 99.9297 65.1123 99.9297ZM73.499 106.5V90H76.7803V92.0156H76.9287C77.0745 91.6927 77.2855 91.3646 77.5615 91.0312C77.8428 90.6927 78.2074 90.4115 78.6553 90.1875C79.1084 89.9583 79.6709 89.8438 80.3428 89.8438C81.2178 89.8438 82.0251 90.0729 82.7646 90.5313C83.5042 90.9844 84.0954 91.6693 84.5381 92.5859C84.9808 93.4974 85.2021 94.6406 85.2021 96.0156C85.2021 97.3542 84.986 98.4844 84.5537 99.4062C84.1266 100.323 83.5433 101.018 82.8037 101.492C82.0693 101.961 81.2464 102.195 80.335 102.195C79.6891 102.195 79.1396 102.089 78.6865 101.875C78.2386 101.661 77.8714 101.393 77.585 101.07C77.2985 100.742 77.0798 100.411 76.9287 100.078H76.8271V106.5H73.499ZM76.7568 96C76.7568 96.7135 76.8558 97.3359 77.0537 97.8672C77.2516 98.3984 77.5381 98.8125 77.9131 99.1094C78.2881 99.401 78.7438 99.5469 79.2803 99.5469C79.8219 99.5469 80.2803 99.3984 80.6553 99.1016C81.0303 98.7995 81.3141 98.3828 81.5068 97.8516C81.7048 97.3151 81.8037 96.6979 81.8037 96C81.8037 95.3073 81.7074 94.6979 81.5146 94.1719C81.3219 93.6458 81.0381 93.2344 80.6631 92.9375C80.2881 92.6406 79.8271 92.4922 79.2803 92.4922C78.7386 92.4922 78.2803 92.6354 77.9053 92.9219C77.5355 93.2083 77.2516 93.6146 77.0537 94.1406C76.8558 94.6667 76.7568 95.2865 76.7568 96ZM95.8408 95.0625V102H92.5127V86H95.7471V92.1172H95.8877C96.1585 91.4089 96.596 90.8542 97.2002 90.4531C97.8044 90.0469 98.5622 89.8438 99.4736 89.8438C100.307 89.8438 101.034 90.026 101.653 90.3906C102.278 90.75 102.763 91.2682 103.106 91.9453C103.455 92.6172 103.627 93.4219 103.622 94.3594V102H100.294V94.9531C100.299 94.2135 100.112 93.638 99.7314 93.2266C99.3564 92.8151 98.8304 92.6094 98.1533 92.6094C97.7002 92.6094 97.2992 92.7057 96.9502 92.8984C96.6064 93.0911 96.3356 93.3724 96.1377 93.7422C95.945 94.1068 95.846 94.5469 95.8408 95.0625ZM111.71 102.234C110.476 102.234 109.413 101.984 108.522 101.484C107.637 100.979 106.955 100.266 106.476 99.3437C105.996 98.4167 105.757 97.3203 105.757 96.0547C105.757 94.8203 105.996 93.737 106.476 92.8047C106.955 91.8724 107.629 91.1458 108.499 90.625C109.374 90.1042 110.4 89.8438 111.577 89.8438C112.369 89.8438 113.106 89.9714 113.788 90.2266C114.476 90.4766 115.075 90.8542 115.585 91.3594C116.101 91.8646 116.502 92.5 116.788 93.2656C117.075 94.026 117.218 94.9167 117.218 95.9375V96.8516H107.085V94.7891H114.085C114.085 94.3099 113.981 93.8854 113.772 93.5156C113.564 93.1458 113.275 92.8568 112.905 92.6484C112.541 92.4349 112.116 92.3281 111.632 92.3281C111.127 92.3281 110.679 92.4453 110.288 92.6797C109.903 92.9089 109.601 93.2187 109.382 93.6094C109.163 93.9948 109.051 94.4245 109.046 94.8984V96.8594C109.046 97.4531 109.155 97.9661 109.374 98.3984C109.598 98.8307 109.913 99.1641 110.319 99.3984C110.726 99.6328 111.207 99.75 111.765 99.75C112.134 99.75 112.473 99.6979 112.78 99.5938C113.088 99.4896 113.351 99.3333 113.569 99.125C113.788 98.9167 113.955 98.6615 114.069 98.3594L117.147 98.5625C116.991 99.3021 116.671 99.9479 116.187 100.5C115.707 101.047 115.088 101.474 114.327 101.781C113.572 102.083 112.7 102.234 111.71 102.234ZM119.39 102V90H122.616V92.0937H122.741C122.96 91.349 123.327 90.7865 123.843 90.4063C124.358 90.0208 124.952 89.8281 125.624 89.8281C125.791 89.8281 125.97 89.8385 126.163 89.8594C126.356 89.8802 126.525 89.9089 126.671 89.9453V92.8984C126.515 92.8516 126.299 92.8099 126.022 92.7734C125.746 92.737 125.494 92.7188 125.265 92.7188C124.775 92.7188 124.338 92.8255 123.952 93.0391C123.572 93.2474 123.27 93.5391 123.046 93.9141C122.827 94.2891 122.718 94.7214 122.718 95.2109V102H119.39ZM133.302 102.234C132.067 102.234 131.005 101.984 130.114 101.484C129.229 100.979 128.547 100.266 128.067 99.3437C127.588 98.4167 127.349 97.3203 127.349 96.0547C127.349 94.8203 127.588 93.737 128.067 92.8047C128.547 91.8724 129.221 91.1458 130.091 90.625C130.966 90.1042 131.992 89.8438 133.169 89.8438C133.961 89.8438 134.698 89.9714 135.38 90.2266C136.067 90.4766 136.666 90.8542 137.177 91.3594C137.692 91.8646 138.093 92.5 138.38 93.2656C138.666 94.026 138.81 94.9167 138.81 95.9375V96.8516H128.677V94.7891H135.677C135.677 94.3099 135.573 93.8854 135.364 93.5156C135.156 93.1458 134.867 92.8568 134.497 92.6484C134.132 92.4349 133.708 92.3281 133.224 92.3281C132.718 92.3281 132.271 92.4453 131.88 92.6797C131.494 92.9089 131.192 93.2187 130.974 93.6094C130.755 93.9948 130.643 94.4245 130.638 94.8984V96.8594C130.638 97.4531 130.747 97.9661 130.966 98.3984C131.19 98.8307 131.505 99.1641 131.911 99.3984C132.317 99.6328 132.799 99.75 133.356 99.75C133.726 99.75 134.065 99.6979 134.372 99.5938C134.679 99.4896 134.942 99.3333 135.161 99.125C135.38 98.9167 135.547 98.6615 135.661 98.3594L138.739 98.5625C138.583 99.3021 138.263 99.9479 137.778 100.5C137.299 101.047 136.679 101.474 135.919 101.781C135.164 102.083 134.291 102.234 133.302 102.234Z" fill="#434343"/>
</g>
<rect x="3.5" y="3.5" width="180" height="180" rx="90" stroke="#434343" stroke-width="7"/>
<defs>
<clipPath id="clip0_235_172">
<rect width="187" height="187" rx="93.5" fill="white"/>
</clipPath>
</defs>
</svg>
