<svg width="34" height="68" viewBox="0 0 34 68" fill="none" xmlns="http://www.w3.org/2000/svg">
<path d="M14.0221 12.8672C14.5215 8.41765 12.9233 -0.382621 2.53496 0.0128967C3.03431 5.28642 6.03082 15.2402 14.0221 12.8672Z" fill="#F8C764"/>
<path d="M8.02986 59.8353C11.2263 53.1115 5.69914 48.4641 2.53602 46.981C-2.45892 53.9025 0.03936 63.7905 9.02929 67.2512C16.2212 70.0199 20.3499 64.4497 21.5153 61.3185L24.0125 55.8801C18.0192 53.9025 10.8602 57.6929 8.02986 59.8353Z" fill="#F8C764"/>
<path d="M16.0187 42.7215C15.9191 35.291 8.89448 33.5078 5.39464 33.545C3.96467 41.9326 10.5836 49.7402 20.1968 48.956C27.8874 48.3286 29.1361 41.5314 28.7992 38.2111L28.6394 32.2394C22.3763 33.0585 17.616 39.5687 16.0187 42.7215Z" fill="#F8C764"/>
<path d="M15.6635 24.6395C13.4039 17.553 6.15824 17.8504 2.81785 18.8849C3.89158 27.3245 12.5034 32.9114 21.48 29.4168C28.6613 26.6212 27.8773 19.7561 26.5876 16.6731L24.6952 11.0005C18.9367 13.5724 16.2747 21.1648 15.6635 24.6395Z" fill="#F8C764"/>
</svg>
