<svg width="68" height="69" viewBox="0 0 68 69" fill="none" xmlns="http://www.w3.org/2000/svg">
<path d="M8.83273 55.0266C7.01692 53.3006 8.54501 35.2892 9.8685 26.5427C20.5717 22.8599 56.878 24.8168 56.878 24.8168C56.878 24.8168 61.3664 52.6101 59.8285 55.0266C56.5451 60.1855 24.6297 70.0416 8.83273 55.0266Z" fill="#F0C54A"/>
<path d="M33.2529 17.4126C42.5794 17.4126 50.3898 24.2418 52.4189 33.4087C52.6966 33.3343 52.9831 33.2944 53.2764 33.2944C55.7552 33.2944 57.7646 36.077 57.7646 39.5093C57.7646 42.9414 55.7552 45.7241 53.2764 45.7241C52.7245 45.7241 52.1964 45.5848 51.708 45.3325C48.9276 53.2213 41.7148 58.8432 33.2529 58.8433C24.8785 58.8433 17.7268 53.3372 14.8848 45.5767C14.5732 45.6715 14.2501 45.7241 13.918 45.7241C11.4392 45.7241 9.42977 42.9414 9.42969 39.5093C9.42969 36.077 11.4391 33.2944 13.918 33.2944C13.9828 33.2944 14.0472 33.2965 14.1113 33.3003C16.1779 24.188 23.9633 17.4126 33.2529 17.4126Z" fill="#FDD29D"/>
<path d="M28.7656 48.0869C28.7656 48.0869 29.4631 49.8666 32.9157 49.8666C36.3683 49.8666 37.2245 48.0869 37.2245 48.0869" stroke="#A2673E" stroke-width="1.7263" stroke-linecap="round"/>
<ellipse cx="33.0801" cy="43.8251" rx="2.24418" ry="1.55367" fill="#FEC07D"/>
<ellipse cx="23.7613" cy="38.8188" rx="2.58944" ry="3.10733" fill="#373635"/>
<ellipse cx="42.4019" cy="38.8188" rx="2.58944" ry="3.10733" fill="#373635"/>
<path d="M56.5599 35.3521C55.0407 33.2806 52.2033 36.5856 52.2033 36.5856C52.2033 36.5856 35.326 32.4177 33.4271 22.7505C31.7046 32.901 14.0525 36.9307 14.0525 36.9307C14.0525 34.7211 12.2109 34.3988 11.2901 34.5139C2.57836 8.05608 43.9201 -5.94734 55.3106 19.15C57.9333 24.9288 57.3655 32.6476 56.5599 35.3521Z" fill="#F0C54A"/>
</svg>
